<svg width="88" height="80" viewBox="0 0 88 80" fill="none" xmlns="http://www.w3.org/2000/svg">
<g opacity="0.4">
<g filter="url(#filter0_d_1_8352)">
<path fill-rule="evenodd" clip-rule="evenodd" d="M55 30C55 38.2845 48.2845 45 40 45C31.7155 45 25 38.2845 25 30C25 21.7155 31.7155 15 40 15C48.2845 15 55 21.7155 55 30ZM40 19.875C40.2984 19.875 40.5845 19.9935 40.7955 20.2045C41.0065 20.4155 41.125 20.7016 41.125 21V21.4755C43.57 21.9135 45.625 23.751 45.625 26.25C45.625 26.5484 45.5065 26.8345 45.2955 27.0455C45.0845 27.2565 44.7984 27.375 44.5 27.375C44.2016 27.375 43.9155 27.2565 43.7045 27.0455C43.4935 26.8345 43.375 26.5484 43.375 26.25C43.375 25.233 42.529 24.1545 41.125 23.7705V28.9755C43.57 29.4135 45.625 31.251 45.625 33.75C45.625 36.249 43.57 38.0865 41.125 38.5245V39C41.125 39.2984 41.0065 39.5845 40.7955 39.7955C40.5845 40.0065 40.2984 40.125 40 40.125C39.7016 40.125 39.4155 40.0065 39.2045 39.7955C38.9935 39.5845 38.875 39.2984 38.875 39V38.5245C36.43 38.0865 34.375 36.249 34.375 33.75C34.375 33.4516 34.4935 33.1655 34.7045 32.9545C34.9155 32.7435 35.2016 32.625 35.5 32.625C35.7984 32.625 36.0845 32.7435 36.2955 32.9545C36.5065 33.1655 36.625 33.4516 36.625 33.75C36.625 34.767 37.471 35.8455 38.875 36.228V31.0245C36.43 30.5865 34.375 28.749 34.375 26.25C34.375 23.751 36.43 21.9135 38.875 21.4755V21C38.875 20.7016 38.9935 20.4155 39.2045 20.2045C39.4155 19.9935 39.7016 19.875 40 19.875Z" fill="url(#paint0_linear_1_8352)"/>
<path d="M40 19.875C40.2984 19.875 40.5845 19.9935 40.7955 20.2045C41.0065 20.4155 41.125 20.7016 41.125 21V21.4755C43.57 21.9135 45.625 23.751 45.625 26.25C45.625 26.5484 45.5065 26.8345 45.2955 27.0455C45.0845 27.2565 44.7984 27.375 44.5 27.375C44.2016 27.375 43.9155 27.2565 43.7045 27.0455C43.4935 26.8345 43.375 26.5484 43.375 26.25C43.375 25.233 42.529 24.1545 41.125 23.7705V28.9755C43.57 29.4135 45.625 31.251 45.625 33.75C45.625 36.249 43.57 38.0865 41.125 38.5245V39C41.125 39.2984 41.0065 39.5845 40.7955 39.7955C40.5845 40.0065 40.2984 40.125 40 40.125C39.7016 40.125 39.4155 40.0065 39.2045 39.7955C38.9935 39.5845 38.875 39.2984 38.875 39V38.5245C36.43 38.0865 34.375 36.249 34.375 33.75C34.375 33.4516 34.4935 33.1655 34.7045 32.9545C34.9155 32.7435 35.2016 32.625 35.5 32.625C35.7984 32.625 36.0845 32.7435 36.2955 32.9545C36.5065 33.1655 36.625 33.4516 36.625 33.75C36.625 34.767 37.471 35.8455 38.875 36.228V31.0245C36.43 30.5865 34.375 28.749 34.375 26.25C34.375 23.751 36.43 21.9135 38.875 21.4755V21C38.875 20.7016 38.9935 20.4155 39.2045 20.2045C39.4155 19.9935 39.7016 19.875 40 19.875Z" fill="white"/>
<path d="M40 15.25C48.1464 15.25 54.75 21.8536 54.75 30C54.75 38.1464 48.1464 44.75 40 44.75C31.8536 44.75 25.25 38.1464 25.25 30C25.25 21.8536 31.8536 15.25 40 15.25ZM40.875 21.6846L41.0811 21.7217C43.4447 22.1452 45.375 23.9069 45.375 26.25C45.375 26.4531 45.3044 26.649 45.1768 26.8047L45.1191 26.8691C44.955 27.0332 44.7321 27.125 44.5 27.125C44.2679 27.125 44.045 27.0332 43.8809 26.8691L43.8232 26.8047C43.6956 26.649 43.625 26.4531 43.625 26.25C43.625 25.0947 42.6768 23.9357 41.1914 23.5293L40.875 23.4434V29.1846L41.0811 29.2217C43.4447 29.6452 45.375 31.4069 45.375 33.75C45.375 36.0201 43.5631 37.7439 41.3008 38.2344L41.0811 38.2783L40.875 38.3154V39C40.875 39.2031 40.8044 39.399 40.6768 39.5547L40.6191 39.6191C40.455 39.7832 40.2321 39.875 40 39.875C39.7679 39.875 39.545 39.7832 39.3809 39.6191L39.3232 39.5547C39.1956 39.399 39.125 39.2031 39.125 39V38.3154L38.9189 38.2783C36.5553 37.8548 34.625 36.0931 34.625 33.75C34.625 33.5179 34.7168 33.295 34.8809 33.1309C35.045 32.9668 35.2679 32.875 35.5 32.875C35.7321 32.875 35.955 32.9668 36.1191 33.1309C36.2832 33.295 36.375 33.5179 36.375 33.75C36.375 34.9054 37.3237 36.0639 38.8096 36.4688L39.125 36.5557V30.8154L38.9189 30.7783C36.5553 30.3548 34.625 28.5931 34.625 26.25C34.625 23.9799 36.4369 22.2561 38.6992 21.7656L38.9189 21.7217L39.125 21.6846V21C39.125 20.7679 39.2168 20.545 39.3809 20.3809C39.545 20.2168 39.7679 20.125 40 20.125C40.2321 20.125 40.455 20.2168 40.6191 20.3809C40.7832 20.545 40.875 20.7679 40.875 21V21.6846ZM41.375 21C41.375 20.6353 41.2305 20.2852 40.9727 20.0273L40.8711 19.9365C40.6264 19.7361 40.319 19.625 40 19.625C39.6353 19.625 39.2852 19.7695 39.0273 20.0273C38.7695 20.2852 38.625 20.6353 38.625 21V21.2695C36.1873 21.7867 34.125 23.6676 34.125 26.25C34.125 28.8323 36.1874 30.7122 38.625 31.2295V35.8828C37.5012 35.4603 36.875 34.5558 36.875 33.75C36.875 33.3853 36.7305 33.0352 36.4727 32.7773L36.3711 32.6865C36.1264 32.4861 35.819 32.375 35.5 32.375C35.1353 32.375 34.7852 32.5195 34.5273 32.7773C34.2695 33.0352 34.125 33.3853 34.125 33.75C34.125 36.3323 36.1874 38.2122 38.625 38.7295V39C38.625 39.3647 38.7695 39.7148 39.0273 39.9727C39.2852 40.2305 39.6353 40.375 40 40.375C40.319 40.375 40.6264 40.2639 40.8711 40.0635L40.9727 39.9727C41.2305 39.7148 41.375 39.3647 41.375 39V38.7295C43.8126 38.2122 45.875 36.3323 45.875 33.75C45.875 31.1676 43.8127 29.2867 41.375 28.7695V24.1162C42.4988 24.5399 43.125 25.4442 43.125 26.25C43.125 26.6147 43.2695 26.9648 43.5273 27.2227C43.7852 27.4805 44.1353 27.625 44.5 27.625C44.819 27.625 45.1264 27.5139 45.3711 27.3135L45.4727 27.2227C45.7305 26.9648 45.875 26.6147 45.875 26.25C45.875 23.6676 43.8127 21.7867 41.375 21.2695V21Z" stroke="url(#paint1_linear_1_8352)" stroke-width="0.5"/>
</g>
<path d="M38.875 23.7705C37.471 24.1545 36.625 25.233 36.625 26.25C36.625 27.267 37.471 28.3455 38.875 28.728V23.7705ZM41.125 31.272V36.228C42.529 35.8455 43.375 34.767 43.375 33.75C43.375 32.733 42.529 31.6545 41.125 31.272Z" fill="#14532D"/>
</g>
<g opacity="0.5">
<g opacity="0.8" filter="url(#filter1_d_1_8352)">
<path fill-rule="evenodd" clip-rule="evenodd" d="M59 30C59 38.2845 52.2845 45 44 45C35.7155 45 29 38.2845 29 30C29 21.7155 35.7155 15 44 15C52.2845 15 59 21.7155 59 30ZM44 19.875C44.2984 19.875 44.5845 19.9935 44.7955 20.2045C45.0065 20.4155 45.125 20.7016 45.125 21V21.4755C47.57 21.9135 49.625 23.751 49.625 26.25C49.625 26.5484 49.5065 26.8345 49.2955 27.0455C49.0845 27.2565 48.7984 27.375 48.5 27.375C48.2016 27.375 47.9155 27.2565 47.7045 27.0455C47.4935 26.8345 47.375 26.5484 47.375 26.25C47.375 25.233 46.529 24.1545 45.125 23.7705V28.9755C47.57 29.4135 49.625 31.251 49.625 33.75C49.625 36.249 47.57 38.0865 45.125 38.5245V39C45.125 39.2984 45.0065 39.5845 44.7955 39.7955C44.5845 40.0065 44.2984 40.125 44 40.125C43.7016 40.125 43.4155 40.0065 43.2045 39.7955C42.9935 39.5845 42.875 39.2984 42.875 39V38.5245C40.43 38.0865 38.375 36.249 38.375 33.75C38.375 33.4516 38.4935 33.1655 38.7045 32.9545C38.9155 32.7435 39.2016 32.625 39.5 32.625C39.7984 32.625 40.0845 32.7435 40.2955 32.9545C40.5065 33.1655 40.625 33.4516 40.625 33.75C40.625 34.767 41.471 35.8455 42.875 36.228V31.0245C40.43 30.5865 38.375 28.749 38.375 26.25C38.375 23.751 40.43 21.9135 42.875 21.4755V21C42.875 20.7016 42.9935 20.4155 43.2045 20.2045C43.4155 19.9935 43.7016 19.875 44 19.875Z" fill="url(#paint2_linear_1_8352)"/>
<path d="M44 19.875C44.2984 19.875 44.5845 19.9935 44.7955 20.2045C45.0065 20.4155 45.125 20.7016 45.125 21V21.4755C47.57 21.9135 49.625 23.751 49.625 26.25C49.625 26.5484 49.5065 26.8345 49.2955 27.0455C49.0845 27.2565 48.7984 27.375 48.5 27.375C48.2016 27.375 47.9155 27.2565 47.7045 27.0455C47.4935 26.8345 47.375 26.5484 47.375 26.25C47.375 25.233 46.529 24.1545 45.125 23.7705V28.9755C47.57 29.4135 49.625 31.251 49.625 33.75C49.625 36.249 47.57 38.0865 45.125 38.5245V39C45.125 39.2984 45.0065 39.5845 44.7955 39.7955C44.5845 40.0065 44.2984 40.125 44 40.125C43.7016 40.125 43.4155 40.0065 43.2045 39.7955C42.9935 39.5845 42.875 39.2984 42.875 39V38.5245C40.43 38.0865 38.375 36.249 38.375 33.75C38.375 33.4516 38.4935 33.1655 38.7045 32.9545C38.9155 32.7435 39.2016 32.625 39.5 32.625C39.7984 32.625 40.0845 32.7435 40.2955 32.9545C40.5065 33.1655 40.625 33.4516 40.625 33.75C40.625 34.767 41.471 35.8455 42.875 36.228V31.0245C40.43 30.5865 38.375 28.749 38.375 26.25C38.375 23.751 40.43 21.9135 42.875 21.4755V21C42.875 20.7016 42.9935 20.4155 43.2045 20.2045C43.4155 19.9935 43.7016 19.875 44 19.875Z" fill="white"/>
<path d="M44 15.25C52.1464 15.25 58.75 21.8536 58.75 30C58.75 38.1464 52.1464 44.75 44 44.75C35.8536 44.75 29.25 38.1464 29.25 30C29.25 21.8536 35.8536 15.25 44 15.25ZM44.875 21.6846L45.0811 21.7217C47.4447 22.1452 49.375 23.9069 49.375 26.25C49.375 26.4531 49.3044 26.649 49.1768 26.8047L49.1191 26.8691C48.955 27.0332 48.7321 27.125 48.5 27.125C48.2679 27.125 48.045 27.0332 47.8809 26.8691L47.8232 26.8047C47.6956 26.649 47.625 26.4531 47.625 26.25C47.625 25.0947 46.6768 23.9357 45.1914 23.5293L44.875 23.4434V29.1846L45.0811 29.2217C47.4447 29.6452 49.375 31.4069 49.375 33.75C49.375 36.0201 47.5631 37.7439 45.3008 38.2344L45.0811 38.2783L44.875 38.3154V39C44.875 39.2031 44.8044 39.399 44.6768 39.5547L44.6191 39.6191C44.455 39.7832 44.2321 39.875 44 39.875C43.7679 39.875 43.545 39.7832 43.3809 39.6191L43.3232 39.5547C43.1956 39.399 43.125 39.2031 43.125 39V38.3154L42.9189 38.2783C40.5553 37.8548 38.625 36.0931 38.625 33.75C38.625 33.5179 38.7168 33.295 38.8809 33.1309C39.045 32.9668 39.2679 32.875 39.5 32.875C39.7321 32.875 39.955 32.9668 40.1191 33.1309C40.2832 33.295 40.375 33.5179 40.375 33.75C40.375 34.9054 41.3237 36.0639 42.8096 36.4688L43.125 36.5557V30.8154L42.9189 30.7783C40.5553 30.3548 38.625 28.5931 38.625 26.25C38.625 23.9799 40.4369 22.2561 42.6992 21.7656L42.9189 21.7217L43.125 21.6846V21C43.125 20.7679 43.2168 20.545 43.3809 20.3809C43.545 20.2168 43.7679 20.125 44 20.125C44.2321 20.125 44.455 20.2168 44.6191 20.3809C44.7832 20.545 44.875 20.7679 44.875 21V21.6846ZM45.375 21C45.375 20.6353 45.2305 20.2852 44.9727 20.0273L44.8711 19.9365C44.6264 19.7361 44.319 19.625 44 19.625C43.6353 19.625 43.2852 19.7695 43.0273 20.0273C42.7695 20.2852 42.625 20.6353 42.625 21V21.2695C40.1873 21.7867 38.125 23.6676 38.125 26.25C38.125 28.8323 40.1874 30.7122 42.625 31.2295V35.8828C41.5012 35.4603 40.875 34.5558 40.875 33.75C40.875 33.3853 40.7305 33.0352 40.4727 32.7773L40.3711 32.6865C40.1264 32.4861 39.819 32.375 39.5 32.375C39.1353 32.375 38.7852 32.5195 38.5273 32.7773C38.2695 33.0352 38.125 33.3853 38.125 33.75C38.125 36.3323 40.1874 38.2122 42.625 38.7295V39C42.625 39.3647 42.7695 39.7148 43.0273 39.9727C43.2852 40.2305 43.6353 40.375 44 40.375C44.319 40.375 44.6264 40.2639 44.8711 40.0635L44.9727 39.9727C45.2305 39.7148 45.375 39.3647 45.375 39V38.7295C47.8126 38.2122 49.875 36.3323 49.875 33.75C49.875 31.1676 47.8127 29.2867 45.375 28.7695V24.1162C46.4988 24.5399 47.125 25.4442 47.125 26.25C47.125 26.6147 47.2695 26.9648 47.5273 27.2227C47.7852 27.4805 48.1353 27.625 48.5 27.625C48.819 27.625 49.1264 27.5139 49.3711 27.3135L49.4727 27.2227C49.7305 26.9648 49.875 26.6147 49.875 26.25C49.875 23.6676 47.8127 21.7867 45.375 21.2695V21Z" stroke="url(#paint3_linear_1_8352)" stroke-width="0.5"/>
</g>
<path d="M42.875 23.7705C41.471 24.1545 40.625 25.233 40.625 26.25C40.625 27.267 41.471 28.3455 42.875 28.728V23.7705ZM45.125 31.272V36.228C46.529 35.8455 47.375 34.767 47.375 33.75C47.375 32.733 46.529 31.6545 45.125 31.272Z" fill="#14532D"/>
</g>
<g filter="url(#filter2_d_1_8352)">
<path fill-rule="evenodd" clip-rule="evenodd" d="M63 30C63 38.2845 56.2845 45 48 45C39.7155 45 33 38.2845 33 30C33 21.7155 39.7155 15 48 15C56.2845 15 63 21.7155 63 30ZM48 19.875C48.2984 19.875 48.5845 19.9935 48.7955 20.2045C49.0065 20.4155 49.125 20.7016 49.125 21V21.4755C51.57 21.9135 53.625 23.751 53.625 26.25C53.625 26.5484 53.5065 26.8345 53.2955 27.0455C53.0845 27.2565 52.7984 27.375 52.5 27.375C52.2016 27.375 51.9155 27.2565 51.7045 27.0455C51.4935 26.8345 51.375 26.5484 51.375 26.25C51.375 25.233 50.529 24.1545 49.125 23.7705V28.9755C51.57 29.4135 53.625 31.251 53.625 33.75C53.625 36.249 51.57 38.0865 49.125 38.5245V39C49.125 39.2984 49.0065 39.5845 48.7955 39.7955C48.5845 40.0065 48.2984 40.125 48 40.125C47.7016 40.125 47.4155 40.0065 47.2045 39.7955C46.9935 39.5845 46.875 39.2984 46.875 39V38.5245C44.43 38.0865 42.375 36.249 42.375 33.75C42.375 33.4516 42.4935 33.1655 42.7045 32.9545C42.9155 32.7435 43.2016 32.625 43.5 32.625C43.7984 32.625 44.0845 32.7435 44.2955 32.9545C44.5065 33.1655 44.625 33.4516 44.625 33.75C44.625 34.767 45.471 35.8455 46.875 36.228V31.0245C44.43 30.5865 42.375 28.749 42.375 26.25C42.375 23.751 44.43 21.9135 46.875 21.4755V21C46.875 20.7016 46.9935 20.4155 47.2045 20.2045C47.4155 19.9935 47.7016 19.875 48 19.875Z" fill="url(#paint4_linear_1_8352)"/>
<path d="M48 19.875C48.2984 19.875 48.5845 19.9935 48.7955 20.2045C49.0065 20.4155 49.125 20.7016 49.125 21V21.4755C51.57 21.9135 53.625 23.751 53.625 26.25C53.625 26.5484 53.5065 26.8345 53.2955 27.0455C53.0845 27.2565 52.7984 27.375 52.5 27.375C52.2016 27.375 51.9155 27.2565 51.7045 27.0455C51.4935 26.8345 51.375 26.5484 51.375 26.25C51.375 25.233 50.529 24.1545 49.125 23.7705V28.9755C51.57 29.4135 53.625 31.251 53.625 33.75C53.625 36.249 51.57 38.0865 49.125 38.5245V39C49.125 39.2984 49.0065 39.5845 48.7955 39.7955C48.5845 40.0065 48.2984 40.125 48 40.125C47.7016 40.125 47.4155 40.0065 47.2045 39.7955C46.9935 39.5845 46.875 39.2984 46.875 39V38.5245C44.43 38.0865 42.375 36.249 42.375 33.75C42.375 33.4516 42.4935 33.1655 42.7045 32.9545C42.9155 32.7435 43.2016 32.625 43.5 32.625C43.7984 32.625 44.0845 32.7435 44.2955 32.9545C44.5065 33.1655 44.625 33.4516 44.625 33.75C44.625 34.767 45.471 35.8455 46.875 36.228V31.0245C44.43 30.5865 42.375 28.749 42.375 26.25C42.375 23.751 44.43 21.9135 46.875 21.4755V21C46.875 20.7016 46.9935 20.4155 47.2045 20.2045C47.4155 19.9935 47.7016 19.875 48 19.875Z" fill="white"/>
<path d="M48 15.25C56.1464 15.25 62.75 21.8536 62.75 30C62.75 38.1464 56.1464 44.75 48 44.75C39.8536 44.75 33.25 38.1464 33.25 30C33.25 21.8536 39.8536 15.25 48 15.25ZM48.875 21.6846L49.0811 21.7217C51.4447 22.1452 53.375 23.9069 53.375 26.25C53.375 26.4531 53.3044 26.649 53.1768 26.8047L53.1191 26.8691C52.955 27.0332 52.7321 27.125 52.5 27.125C52.2679 27.125 52.045 27.0332 51.8809 26.8691L51.8232 26.8047C51.6956 26.649 51.625 26.4531 51.625 26.25C51.625 25.0947 50.6768 23.9357 49.1914 23.5293L48.875 23.4434V29.1846L49.0811 29.2217C51.4447 29.6452 53.375 31.4069 53.375 33.75C53.375 36.0201 51.5631 37.7439 49.3008 38.2344L49.0811 38.2783L48.875 38.3154V39C48.875 39.2031 48.8044 39.399 48.6768 39.5547L48.6191 39.6191C48.455 39.7832 48.2321 39.875 48 39.875C47.7679 39.875 47.545 39.7832 47.3809 39.6191L47.3232 39.5547C47.1956 39.399 47.125 39.2031 47.125 39V38.3154L46.9189 38.2783C44.5553 37.8548 42.625 36.0931 42.625 33.75C42.625 33.5179 42.7168 33.295 42.8809 33.1309C43.045 32.9668 43.2679 32.875 43.5 32.875C43.7321 32.875 43.955 32.9668 44.1191 33.1309C44.2832 33.295 44.375 33.5179 44.375 33.75C44.375 34.9054 45.3237 36.0639 46.8096 36.4688L47.125 36.5557V30.8154L46.9189 30.7783C44.5553 30.3548 42.625 28.5931 42.625 26.25C42.625 23.9799 44.4369 22.2561 46.6992 21.7656L46.9189 21.7217L47.125 21.6846V21C47.125 20.7679 47.2168 20.545 47.3809 20.3809C47.545 20.2168 47.7679 20.125 48 20.125C48.2321 20.125 48.455 20.2168 48.6191 20.3809C48.7832 20.545 48.875 20.7679 48.875 21V21.6846ZM49.375 21C49.375 20.6353 49.2305 20.2852 48.9727 20.0273L48.8711 19.9365C48.6264 19.7361 48.319 19.625 48 19.625C47.6353 19.625 47.2852 19.7695 47.0273 20.0273C46.7695 20.2852 46.625 20.6353 46.625 21V21.2695C44.1873 21.7867 42.125 23.6676 42.125 26.25C42.125 28.8323 44.1874 30.7122 46.625 31.2295V35.8828C45.5012 35.4603 44.875 34.5558 44.875 33.75C44.875 33.3853 44.7305 33.0352 44.4727 32.7773L44.3711 32.6865C44.1264 32.4861 43.819 32.375 43.5 32.375C43.1353 32.375 42.7852 32.5195 42.5273 32.7773C42.2695 33.0352 42.125 33.3853 42.125 33.75C42.125 36.3323 44.1874 38.2122 46.625 38.7295V39C46.625 39.3647 46.7695 39.7148 47.0273 39.9727C47.2852 40.2305 47.6353 40.375 48 40.375C48.319 40.375 48.6264 40.2639 48.8711 40.0635L48.9727 39.9727C49.2305 39.7148 49.375 39.3647 49.375 39V38.7295C51.8126 38.2122 53.875 36.3323 53.875 33.75C53.875 31.1676 51.8127 29.2867 49.375 28.7695V24.1162C50.4988 24.5399 51.125 25.4442 51.125 26.25C51.125 26.6147 51.2695 26.9648 51.5273 27.2227C51.7852 27.4805 52.1353 27.625 52.5 27.625C52.819 27.625 53.1264 27.5139 53.3711 27.3135L53.4727 27.2227C53.7305 26.9648 53.875 26.6147 53.875 26.25C53.875 23.6676 51.8127 21.7867 49.375 21.2695V21Z" stroke="url(#paint5_linear_1_8352)" stroke-width="0.5"/>
</g>
<path d="M46.875 23.7705C45.471 24.1545 44.625 25.233 44.625 26.25C44.625 27.267 45.471 28.3455 46.875 28.728V23.7705ZM49.125 31.272V36.228C50.529 35.8455 51.375 34.767 51.375 33.75C51.375 32.733 50.529 31.6545 49.125 31.272Z" fill="#21894A"/>
<defs>
<filter id="filter0_d_1_8352" x="0" y="0" width="80" height="80" filterUnits="userSpaceOnUse" color-interpolation-filters="sRGB">
<feFlood flood-opacity="0" result="BackgroundImageFix"/>
<feColorMatrix in="SourceAlpha" type="matrix" values="0 0 0 0 0 0 0 0 0 0 0 0 0 0 0 0 0 0 127 0" result="hardAlpha"/>
<feOffset dy="10"/>
<feGaussianBlur stdDeviation="12.5"/>
<feComposite in2="hardAlpha" operator="out"/>
<feColorMatrix type="matrix" values="0 0 0 0 0 0 0 0 0 0 0 0 0 0 0 0 0 0 0.05 0"/>
<feBlend mode="normal" in2="BackgroundImageFix" result="effect1_dropShadow_1_8352"/>
<feBlend mode="normal" in="SourceGraphic" in2="effect1_dropShadow_1_8352" result="shape"/>
</filter>
<filter id="filter1_d_1_8352" x="4" y="0" width="80" height="80" filterUnits="userSpaceOnUse" color-interpolation-filters="sRGB">
<feFlood flood-opacity="0" result="BackgroundImageFix"/>
<feColorMatrix in="SourceAlpha" type="matrix" values="0 0 0 0 0 0 0 0 0 0 0 0 0 0 0 0 0 0 127 0" result="hardAlpha"/>
<feOffset dy="10"/>
<feGaussianBlur stdDeviation="12.5"/>
<feComposite in2="hardAlpha" operator="out"/>
<feColorMatrix type="matrix" values="0 0 0 0 0 0 0 0 0 0 0 0 0 0 0 0 0 0 0.05 0"/>
<feBlend mode="normal" in2="BackgroundImageFix" result="effect1_dropShadow_1_8352"/>
<feBlend mode="normal" in="SourceGraphic" in2="effect1_dropShadow_1_8352" result="shape"/>
</filter>
<filter id="filter2_d_1_8352" x="8" y="0" width="80" height="80" filterUnits="userSpaceOnUse" color-interpolation-filters="sRGB">
<feFlood flood-opacity="0" result="BackgroundImageFix"/>
<feColorMatrix in="SourceAlpha" type="matrix" values="0 0 0 0 0 0 0 0 0 0 0 0 0 0 0 0 0 0 127 0" result="hardAlpha"/>
<feOffset dy="10"/>
<feGaussianBlur stdDeviation="12.5"/>
<feComposite in2="hardAlpha" operator="out"/>
<feColorMatrix type="matrix" values="0 0 0 0 0 0 0 0 0 0 0 0 0 0 0 0 0 0 0.05 0"/>
<feBlend mode="normal" in2="BackgroundImageFix" result="effect1_dropShadow_1_8352"/>
<feBlend mode="normal" in="SourceGraphic" in2="effect1_dropShadow_1_8352" result="shape"/>
</filter>
<linearGradient id="paint0_linear_1_8352" x1="51.3677" y1="17.5781" x2="25.0013" y2="39.0914" gradientUnits="userSpaceOnUse">
<stop stop-color="#32CD6F"/>
<stop offset="1" stop-color="#14532D"/>
</linearGradient>
<linearGradient id="paint1_linear_1_8352" x1="51.8386" y1="17.1094" x2="24.0517" y2="39.5836" gradientUnits="userSpaceOnUse">
<stop stop-color="white"/>
<stop offset="1" stop-color="#218749"/>
</linearGradient>
<linearGradient id="paint2_linear_1_8352" x1="55.3677" y1="17.5781" x2="29.0013" y2="39.0914" gradientUnits="userSpaceOnUse">
<stop stop-color="#32CD6F"/>
<stop offset="1" stop-color="#14532D"/>
</linearGradient>
<linearGradient id="paint3_linear_1_8352" x1="55.8386" y1="17.1094" x2="28.0517" y2="39.5836" gradientUnits="userSpaceOnUse">
<stop stop-color="white"/>
<stop offset="1" stop-color="#218749"/>
</linearGradient>
<linearGradient id="paint4_linear_1_8352" x1="59.3677" y1="17.5781" x2="33.0013" y2="39.0914" gradientUnits="userSpaceOnUse">
<stop stop-color="#32CD6F"/>
<stop offset="1" stop-color="#14532D"/>
</linearGradient>
<linearGradient id="paint5_linear_1_8352" x1="59.8386" y1="17.1094" x2="32.0517" y2="39.5836" gradientUnits="userSpaceOnUse">
<stop stop-color="white"/>
<stop offset="1" stop-color="#218749"/>
</linearGradient>
</defs>
</svg>
