<svg width="530" height="501" viewBox="0 0 530 501" fill="none" xmlns="http://www.w3.org/2000/svg">
<g style="mix-blend-mode:overlay" opacity="0.15">
<path d="M265 -13.5C275.764 -13.5 286.392 -11.0904 296.104 -6.44824C304.626 -2.37397 312.763 4.57143 328.896 18.3057L328.902 18.3105L328.907 18.3154C333.047 22.0496 337.391 25.5516 341.919 28.8047C349.731 34.0407 358.505 37.675 367.731 39.498C373.236 40.4025 378.786 41.0002 384.356 41.2871L384.371 41.2881L391.816 41.8877C408.126 43.2231 417.266 44.2153 425.049 46.9648C435.202 50.5493 444.423 56.3615 452.036 63.9746C459.65 71.5879 465.462 80.8093 469.047 90.9619C471.796 98.7445 472.789 107.884 474.124 124.193L474.724 131.639L474.725 131.653L474.847 133.741C475.166 138.607 475.721 143.454 476.511 148.267C478.332 157.492 481.965 166.264 487.198 174.076C490.447 178.613 493.952 182.962 497.696 187.1L497.706 187.111C511.441 203.245 518.388 211.382 522.462 219.903L522.895 220.828C531.843 240.289 531.7 262.746 522.462 282.11C518.388 290.632 511.441 298.769 497.706 314.902V314.903C492.208 321.326 489.484 324.521 487.207 327.923C481.99 335.736 478.346 344.519 476.511 353.747C475.922 356.75 475.582 359.858 475.171 364.781L474.724 370.374C473.036 391.49 472.189 402.157 469.047 411.052C465.462 421.204 459.65 430.425 452.036 438.038C444.423 445.651 435.202 451.464 425.049 455.049C416.154 458.191 405.487 459.037 384.371 460.725H384.37C375.938 461.385 371.747 461.727 367.742 462.512L367.743 462.513C358.514 464.348 349.732 467.965 341.92 473.208L341.919 473.209C338.517 475.486 335.321 478.208 328.897 483.706L328.896 483.707C312.763 497.441 304.626 504.388 296.104 508.462C276.432 517.846 253.568 517.846 233.896 508.462C225.374 504.388 217.237 497.441 201.104 483.707L201.103 483.706C195.081 478.552 191.895 475.837 188.717 473.642L188.081 473.209C180.268 467.992 171.485 464.348 162.257 462.513V462.512C158.253 461.727 154.061 461.385 145.63 460.725H145.629C124.513 459.037 113.846 458.191 104.951 455.049C94.7984 451.464 85.5773 445.651 77.9639 438.038C70.3505 430.425 64.5378 421.204 60.9531 411.052C58.2035 403.269 57.2114 394.13 55.876 377.82L55.2764 370.374C54.6156 361.943 54.2743 357.751 53.4893 353.747L53.3115 352.884C51.4258 343.971 47.8719 335.492 42.793 327.925V327.924C40.5162 324.522 37.7922 321.327 32.2939 314.903V314.902C18.5591 298.769 11.6125 290.632 7.53809 282.11C-1.84629 262.438 -1.84627 239.575 7.53809 219.903L7.92871 219.104C12.0534 210.865 18.9885 202.74 32.2939 187.111V187.11C37.7922 180.687 40.5162 177.491 42.793 174.089L43.2793 173.354C48.2597 165.728 51.7112 157.206 53.4893 148.266C54.3926 142.766 54.9887 137.22 55.2754 131.653L55.2764 131.639C56.9636 110.523 57.8108 99.8563 60.9531 90.9619C64.5378 80.8093 70.3504 71.5879 77.9639 63.9746C85.5773 56.3615 94.7985 50.5493 104.951 46.9648C113.846 43.8225 124.513 42.9752 145.629 41.2881H145.63C154.061 40.6274 158.252 40.286 162.257 39.501L163.121 39.3242C172.032 37.439 180.507 33.885 188.073 28.8086C192.609 25.5612 196.956 22.058 201.092 18.3154L201.104 18.3057C217.237 4.57145 225.374 -2.37397 233.896 -6.44824C243.608 -11.0904 254.236 -13.5 265 -13.5Z" fill="#E77F04"/>
<path d="M265 -13.5C275.764 -13.5 286.392 -11.0904 296.104 -6.44824C304.626 -2.37397 312.763 4.57143 328.896 18.3057L328.902 18.3105L328.907 18.3154C333.047 22.0496 337.391 25.5516 341.919 28.8047C349.731 34.0407 358.505 37.675 367.731 39.498C373.236 40.4025 378.786 41.0002 384.356 41.2871L384.371 41.2881L391.816 41.8877C408.126 43.2231 417.266 44.2153 425.049 46.9648C435.202 50.5493 444.423 56.3615 452.036 63.9746C459.65 71.5879 465.462 80.8093 469.047 90.9619C471.796 98.7445 472.789 107.884 474.124 124.193L474.724 131.639L474.725 131.653L474.847 133.741C475.166 138.607 475.721 143.454 476.511 148.267C478.332 157.492 481.965 166.264 487.198 174.076C490.447 178.613 493.952 182.962 497.696 187.1L497.706 187.111C511.441 203.245 518.388 211.382 522.462 219.903L522.895 220.828C531.843 240.289 531.7 262.746 522.462 282.11C518.388 290.632 511.441 298.769 497.706 314.902V314.903C492.208 321.326 489.484 324.521 487.207 327.923C481.99 335.736 478.346 344.519 476.511 353.747C475.922 356.75 475.582 359.858 475.171 364.781L474.724 370.374C473.036 391.49 472.189 402.157 469.047 411.052C465.462 421.204 459.65 430.425 452.036 438.038C444.423 445.651 435.202 451.464 425.049 455.049C416.154 458.191 405.487 459.037 384.371 460.725H384.37C375.938 461.385 371.747 461.727 367.742 462.512L367.743 462.513C358.514 464.348 349.732 467.965 341.92 473.208L341.919 473.209C338.517 475.486 335.321 478.208 328.897 483.706L328.896 483.707C312.763 497.441 304.626 504.388 296.104 508.462C276.432 517.846 253.568 517.846 233.896 508.462C225.374 504.388 217.237 497.441 201.104 483.707L201.103 483.706C195.081 478.552 191.895 475.837 188.717 473.642L188.081 473.209C180.268 467.992 171.485 464.348 162.257 462.513V462.512C158.253 461.727 154.061 461.385 145.63 460.725H145.629C124.513 459.037 113.846 458.191 104.951 455.049C94.7984 451.464 85.5773 445.651 77.9639 438.038C70.3505 430.425 64.5378 421.204 60.9531 411.052C58.2035 403.269 57.2114 394.13 55.876 377.82L55.2764 370.374C54.6156 361.943 54.2743 357.751 53.4893 353.747L53.3115 352.884C51.4258 343.971 47.8719 335.492 42.793 327.925V327.924C40.5162 324.522 37.7922 321.327 32.2939 314.903V314.902C18.5591 298.769 11.6125 290.632 7.53809 282.11C-1.84629 262.438 -1.84627 239.575 7.53809 219.903L7.92871 219.104C12.0534 210.865 18.9885 202.74 32.2939 187.111V187.11C37.7922 180.687 40.5162 177.491 42.793 174.089L43.2793 173.354C48.2597 165.728 51.7112 157.206 53.4893 148.266C54.3926 142.766 54.9887 137.22 55.2754 131.653L55.2764 131.639C56.9636 110.523 57.8108 99.8563 60.9531 90.9619C64.5378 80.8093 70.3504 71.5879 77.9639 63.9746C85.5773 56.3615 94.7985 50.5493 104.951 46.9648C113.846 43.8225 124.513 42.9752 145.629 41.2881H145.63C154.061 40.6274 158.252 40.286 162.257 39.501L163.121 39.3242C172.032 37.439 180.507 33.885 188.073 28.8086C192.609 25.5612 196.956 22.058 201.092 18.3154L201.104 18.3057C217.237 4.57145 225.374 -2.37397 233.896 -6.44824C243.608 -11.0904 254.236 -13.5 265 -13.5Z" stroke="#D4D4D8"/>
</g>
<g style="mix-blend-mode:overlay" opacity="0.2">
<path d="M264.999 16.7417C274.539 16.7417 283.957 18.8768 292.564 22.9907C300.118 26.6023 307.33 32.7587 321.613 44.9175L321.619 44.9224L321.624 44.9272C325.292 48.2356 329.141 51.3376 333.152 54.2192C340.06 58.8463 347.816 62.0577 355.973 63.6694C360.844 64.4698 365.756 64.9995 370.686 65.2534H370.7V65.2544C389.394 66.748 398.849 67.4982 406.733 70.2837C415.731 73.4604 423.903 78.611 430.65 85.3579C437.398 92.105 442.549 100.277 445.726 109.275C448.163 116.174 449.042 124.275 450.225 138.715L450.756 145.307L450.757 145.322H450.756C451.01 150.248 451.538 155.156 452.337 160.024C453.948 168.184 457.162 175.944 461.791 182.855L462.88 184.353C465.445 187.83 468.182 191.177 471.082 194.381L471.092 194.393C483.251 208.676 489.408 215.887 493.02 223.441L493.403 224.26C501.334 241.508 501.206 261.409 493.02 278.571V278.572C489.408 286.125 483.251 293.337 471.092 307.62L471.091 307.621C466.526 312.953 464.124 315.771 462.183 318.582L461.8 319.144C457.184 326.056 453.96 333.825 452.337 341.989C451.643 345.53 451.341 349.238 450.756 356.704V356.705C449.262 375.398 448.511 384.852 445.726 392.737C442.549 401.734 437.398 409.907 430.65 416.654C423.903 423.401 415.73 428.551 406.732 431.728C398.848 434.513 389.394 435.265 370.7 436.758H370.699C363.232 437.343 359.524 437.646 355.982 438.34L355.981 438.339C347.818 439.963 340.049 443.164 333.14 447.801L333.139 447.802C330.13 449.816 327.303 452.224 321.614 457.093L321.613 457.094C307.777 468.873 300.577 475.019 293.272 478.675L292.564 479.021C275.13 487.338 254.867 487.338 237.433 479.021C229.879 475.409 222.667 469.253 208.384 457.094L208.383 457.093C202.694 452.224 199.867 449.816 196.858 447.802V447.801C189.947 443.186 182.178 439.963 174.015 438.339C171.358 437.819 168.609 437.519 164.25 437.155L159.298 436.758C140.604 435.265 131.149 434.514 123.265 431.729C114.267 428.552 106.094 423.401 99.3467 416.654C92.5994 409.907 87.4483 401.734 84.2715 392.737C81.4859 384.852 80.7359 375.398 79.2422 356.705V356.704C78.6571 349.238 78.3545 345.53 77.6602 341.989C76.0365 333.824 72.8361 326.055 68.1982 319.145V319.144C66.1846 316.135 63.7754 313.309 58.9062 307.621L58.9053 307.62C46.7463 293.337 40.5902 286.125 36.9785 278.572L36.9775 278.571C28.6609 261.137 28.6608 240.875 36.9775 223.441H36.9785C40.5902 215.887 46.7461 208.676 58.9053 194.393L58.9062 194.392C63.7755 188.704 66.1846 185.876 68.1982 182.868L68.6289 182.217C73.0348 175.471 76.0872 167.932 77.6602 160.023C78.4595 155.156 78.9875 150.248 79.2412 145.322L79.2422 145.307C80.7358 126.614 81.4859 117.159 84.2715 109.275C87.4484 100.277 92.5994 92.105 99.3467 85.3579C106.094 78.6108 114.267 73.4605 123.265 70.2837C131.149 67.4982 140.604 66.748 159.298 65.2544L164.25 64.8579C168.608 64.4936 171.358 64.1931 174.014 63.6724L174.778 63.5161C182.661 61.8484 190.159 58.7049 196.852 54.2144C200.865 51.3403 204.712 48.2404 208.373 44.9282L208.378 44.9224L208.384 44.9175C222.667 32.7586 229.879 26.6023 237.433 22.9907C246.04 18.8767 255.459 16.7417 264.999 16.7417Z" fill="#E77F04"/>
<path d="M264.999 16.7417C274.539 16.7417 283.957 18.8768 292.564 22.9907C300.118 26.6023 307.33 32.7587 321.613 44.9175L321.619 44.9224L321.624 44.9272C325.292 48.2356 329.141 51.3376 333.152 54.2192C340.06 58.8463 347.816 62.0577 355.973 63.6694C360.844 64.4698 365.756 64.9995 370.686 65.2534H370.7V65.2544C389.394 66.748 398.849 67.4982 406.733 70.2837C415.731 73.4604 423.903 78.611 430.65 85.3579C437.398 92.105 442.549 100.277 445.726 109.275C448.163 116.174 449.042 124.275 450.225 138.715L450.756 145.307L450.757 145.322H450.756C451.01 150.248 451.538 155.156 452.337 160.024C453.948 168.184 457.162 175.944 461.791 182.855L462.88 184.353C465.445 187.83 468.182 191.177 471.082 194.381L471.092 194.393C483.251 208.676 489.408 215.887 493.02 223.441L493.403 224.26C501.334 241.508 501.206 261.409 493.02 278.571V278.572C489.408 286.125 483.251 293.337 471.092 307.62L471.091 307.621C466.526 312.953 464.124 315.771 462.183 318.582L461.8 319.144C457.184 326.056 453.96 333.825 452.337 341.989C451.643 345.53 451.341 349.238 450.756 356.704V356.705C449.262 375.398 448.511 384.852 445.726 392.737C442.549 401.734 437.398 409.907 430.65 416.654C423.903 423.401 415.73 428.551 406.732 431.728C398.848 434.513 389.394 435.265 370.7 436.758H370.699C363.232 437.343 359.524 437.646 355.982 438.34L355.981 438.339C347.818 439.963 340.049 443.164 333.14 447.801L333.139 447.802C330.13 449.816 327.303 452.224 321.614 457.093L321.613 457.094C307.777 468.873 300.577 475.019 293.272 478.675L292.564 479.021C275.13 487.338 254.867 487.338 237.433 479.021C229.879 475.409 222.667 469.253 208.384 457.094L208.383 457.093C202.694 452.224 199.867 449.816 196.858 447.802V447.801C189.947 443.186 182.178 439.963 174.015 438.339C171.358 437.819 168.609 437.519 164.25 437.155L159.298 436.758C140.604 435.265 131.149 434.514 123.265 431.729C114.267 428.552 106.094 423.401 99.3467 416.654C92.5994 409.907 87.4483 401.734 84.2715 392.737C81.4859 384.852 80.7359 375.398 79.2422 356.705V356.704C78.6571 349.238 78.3545 345.53 77.6602 341.989C76.0365 333.824 72.8361 326.055 68.1982 319.145V319.144C66.1846 316.135 63.7754 313.309 58.9062 307.621L58.9053 307.62C46.7463 293.337 40.5902 286.125 36.9785 278.572L36.9775 278.571C28.6609 261.137 28.6608 240.875 36.9775 223.441H36.9785C40.5902 215.887 46.7461 208.676 58.9053 194.393L58.9062 194.392C63.7755 188.704 66.1846 185.876 68.1982 182.868L68.6289 182.217C73.0348 175.471 76.0872 167.932 77.6602 160.023C78.4595 155.156 78.9875 150.248 79.2412 145.322L79.2422 145.307C80.7358 126.614 81.4859 117.159 84.2715 109.275C87.4484 100.277 92.5994 92.105 99.3467 85.3579C106.094 78.6108 114.267 73.4605 123.265 70.2837C131.149 67.4982 140.604 66.748 159.298 65.2544L164.25 64.8579C168.608 64.4936 171.358 64.1931 174.014 63.6724L174.778 63.5161C182.661 61.8484 190.159 58.7049 196.852 54.2144C200.865 51.3403 204.712 48.2404 208.373 44.9282L208.378 44.9224L208.384 44.9175C222.667 32.7586 229.879 26.6023 237.433 22.9907C246.04 18.8767 255.459 16.7417 264.999 16.7417Z" stroke="#D4D4D8"/>
</g>
<g style="mix-blend-mode:overlay" opacity="0.2">
<path d="M265 48.6177C273.249 48.6177 281.393 50.4646 288.836 54.022C294.553 56.7554 300.042 61.1732 309.587 69.2681L313.938 72.9683L313.943 72.9722L313.949 72.9771C317.115 75.8326 320.437 78.5103 323.899 80.9976C329.856 84.9875 336.545 87.7568 343.579 89.147C347.258 89.7514 350.963 90.1768 354.683 90.4204L356.278 90.5142L356.293 90.5151H356.292C372.432 91.8047 380.609 92.4526 387.429 94.8618C395.209 97.6088 402.276 102.064 408.11 107.898C413.945 113.732 418.399 120.798 421.146 128.579L421.367 129.222C423.309 135.053 424.051 141.997 425.035 154.022L425.494 159.714L425.495 159.728H425.494C425.714 163.979 426.169 168.216 426.858 172.417L426.993 173.076C428.423 179.872 431.144 186.334 435.012 192.108L435.951 193.401C437.849 195.973 439.856 198.463 441.967 200.864L443.031 202.056L443.041 202.068C453.539 214.4 458.864 220.636 461.988 227.169L462.32 227.878C469.178 242.792 469.067 260.001 461.988 274.84V274.841C458.864 281.375 453.539 287.611 443.041 299.943L443.04 299.944C438.834 304.857 436.757 307.295 435.021 309.889C431.039 315.851 428.259 322.553 426.858 329.594C426.409 331.885 426.151 334.256 425.836 338.019L425.494 342.295C424.205 358.435 423.556 366.612 421.146 373.431C418.399 381.211 413.945 388.278 408.11 394.113C402.276 399.947 395.209 404.401 387.429 407.148C381.461 409.256 374.456 410.016 361.984 411.037L356.292 411.496C349.842 412.001 346.644 412.26 343.59 412.859L343.591 412.86C336.768 414.217 330.266 416.85 324.447 420.65L323.886 421.022C321.291 422.758 318.853 424.835 313.939 429.042L313.938 429.042C301.992 439.212 295.766 444.527 289.448 447.689L288.836 447.989C273.996 455.068 256.786 455.179 241.872 448.321L241.163 447.989C234.629 444.865 228.393 439.541 216.061 429.042L216.06 429.042C211.146 424.835 208.708 422.758 206.113 421.022C200.152 417.041 193.45 414.26 186.408 412.86V412.859C184.118 412.41 181.747 412.152 177.983 411.837L173.707 411.496C157.566 410.206 149.39 409.557 142.57 407.148C134.79 404.401 127.723 399.947 121.889 394.113C116.054 388.278 111.6 381.211 108.853 373.431C106.744 367.464 105.985 360.459 104.964 347.988L104.505 342.295C103.999 335.846 103.739 332.648 103.141 329.594L103.005 328.935C101.566 322.134 98.8538 315.664 94.9785 309.89V309.889C93.2423 307.295 91.1649 304.857 86.959 299.944L86.958 299.943C76.4596 287.611 71.1347 281.375 68.0107 274.841V274.84C60.8193 259.765 60.8192 242.245 68.0107 227.169L68.3105 226.557C71.4729 220.24 76.7878 214.014 86.958 202.068L86.959 202.067C91.1652 197.153 93.2422 194.715 94.9785 192.121V192.12C98.9789 186.159 101.74 179.458 103.141 172.416C103.83 168.215 104.286 163.98 104.505 159.729V159.714C105.795 143.574 106.443 135.398 108.853 128.579L109.115 127.851C111.879 120.358 116.237 113.55 121.889 107.898C127.723 102.064 134.79 97.6088 142.57 94.8618C149.39 92.4526 157.567 91.8047 173.707 90.5151L177.983 90.1724C181.747 89.8578 184.118 89.5989 186.408 89.1499L187.067 89.0151C193.866 87.5767 200.334 84.8657 206.106 80.9927C209.57 78.5123 212.891 75.8366 216.05 72.978L216.056 72.9731L216.061 72.9683C228.393 62.4702 234.629 57.1459 241.163 54.022C248.606 50.4645 256.751 48.6177 265 48.6177Z" fill="#E77F04"/>
<path d="M265 48.6177C273.249 48.6177 281.393 50.4646 288.836 54.022C294.553 56.7554 300.042 61.1732 309.587 69.2681L313.938 72.9683L313.943 72.9722L313.949 72.9771C317.115 75.8326 320.437 78.5103 323.899 80.9976C329.856 84.9875 336.545 87.7568 343.579 89.147C347.258 89.7514 350.963 90.1768 354.683 90.4204L356.278 90.5142L356.293 90.5151H356.292C372.432 91.8047 380.609 92.4526 387.429 94.8618C395.209 97.6088 402.276 102.064 408.11 107.898C413.945 113.732 418.399 120.798 421.146 128.579L421.367 129.222C423.309 135.053 424.051 141.997 425.035 154.022L425.494 159.714L425.495 159.728H425.494C425.714 163.979 426.169 168.216 426.858 172.417L426.993 173.076C428.423 179.872 431.144 186.334 435.012 192.108L435.951 193.401C437.849 195.973 439.856 198.463 441.967 200.864L443.031 202.056L443.041 202.068C453.539 214.4 458.864 220.636 461.988 227.169L462.32 227.878C469.178 242.792 469.067 260.001 461.988 274.84V274.841C458.864 281.375 453.539 287.611 443.041 299.943L443.04 299.944C438.834 304.857 436.757 307.295 435.021 309.889C431.039 315.851 428.259 322.553 426.858 329.594C426.409 331.885 426.151 334.256 425.836 338.019L425.494 342.295C424.205 358.435 423.556 366.612 421.146 373.431C418.399 381.211 413.945 388.278 408.11 394.113C402.276 399.947 395.209 404.401 387.429 407.148C381.461 409.256 374.456 410.016 361.984 411.037L356.292 411.496C349.842 412.001 346.644 412.26 343.59 412.859L343.591 412.86C336.768 414.217 330.266 416.85 324.447 420.65L323.886 421.022C321.291 422.758 318.853 424.835 313.939 429.042L313.938 429.042C301.992 439.212 295.766 444.527 289.448 447.689L288.836 447.989C273.996 455.068 256.786 455.179 241.872 448.321L241.163 447.989C234.629 444.865 228.393 439.541 216.061 429.042L216.06 429.042C211.146 424.835 208.708 422.758 206.113 421.022C200.152 417.041 193.45 414.26 186.408 412.86V412.859C184.118 412.41 181.747 412.152 177.983 411.837L173.707 411.496C157.566 410.206 149.39 409.557 142.57 407.148C134.79 404.401 127.723 399.947 121.889 394.113C116.054 388.278 111.6 381.211 108.853 373.431C106.744 367.464 105.985 360.459 104.964 347.988L104.505 342.295C103.999 335.846 103.739 332.648 103.141 329.594L103.005 328.935C101.566 322.134 98.8538 315.664 94.9785 309.89V309.889C93.2423 307.295 91.1649 304.857 86.959 299.944L86.958 299.943C76.4596 287.611 71.1347 281.375 68.0107 274.841V274.84C60.8193 259.765 60.8192 242.245 68.0107 227.169L68.3105 226.557C71.4729 220.24 76.7878 214.014 86.958 202.068L86.959 202.067C91.1652 197.153 93.2422 194.715 94.9785 192.121V192.12C98.9789 186.159 101.74 179.458 103.141 172.416C103.83 168.215 104.286 163.98 104.505 159.729V159.714C105.795 143.574 106.443 135.398 108.853 128.579L109.115 127.851C111.879 120.358 116.237 113.55 121.889 107.898C127.723 102.064 134.79 97.6088 142.57 94.8618C149.39 92.4526 157.567 91.8047 173.707 90.5151L177.983 90.1724C181.747 89.8578 184.118 89.5989 186.408 89.1499L187.067 89.0151C193.866 87.5767 200.334 84.8657 206.106 80.9927C209.57 78.5123 212.891 75.8366 216.05 72.978L216.056 72.9731L216.061 72.9683C228.393 62.4702 234.629 57.1459 241.163 54.022C248.606 50.4645 256.751 48.6177 265 48.6177Z" stroke="#D4D4D8"/>
</g>
<g style="mix-blend-mode:overlay" opacity="0.3">
<path d="M264.999 79.6765C271.991 79.6765 278.894 81.2415 285.202 84.2566C290.049 86.5742 294.702 90.3199 302.777 97.1687L306.459 100.299L306.464 100.303L306.47 100.308C309.142 102.719 311.946 104.98 314.868 107.08C319.903 110.454 325.558 112.797 331.504 113.972C335.058 114.556 338.642 114.942 342.239 115.128H342.253V115.129C355.906 116.22 362.837 116.768 368.619 118.811L369.235 119.033C375.587 121.376 381.357 125.069 386.147 129.859C391.092 134.804 394.868 140.793 397.196 147.387C398.984 152.447 399.627 158.386 400.491 168.937L400.879 173.753L400.88 173.766C401.065 177.36 401.45 180.94 402.032 184.491C403.206 190.438 405.549 196.093 408.923 201.129C410.758 203.691 412.718 206.16 414.799 208.526L415.698 209.535L415.703 209.54L415.708 209.546C424.311 219.651 428.816 224.928 431.497 230.284L431.751 230.802C437.846 243.58 437.846 258.429 431.751 271.206V271.207C429.102 276.746 424.588 282.032 415.708 292.463V292.464C412.148 296.623 410.394 298.682 408.928 300.873C405.565 305.909 403.215 311.57 402.032 317.518C401.527 320.097 401.307 322.797 400.879 328.256V328.257C399.788 341.909 399.239 348.84 397.196 354.622C394.868 361.216 391.092 367.205 386.147 372.15C381.357 376.94 375.586 380.633 369.235 382.975L368.619 383.198C363.56 384.985 357.621 385.629 347.069 386.493L342.253 386.881C336.794 387.308 334.093 387.527 331.514 388.033L331.515 388.034C325.937 389.143 320.613 391.262 315.82 394.307L314.869 394.928C312.678 396.394 310.619 398.149 306.46 401.709L306.459 401.71C296.028 410.589 290.742 415.103 285.202 417.752L285.201 417.753C272.424 423.848 257.574 423.848 244.797 417.753V417.752C239.257 415.103 233.971 410.59 223.54 401.71L223.539 401.709C219.38 398.149 217.321 396.395 215.13 394.928C210.094 391.566 204.433 389.217 198.484 388.034V388.033C195.906 387.527 193.205 387.308 187.746 386.881H187.745C174.093 385.79 167.162 385.241 161.38 383.198C154.786 380.87 148.796 377.095 143.851 372.15C138.906 367.205 135.131 361.216 132.803 354.622C130.76 348.84 130.211 341.909 129.12 328.257V328.256C128.692 322.797 128.471 320.097 127.966 317.518L127.731 316.406C126.571 311.233 124.535 306.297 121.693 301.824L121.071 300.873C119.605 298.682 117.851 296.623 114.291 292.464L114.29 292.463C105.41 282.032 100.896 276.746 98.2471 271.207V271.206C92.152 258.429 92.1519 243.58 98.2471 230.802L98.501 230.284C101.182 224.927 105.687 219.651 114.29 209.546L114.291 209.545C117.851 205.386 119.605 203.327 121.071 201.136V201.135C124.45 196.101 126.783 190.44 127.966 184.491C128.549 180.94 128.934 177.36 129.119 173.766L129.12 173.753C130.211 160.1 130.76 153.17 132.803 147.387C135.131 140.793 138.906 134.804 143.851 129.859C148.796 124.914 154.786 121.139 161.38 118.811C167.162 116.769 174.093 116.219 187.745 115.129H187.746C193.205 114.701 195.906 114.48 198.484 113.974L199.596 113.739C205.134 112.496 210.401 110.251 215.119 107.087C218.049 104.989 220.857 102.727 223.528 100.309L223.534 100.303L223.54 100.299C233.971 91.4187 239.257 86.9053 244.797 84.2566C251.105 81.2416 258.008 79.6766 264.999 79.6765Z" fill="#E77F04"/>
<path d="M264.999 79.6765C271.991 79.6765 278.894 81.2415 285.202 84.2566C290.049 86.5742 294.702 90.3199 302.777 97.1687L306.459 100.299L306.464 100.303L306.47 100.308C309.142 102.719 311.946 104.98 314.868 107.08C319.903 110.454 325.558 112.797 331.504 113.972C335.058 114.556 338.642 114.942 342.239 115.128H342.253V115.129C355.906 116.22 362.837 116.768 368.619 118.811L369.235 119.033C375.587 121.376 381.357 125.069 386.147 129.859C391.092 134.804 394.868 140.793 397.196 147.387C398.984 152.447 399.627 158.386 400.491 168.937L400.879 173.753L400.88 173.766C401.065 177.36 401.45 180.94 402.032 184.491C403.206 190.438 405.549 196.093 408.923 201.129C410.758 203.691 412.718 206.16 414.799 208.526L415.698 209.535L415.703 209.54L415.708 209.546C424.311 219.651 428.816 224.928 431.497 230.284L431.751 230.802C437.846 243.58 437.846 258.429 431.751 271.206V271.207C429.102 276.746 424.588 282.032 415.708 292.463V292.464C412.148 296.623 410.394 298.682 408.928 300.873C405.565 305.909 403.215 311.57 402.032 317.518C401.527 320.097 401.307 322.797 400.879 328.256V328.257C399.788 341.909 399.239 348.84 397.196 354.622C394.868 361.216 391.092 367.205 386.147 372.15C381.357 376.94 375.586 380.633 369.235 382.975L368.619 383.198C363.56 384.985 357.621 385.629 347.069 386.493L342.253 386.881C336.794 387.308 334.093 387.527 331.514 388.033L331.515 388.034C325.937 389.143 320.613 391.262 315.82 394.307L314.869 394.928C312.678 396.394 310.619 398.149 306.46 401.709L306.459 401.71C296.028 410.589 290.742 415.103 285.202 417.752L285.201 417.753C272.424 423.848 257.574 423.848 244.797 417.753V417.752C239.257 415.103 233.971 410.59 223.54 401.71L223.539 401.709C219.38 398.149 217.321 396.395 215.13 394.928C210.094 391.566 204.433 389.217 198.484 388.034V388.033C195.906 387.527 193.205 387.308 187.746 386.881H187.745C174.093 385.79 167.162 385.241 161.38 383.198C154.786 380.87 148.796 377.095 143.851 372.15C138.906 367.205 135.131 361.216 132.803 354.622C130.76 348.84 130.211 341.909 129.12 328.257V328.256C128.692 322.797 128.471 320.097 127.966 317.518L127.731 316.406C126.571 311.233 124.535 306.297 121.693 301.824L121.071 300.873C119.605 298.682 117.851 296.623 114.291 292.464L114.29 292.463C105.41 282.032 100.896 276.746 98.2471 271.207V271.206C92.152 258.429 92.1519 243.58 98.2471 230.802L98.501 230.284C101.182 224.927 105.687 219.651 114.29 209.546L114.291 209.545C117.851 205.386 119.605 203.327 121.071 201.136V201.135C124.45 196.101 126.783 190.44 127.966 184.491C128.549 180.94 128.934 177.36 129.119 173.766L129.12 173.753C130.211 160.1 130.76 153.17 132.803 147.387C135.131 140.793 138.906 134.804 143.851 129.859C148.796 124.914 154.786 121.139 161.38 118.811C167.162 116.769 174.093 116.219 187.745 115.129H187.746C193.205 114.701 195.906 114.48 198.484 113.974L199.596 113.739C205.134 112.496 210.401 110.251 215.119 107.087C218.049 104.989 220.857 102.727 223.528 100.309L223.534 100.303L223.54 100.299C233.971 91.4187 239.257 86.9053 244.797 84.2566C251.105 81.2416 258.008 79.6766 264.999 79.6765Z" stroke="#D4D4D8"/>
</g>
<g style="mix-blend-mode:overlay" opacity="0.5">
<path d="M265 109.918C270.767 109.918 276.461 111.209 281.664 113.696C286.236 115.882 290.597 119.606 299.177 126.91L299.183 126.915L299.188 126.92C301.386 128.902 303.693 130.762 306.097 132.489C310.229 135.257 314.868 137.179 319.747 138.143C322.668 138.623 325.614 138.94 328.57 139.093L328.585 139.094L332.547 139.413C341.229 140.124 346.129 140.654 350.305 142.129C355.744 144.049 360.685 147.163 364.764 151.242C368.842 155.321 371.956 160.261 373.877 165.7L374.031 166.15C375.39 170.23 375.908 175.085 376.594 183.459L376.912 187.421L376.913 187.434C377.066 190.387 377.382 193.33 377.86 196.248C378.824 201.13 380.748 205.773 383.518 209.907C385.241 212.314 387.1 214.62 389.086 216.815L389.096 216.827C396.172 225.139 399.889 229.491 402.102 233.911L402.312 234.34L402.543 234.835C407.262 245.096 407.262 256.911 402.543 267.172L402.312 267.667C400.125 272.239 396.4 276.599 389.096 285.179L389.095 285.18C386.164 288.605 384.724 290.295 383.521 292.093L383.521 292.092C380.759 296.226 378.832 300.876 377.86 305.76C377.446 307.875 377.264 310.092 376.912 314.586V314.587C376.043 325.466 375.592 331.172 374.031 335.856L373.877 336.306C371.956 341.746 368.842 346.686 364.764 350.764C360.685 354.843 355.744 357.957 350.305 359.878C345.532 361.564 339.815 362.016 328.585 362.913H328.584C324.089 363.265 321.872 363.445 319.756 363.86L319.757 363.861C314.872 364.832 310.224 366.747 306.091 369.521L306.09 369.522C304.292 370.725 302.602 372.165 299.178 375.095L299.177 375.096C290.865 382.172 286.513 385.889 282.093 388.101L281.664 388.311C271.289 393.26 259.258 393.337 248.831 388.543L248.336 388.311C243.764 386.125 239.403 382.401 230.823 375.096L230.822 375.095C227.826 372.531 226.157 371.108 224.583 369.986L223.91 369.522C219.775 366.761 215.127 364.832 210.243 363.861V363.86C208.127 363.445 205.91 363.265 201.416 362.913H201.415C190.185 362.016 184.468 361.564 179.695 359.878C174.256 357.957 169.315 354.843 165.236 350.764C161.157 346.686 158.044 341.746 156.123 336.306C154.437 331.534 153.985 325.817 153.088 314.587V314.586C152.736 310.092 152.554 307.875 152.14 305.76L151.946 304.846C150.993 300.599 149.323 296.546 146.989 292.874L146.479 292.093C145.276 290.295 143.836 288.605 140.905 285.18L140.904 285.179C133.828 276.867 130.111 272.516 127.898 268.095L127.688 267.667C122.661 257.128 122.661 244.879 127.688 234.34L127.898 233.911C130.111 229.491 133.828 225.139 140.904 216.827L140.905 216.826C143.836 213.402 145.276 211.711 146.479 209.914L146.989 209.133C149.489 205.198 151.229 200.827 152.14 196.248C152.619 193.33 152.935 190.387 153.087 187.434V187.421H153.088C153.985 176.19 154.437 170.472 156.123 165.7C158.044 160.261 161.158 155.321 165.236 151.242C169.315 147.163 174.256 144.049 179.695 142.129C184.468 140.443 190.185 139.991 201.415 139.094H201.416C205.91 138.741 208.127 138.56 210.243 138.145L211.156 137.953C215.705 136.932 220.029 135.087 223.903 132.488C226.31 130.765 228.617 128.907 230.812 126.921L230.817 126.916L230.823 126.91C239.403 119.606 243.764 115.882 248.336 113.696C253.539 111.209 259.233 109.918 265 109.918Z" fill="#E77F04"/>
<path d="M265 109.918C270.767 109.918 276.461 111.209 281.664 113.696C286.236 115.882 290.597 119.606 299.177 126.91L299.183 126.915L299.188 126.92C301.386 128.902 303.693 130.762 306.097 132.489C310.229 135.257 314.868 137.179 319.747 138.143C322.668 138.623 325.614 138.94 328.57 139.093L328.585 139.094L332.547 139.413C341.229 140.124 346.129 140.654 350.305 142.129C355.744 144.049 360.685 147.163 364.764 151.242C368.842 155.321 371.956 160.261 373.877 165.7L374.031 166.15C375.39 170.23 375.908 175.085 376.594 183.459L376.912 187.421L376.913 187.434C377.066 190.387 377.382 193.33 377.86 196.248C378.824 201.13 380.748 205.773 383.518 209.907C385.241 212.314 387.1 214.62 389.086 216.815L389.096 216.827C396.172 225.139 399.889 229.491 402.102 233.911L402.312 234.34L402.543 234.835C407.262 245.096 407.262 256.911 402.543 267.172L402.312 267.667C400.125 272.239 396.4 276.599 389.096 285.179L389.095 285.18C386.164 288.605 384.724 290.295 383.521 292.093L383.521 292.092C380.759 296.226 378.832 300.876 377.86 305.76C377.446 307.875 377.264 310.092 376.912 314.586V314.587C376.043 325.466 375.592 331.172 374.031 335.856L373.877 336.306C371.956 341.746 368.842 346.686 364.764 350.764C360.685 354.843 355.744 357.957 350.305 359.878C345.532 361.564 339.815 362.016 328.585 362.913H328.584C324.089 363.265 321.872 363.445 319.756 363.86L319.757 363.861C314.872 364.832 310.224 366.747 306.091 369.521L306.09 369.522C304.292 370.725 302.602 372.165 299.178 375.095L299.177 375.096C290.865 382.172 286.513 385.889 282.093 388.101L281.664 388.311C271.289 393.26 259.258 393.337 248.831 388.543L248.336 388.311C243.764 386.125 239.403 382.401 230.823 375.096L230.822 375.095C227.826 372.531 226.157 371.108 224.583 369.986L223.91 369.522C219.775 366.761 215.127 364.832 210.243 363.861V363.86C208.127 363.445 205.91 363.265 201.416 362.913H201.415C190.185 362.016 184.468 361.564 179.695 359.878C174.256 357.957 169.315 354.843 165.236 350.764C161.157 346.686 158.044 341.746 156.123 336.306C154.437 331.534 153.985 325.817 153.088 314.587V314.586C152.736 310.092 152.554 307.875 152.14 305.76L151.946 304.846C150.993 300.599 149.323 296.546 146.989 292.874L146.479 292.093C145.276 290.295 143.836 288.605 140.905 285.18L140.904 285.179C133.828 276.867 130.111 272.516 127.898 268.095L127.688 267.667C122.661 257.128 122.661 244.879 127.688 234.34L127.898 233.911C130.111 229.491 133.828 225.139 140.904 216.827L140.905 216.826C143.836 213.402 145.276 211.711 146.479 209.914L146.989 209.133C149.489 205.198 151.229 200.827 152.14 196.248C152.619 193.33 152.935 190.387 153.087 187.434V187.421H153.088C153.985 176.19 154.437 170.472 156.123 165.7C158.044 160.261 161.158 155.321 165.236 151.242C169.315 147.163 174.256 144.049 179.695 142.129C184.468 140.443 190.185 139.991 201.415 139.094H201.416C205.91 138.741 208.127 138.56 210.243 138.145L211.156 137.953C215.705 136.932 220.029 135.087 223.903 132.488C226.31 130.765 228.617 128.907 230.812 126.921L230.817 126.916L230.823 126.91C239.403 119.606 243.764 115.882 248.336 113.696C253.539 111.209 259.233 109.918 265 109.918Z" stroke="#D4D4D8"/>
</g>
<g style="mix-blend-mode:overlay" opacity="0.8">
<path d="M265.001 143.429C269.411 143.429 273.765 144.416 277.744 146.318C280.806 147.782 283.742 150.147 288.803 154.439L291.108 156.4L291.114 156.405L291.119 156.408C292.788 157.913 294.538 159.326 296.362 160.637C299.498 162.738 303.019 164.196 306.722 164.928C308.663 165.247 310.618 165.471 312.581 165.6L313.424 165.65L313.438 165.651C321.984 166.333 326.359 166.678 330.012 167.969C334.171 169.438 337.949 171.819 341.068 174.938C344.187 178.057 346.569 181.835 348.037 185.994C349.166 189.191 349.571 192.939 350.112 199.551L350.355 202.567L350.356 202.581L350.405 203.424C350.534 205.384 350.757 207.338 351.075 209.277C351.806 212.979 353.265 216.5 355.365 219.635C356.511 221.235 357.735 222.777 359.034 224.254L359.597 224.885L359.602 224.89L359.606 224.896C364.818 231.017 367.648 234.331 369.36 237.605L369.688 238.26C373.533 246.319 373.533 255.686 369.688 263.745V263.746C368.015 267.246 365.165 270.58 359.606 277.11L359.605 277.111C357.651 279.394 356.572 280.661 355.722 281.854L355.369 282.364C353.275 285.499 351.812 289.024 351.075 292.728C350.761 294.331 350.624 296.012 350.355 299.438V299.439C349.673 307.985 349.328 312.359 348.037 316.012C346.569 320.171 344.187 323.949 341.068 327.068C337.949 330.187 334.171 332.569 330.012 334.037C326.359 335.328 321.984 335.672 313.438 336.355L313.438 336.356C310.012 336.624 308.331 336.76 306.728 337.074L306.729 337.075C303.023 337.812 299.498 339.264 296.363 341.368H296.362C295 342.28 293.719 343.372 291.109 345.606L291.108 345.607C284.987 350.818 281.673 353.647 278.399 355.36L277.744 355.688C269.936 359.412 260.902 359.529 253.018 356.037L252.258 355.688C248.758 354.014 245.423 351.165 238.894 345.607L238.893 345.606C236.283 343.372 235.002 342.28 233.64 341.368C230.503 339.274 226.978 337.812 223.273 337.075V337.074C221.67 336.76 219.989 336.624 216.564 336.356L216.563 336.355C208.017 335.672 203.643 335.328 199.99 334.037C195.831 332.569 192.053 330.187 188.934 327.068C185.815 323.949 183.433 320.171 181.965 316.012C180.674 312.359 180.329 307.985 179.646 299.439V299.438C179.378 296.013 179.24 294.332 178.926 292.729V292.728C178.189 289.023 176.737 285.499 174.633 282.365V282.364C173.721 281.002 172.63 279.72 170.396 277.111L170.396 277.11C164.837 270.581 161.987 267.246 160.313 263.746V263.745C156.469 255.686 156.469 246.319 160.313 238.26L160.642 237.605C162.354 234.331 165.184 231.017 170.396 224.896L170.396 224.895C172.63 222.285 173.721 221.004 174.633 219.642L175.02 219.049C176.916 216.065 178.236 212.749 178.927 209.276C179.29 207.059 179.53 204.824 179.646 202.581L179.646 202.567C180.329 194.021 180.674 189.647 181.965 185.994C183.433 181.835 185.814 178.057 188.934 174.938C192.053 171.819 195.831 169.438 199.99 167.969C203.643 166.678 208.017 166.333 216.563 165.651H216.564C219.562 165.416 221.223 165.281 222.666 165.04L223.274 164.93C226.977 164.193 230.499 162.742 233.633 160.64C235.461 159.33 237.214 157.918 238.882 156.409L238.894 156.4C245.423 150.841 248.758 147.991 252.258 146.318C256.237 144.416 260.591 143.429 265.001 143.429Z" stroke="#D4D4D8"/>
</g>
<path fill-rule="evenodd" clip-rule="evenodd" d="M249.648 194.851C248.646 195.752 247.592 196.596 246.493 197.378C244.593 198.645 242.457 199.519 240.213 199.963C239.237 200.153 238.217 200.235 236.184 200.393L236.177 200.394C231.075 200.799 228.519 201.002 226.391 201.749C223.956 202.603 221.745 203.988 219.919 205.802C218.093 207.616 216.699 209.813 215.84 212.232C215.088 214.347 214.884 216.886 214.476 221.955L214.475 221.962C214.406 223.303 214.261 224.64 214.042 225.965C213.596 228.195 212.716 230.317 211.441 232.205C210.886 233.028 210.223 233.801 208.897 235.34L208.855 235.389C205.561 239.233 203.907 241.164 202.936 243.182C200.685 247.87 200.685 253.317 202.936 258.004C203.907 260.023 205.561 261.954 208.856 265.798L208.897 265.846C210.223 267.386 210.886 268.158 211.441 268.982C212.716 270.87 213.596 272.992 214.042 275.221C214.233 276.19 214.316 277.204 214.475 279.225L214.476 279.231C214.884 284.301 215.088 286.839 215.84 288.954C216.699 291.373 218.093 293.57 219.919 295.385C221.745 297.199 223.956 298.583 226.391 299.438C228.519 300.185 231.075 300.388 236.177 300.793L236.184 300.793C238.217 300.951 239.237 301.034 240.213 301.224C242.457 301.667 244.593 302.548 246.493 303.808C247.321 304.359 248.099 305.018 249.648 306.336L249.697 306.377C253.566 309.65 255.51 311.293 257.541 312.258C262.259 314.494 267.742 314.494 272.46 312.258C274.491 311.293 276.434 309.65 280.304 306.377L280.352 306.336C281.902 305.018 282.679 304.359 283.508 303.808C285.408 302.541 287.544 301.667 289.788 301.224C290.763 301.034 291.783 300.951 293.817 300.793L293.824 300.793C298.926 300.388 301.481 300.185 303.61 299.438C306.045 298.583 308.256 297.199 310.082 295.385C311.908 293.57 313.301 291.373 314.161 288.954C314.913 286.839 315.117 284.301 315.525 279.231L315.525 279.225C315.685 277.204 315.768 276.19 315.959 275.221C316.405 272.992 317.291 270.87 318.56 268.982C319.115 268.158 319.778 267.386 321.104 265.846L321.145 265.798C324.439 261.954 326.093 260.023 327.065 258.004C329.315 253.317 329.315 247.87 327.065 243.182C326.093 241.164 324.439 239.233 321.145 235.389L321.104 235.34C320.197 234.344 319.347 233.297 318.56 232.205C317.286 230.316 316.402 228.196 315.959 225.965C315.74 224.64 315.595 223.303 315.525 221.962L315.525 221.955C315.117 216.886 314.913 214.347 314.161 212.232C313.301 209.813 311.908 207.616 310.082 205.802C308.256 203.988 306.045 202.603 303.61 201.749C301.481 201.002 298.926 200.799 293.824 200.394L293.817 200.393C292.467 200.324 291.122 200.181 289.788 199.963C287.543 199.522 285.409 198.644 283.508 197.378C282.41 196.595 281.356 195.751 280.352 194.851L280.304 194.81C276.434 191.537 274.491 189.893 272.46 188.928C270.131 187.822 267.582 187.248 265 187.248C262.419 187.248 259.87 187.822 257.541 188.928C255.51 189.893 253.566 191.537 249.697 194.81L249.648 194.851ZM246.405 242.674C246.403 244.42 246.657 246.127 247.127 247.763C247.923 247.347 248.737 246.97 249.58 246.657C249.245 245.369 249.056 244.039 249.056 242.674C249.056 237.857 250.879 234.471 253.07 232.141C253.052 232.36 253.041 232.573 253.041 232.777C253.041 236.274 255.333 240.035 260.37 240.035C265.374 240.035 267.651 236.274 267.651 232.777C267.651 230.863 266.819 229.472 266.15 228.358C265.505 227.284 264.995 226.432 264.995 224.98C264.995 224.434 265.287 223.584 265.786 222.628L269.71 225.194C271.58 226.418 280.909 233.012 280.933 242.677C280.933 244.039 280.744 245.371 280.409 246.657C281.254 246.971 282.072 247.348 282.866 247.765C283.337 246.129 283.592 244.421 283.592 242.671C283.568 231.655 273.242 224.344 271.173 222.99L264.955 218.923L264.227 220.045C263.366 221.38 262.341 223.32 262.341 224.977C262.341 227.158 263.151 228.511 263.868 229.707C264.474 230.715 264.997 231.586 264.997 232.774C264.997 234.904 263.786 237.393 260.372 237.393C256.925 237.393 255.7 234.904 255.7 232.774C255.7 231.855 256.04 230.533 256.683 228.955L258.269 225.059L254.728 227.355C251.62 229.372 246.405 234.041 246.405 242.674ZM272.969 250.592C278.794 250.592 284.059 253.691 286.88 258.724C292.626 259.663 296.876 264.557 296.876 270.387C296.876 276.935 291.513 282.264 284.922 282.264H245.077C238.487 282.264 233.124 276.935 233.124 270.387C233.124 264.557 237.371 259.661 243.119 258.724C245.941 253.691 251.208 250.592 257.031 250.592C259.839 250.592 262.575 251.326 265 252.722C267.425 251.326 270.161 250.592 272.969 250.592ZM294.22 270.387C294.22 275.481 290.049 279.625 284.922 279.625H245.077C239.95 279.625 235.78 275.481 235.78 270.387C235.78 265.673 239.363 261.746 244.113 261.252L244.835 261.178L245.162 260.532C247.433 256.029 251.981 253.231 257.031 253.231C259.605 253.231 262.11 253.973 264.275 255.374L265 255.844L265.725 255.374C267.89 253.97 270.395 253.231 272.969 253.231C278.019 253.231 282.566 256.029 284.837 260.532L285.164 261.178L285.887 261.252C290.636 261.746 294.22 265.673 294.22 270.387Z" fill="#F4F4F5"/>
</svg>
