<svg width="1440" height="595" viewBox="0 0 1440 595" fill="none" xmlns="http://www.w3.org/2000/svg">
<g opacity="0.2">
<line opacity="0.8" y1="-0.5" x2="1511.58" y2="-0.5" transform="matrix(1 0 0 -1 -1 352.995)" stroke="white"/>
<line y1="-0.5" x2="1511.58" y2="-0.5" transform="matrix(1 0 0 -1 -1 514.366)" stroke="white"/>
<line opacity="0.1" y1="-0.5" x2="1511.58" y2="-0.5" transform="matrix(1 0 0 -1 -1 110.942)" stroke="white"/>
<line opacity="0.2" y1="-0.5" x2="1511.58" y2="-0.5" transform="matrix(1 0 0 -1 -1 192.942)" stroke="white"/>
<line y1="-0.5" x2="1511.58" y2="-0.5" transform="matrix(1 0 0 -1 -1 433.68)" stroke="white"/>
<line opacity="0.5" y1="-0.5" x2="1511.58" y2="-0.5" transform="matrix(1 0 0 -1 -1 272.31)" stroke="white"/>
<line y1="-0.5" x2="474" y2="-0.5" transform="matrix(-4.37114e-08 -1 -1 4.37114e-08 17 593.182)" stroke="url(#paint0_linear_1_5588)"/>
<line y1="-0.5" x2="474" y2="-0.5" transform="matrix(-4.50388e-08 -1 -1 4.24231e-08 662 593.182)" stroke="url(#paint1_linear_1_5588)"/>
<line y1="-0.5" x2="474" y2="-0.5" transform="matrix(-4.50388e-08 -1 -1 4.24231e-08 340 593.182)" stroke="url(#paint2_linear_1_5588)"/>
<line y1="-0.5" x2="474" y2="-0.5" transform="matrix(-4.50388e-08 -1 -1 4.24231e-08 985 593.182)" stroke="url(#paint3_linear_1_5588)"/>
<line y1="-0.5" x2="474" y2="-0.5" transform="matrix(-4.50388e-08 -1 -1 4.24231e-08 1308 593.182)" stroke="url(#paint4_linear_1_5588)"/>
<line y1="-0.5" x2="474" y2="-0.5" transform="matrix(-4.50388e-08 -1 -1 4.24231e-08 178 593.182)" stroke="url(#paint5_linear_1_5588)"/>
<line y1="-0.5" x2="474" y2="-0.5" transform="matrix(-4.50388e-08 -1 -1 4.24231e-08 824 593.182)" stroke="url(#paint6_linear_1_5588)"/>
<line y1="-0.5" x2="474" y2="-0.5" transform="matrix(-4.50388e-08 -1 -1 4.24231e-08 501 593.182)" stroke="url(#paint7_linear_1_5588)"/>
<line y1="-0.5" x2="474" y2="-0.5" transform="matrix(-4.50388e-08 -1 -1 4.24231e-08 1147 593.182)" stroke="url(#paint8_linear_1_5588)"/>
<line y1="-0.5" x2="474" y2="-0.5" transform="matrix(-4.50388e-08 -1 -1 4.24231e-08 98 593.182)" stroke="url(#paint9_linear_1_5588)"/>
<line y1="-0.5" x2="474" y2="-0.5" transform="matrix(-4.50388e-08 -1 -1 4.24231e-08 743 593.182)" stroke="url(#paint10_linear_1_5588)"/>
<line y1="-0.5" x2="474" y2="-0.5" transform="matrix(-4.50388e-08 -1 -1 4.24231e-08 420 593.182)" stroke="url(#paint11_linear_1_5588)"/>
<line y1="-0.5" x2="474" y2="-0.5" transform="matrix(-4.50388e-08 -1 -1 4.24231e-08 1066 593.182)" stroke="url(#paint12_linear_1_5588)"/>
<line y1="-0.5" x2="474" y2="-0.5" transform="matrix(-4.50388e-08 -1 -1 4.24231e-08 1389 593.182)" stroke="url(#paint13_linear_1_5588)"/>
<line y1="-0.5" x2="474" y2="-0.5" transform="matrix(-4.50388e-08 -1 -1 4.24231e-08 259 593.182)" stroke="url(#paint14_linear_1_5588)"/>
<line y1="-0.5" x2="474" y2="-0.5" transform="matrix(-4.50388e-08 -1 -1 4.24231e-08 905 593.182)" stroke="url(#paint15_linear_1_5588)"/>
<line y1="-0.5" x2="474" y2="-0.5" transform="matrix(-4.50388e-08 -1 -1 4.24231e-08 582 593.182)" stroke="url(#paint16_linear_1_5588)"/>
<line y1="-0.5" x2="474" y2="-0.5" transform="matrix(-4.50388e-08 -1 -1 4.24231e-08 1227 593.182)" stroke="url(#paint17_linear_1_5588)"/>
</g>
<defs>
<linearGradient id="paint0_linear_1_5588" x1="0" y1="0.5" x2="474" y2="0.5" gradientUnits="userSpaceOnUse">
<stop stop-color="white"/>
<stop offset="1" stop-color="#1F1F1F"/>
</linearGradient>
<linearGradient id="paint1_linear_1_5588" x1="0" y1="0.5" x2="474" y2="0.5" gradientUnits="userSpaceOnUse">
<stop stop-color="white"/>
<stop offset="1" stop-color="#1F1F1F"/>
</linearGradient>
<linearGradient id="paint2_linear_1_5588" x1="0" y1="0.5" x2="474" y2="0.5" gradientUnits="userSpaceOnUse">
<stop stop-color="white"/>
<stop offset="1" stop-color="#1F1F1F"/>
</linearGradient>
<linearGradient id="paint3_linear_1_5588" x1="0" y1="0.5" x2="474" y2="0.5" gradientUnits="userSpaceOnUse">
<stop stop-color="white"/>
<stop offset="1" stop-color="#1F1F1F"/>
</linearGradient>
<linearGradient id="paint4_linear_1_5588" x1="0" y1="0.5" x2="474" y2="0.5" gradientUnits="userSpaceOnUse">
<stop stop-color="white"/>
<stop offset="1" stop-color="#1F1F1F"/>
</linearGradient>
<linearGradient id="paint5_linear_1_5588" x1="0" y1="0.5" x2="474" y2="0.5" gradientUnits="userSpaceOnUse">
<stop stop-color="white"/>
<stop offset="1" stop-color="#1F1F1F"/>
</linearGradient>
<linearGradient id="paint6_linear_1_5588" x1="0" y1="0.5" x2="474" y2="0.5" gradientUnits="userSpaceOnUse">
<stop stop-color="white"/>
<stop offset="1" stop-color="#1F1F1F"/>
</linearGradient>
<linearGradient id="paint7_linear_1_5588" x1="0" y1="0.5" x2="474" y2="0.5" gradientUnits="userSpaceOnUse">
<stop stop-color="white"/>
<stop offset="1" stop-color="#1F1F1F"/>
</linearGradient>
<linearGradient id="paint8_linear_1_5588" x1="0" y1="0.5" x2="474" y2="0.5" gradientUnits="userSpaceOnUse">
<stop stop-color="white"/>
<stop offset="1" stop-color="#1F1F1F"/>
</linearGradient>
<linearGradient id="paint9_linear_1_5588" x1="0" y1="0.5" x2="474" y2="0.5" gradientUnits="userSpaceOnUse">
<stop stop-color="white"/>
<stop offset="1" stop-color="#1F1F1F"/>
</linearGradient>
<linearGradient id="paint10_linear_1_5588" x1="0" y1="0.5" x2="474" y2="0.5" gradientUnits="userSpaceOnUse">
<stop stop-color="white"/>
<stop offset="1" stop-color="#1F1F1F"/>
</linearGradient>
<linearGradient id="paint11_linear_1_5588" x1="0" y1="0.5" x2="474" y2="0.5" gradientUnits="userSpaceOnUse">
<stop stop-color="white"/>
<stop offset="1" stop-color="#1F1F1F"/>
</linearGradient>
<linearGradient id="paint12_linear_1_5588" x1="0" y1="0.5" x2="474" y2="0.5" gradientUnits="userSpaceOnUse">
<stop stop-color="white"/>
<stop offset="1" stop-color="#1F1F1F"/>
</linearGradient>
<linearGradient id="paint13_linear_1_5588" x1="0" y1="0.5" x2="474" y2="0.5" gradientUnits="userSpaceOnUse">
<stop stop-color="white"/>
<stop offset="1" stop-color="#1F1F1F"/>
</linearGradient>
<linearGradient id="paint14_linear_1_5588" x1="0" y1="0.5" x2="474" y2="0.5" gradientUnits="userSpaceOnUse">
<stop stop-color="white"/>
<stop offset="1" stop-color="#1F1F1F"/>
</linearGradient>
<linearGradient id="paint15_linear_1_5588" x1="0" y1="0.5" x2="474" y2="0.5" gradientUnits="userSpaceOnUse">
<stop stop-color="white"/>
<stop offset="1" stop-color="#1F1F1F"/>
</linearGradient>
<linearGradient id="paint16_linear_1_5588" x1="0" y1="0.5" x2="474" y2="0.5" gradientUnits="userSpaceOnUse">
<stop stop-color="white"/>
<stop offset="1" stop-color="#1F1F1F"/>
</linearGradient>
<linearGradient id="paint17_linear_1_5588" x1="0" y1="0.5" x2="474" y2="0.5" gradientUnits="userSpaceOnUse">
<stop stop-color="white"/>
<stop offset="1" stop-color="#1F1F1F"/>
</linearGradient>
</defs>
</svg>
