<svg width="360" height="411" viewBox="0 0 360 411" fill="none" xmlns="http://www.w3.org/2000/svg">
<g filter="url(#filter0_f_1_18453)">
<path fill-rule="evenodd" clip-rule="evenodd" d="M166.135 156.661C165.262 157.451 164.345 158.191 163.388 158.876C161.734 159.986 159.875 160.752 157.921 161.14C157.072 161.307 156.184 161.379 154.413 161.518L154.408 161.518C149.966 161.873 147.741 162.051 145.888 162.705C143.769 163.454 141.844 164.667 140.254 166.257C138.665 167.846 137.451 169.771 136.703 171.891C136.048 173.743 135.871 175.968 135.516 180.41L135.515 180.415C135.455 181.591 135.329 182.762 135.138 183.923C134.749 185.877 133.983 187.736 132.873 189.39C132.39 190.111 131.813 190.788 130.659 192.137L130.623 192.179C127.755 195.548 126.315 197.239 125.469 199.008C123.51 203.115 123.51 207.888 125.469 211.995C126.315 213.763 127.755 215.455 130.623 218.823L130.659 218.866C131.813 220.214 132.39 220.892 132.873 221.613C133.983 223.267 134.749 225.126 135.138 227.08C135.304 227.929 135.376 228.817 135.515 230.587L135.516 230.593C135.871 235.035 136.048 237.259 136.703 239.112C137.451 241.232 138.665 243.157 140.254 244.746C141.844 246.336 143.769 247.549 145.888 248.297C147.741 248.952 149.966 249.13 154.408 249.485L154.413 249.485C156.184 249.624 157.072 249.696 157.921 249.863C159.875 250.251 161.734 251.022 163.388 252.127C164.109 252.61 164.787 253.187 166.135 254.341L166.178 254.378C169.546 257.245 171.238 258.685 173.006 259.531C177.113 261.49 181.887 261.49 185.994 259.531C187.762 258.685 189.454 257.245 192.822 254.378L192.865 254.341C194.213 253.187 194.891 252.61 195.612 252.127C197.266 251.017 199.125 250.251 201.079 249.863C201.928 249.696 202.816 249.624 204.587 249.485L204.592 249.485C209.034 249.13 211.259 248.952 213.112 248.297C215.231 247.549 217.156 246.336 218.746 244.746C220.335 243.157 221.549 241.232 222.297 239.112C222.952 237.259 223.129 235.035 223.484 230.593L223.485 230.587C223.624 228.817 223.696 227.929 223.862 227.08C224.251 225.126 225.022 223.267 226.127 221.613C226.61 220.892 227.187 220.214 228.341 218.866L228.377 218.823C231.245 215.455 232.685 213.763 233.531 211.995C235.49 207.888 235.49 203.115 233.531 199.008C232.685 197.239 231.245 195.548 228.377 192.179L228.341 192.137C227.551 191.264 226.812 190.347 226.127 189.39C225.018 187.735 224.248 185.877 223.862 183.923C223.672 182.762 223.546 181.591 223.485 180.415L223.484 180.409C223.129 175.968 222.952 173.743 222.297 171.891C221.549 169.771 220.335 167.846 218.746 166.257C217.156 164.667 215.231 163.454 213.112 162.705C211.259 162.051 209.034 161.873 204.592 161.518L204.587 161.518C203.411 161.457 202.24 161.331 201.079 161.14C199.125 160.754 197.267 159.985 195.612 158.876C194.656 158.189 193.739 157.45 192.865 156.661L192.822 156.625C189.454 153.758 187.762 152.318 185.994 151.472C183.966 150.503 181.747 150 179.5 150C177.253 150 175.034 150.503 173.006 151.472C171.238 152.318 169.546 153.758 166.178 156.625L166.135 156.661ZM163.312 198.563C163.31 200.093 163.531 201.588 163.94 203.021C164.633 202.657 165.342 202.327 166.075 202.052C165.784 200.924 165.62 199.758 165.62 198.563C165.62 194.342 167.206 191.376 169.114 189.334C169.098 189.526 169.089 189.713 169.089 189.891C169.089 192.955 171.084 196.25 175.469 196.25C179.826 196.25 181.807 192.955 181.807 189.891C181.807 188.214 181.084 186.996 180.501 186.02C179.939 185.079 179.495 184.332 179.495 183.06C179.495 182.581 179.749 181.836 180.184 180.999L183.6 183.247C185.228 184.32 193.349 190.097 193.37 198.565C193.37 199.758 193.206 200.926 192.914 202.052C193.65 202.328 194.362 202.658 195.053 203.024C195.463 201.59 195.685 200.094 195.685 198.56C195.664 188.908 186.675 182.502 184.874 181.316L179.46 177.753L178.827 178.735C178.077 179.906 177.185 181.605 177.185 183.057C177.185 184.968 177.89 186.154 178.514 187.201C179.042 188.085 179.497 188.848 179.497 189.889C179.497 191.755 178.443 193.935 175.471 193.935C172.47 193.935 171.403 191.755 171.403 189.889C171.403 189.084 171.699 187.925 172.259 186.542L173.64 183.129L170.557 185.141C167.851 186.908 163.312 190.999 163.312 198.563ZM186.437 205.5C191.508 205.5 196.092 208.215 198.548 212.625C203.55 213.448 207.25 217.736 207.25 222.844C207.25 228.581 202.581 233.25 196.843 233.25H162.156C156.418 233.25 151.75 228.581 151.75 222.844C151.75 217.736 155.447 213.446 160.451 212.625C162.907 208.215 167.493 205.5 172.562 205.5C175.006 205.5 177.388 206.143 179.5 207.366C181.611 206.143 183.993 205.5 186.437 205.5ZM204.937 222.844C204.937 227.307 201.306 230.938 196.843 230.938H162.156C157.693 230.938 154.062 227.307 154.062 222.844C154.062 218.714 157.182 215.273 161.316 214.84L161.945 214.776L162.23 214.209C164.207 210.264 168.166 207.813 172.562 207.813C174.803 207.813 176.984 208.463 178.868 209.691L179.5 210.102L180.131 209.691C182.016 208.46 184.196 207.813 186.437 207.813C190.833 207.813 194.792 210.264 196.769 214.209L197.054 214.776L197.683 214.84C201.817 215.273 204.937 218.714 204.937 222.844Z" fill="#E77F04"/>
<path d="M170.557 185.141C167.851 186.908 163.312 190.999 163.312 198.563C163.31 200.093 163.531 201.588 163.94 203.021C164.633 202.657 165.342 202.327 166.075 202.052C165.784 200.924 165.62 199.758 165.62 198.563C165.62 194.342 167.206 191.376 169.114 189.334C169.098 189.526 169.089 189.713 169.089 189.891C169.089 192.955 171.084 196.25 175.469 196.25C179.826 196.25 181.807 192.955 181.807 189.891C181.807 188.214 181.084 186.996 180.501 186.02C179.939 185.079 179.495 184.332 179.495 183.06C179.495 182.581 179.749 181.836 180.184 180.999L183.6 183.247C185.228 184.32 193.349 190.097 193.37 198.565C193.37 199.758 193.206 200.926 192.914 202.052C193.65 202.328 194.362 202.658 195.053 203.024C195.463 201.59 195.685 200.094 195.685 198.56C195.664 188.908 186.675 182.502 184.874 181.316L179.46 177.753L178.827 178.735C178.077 179.906 177.185 181.605 177.185 183.057C177.185 184.968 177.89 186.154 178.514 187.201C179.042 188.085 179.497 188.848 179.497 189.889C179.497 191.755 178.443 193.935 175.471 193.935C172.47 193.935 171.403 191.755 171.403 189.889C171.403 189.084 171.699 187.925 172.259 186.542L173.64 183.129L170.557 185.141Z" fill="white"/>
<path fill-rule="evenodd" clip-rule="evenodd" d="M198.548 212.625C196.092 208.215 191.508 205.5 186.437 205.5C183.993 205.5 181.611 206.143 179.5 207.366C177.388 206.143 175.006 205.5 172.562 205.5C167.493 205.5 162.907 208.215 160.451 212.625C155.447 213.446 151.75 217.736 151.75 222.844C151.75 228.581 156.418 233.25 162.156 233.25H196.843C202.581 233.25 207.25 228.581 207.25 222.844C207.25 217.736 203.55 213.448 198.548 212.625ZM162.156 230.938H196.843C201.306 230.938 204.937 227.307 204.937 222.844C204.937 218.714 201.817 215.273 197.683 214.84L197.054 214.776L196.769 214.209C194.792 210.264 190.833 207.813 186.437 207.813C184.196 207.813 182.016 208.46 180.131 209.691L179.5 210.102L178.868 209.691C176.984 208.463 174.803 207.813 172.562 207.813C168.166 207.813 164.207 210.264 162.23 214.209L161.945 214.776L161.316 214.84C157.182 215.273 154.062 218.714 154.062 222.844C154.062 227.307 157.693 230.938 162.156 230.938Z" fill="white"/>
</g>
<mask id="path-2-outside-1_1_18453" maskUnits="userSpaceOnUse" x="142.414" y="168.414" width="75" height="75" fill="black">
<rect fill="white" x="142.414" y="168.414" width="75" height="75"/>
<path fill-rule="evenodd" clip-rule="evenodd" d="M171.051 174.625C170.499 175.124 169.92 175.592 169.314 176.025C168.269 176.726 167.093 177.211 165.858 177.456C165.322 177.562 164.76 177.607 163.641 177.695L163.637 177.695C160.829 177.919 159.423 178.032 158.252 178.446C156.912 178.919 155.694 179.686 154.69 180.691C153.685 181.695 152.918 182.913 152.445 184.252C152.031 185.424 151.918 186.83 151.694 189.638L151.694 189.642C151.655 190.385 151.576 191.125 151.455 191.859C151.21 193.094 150.725 194.27 150.024 195.315C149.718 195.771 149.353 196.199 148.624 197.052L148.601 197.079C146.788 199.208 145.878 200.277 145.343 201.396C144.104 203.992 144.104 207.009 145.343 209.606C145.878 210.724 146.788 211.793 148.601 213.923L148.624 213.949C149.353 214.802 149.718 215.23 150.024 215.686C150.725 216.732 151.21 217.907 151.455 219.142C151.56 219.679 151.606 220.24 151.694 221.36L151.694 221.363C151.918 224.171 152.031 225.577 152.445 226.749C152.918 228.089 153.685 229.306 154.69 230.311C155.694 231.315 156.912 232.083 158.252 232.556C159.423 232.969 160.829 233.082 163.637 233.306L163.641 233.306C164.76 233.394 165.322 233.44 165.858 233.545C167.093 233.791 168.269 234.278 169.314 234.977C169.771 235.282 170.199 235.647 171.051 236.377L171.078 236.399C173.208 238.212 174.277 239.123 175.395 239.657C177.992 240.896 181.009 240.896 183.605 239.657C184.724 239.123 185.793 238.212 187.922 236.399L187.949 236.377C188.802 235.647 189.23 235.282 189.686 234.977C190.732 234.275 191.907 233.791 193.142 233.545C193.679 233.44 194.24 233.394 195.36 233.306L195.363 233.306C198.171 233.082 199.578 232.969 200.749 232.556C202.089 232.083 203.306 231.315 204.311 230.311C205.316 229.306 206.083 228.089 206.556 226.749C206.97 225.578 207.082 224.171 207.306 221.363L207.307 221.36C207.395 220.24 207.44 219.679 207.545 219.142C207.791 217.907 208.279 216.732 208.977 215.686C209.282 215.23 209.647 214.802 210.377 213.949L210.4 213.923C212.213 211.793 213.123 210.724 213.658 209.606C214.896 207.009 214.896 203.992 213.658 201.396C213.123 200.278 212.213 199.208 210.4 197.079L210.377 197.052C209.878 196.5 209.41 195.92 208.977 195.315C208.276 194.269 207.789 193.094 207.545 191.859C207.425 191.125 207.345 190.385 207.307 189.642L207.306 189.638C207.082 186.83 206.97 185.424 206.556 184.252C206.083 182.913 205.316 181.695 204.311 180.691C203.306 179.686 202.089 178.919 200.749 178.446C199.578 178.032 198.171 177.919 195.363 177.695L195.36 177.695C194.617 177.657 193.876 177.577 193.142 177.456C191.907 177.212 190.732 176.726 189.686 176.025C189.082 175.591 188.502 175.123 187.949 174.625L187.922 174.602C185.793 172.789 184.724 171.879 183.605 171.344C182.324 170.732 180.921 170.414 179.5 170.414C178.08 170.414 176.677 170.732 175.395 171.344C174.277 171.879 173.208 172.789 171.078 174.602L171.051 174.625ZM169.266 201.114C169.265 202.081 169.405 203.027 169.664 203.933C170.102 203.702 170.55 203.494 171.013 203.32C170.829 202.607 170.725 201.87 170.725 201.114C170.725 198.446 171.728 196.571 172.934 195.28C172.924 195.401 172.918 195.519 172.918 195.632C172.918 197.569 174.18 199.652 176.952 199.652C179.706 199.652 180.959 197.569 180.959 195.632C180.959 194.572 180.501 193.802 180.133 193.185C179.778 192.59 179.497 192.117 179.497 191.313C179.497 191.011 179.658 190.54 179.933 190.011L182.092 191.432C183.121 192.11 188.255 195.762 188.269 201.116C188.269 201.87 188.165 202.608 187.981 203.32C188.445 203.494 188.896 203.703 189.333 203.934C189.592 203.028 189.732 202.082 189.732 201.113C189.719 195.011 184.036 190.961 182.897 190.211L179.475 187.958L179.075 188.58C178.601 189.319 178.037 190.394 178.037 191.312C178.037 192.52 178.482 193.269 178.877 193.932C179.211 194.49 179.499 194.973 179.499 195.631C179.499 196.81 178.832 198.189 176.953 198.189C175.056 198.189 174.382 196.81 174.382 195.631C174.382 195.122 174.569 194.389 174.923 193.515L175.795 191.357L173.847 192.629C172.136 193.746 169.266 196.332 169.266 201.114ZM183.886 205.5C187.092 205.5 189.989 207.216 191.542 210.004C194.704 210.525 197.043 213.235 197.043 216.464C197.043 220.091 194.091 223.043 190.464 223.043H168.536C164.908 223.043 161.957 220.091 161.957 216.464C161.957 213.235 164.294 210.523 167.458 210.004C169.011 207.216 171.91 205.5 175.114 205.5C176.659 205.5 178.165 205.906 179.5 206.68C180.835 205.906 182.34 205.5 183.886 205.5ZM195.581 216.464C195.581 219.286 193.286 221.581 190.464 221.581H168.536C165.714 221.581 163.419 219.286 163.419 216.464C163.419 213.853 165.391 211.678 168.005 211.405L168.402 211.364L168.582 211.006C169.832 208.512 172.335 206.962 175.114 206.962C176.531 206.962 177.909 207.373 179.101 208.149L179.5 208.409L179.899 208.149C181.091 207.371 182.469 206.962 183.886 206.962C186.665 206.962 189.168 208.512 190.418 211.006L190.597 211.364L190.995 211.405C193.609 211.678 195.581 213.853 195.581 216.464Z"/>
<path d="M173.847 192.629C172.136 193.746 169.266 196.332 169.266 201.114C169.265 202.081 169.405 203.027 169.664 203.933C170.102 203.702 170.55 203.494 171.013 203.32C170.829 202.607 170.725 201.87 170.725 201.114C170.725 198.446 171.728 196.571 172.934 195.28C172.924 195.401 172.918 195.519 172.918 195.632C172.918 197.569 174.18 199.652 176.952 199.652C179.706 199.652 180.959 197.569 180.959 195.632C180.959 194.572 180.501 193.802 180.133 193.185C179.778 192.59 179.497 192.117 179.497 191.313C179.497 191.011 179.658 190.54 179.933 190.011L182.092 191.432C183.121 192.11 188.255 195.762 188.269 201.116C188.269 201.87 188.165 202.608 187.981 203.32C188.445 203.494 188.896 203.703 189.333 203.934C189.592 203.028 189.732 202.082 189.732 201.113C189.719 195.011 184.036 190.961 182.897 190.211L179.475 187.958L179.075 188.58C178.601 189.319 178.037 190.394 178.037 191.312C178.037 192.52 178.482 193.269 178.877 193.932C179.211 194.49 179.499 194.973 179.499 195.631C179.499 196.81 178.832 198.189 176.953 198.189C175.056 198.189 174.382 196.81 174.382 195.631C174.382 195.122 174.569 194.389 174.923 193.515L175.795 191.357L173.847 192.629Z"/>
<path fill-rule="evenodd" clip-rule="evenodd" d="M191.542 210.004C189.989 207.216 187.092 205.5 183.886 205.5C182.34 205.5 180.835 205.906 179.5 206.68C178.165 205.906 176.659 205.5 175.114 205.5C171.91 205.5 169.011 207.216 167.458 210.004C164.294 210.523 161.957 213.235 161.957 216.464C161.957 220.091 164.908 223.043 168.536 223.043H190.464C194.091 223.043 197.043 220.091 197.043 216.464C197.043 213.235 194.704 210.525 191.542 210.004ZM168.536 221.581H190.464C193.286 221.581 195.581 219.286 195.581 216.464C195.581 213.853 193.609 211.678 190.995 211.405L190.597 211.364L190.418 211.006C189.168 208.512 186.665 206.962 183.886 206.962C182.469 206.962 181.091 207.371 179.899 208.149L179.5 208.409L179.101 208.149C177.909 207.373 176.531 206.962 175.114 206.962C172.335 206.962 169.832 208.512 168.582 211.006L168.402 211.364L168.005 211.405C165.391 211.678 163.419 213.853 163.419 216.464C163.419 219.286 165.714 221.581 168.536 221.581Z"/>
</mask>
<path fill-rule="evenodd" clip-rule="evenodd" d="M171.051 174.625C170.499 175.124 169.92 175.592 169.314 176.025C168.269 176.726 167.093 177.211 165.858 177.456C165.322 177.562 164.76 177.607 163.641 177.695L163.637 177.695C160.829 177.919 159.423 178.032 158.252 178.446C156.912 178.919 155.694 179.686 154.69 180.691C153.685 181.695 152.918 182.913 152.445 184.252C152.031 185.424 151.918 186.83 151.694 189.638L151.694 189.642C151.655 190.385 151.576 191.125 151.455 191.859C151.21 193.094 150.725 194.27 150.024 195.315C149.718 195.771 149.353 196.199 148.624 197.052L148.601 197.079C146.788 199.208 145.878 200.277 145.343 201.396C144.104 203.992 144.104 207.009 145.343 209.606C145.878 210.724 146.788 211.793 148.601 213.923L148.624 213.949C149.353 214.802 149.718 215.23 150.024 215.686C150.725 216.732 151.21 217.907 151.455 219.142C151.56 219.679 151.606 220.24 151.694 221.36L151.694 221.363C151.918 224.171 152.031 225.577 152.445 226.749C152.918 228.089 153.685 229.306 154.69 230.311C155.694 231.315 156.912 232.083 158.252 232.556C159.423 232.969 160.829 233.082 163.637 233.306L163.641 233.306C164.76 233.394 165.322 233.44 165.858 233.545C167.093 233.791 168.269 234.278 169.314 234.977C169.771 235.282 170.199 235.647 171.051 236.377L171.078 236.399C173.208 238.212 174.277 239.123 175.395 239.657C177.992 240.896 181.009 240.896 183.605 239.657C184.724 239.123 185.793 238.212 187.922 236.399L187.949 236.377C188.802 235.647 189.23 235.282 189.686 234.977C190.732 234.275 191.907 233.791 193.142 233.545C193.679 233.44 194.24 233.394 195.36 233.306L195.363 233.306C198.171 233.082 199.578 232.969 200.749 232.556C202.089 232.083 203.306 231.315 204.311 230.311C205.316 229.306 206.083 228.089 206.556 226.749C206.97 225.578 207.082 224.171 207.306 221.363L207.307 221.36C207.395 220.24 207.44 219.679 207.545 219.142C207.791 217.907 208.279 216.732 208.977 215.686C209.282 215.23 209.647 214.802 210.377 213.949L210.4 213.923C212.213 211.793 213.123 210.724 213.658 209.606C214.896 207.009 214.896 203.992 213.658 201.396C213.123 200.278 212.213 199.208 210.4 197.079L210.377 197.052C209.878 196.5 209.41 195.92 208.977 195.315C208.276 194.269 207.789 193.094 207.545 191.859C207.425 191.125 207.345 190.385 207.307 189.642L207.306 189.638C207.082 186.83 206.97 185.424 206.556 184.252C206.083 182.913 205.316 181.695 204.311 180.691C203.306 179.686 202.089 178.919 200.749 178.446C199.578 178.032 198.171 177.919 195.363 177.695L195.36 177.695C194.617 177.657 193.876 177.577 193.142 177.456C191.907 177.212 190.732 176.726 189.686 176.025C189.082 175.591 188.502 175.123 187.949 174.625L187.922 174.602C185.793 172.789 184.724 171.879 183.605 171.344C182.324 170.732 180.921 170.414 179.5 170.414C178.08 170.414 176.677 170.732 175.395 171.344C174.277 171.879 173.208 172.789 171.078 174.602L171.051 174.625ZM169.266 201.114C169.265 202.081 169.405 203.027 169.664 203.933C170.102 203.702 170.55 203.494 171.013 203.32C170.829 202.607 170.725 201.87 170.725 201.114C170.725 198.446 171.728 196.571 172.934 195.28C172.924 195.401 172.918 195.519 172.918 195.632C172.918 197.569 174.18 199.652 176.952 199.652C179.706 199.652 180.959 197.569 180.959 195.632C180.959 194.572 180.501 193.802 180.133 193.185C179.778 192.59 179.497 192.117 179.497 191.313C179.497 191.011 179.658 190.54 179.933 190.011L182.092 191.432C183.121 192.11 188.255 195.762 188.269 201.116C188.269 201.87 188.165 202.608 187.981 203.32C188.445 203.494 188.896 203.703 189.333 203.934C189.592 203.028 189.732 202.082 189.732 201.113C189.719 195.011 184.036 190.961 182.897 190.211L179.475 187.958L179.075 188.58C178.601 189.319 178.037 190.394 178.037 191.312C178.037 192.52 178.482 193.269 178.877 193.932C179.211 194.49 179.499 194.973 179.499 195.631C179.499 196.81 178.832 198.189 176.953 198.189C175.056 198.189 174.382 196.81 174.382 195.631C174.382 195.122 174.569 194.389 174.923 193.515L175.795 191.357L173.847 192.629C172.136 193.746 169.266 196.332 169.266 201.114ZM183.886 205.5C187.092 205.5 189.989 207.216 191.542 210.004C194.704 210.525 197.043 213.235 197.043 216.464C197.043 220.091 194.091 223.043 190.464 223.043H168.536C164.908 223.043 161.957 220.091 161.957 216.464C161.957 213.235 164.294 210.523 167.458 210.004C169.011 207.216 171.91 205.5 175.114 205.5C176.659 205.5 178.165 205.906 179.5 206.68C180.835 205.906 182.34 205.5 183.886 205.5ZM195.581 216.464C195.581 219.286 193.286 221.581 190.464 221.581H168.536C165.714 221.581 163.419 219.286 163.419 216.464C163.419 213.853 165.391 211.678 168.005 211.405L168.402 211.364L168.582 211.006C169.832 208.512 172.335 206.962 175.114 206.962C176.531 206.962 177.909 207.373 179.101 208.149L179.5 208.409L179.899 208.149C181.091 207.371 182.469 206.962 183.886 206.962C186.665 206.962 189.168 208.512 190.418 211.006L190.597 211.364L190.995 211.405C193.609 211.678 195.581 213.853 195.581 216.464Z" fill="#E77F04"/>
<path d="M173.847 192.629C172.136 193.746 169.266 196.332 169.266 201.114C169.265 202.081 169.405 203.027 169.664 203.933C170.102 203.702 170.55 203.494 171.013 203.32C170.829 202.607 170.725 201.87 170.725 201.114C170.725 198.446 171.728 196.571 172.934 195.28C172.924 195.401 172.918 195.519 172.918 195.632C172.918 197.569 174.18 199.652 176.952 199.652C179.706 199.652 180.959 197.569 180.959 195.632C180.959 194.572 180.501 193.802 180.133 193.185C179.778 192.59 179.497 192.117 179.497 191.313C179.497 191.011 179.658 190.54 179.933 190.011L182.092 191.432C183.121 192.11 188.255 195.762 188.269 201.116C188.269 201.87 188.165 202.608 187.981 203.32C188.445 203.494 188.896 203.703 189.333 203.934C189.592 203.028 189.732 202.082 189.732 201.113C189.719 195.011 184.036 190.961 182.897 190.211L179.475 187.958L179.075 188.58C178.601 189.319 178.037 190.394 178.037 191.312C178.037 192.52 178.482 193.269 178.877 193.932C179.211 194.49 179.499 194.973 179.499 195.631C179.499 196.81 178.832 198.189 176.953 198.189C175.056 198.189 174.382 196.81 174.382 195.631C174.382 195.122 174.569 194.389 174.923 193.515L175.795 191.357L173.847 192.629Z" fill="white"/>
<path fill-rule="evenodd" clip-rule="evenodd" d="M191.542 210.004C189.989 207.216 187.092 205.5 183.886 205.5C182.34 205.5 180.835 205.906 179.5 206.68C178.165 205.906 176.659 205.5 175.114 205.5C171.91 205.5 169.011 207.216 167.458 210.004C164.294 210.523 161.957 213.235 161.957 216.464C161.957 220.091 164.908 223.043 168.536 223.043H190.464C194.091 223.043 197.043 220.091 197.043 216.464C197.043 213.235 194.704 210.525 191.542 210.004ZM168.536 221.581H190.464C193.286 221.581 195.581 219.286 195.581 216.464C195.581 213.853 193.609 211.678 190.995 211.405L190.597 211.364L190.418 211.006C189.168 208.512 186.665 206.962 183.886 206.962C182.469 206.962 181.091 207.371 179.899 208.149L179.5 208.409L179.101 208.149C177.909 207.373 176.531 206.962 175.114 206.962C172.335 206.962 169.832 208.512 168.582 211.006L168.402 211.364L168.005 211.405C165.391 211.678 163.419 213.853 163.419 216.464C163.419 219.286 165.714 221.581 168.536 221.581Z" fill="white"/>
<path d="M191.542 210.004L190.668 210.491L190.903 210.912L191.379 210.991L191.542 210.004ZM179.5 206.68L178.999 207.545L179.5 207.835L180.001 207.545L179.5 206.68ZM167.458 210.004L167.62 210.991L168.097 210.913L168.332 210.491L167.458 210.004ZM168.005 211.405L167.902 210.41L167.901 210.41L168.005 211.405ZM168.402 211.364L168.505 212.358L169.05 212.302L169.296 211.812L168.402 211.364ZM168.582 211.006L169.476 211.454L169.476 211.454L168.582 211.006ZM179.101 208.149L179.647 207.311L179.647 207.311L179.101 208.149ZM179.5 208.409L178.954 209.247L179.5 209.603L180.046 209.247L179.5 208.409ZM179.899 208.149L180.445 208.987L180.446 208.986L179.899 208.149ZM190.418 211.006L189.524 211.454L189.524 211.454L190.418 211.006ZM190.597 211.364L189.704 211.812L189.95 212.302L190.495 212.358L190.597 211.364ZM190.995 211.405L191.099 210.41L191.097 210.41L190.995 211.405ZM169.664 203.934V204.934H170.99L170.626 203.66L169.664 203.934ZM169.266 201.114L170.266 201.116V201.114H169.266ZM173.847 192.629L173.3 191.792L173.3 191.792L173.847 192.629ZM175.795 191.357L176.722 191.732L177.917 188.778L175.249 190.52L175.795 191.357ZM174.923 193.515L175.85 193.89L175.85 193.89L174.923 193.515ZM178.877 193.932L178.018 194.444L178.019 194.444L178.877 193.932ZM179.075 188.58L178.234 188.038L178.232 188.04L179.075 188.58ZM179.475 187.958L180.025 187.123L179.182 186.568L178.635 187.416L179.475 187.958ZM182.897 190.211L183.447 189.376L183.447 189.376L182.897 190.211ZM189.732 201.113H190.732L190.732 201.111L189.732 201.113ZM189.333 203.934L188.866 204.818L189.956 205.395L190.294 204.209L189.333 203.934ZM187.981 203.32L187.012 203.07L186.787 203.941L187.63 204.257L187.981 203.32ZM188.269 201.116H189.269L189.269 201.113L188.269 201.116ZM182.092 191.432L182.642 190.597L182.642 190.597L182.092 191.432ZM179.933 190.011L180.482 189.176L179.556 188.566L179.045 189.55L179.933 190.011ZM180.133 193.185L179.274 193.697L179.274 193.697L180.133 193.185ZM172.934 195.28L173.931 195.364L174.173 192.489L172.204 194.597L172.934 195.28ZM171.013 203.32L171.364 204.257L172.207 203.941L171.982 203.07L171.013 203.32ZM169.661 203.934L169.195 203.05L169.661 204.934V203.934ZM191.542 210.004L192.416 209.518C190.687 206.414 187.457 204.5 183.886 204.5V205.5V206.5C186.727 206.5 189.291 208.018 190.668 210.491L191.542 210.004ZM183.886 205.5V204.5C182.164 204.5 180.485 204.953 178.999 205.814L179.5 206.68L180.001 207.545C181.184 206.86 182.517 206.5 183.886 206.5V205.5ZM179.5 206.68L180.001 205.814C178.515 204.953 176.836 204.5 175.114 204.5V205.5V206.5C176.483 206.5 177.816 206.86 178.999 207.545L179.5 206.68ZM175.114 205.5V204.5C171.545 204.5 168.313 206.414 166.584 209.518L167.458 210.004L168.332 210.491C169.709 208.018 172.274 206.5 175.114 206.5V205.5ZM167.458 210.004L167.296 209.017C163.655 209.615 160.957 212.74 160.957 216.464H161.957H162.957C162.957 213.73 164.934 211.432 167.62 210.991L167.458 210.004ZM161.957 216.464H160.957C160.957 220.644 164.356 224.043 168.536 224.043V223.043V222.043C165.461 222.043 162.957 219.539 162.957 216.464H161.957ZM168.536 223.043V224.043H190.464V223.043V222.043H168.536V223.043ZM190.464 223.043V224.043C194.644 224.043 198.043 220.644 198.043 216.464H197.043H196.043C196.043 219.539 193.539 222.043 190.464 222.043V223.043ZM197.043 216.464H198.043C198.043 212.739 195.343 209.616 191.704 209.017L191.542 210.004L191.379 210.991C194.065 211.433 196.043 213.731 196.043 216.464H197.043ZM190.464 221.581V220.581H168.536V221.581V222.581H190.464V221.581ZM168.536 221.581V220.581C166.266 220.581 164.419 218.734 164.419 216.464H163.419H162.419C162.419 219.838 165.162 222.581 168.536 222.581V221.581ZM163.419 216.464H164.419C164.419 214.371 165.999 212.62 168.109 212.399L168.005 211.405L167.901 210.41C164.783 210.736 162.419 213.336 162.419 216.464H163.419ZM168.005 211.405L168.107 212.399L168.505 212.358L168.402 211.364L168.3 210.369L167.902 210.41L168.005 211.405ZM168.402 211.364L169.296 211.812L169.476 211.454L168.582 211.006L167.689 210.557L167.509 210.915L168.402 211.364ZM168.582 211.006L169.476 211.454C170.558 209.296 172.715 207.962 175.114 207.962V206.962V205.962C171.955 205.962 169.107 207.727 167.688 210.558L168.582 211.006ZM175.114 206.962V207.962C176.336 207.962 177.525 208.316 178.555 208.987L179.101 208.149L179.647 207.311C178.294 206.43 176.726 205.962 175.114 205.962V206.962ZM179.101 208.149L178.555 208.987L178.954 209.247L179.5 208.409L180.046 207.572L179.647 207.311L179.101 208.149ZM179.5 208.409L180.046 209.247L180.445 208.987L179.899 208.149L179.353 207.311L178.954 207.572L179.5 208.409ZM179.899 208.149L180.446 208.986C181.475 208.315 182.663 207.962 183.886 207.962V206.962V205.962C182.275 205.962 180.706 206.428 179.352 207.312L179.899 208.149ZM183.886 206.962V207.962C186.285 207.962 188.442 209.296 189.524 211.454L190.418 211.006L191.312 210.558C189.893 207.727 187.045 205.962 183.886 205.962V206.962ZM190.418 211.006L189.524 211.454L189.704 211.812L190.597 211.364L191.491 210.915L191.311 210.557L190.418 211.006ZM190.597 211.364L190.495 212.358L190.893 212.399L190.995 211.405L191.097 210.41L190.7 210.369L190.597 211.364ZM190.995 211.405L190.891 212.399C193.001 212.62 194.581 214.371 194.581 216.464H195.581H196.581C196.581 213.336 194.217 210.736 191.099 210.41L190.995 211.405ZM195.581 216.464H194.581C194.581 218.734 192.734 220.581 190.464 220.581V221.581V222.581C193.838 222.581 196.581 219.838 196.581 216.464H195.581ZM169.266 201.114H170.266C170.266 196.803 172.833 194.485 174.393 193.466L173.847 192.629L173.3 191.792C171.439 193.007 168.266 195.862 168.266 201.114H169.266ZM173.847 192.629L174.393 193.467L176.342 192.195L175.795 191.357L175.249 190.52L173.3 191.792L173.847 192.629ZM175.795 191.357L174.868 190.982L173.996 193.14L174.923 193.515L175.85 193.89L176.722 191.732L175.795 191.357ZM174.923 193.515L173.996 193.14C173.628 194.049 173.382 194.926 173.382 195.631H174.382H175.382C175.382 195.317 175.51 194.729 175.85 193.89L174.923 193.515ZM174.382 195.631H173.382C173.382 196.393 173.597 197.276 174.184 197.988C174.798 198.733 175.736 199.189 176.953 199.189V198.189V197.189C176.273 197.189 175.925 196.955 175.728 196.716C175.504 196.444 175.382 196.048 175.382 195.631H174.382ZM176.953 198.189V199.189C178.165 199.189 179.097 198.73 179.705 197.984C180.286 197.272 180.499 196.39 180.499 195.631H179.499H178.499C178.499 196.051 178.377 196.448 178.156 196.72C177.961 196.958 177.62 197.189 176.953 197.189V198.189ZM179.499 195.631H180.499C180.499 194.658 180.052 193.949 179.736 193.419L178.877 193.932L178.019 194.444C178.369 195.031 178.499 195.287 178.499 195.631H179.499ZM178.877 193.932L179.736 193.42C179.354 192.779 179.037 192.23 179.037 191.312H178.037H177.037C177.037 192.809 177.611 193.76 178.018 194.444L178.877 193.932ZM178.037 191.312H179.037C179.037 191.041 179.124 190.684 179.3 190.267C179.471 189.861 179.699 189.46 179.917 189.119L179.075 188.58L178.232 188.04C177.977 188.439 177.686 188.945 177.456 189.491C177.231 190.026 177.037 190.665 177.037 191.312H178.037ZM179.075 188.58L179.915 189.121L180.316 188.5L179.475 187.958L178.635 187.416L178.234 188.038L179.075 188.58ZM179.475 187.958L178.925 188.794L182.348 191.046L182.897 190.211L183.447 189.376L180.025 187.123L179.475 187.958ZM182.897 190.211L182.347 191.046C182.874 191.393 184.492 192.531 185.97 194.297C187.451 196.065 188.726 198.384 188.732 201.115L189.732 201.113L190.732 201.111C190.725 197.74 189.152 194.982 187.504 193.013C185.853 191.041 184.06 189.779 183.447 189.376L182.897 190.211ZM189.732 201.113H188.732C188.732 201.985 188.606 202.838 188.371 203.66L189.333 203.934L190.294 204.209C190.578 203.217 190.732 202.179 190.732 201.113H189.732ZM189.333 203.934L189.8 203.05C189.333 202.803 188.843 202.575 188.331 202.384L187.981 203.32L187.63 204.257C188.048 204.413 188.459 204.603 188.866 204.818L189.333 203.934ZM187.981 203.32L188.949 203.571C189.152 202.785 189.269 201.962 189.269 201.116H188.269H187.269C187.269 201.778 187.177 202.432 187.012 203.07L187.981 203.32ZM188.269 201.116L189.269 201.113C189.261 198.109 187.819 195.636 186.324 193.874C184.825 192.106 183.198 190.963 182.642 190.597L182.092 191.432L181.542 192.267C182.015 192.579 183.47 193.601 184.799 195.167C186.131 196.739 187.263 198.768 187.269 201.118L188.269 201.116ZM182.092 191.432L182.642 190.597L180.482 189.176L179.933 190.011L179.383 190.846L181.542 192.267L182.092 191.432ZM179.933 190.011L179.045 189.55C178.759 190.1 178.497 190.754 178.497 191.313H179.497H180.497C180.497 191.317 180.501 191.241 180.56 191.066C180.614 190.904 180.7 190.702 180.82 190.472L179.933 190.011ZM179.497 191.313H178.497C178.497 192.414 178.914 193.093 179.274 193.697L180.133 193.185L180.992 192.672C180.642 192.086 180.497 191.821 180.497 191.313H179.497ZM180.133 193.185L179.274 193.697C179.644 194.316 179.959 194.874 179.959 195.632H180.959H181.959C181.959 194.27 181.359 193.287 180.992 192.672L180.133 193.185ZM180.959 195.632H179.959C179.959 196.398 179.709 197.16 179.231 197.716C178.772 198.248 178.052 198.652 176.952 198.652V199.652V200.652C178.606 200.652 179.889 200.015 180.746 199.021C181.582 198.051 181.959 196.803 181.959 195.632H180.959ZM176.952 199.652V198.652C175.841 198.652 175.113 198.246 174.651 197.713C174.169 197.158 173.918 196.396 173.918 195.632H172.918H171.918C171.918 196.805 172.298 198.053 173.14 199.024C174.002 200.017 175.291 200.652 176.952 200.652V199.652ZM172.918 195.632H173.918C173.918 195.553 173.923 195.463 173.931 195.364L172.934 195.28L171.938 195.196C171.926 195.339 171.918 195.486 171.918 195.632H172.918ZM172.934 195.28L172.204 194.597C170.844 196.053 169.725 198.166 169.725 201.114H170.725H171.725C171.725 198.726 172.613 197.088 173.665 195.962L172.934 195.28ZM170.725 201.114H169.725C169.725 201.962 169.842 202.783 170.045 203.57L171.013 203.32L171.982 203.07C171.817 202.43 171.725 201.778 171.725 201.114H170.725ZM169.661 203.934V204.934H169.664V203.934V202.934H169.661V203.934ZM169.664 203.933L170.625 203.659C170.391 202.838 170.265 201.985 170.266 201.116L169.266 201.114L168.266 201.113C168.265 202.178 168.419 203.216 168.702 204.207L169.664 203.933ZM171.013 203.32L170.663 202.384C170.151 202.575 169.664 202.803 169.198 203.048L169.664 203.933L170.13 204.818C170.539 204.602 170.948 204.412 171.364 204.257L171.013 203.32ZM169.664 203.933L169.197 203.048L169.195 203.05L169.661 203.934L170.128 204.819L170.13 204.817L169.664 203.933ZM169.664 203.934L170.626 203.66L170.625 203.658L169.664 203.933L168.702 204.208L168.703 204.209L169.664 203.934ZM148.624 197.052L147.862 196.404C147.854 196.413 147.847 196.421 147.839 196.43L148.601 197.079L149.362 197.727C149.37 197.718 149.378 197.709 149.385 197.7L148.624 197.052ZM148.601 213.923L147.839 214.571C147.849 214.582 147.852 214.586 147.862 214.598L148.624 213.949L149.385 213.301C149.38 213.295 149.368 213.281 149.362 213.274L148.601 213.923ZM151.694 221.36L150.697 221.439L150.697 221.443L151.694 221.363L152.691 221.284L152.691 221.28L151.694 221.36ZM151.694 189.638L150.697 189.558L150.697 189.562L151.694 189.642L152.691 189.722L152.691 189.718L151.694 189.638ZM171.078 174.602L170.43 173.841C170.421 173.849 170.413 173.855 170.403 173.863L171.051 174.625L171.7 175.386C171.708 175.379 171.718 175.371 171.726 175.363L171.078 174.602ZM195.36 233.306L195.44 234.303L195.443 234.303L195.363 233.306L195.283 232.309L195.28 232.31L195.36 233.306ZM207.306 221.363L208.303 221.444L208.304 221.441L207.307 221.36L206.31 221.279L206.31 221.282L207.306 221.363ZM187.922 236.399L188.571 237.161C188.581 237.152 188.587 237.147 188.597 237.138L187.949 236.377L187.301 235.615C187.293 235.622 187.282 235.632 187.274 235.638L187.922 236.399ZM210.377 213.949L211.138 214.598C211.146 214.589 211.153 214.58 211.161 214.571L210.4 213.923L209.638 213.274C209.631 213.283 209.623 213.292 209.615 213.301L210.377 213.949ZM163.641 177.695L163.561 176.698L163.557 176.698L163.637 177.695L163.717 178.692L163.721 178.692L163.641 177.695ZM187.949 174.625L188.597 173.863C188.588 173.855 188.58 173.849 188.571 173.841L187.922 174.602L187.274 175.363C187.283 175.37 187.293 175.379 187.301 175.386L187.949 174.625ZM210.4 197.079L211.161 196.431C211.151 196.419 211.148 196.415 211.138 196.404L210.377 197.052L209.615 197.7C209.621 197.706 209.633 197.721 209.638 197.727L210.4 197.079ZM171.051 236.377L170.403 237.138C170.412 237.146 170.421 237.153 170.43 237.161L171.078 236.399L171.726 235.638C171.718 235.631 171.708 235.622 171.7 235.615L171.051 236.377ZM195.363 177.695L195.443 176.698L195.439 176.698L195.36 177.695L195.28 178.692L195.284 178.692L195.363 177.695ZM207.307 189.642L208.304 189.561L208.303 189.557L207.306 189.638L206.31 189.719L206.31 189.723L207.307 189.642ZM163.637 233.306L163.557 234.303L163.561 234.303L163.641 233.306L163.721 232.31L163.718 232.309L163.637 233.306ZM171.051 174.625L169.755 173.102L169.732 173.121L169.709 173.142L171.051 174.625ZM169.314 176.025L170.429 177.685L170.454 177.669L170.479 177.651L169.314 176.025ZM165.858 177.456L166.243 179.419L166.248 179.418L165.858 177.456ZM163.641 177.695L163.485 175.701L163.481 175.701L163.641 177.695ZM158.252 178.446L158.917 180.332L158.918 180.331L158.252 178.446ZM152.445 184.252L154.33 184.919L154.331 184.918L152.445 184.252ZM151.694 189.642L149.7 189.482L149.698 189.51L149.696 189.539L151.694 189.642ZM151.455 191.859L153.417 192.249L153.423 192.216L153.429 192.184L151.455 191.859ZM150.024 195.315L148.363 194.201L148.361 194.203L150.024 195.315ZM148.624 197.052L147.104 195.751L147.101 195.755L148.624 197.052ZM145.343 201.396L143.539 200.533L143.538 200.534L145.343 201.396ZM145.343 209.606L143.538 210.467L143.539 210.468L145.343 209.606ZM148.624 213.949L147.101 215.246L147.104 215.25L148.624 213.949ZM150.024 215.686L148.361 216.799L148.363 216.801L150.024 215.686ZM151.455 219.142L153.418 218.757L153.417 218.752L151.455 219.142ZM151.694 221.36L149.7 221.516L149.7 221.519L151.694 221.36ZM152.445 226.749L154.331 226.083L154.33 226.083L152.445 226.749ZM158.252 232.556L158.918 230.67L158.917 230.67L158.252 232.556ZM163.641 233.306L163.48 235.3L163.485 235.3L163.641 233.306ZM165.858 233.545L166.248 231.583L166.243 231.582L165.858 233.545ZM169.314 234.977L170.427 233.314L170.425 233.313L169.314 234.977ZM171.051 236.377L169.751 237.896L169.755 237.899L171.051 236.377ZM175.395 239.657L174.532 241.461L174.534 241.462L175.395 239.657ZM183.605 239.657L184.467 241.462L184.468 241.461L183.605 239.657ZM187.949 236.377L189.246 237.899L189.25 237.896L187.949 236.377ZM189.686 234.977L190.798 236.639L190.801 236.637L189.686 234.977ZM193.142 233.545L192.757 231.582L192.752 231.583L193.142 233.545ZM195.36 233.306L195.516 235.3L195.519 235.3L195.36 233.306ZM200.749 232.556L200.083 230.67L200.083 230.67L200.749 232.556ZM206.556 226.749L204.67 226.083L204.67 226.083L206.556 226.749ZM207.307 221.36L209.3 221.522L209.301 221.516L207.307 221.36ZM207.545 219.142L205.584 218.752L205.583 218.757L207.545 219.142ZM208.977 215.686L207.315 214.574L207.314 214.575L208.977 215.686ZM210.377 213.949L211.896 215.25L211.9 215.246L210.377 213.949ZM213.658 209.606L215.462 210.468L215.463 210.467L213.658 209.606ZM213.658 201.396L215.463 200.534L215.462 200.533L213.658 201.396ZM210.377 197.052L211.9 195.755L211.88 195.732L211.86 195.71L210.377 197.052ZM208.977 195.315L207.316 196.429L207.333 196.454L207.351 196.479L208.977 195.315ZM207.545 191.859L205.572 192.183L205.577 192.215L205.583 192.247L207.545 191.859ZM207.307 189.642L209.304 189.539L209.303 189.509L209.3 189.48L207.307 189.642ZM206.556 184.252L204.67 184.918L204.67 184.919L206.556 184.252ZM200.749 178.446L200.083 180.331L200.083 180.332L200.749 178.446ZM195.36 177.695L195.518 175.701L195.49 175.699L195.463 175.697L195.36 177.695ZM193.142 177.456L192.755 179.418L192.786 179.425L192.818 179.43L193.142 177.456ZM189.686 176.025L188.519 177.649L188.546 177.668L188.573 177.686L189.686 176.025ZM187.949 174.625L189.289 173.14L189.268 173.121L189.246 173.102L187.949 174.625ZM183.605 171.344L184.468 169.54L184.468 169.54L183.605 171.344ZM179.5 170.414V168.414V170.414ZM175.395 171.344L174.533 169.54L174.532 169.54L175.395 171.344ZM171.078 174.602L172.374 176.125L172.375 176.125L171.078 174.602ZM187.922 174.602L189.219 173.079L189.219 173.079L187.922 174.602ZM195.363 177.695L195.523 175.701L195.522 175.701L195.363 177.695ZM207.306 189.638L205.313 189.797L205.313 189.799L207.306 189.638ZM210.4 197.079L211.923 195.782L211.923 195.782L210.4 197.079ZM210.4 213.923L208.877 212.626L208.877 212.626L210.4 213.923ZM207.306 221.363L205.313 221.201L205.313 221.204L207.306 221.363ZM195.363 233.306L195.204 231.313L195.203 231.313L195.363 233.306ZM187.922 236.399L189.219 237.922L189.219 237.922L187.922 236.399ZM171.078 236.399L172.375 234.876L172.375 234.876L171.078 236.399ZM163.637 233.306L163.798 231.313L163.797 231.313L163.637 233.306ZM151.694 221.363L149.7 221.522L149.7 221.523L151.694 221.363ZM148.601 213.923L150.124 212.626L150.124 212.626L148.601 213.923ZM148.601 197.079L150.124 198.375L150.124 198.375L148.601 197.079ZM151.694 189.638L153.688 189.798L153.688 189.797L151.694 189.638ZM163.637 177.695L163.797 179.689L163.797 179.689L163.637 177.695ZM171.051 174.625L169.709 173.142C169.214 173.59 168.693 174.01 168.15 174.399L169.314 176.025L170.479 177.651C171.146 177.173 171.785 176.658 172.393 176.108L171.051 174.625ZM169.314 176.025L168.2 174.364C167.377 174.916 166.448 175.3 165.468 175.495L165.858 177.456L166.248 179.418C167.739 179.122 169.161 178.537 170.429 177.685L169.314 176.025ZM165.858 177.456L165.474 175.494C165.075 175.572 164.644 175.61 163.485 175.701L163.641 177.695L163.797 179.689C164.876 179.604 165.568 179.551 166.243 179.419L165.858 177.456ZM158.252 178.446L157.586 176.56C155.964 177.132 154.491 178.061 153.275 179.276L154.69 180.691L156.104 182.105C156.898 181.311 157.859 180.705 158.917 180.332L158.252 178.446ZM154.69 180.691L153.275 179.276C152.06 180.492 151.131 181.965 150.559 183.587L152.445 184.252L154.331 184.918C154.704 183.86 155.31 182.899 156.104 182.105L154.69 180.691ZM151.694 189.642L149.696 189.539C149.662 190.208 149.59 190.874 149.482 191.535L151.455 191.859L153.429 192.184C153.561 191.376 153.649 190.562 153.691 189.745L151.694 189.642ZM151.455 191.859L149.494 191.469C149.299 192.449 148.915 193.378 148.363 194.201L150.024 195.315L151.684 196.43C152.535 195.162 153.12 193.739 153.417 192.249L151.455 191.859ZM150.024 195.315L148.361 194.203C148.137 194.539 147.862 194.866 147.104 195.751L148.624 197.052L150.143 198.352C150.845 197.532 151.3 197.004 151.686 196.428L150.024 195.315ZM145.343 201.396L143.538 200.534C142.039 203.676 142.039 207.326 143.538 210.467L145.343 209.606L147.148 208.745C146.169 206.693 146.169 204.308 147.148 202.257L145.343 201.396ZM148.624 213.949L147.104 215.25C147.862 216.135 148.137 216.463 148.361 216.799L150.024 215.686L151.686 214.574C151.3 213.997 150.845 213.469 150.143 212.649L148.624 213.949ZM150.024 215.686L148.363 216.801C148.915 217.624 149.299 218.552 149.494 219.532L151.455 219.142L153.417 218.752C153.12 217.262 152.535 215.84 151.684 214.572L150.024 215.686ZM151.455 219.142L149.493 219.527C149.571 219.925 149.609 220.356 149.7 221.516L151.694 221.36L153.688 221.203C153.603 220.125 153.55 219.433 153.418 218.757L151.455 219.142ZM152.445 226.749L150.559 227.415C151.131 229.036 152.06 230.509 153.275 231.725L154.69 230.311L156.104 228.896C155.31 228.103 154.704 227.141 154.331 226.083L152.445 226.749ZM154.69 230.311L153.275 231.725C154.491 232.941 155.964 233.869 157.586 234.442L158.252 232.556L158.917 230.67C157.859 230.296 156.898 229.69 156.104 228.896L154.69 230.311ZM163.641 233.306L163.485 235.3C164.644 235.391 165.075 235.43 165.474 235.508L165.858 233.545L166.243 231.582C165.568 231.45 164.876 231.397 163.797 231.313L163.641 233.306ZM165.858 233.545L165.468 235.507C166.445 235.701 167.376 236.087 168.204 236.64L169.314 234.977L170.425 233.313C169.162 232.47 167.742 231.88 166.248 231.583L165.858 233.545ZM169.314 234.977L168.202 236.639C168.538 236.863 168.866 237.138 169.751 237.896L171.051 236.377L172.352 234.857C171.532 234.155 171.003 233.7 170.427 233.314L169.314 234.977ZM175.395 239.657L174.534 241.462C177.675 242.961 181.325 242.961 184.467 241.462L183.605 239.657L182.744 237.852C180.693 238.831 178.308 238.831 176.256 237.852L175.395 239.657ZM187.949 236.377L189.25 237.896C190.135 237.138 190.463 236.863 190.798 236.639L189.686 234.977L188.574 233.314C187.997 233.7 187.469 234.155 186.649 234.857L187.949 236.377ZM189.686 234.977L190.801 236.637C191.624 236.085 192.552 235.702 193.532 235.507L193.142 233.545L192.752 231.583C191.262 231.88 189.84 232.465 188.572 233.316L189.686 234.977ZM193.142 233.545L193.527 235.508C193.925 235.43 194.356 235.391 195.516 235.3L195.36 233.306L195.203 231.313C194.125 231.397 193.433 231.45 192.757 231.582L193.142 233.545ZM200.749 232.556L201.415 234.442C203.036 233.869 204.509 232.941 205.725 231.725L204.311 230.311L202.897 228.896C202.103 229.69 201.142 230.296 200.083 230.67L200.749 232.556ZM204.311 230.311L205.725 231.725C206.941 230.509 207.869 229.036 208.442 227.415L206.556 226.749L204.67 226.083C204.296 227.141 203.69 228.103 202.897 228.896L204.311 230.311ZM207.307 221.36L209.301 221.516C209.392 220.356 209.43 219.925 209.508 219.527L207.545 219.142L205.583 218.757C205.45 219.433 205.397 220.125 205.313 221.203L207.307 221.36ZM207.545 219.142L209.507 219.532C209.701 218.556 210.087 217.625 210.64 216.797L208.977 215.686L207.314 214.575C206.47 215.839 205.881 217.259 205.584 218.752L207.545 219.142ZM208.977 215.686L210.639 216.799C210.864 216.463 211.139 216.135 211.896 215.25L210.377 213.949L208.858 212.649C208.156 213.469 207.701 213.997 207.315 214.574L208.977 215.686ZM213.658 209.606L215.463 210.467C216.961 207.326 216.961 203.676 215.463 200.534L213.658 201.396L211.852 202.257C212.831 204.308 212.831 206.693 211.852 208.745L213.658 209.606ZM210.377 197.052L211.86 195.71C211.412 195.215 210.992 194.694 210.603 194.151L208.977 195.315L207.351 196.479C207.828 197.146 208.344 197.786 208.894 198.394L210.377 197.052ZM208.977 195.315L210.638 194.202C210.084 193.375 209.7 192.448 209.508 191.472L207.545 191.859L205.583 192.247C205.878 193.741 206.467 195.163 207.316 196.429L208.977 195.315ZM207.545 191.859L209.519 191.535C209.41 190.874 209.339 190.208 209.304 189.539L207.307 189.642L205.309 189.745C205.352 190.562 205.439 191.376 205.572 192.183L207.545 191.859ZM206.556 184.252L208.442 183.587C207.869 181.965 206.941 180.492 205.725 179.276L204.311 180.691L202.897 182.105C203.69 182.899 204.296 183.86 204.67 184.918L206.556 184.252ZM204.311 180.691L205.725 179.276C204.509 178.061 203.036 177.132 201.415 176.56L200.749 178.446L200.083 180.332C201.142 180.705 202.103 181.311 202.897 182.105L204.311 180.691ZM195.36 177.695L195.463 175.697C194.794 175.663 194.127 175.591 193.466 175.483L193.142 177.456L192.818 179.43C193.625 179.562 194.44 179.65 195.257 179.692L195.36 177.695ZM193.142 177.456L193.529 175.494C192.554 175.301 191.626 174.917 190.8 174.363L189.686 176.025L188.573 177.686C189.838 178.534 191.26 179.123 192.755 179.418L193.142 177.456ZM189.686 176.025L190.853 174.4C190.309 174.009 189.786 173.589 189.289 173.14L187.949 174.625L186.61 176.11C187.217 176.658 187.855 177.172 188.519 177.649L189.686 176.025ZM183.605 171.344L184.468 169.54C182.917 168.798 181.219 168.414 179.5 168.414V170.414V172.414C180.622 172.414 181.73 172.665 182.743 173.149L183.605 171.344ZM179.5 170.414V168.414C177.781 168.414 176.084 168.798 174.533 169.54L175.395 171.344L176.258 173.149C177.27 172.665 178.378 172.414 179.5 172.414V170.414ZM171.051 174.625L172.348 176.148L172.374 176.125L171.078 174.602L169.782 173.079L169.755 173.102L171.051 174.625ZM171.078 174.602L172.375 176.125C174.596 174.234 175.433 173.543 176.258 173.149L175.395 171.344L174.532 169.54C173.121 170.215 171.819 171.345 169.782 173.079L171.078 174.602ZM183.605 171.344L182.743 173.149C183.568 173.543 184.405 174.234 186.626 176.125L187.922 174.602L189.219 173.079C187.181 171.345 185.879 170.215 184.468 169.54L183.605 171.344ZM187.922 174.602L186.626 176.125L186.653 176.148L187.949 174.625L189.246 173.102L189.219 173.079L187.922 174.602ZM195.36 177.695L195.201 179.689L195.205 179.689L195.363 177.695L195.522 175.701L195.518 175.701L195.36 177.695ZM195.363 177.695L195.204 179.689C198.133 179.923 199.219 180.026 200.083 180.331L200.749 178.446L201.415 176.56C199.937 176.038 198.209 175.916 195.523 175.701L195.363 177.695ZM206.556 184.252L204.67 184.919C204.975 185.783 205.079 186.868 205.313 189.797L207.306 189.638L209.3 189.478C209.085 186.792 208.964 185.065 208.442 183.586L206.556 184.252ZM207.306 189.638L205.313 189.799L205.313 189.803L207.307 189.642L209.3 189.48L209.3 189.476L207.306 189.638ZM210.377 197.052L208.854 198.348L208.877 198.375L210.4 197.079L211.923 195.782L211.9 195.755L210.377 197.052ZM210.4 197.079L208.877 198.375C210.768 200.597 211.459 201.433 211.853 202.258L213.658 201.396L215.462 200.533C214.787 199.122 213.657 197.82 211.923 195.782L210.4 197.079ZM213.658 209.606L211.853 208.743C211.459 209.568 210.768 210.405 208.877 212.626L210.4 213.923L211.923 215.219C213.657 213.182 214.787 211.88 215.462 210.468L213.658 209.606ZM210.4 213.923L208.877 212.626L208.854 212.653L210.377 213.949L211.9 215.246L211.923 215.219L210.4 213.923ZM207.307 221.36L205.313 221.198L205.313 221.201L207.306 221.363L209.3 221.525L209.3 221.522L207.307 221.36ZM207.306 221.363L205.313 221.204C205.079 224.133 204.975 225.219 204.67 226.083L206.556 226.749L208.442 227.415C208.964 225.936 209.085 224.209 209.3 221.523L207.306 221.363ZM200.749 232.556L200.083 230.67C199.219 230.975 198.133 231.078 195.204 231.313L195.363 233.306L195.522 235.3C198.209 235.085 199.937 234.964 201.415 234.441L200.749 232.556ZM195.363 233.306L195.203 231.313L195.2 231.313L195.36 233.306L195.519 235.3L195.523 235.3L195.363 233.306ZM187.949 236.377L186.653 234.854L186.626 234.876L187.922 236.399L189.219 237.922L189.246 237.899L187.949 236.377ZM187.922 236.399L186.626 234.876C184.405 236.767 183.568 237.458 182.743 237.853L183.605 239.657L184.468 241.461C185.879 240.787 187.181 239.657 189.219 237.922L187.922 236.399ZM175.395 239.657L176.258 237.853C175.433 237.458 174.596 236.767 172.375 234.876L171.078 236.399L169.782 237.922C171.819 239.657 173.121 240.787 174.532 241.461L175.395 239.657ZM171.078 236.399L172.375 234.876L172.348 234.854L171.051 236.377L169.755 237.899L169.782 237.922L171.078 236.399ZM163.641 233.306L163.801 231.313L163.798 231.313L163.637 233.306L163.477 235.3L163.48 235.3L163.641 233.306ZM163.637 233.306L163.797 231.313C160.867 231.078 159.782 230.975 158.918 230.67L158.252 232.556L157.585 234.441C159.064 234.964 160.791 235.085 163.478 235.3L163.637 233.306ZM152.445 226.749L154.33 226.083C154.025 225.219 153.922 224.133 153.688 221.204L151.694 221.363L149.7 221.523C149.915 224.209 150.036 225.936 150.559 227.415L152.445 226.749ZM151.694 221.363L153.688 221.204L153.687 221.201L151.694 221.36L149.7 221.519L149.7 221.522L151.694 221.363ZM148.624 213.949L150.147 212.653L150.124 212.626L148.601 213.923L147.078 215.219L147.101 215.246L148.624 213.949ZM148.601 213.923L150.124 212.626C148.233 210.405 147.542 209.568 147.147 208.743L145.343 209.606L143.539 210.468C144.213 211.88 145.343 213.182 147.078 215.219L148.601 213.923ZM145.343 201.396L147.147 202.258C147.542 201.433 148.233 200.597 150.124 198.375L148.601 197.079L147.078 195.782C145.343 197.82 144.213 199.122 143.539 200.533L145.343 201.396ZM148.601 197.079L150.124 198.375L150.147 198.348L148.624 197.052L147.101 195.755L147.078 195.782L148.601 197.079ZM151.694 189.642L153.687 189.801L153.688 189.798L151.694 189.638L149.7 189.478L149.7 189.482L151.694 189.642ZM151.694 189.638L153.688 189.797C153.922 186.868 154.025 185.783 154.33 184.919L152.445 184.252L150.559 183.586C150.036 185.065 149.915 186.792 149.7 189.479L151.694 189.638ZM158.252 178.446L158.918 180.331C159.782 180.026 160.867 179.923 163.797 179.689L163.637 177.695L163.478 175.701C160.791 175.916 159.064 176.038 157.585 176.56L158.252 178.446ZM163.637 177.695L163.797 179.689L163.8 179.688L163.641 177.695L163.481 175.701L163.478 175.702L163.637 177.695Z" fill="white" mask="url(#path-2-outside-1_1_18453)"/>
<defs>
<filter id="filter0_f_1_18453" x="-26" y="0" width="411" height="411" filterUnits="userSpaceOnUse" color-interpolation-filters="sRGB">
<feFlood flood-opacity="0" result="BackgroundImageFix"/>
<feBlend mode="normal" in="SourceGraphic" in2="BackgroundImageFix" result="shape"/>
<feGaussianBlur stdDeviation="75" result="effect1_foregroundBlur_1_18453"/>
</filter>
</defs>
</svg>
