<svg width="100" height="100" viewBox="0 0 100 100" fill="none" xmlns="http://www.w3.org/2000/svg">
<path fill-rule="evenodd" clip-rule="evenodd" d="M37.9597 6.00126C37.1733 6.71281 36.3469 7.37889 35.4846 7.99626C33.9946 8.99626 32.3196 9.68626 30.5595 10.0363C29.7945 10.1863 28.9945 10.2513 27.3994 10.3763C23.3943 10.6963 21.3893 10.8563 19.7192 11.4463C17.8097 12.1204 16.0753 13.2136 14.6434 14.6455C13.2114 16.0774 12.1182 17.8118 11.444 19.7213C10.854 21.3913 10.694 23.3963 10.374 27.4013C10.3195 28.4601 10.206 29.5151 10.034 30.5613C9.68399 32.3213 8.99397 33.9963 7.99395 35.4863C7.55894 36.1363 7.03893 36.7463 5.9989 37.9613C3.39383 41.0213 2.0888 42.5513 1.32378 44.1513C-0.441261 47.8513 -0.441261 52.1513 1.32378 55.8513C2.0888 57.4513 3.39383 58.9813 5.9989 62.0413C7.03893 63.2563 7.55894 63.8663 7.99395 64.5163C8.99397 66.0062 9.68399 67.6813 10.034 69.4413C10.184 70.2063 10.249 71.0063 10.374 72.6013C10.694 76.6063 10.854 78.6113 11.444 80.2812C12.1182 82.1908 13.2114 83.9251 14.6434 85.357C16.0753 86.7889 17.8097 87.8821 19.7192 88.5563C21.3893 89.1463 23.3943 89.3063 27.3994 89.6263C28.9945 89.7513 29.7945 89.8163 30.5595 89.9663C32.3196 90.3163 33.9946 91.0112 35.4846 92.0062C36.1347 92.4412 36.7447 92.9613 37.9597 94.0013C41.0198 96.6063 42.5498 97.9113 44.1499 98.6763C47.8499 100.441 52.1501 100.441 55.8501 98.6763C57.4502 97.9113 58.9802 96.6063 62.0403 94.0013C63.2553 92.9613 63.8653 92.4412 64.5154 92.0062C66.0054 91.0062 67.6804 90.3163 69.4405 89.9663C70.2055 89.8163 71.0055 89.7513 72.6006 89.6263C76.6057 89.3063 78.6107 89.1463 80.2808 88.5563C82.1903 87.8821 83.9247 86.7889 85.3566 85.357C86.7886 83.9251 87.8818 82.1908 88.556 80.2812C89.146 78.6113 89.306 76.6063 89.626 72.6013C89.751 71.0063 89.816 70.2063 89.966 69.4413C90.316 67.6813 91.011 66.0062 92.006 64.5163C92.4411 63.8663 92.9611 63.2563 94.0011 62.0413C96.6062 58.9813 97.9112 57.4513 98.6762 55.8513C100.441 52.1513 100.441 47.8513 98.6762 44.1513C97.9112 42.5513 96.6062 41.0213 94.0011 37.9613C93.2895 37.1749 92.6234 36.3485 92.006 35.4863C91.007 33.9957 90.3136 32.3217 89.966 30.5613C89.7942 29.515 89.6807 28.4601 89.626 27.4013C89.306 23.3963 89.146 21.3913 88.556 19.7213C87.8818 17.8118 86.7886 16.0774 85.3566 14.6455C83.9247 13.2136 82.1903 12.1204 80.2808 11.4463C78.6107 10.8563 76.6057 10.6963 72.6006 10.3763C71.5417 10.3217 70.4867 10.2082 69.4405 10.0363C67.68 9.6887 66.006 8.99531 64.5154 7.99626C63.6541 7.37758 62.8278 6.71155 62.0403 6.00126C58.9802 3.39626 57.4502 2.09126 55.8501 1.32626C54.0235 0.453166 52.0246 0 50 0C47.9754 0 45.9765 0.453166 44.1499 1.32626C42.5498 2.09126 41.0198 3.39626 37.9597 6.00126Z" fill="#ECF1F9"/>
<path fill-rule="evenodd" clip-rule="evenodd" d="M42.0534 20.9608C41.5344 21.4305 40.989 21.8701 40.4199 22.2775C39.4364 22.9375 38.3309 23.3929 37.1693 23.6239C36.6644 23.7229 36.1364 23.7658 35.0836 23.8483C32.4403 24.0595 31.1169 24.1651 30.0147 24.5545C28.7544 24.9995 27.6097 25.721 26.6646 26.666C25.7195 27.6111 24.998 28.7558 24.5531 30.016C24.1637 31.1182 24.0581 32.4415 23.8468 35.0848C23.8108 35.7837 23.7359 36.4799 23.6224 37.1704C23.3914 38.332 22.936 39.4375 22.276 40.4209C21.9889 40.8499 21.6457 41.2525 20.9593 42.0544C19.2399 44.074 18.3786 45.0838 17.8737 46.1398C16.7088 48.5818 16.7088 51.4198 17.8737 53.8618C18.3786 54.9178 19.2399 55.9276 20.9593 57.9472C21.6457 58.7491 21.9889 59.1517 22.276 59.5807C22.936 60.5641 23.3914 61.6696 23.6224 62.8312C23.7214 63.3361 23.7643 63.8641 23.8468 64.9168C24.0581 67.5601 24.1637 68.8834 24.5531 69.9856C24.998 71.2459 25.7195 72.3906 26.6646 73.3356C27.6097 74.2807 28.7544 75.0022 30.0147 75.4471C31.1169 75.8365 32.4403 75.9421 35.0836 76.1533C36.1364 76.2358 36.6644 76.2787 37.1693 76.3777C38.3309 76.6087 39.4364 77.0674 40.4199 77.7241C40.8489 78.0112 41.2515 78.3544 42.0534 79.0408C44.073 80.7601 45.0829 81.6214 46.1389 82.1263C48.581 83.2912 51.419 83.2912 53.8611 82.1263C54.9171 81.6214 55.9269 80.7601 57.9466 79.0408C58.7485 78.3544 59.1511 78.0112 59.5801 77.7241C60.5636 77.0641 61.6691 76.6087 62.8307 76.3777C63.3356 76.2787 63.8636 76.2358 64.9164 76.1533C67.5597 75.9421 68.8831 75.8365 69.9853 75.4471C71.2456 75.0022 72.3903 74.2807 73.3354 73.3356C74.2805 72.3906 75.002 71.2459 75.4469 69.9856C75.8363 68.8834 75.9419 67.5601 76.1531 64.9168C76.2357 63.8641 76.2786 63.3361 76.3776 62.8312C76.6086 61.6696 77.0673 60.5641 77.724 59.5807C78.0111 59.1517 78.3543 58.7491 79.0407 57.9472C80.7601 55.9276 81.6214 54.9178 82.1263 53.8618C83.2912 51.4198 83.2912 48.5818 82.1263 46.1398C81.6214 45.0838 80.7601 44.074 79.0407 42.0544C78.5711 41.5354 78.1315 40.99 77.724 40.4209C77.0646 39.4371 76.607 38.3323 76.3776 37.1704C76.2642 36.4799 76.1892 35.7837 76.1531 35.0848C75.9419 32.4415 75.8363 31.1182 75.4469 30.016C75.002 28.7558 74.2805 27.6111 73.3354 26.666C72.3903 25.721 71.2456 24.9995 69.9853 24.5545C68.8831 24.1651 67.5597 24.0595 64.9164 23.8483C64.2175 23.8123 63.5212 23.7374 62.8307 23.6239C61.6688 23.3945 60.5639 22.9369 59.5801 22.2775C59.0117 21.8692 58.4663 21.4296 57.9466 20.9608C55.9269 19.2415 54.9171 18.3802 53.8611 17.8753C52.6555 17.2991 51.3362 17 50 17C48.6638 17 47.3445 17.2991 46.1389 17.8753C45.0829 18.3802 44.073 19.2415 42.0534 20.9608Z" fill="#0070FF"/>
<path d="M39.3945 50.5051L46.7178 57.5758L61.3642 42.4243" stroke="white" stroke-width="4" stroke-linecap="round" stroke-linejoin="round"/>
</svg>
