<svg width="32" height="32" viewBox="0 0 32 32" fill="none" xmlns="http://www.w3.org/2000/svg">
<path fill-rule="evenodd" clip-rule="evenodd" d="M12.374 2.7486C12.1371 2.9629 11.8883 3.16351 11.6285 3.34945C11.1798 3.65062 10.6753 3.85844 10.1452 3.96385C9.91481 4.00902 9.67386 4.0286 9.19347 4.06625C7.98723 4.16262 7.38335 4.21081 6.88038 4.38851C6.30526 4.59156 5.78291 4.92079 5.35164 5.35205C4.92037 5.7833 4.59113 6.30564 4.38808 6.88074C4.21038 7.38371 4.16219 7.98757 4.06581 9.19378C4.04939 9.51267 4.0152 9.83041 3.96341 10.1455C3.858 10.6756 3.65018 11.18 3.349 11.6288C3.21798 11.8246 3.06136 12.0083 2.74813 12.3742C1.96355 13.2958 1.5705 13.7566 1.3401 14.2385C0.808509 15.3528 0.808509 16.6479 1.3401 17.7622C1.5705 18.2441 1.96355 18.7049 2.74813 19.6265C3.06136 19.9925 3.21798 20.1762 3.349 20.3719C3.65018 20.8207 3.858 21.3252 3.96341 21.8552C4.00859 22.0856 4.02817 22.3266 4.06581 22.807C4.16219 24.0132 4.21038 24.617 4.38808 25.12C4.59113 25.6951 4.92037 26.2174 5.35164 26.6487C5.78291 27.0799 6.30526 27.4092 6.88038 27.6122C7.38335 27.7899 7.98723 27.8381 9.19347 27.9345C9.67386 27.9721 9.91481 27.9917 10.1452 28.0369C10.6753 28.1423 11.1798 28.3516 11.6285 28.6513C11.8243 28.7823 12.008 28.9389 12.374 29.2521C13.2956 30.0367 13.7564 30.4297 14.2383 30.6601C15.3527 31.1917 16.6478 31.1917 17.7622 30.6601C18.2441 30.4297 18.7049 30.0367 19.6265 29.2521C19.9924 28.9389 20.1761 28.7823 20.3719 28.6513C20.8207 28.3501 21.3252 28.1423 21.8552 28.0369C22.0857 27.9917 22.3266 27.9721 22.807 27.9345C24.0132 27.8381 24.6171 27.7899 25.1201 27.6122C25.6952 27.4092 26.2175 27.0799 26.6488 26.6487C27.0801 26.2174 27.4093 25.6951 27.6124 25.12C27.7901 24.617 27.8383 24.0132 27.9346 22.807C27.9723 22.3266 27.9919 22.0856 28.037 21.8552C28.1425 21.3252 28.3518 20.8207 28.6515 20.3719C28.7825 20.1762 28.9391 19.9925 29.2523 19.6265C30.0369 18.7049 30.43 18.2441 30.6604 17.7622C31.1919 16.6479 31.1919 15.3528 30.6604 14.2385C30.43 13.7566 30.0369 13.2958 29.2523 12.3742C29.038 12.1374 28.8374 11.8885 28.6515 11.6288C28.3506 11.1799 28.1417 10.6757 28.037 10.1455C27.9853 9.8304 27.9511 9.51267 27.9346 9.19378C27.8383 7.98757 27.7901 7.38371 27.6124 6.88074C27.4093 6.30564 27.0801 5.7833 26.6488 5.35205C26.2175 4.92079 25.6952 4.59156 25.1201 4.38851C24.6171 4.21081 24.0132 4.16262 22.807 4.06625C22.4881 4.04982 22.1703 4.01564 21.8552 3.96385C21.325 3.85917 20.8209 3.65034 20.3719 3.34945C20.1125 3.16312 19.8636 2.96252 19.6265 2.7486C18.7049 1.96404 18.2441 1.571 17.7622 1.3406C17.212 1.07764 16.61 0.941162 16.0002 0.941162C15.3905 0.941162 14.7884 1.07764 14.2383 1.3406C13.7564 1.571 13.2956 1.96404 12.374 2.7486Z" fill="#F4F4F5"/>
<g clip-path="url(#clip0_1_7763)">
<g clip-path="url(#clip1_1_7763)">
<g clip-path="url(#clip2_1_7763)">
<path d="M14.1177 10.7452C14.1177 10.3988 14.3988 10.1177 14.7452 10.1177C15.0915 10.1177 15.3726 10.3988 15.3726 10.7452C15.3726 11.0915 15.0915 11.3726 14.7452 11.3726C14.3988 11.3726 14.1177 11.0915 14.1177 10.7452ZM12.8628 10.7452C12.8628 10.3988 12.5817 10.1177 12.2354 10.1177C11.889 10.1177 11.6079 10.3988 11.6079 10.7452C11.6079 11.0915 11.889 11.3726 12.2354 11.3726C12.5817 11.3726 12.8628 11.0915 12.8628 10.7452ZM22.2746 9.80398V23.2942H9.72559V9.80398C9.72559 8.93935 10.429 8.23535 11.2942 8.23535H20.706C21.5712 8.23535 22.2746 8.93935 22.2746 9.80398ZM21.6472 9.80398C21.6472 9.28508 21.2249 8.8628 20.706 8.8628H11.2942C10.7753 8.8628 10.353 9.28508 10.353 9.80398V22.6667H21.6472V9.80398ZM19.7648 17.0197C19.7648 19.0959 18.0763 20.7844 16.0001 20.7844C13.9239 20.7844 12.2354 19.0959 12.2354 17.0197C12.2354 14.9434 13.9239 13.255 16.0001 13.255C18.0763 13.255 19.7648 14.9434 19.7648 17.0197ZM19.0715 17.6584C18.7672 17.8172 18.3643 17.9608 17.8824 17.9608C16.8578 17.9608 15.8677 17.3083 15.8263 17.2807C15.8175 17.275 14.9504 16.7059 14.1177 16.7059C13.5279 16.7059 13.073 17.0002 12.876 17.1527C12.9475 18.8198 14.3154 20.1569 16.0001 20.1569C17.511 20.1569 18.7753 19.0827 19.0715 17.6584ZM19.1242 16.8866C19.0526 15.2195 17.6848 13.8824 16.0001 13.8824C14.4892 13.8824 13.2249 14.9566 12.9287 16.3809C13.233 16.2222 13.6359 16.0785 14.1177 16.0785C15.1424 16.0785 16.1325 16.731 16.1739 16.7586C16.1827 16.7643 17.0498 17.3334 17.8824 17.3334C18.4723 17.3334 18.9272 17.0391 19.1242 16.8866Z" fill="#18181B"/>
</g>
</g>
</g>
<defs>
<clipPath id="clip0_1_7763">
<rect width="15.0588" height="15.0588" fill="white" transform="translate(8.4707 8.23535)"/>
</clipPath>
<clipPath id="clip1_1_7763">
<rect width="15.0588" height="15.0588" fill="white" transform="translate(8.4707 8.15698)"/>
</clipPath>
<clipPath id="clip2_1_7763">
<rect width="15.0588" height="15.0588" fill="white" transform="translate(8.4707 8.23535)"/>
</clipPath>
</defs>
</svg>
