<svg width="20" height="20" viewBox="0 0 20 20" fill="none" xmlns="http://www.w3.org/2000/svg">
<path d="M4.69605 15.3035C4.57884 15.1863 4.51299 15.0273 4.51299 14.8616C4.51299 14.6958 4.57883 14.5368 4.69604 14.4196L13.352 5.76363L6.90575 5.76418C6.82363 5.76418 6.74231 5.74801 6.66644 5.71658C6.59057 5.68516 6.52163 5.63909 6.46357 5.58102C6.4055 5.52296 6.35943 5.45402 6.32801 5.37815C6.29658 5.30228 6.2804 5.22096 6.28041 5.13884C6.2804 5.05671 6.29658 4.9754 6.32801 4.89953C6.35943 4.82366 6.4055 4.75472 6.46356 4.69665C6.52163 4.63858 6.59057 4.59252 6.66644 4.56109C6.74231 4.52966 6.82363 4.51349 6.90575 4.51349L14.8607 4.51349C14.9428 4.51344 15.0242 4.52959 15.1001 4.561C15.176 4.59241 15.2449 4.63847 15.303 4.69655C15.3611 4.75463 15.4071 4.82358 15.4385 4.89947C15.47 4.97536 15.4861 5.0567 15.4861 5.13884L15.4861 13.0938C15.4861 13.2596 15.4202 13.4187 15.3029 13.536C15.1856 13.6533 15.0266 13.7191 14.8607 13.7191C14.6949 13.7191 14.5358 13.6533 14.4185 13.536C14.3012 13.4187 14.2354 13.2596 14.2354 13.0938L14.2359 6.64752L5.57993 15.3035C5.46272 15.4207 5.30375 15.4866 5.13799 15.4866C4.97223 15.4866 4.81326 15.4207 4.69605 15.3035Z" fill="#18181B"/>
</svg>

