<svg width="32" height="32" viewBox="0 0 32 32" fill="none" xmlns="http://www.w3.org/2000/svg">
<path fill-rule="evenodd" clip-rule="evenodd" d="M12.374 2.7486C12.1371 2.9629 11.8883 3.16351 11.6285 3.34945C11.1798 3.65062 10.6753 3.85844 10.1452 3.96385C9.91481 4.00902 9.67386 4.0286 9.19347 4.06625C7.98723 4.16262 7.38335 4.21081 6.88038 4.38851C6.30526 4.59156 5.78291 4.92079 5.35164 5.35205C4.92037 5.7833 4.59113 6.30564 4.38808 6.88074C4.21038 7.38371 4.16219 7.98757 4.06581 9.19378C4.04939 9.51267 4.0152 9.83041 3.96341 10.1455C3.858 10.6756 3.65018 11.18 3.349 11.6288C3.21798 11.8246 3.06136 12.0083 2.74813 12.3742C1.96355 13.2958 1.5705 13.7566 1.3401 14.2385C0.808509 15.3528 0.808509 16.6479 1.3401 17.7622C1.5705 18.2441 1.96355 18.7049 2.74813 19.6265C3.06136 19.9925 3.21798 20.1762 3.349 20.3719C3.65018 20.8207 3.858 21.3252 3.96341 21.8552C4.00859 22.0856 4.02817 22.3266 4.06581 22.807C4.16219 24.0132 4.21038 24.617 4.38808 25.12C4.59113 25.6951 4.92037 26.2174 5.35164 26.6487C5.78291 27.0799 6.30526 27.4092 6.88038 27.6122C7.38335 27.7899 7.98723 27.8381 9.19347 27.9345C9.67386 27.9721 9.91481 27.9917 10.1452 28.0369C10.6753 28.1423 11.1798 28.3516 11.6285 28.6513C11.8243 28.7823 12.008 28.9389 12.374 29.2521C13.2956 30.0367 13.7564 30.4297 14.2383 30.6601C15.3527 31.1917 16.6478 31.1917 17.7622 30.6601C18.2441 30.4297 18.7049 30.0367 19.6265 29.2521C19.9924 28.9389 20.1761 28.7823 20.3719 28.6513C20.8207 28.3501 21.3252 28.1423 21.8552 28.0369C22.0857 27.9917 22.3266 27.9721 22.807 27.9345C24.0132 27.8381 24.6171 27.7899 25.1201 27.6122C25.6952 27.4092 26.2175 27.0799 26.6488 26.6487C27.0801 26.2174 27.4093 25.6951 27.6124 25.12C27.7901 24.617 27.8383 24.0132 27.9346 22.807C27.9723 22.3266 27.9919 22.0856 28.037 21.8552C28.1425 21.3252 28.3518 20.8207 28.6515 20.3719C28.7825 20.1762 28.9391 19.9925 29.2523 19.6265C30.0369 18.7049 30.43 18.2441 30.6604 17.7622C31.1919 16.6479 31.1919 15.3528 30.6604 14.2385C30.43 13.7566 30.0369 13.2958 29.2523 12.3742C29.038 12.1374 28.8374 11.8885 28.6515 11.6288C28.3506 11.1799 28.1417 10.6757 28.037 10.1455C27.9853 9.8304 27.9511 9.51267 27.9346 9.19378C27.8383 7.98757 27.7901 7.38371 27.6124 6.88074C27.4093 6.30564 27.0801 5.7833 26.6488 5.35205C26.2175 4.92079 25.6952 4.59156 25.1201 4.38851C24.6171 4.21081 24.0132 4.16262 22.807 4.06625C22.4881 4.04982 22.1703 4.01564 21.8552 3.96385C21.325 3.85917 20.8209 3.65034 20.3719 3.34945C20.1125 3.16312 19.8636 2.96252 19.6265 2.7486C18.7049 1.96404 18.2441 1.571 17.7622 1.3406C17.212 1.07764 16.61 0.941162 16.0002 0.941162C15.3905 0.941162 14.7884 1.07764 14.2383 1.3406C13.7564 1.571 13.2956 1.96404 12.374 2.7486Z" fill="#F4F4F5"/>
<g clip-path="url(#clip0_1_7771)">
<path d="M11.0625 8.45312C11.2275 8.45312 11.3925 8.45312 11.5625 8.45312C11.5625 12.2275 11.5625 17.7987 11.5625 21.6875C11.6347 21.6978 11.7069 21.7081 11.7812 21.7187C12.1557 21.8314 12.4856 22.0683 12.811 22.2783C13.0118 22.4053 13.1653 22.4509 13.4062 22.5312C13.4062 20.5925 13.4062 16.2162 13.4062 14.2187C13.5712 14.2187 13.7362 14.2187 13.9062 14.2187C13.9062 16.1575 13.9062 20.5337 13.9062 22.5312C14.2204 22.4191 14.4558 22.3196 14.7246 22.1406C15.2085 21.8222 15.6832 21.586 16.2769 21.6687C16.6835 21.7533 17.0419 21.9819 17.3875 22.2025C17.6175 22.349 17.8301 22.4559 18.0938 22.5312C18.0938 20.5925 18.0938 16.2162 18.0938 14.2187C18.2587 14.2187 18.4237 14.2187 18.5938 14.2187C18.5938 16.1575 18.5938 20.5337 18.5938 22.5312C18.9079 22.4191 19.1433 22.3196 19.4121 22.1406C20.1008 21.6875 20.1008 21.6875 20.4375 21.6875C20.4375 17.9131 20.4375 12.3419 20.4375 8.45312C20.6025 8.45312 20.7675 8.45312 20.9375 8.45312C20.9375 12.2275 20.9375 17.7987 20.9375 21.6875C21.0097 21.6978 21.0819 21.7081 21.1562 21.7187C21.5307 21.8314 21.8606 22.0683 22.186 22.2783C22.3764 22.3987 22.5654 22.466 22.7812 22.5312C22.7812 22.3147 22.7812 22.0981 22.7812 21.875C22.9462 21.875 23.1112 21.875 23.2812 21.875C23.2812 22.5762 23.2812 23.2775 23.2812 24C22.4209 24 21.8994 23.8062 21.1937 23.3788C21.1528 23.3543 21.1528 23.3543 21.1111 23.3293C21.0586 23.2977 21.0063 23.2655 20.9544 23.2328C20.8126 23.1465 20.8126 23.1465 20.651 23.1241C20.548 23.1615 20.4595 23.2076 20.3652 23.2637C20.3466 23.2746 20.3279 23.2855 20.3086 23.2968C20.2034 23.3586 20.0991 23.422 19.9949 23.4857C19.7129 23.6569 19.4384 23.8006 19.125 23.9062C19.0943 23.9168 19.0635 23.9274 19.0319 23.9384C18.5343 24.081 17.9543 24.0438 17.4688 23.875C17.4175 23.8573 17.4175 23.8573 17.3652 23.8392C17.0606 23.7203 16.7852 23.5477 16.5062 23.3788C16.479 23.3625 16.4517 23.3461 16.4236 23.3293C16.3711 23.2977 16.3188 23.2655 16.2669 23.2328C16.1251 23.1465 16.1251 23.1465 15.9635 23.1241C15.8605 23.1615 15.772 23.2076 15.6777 23.2637C15.6591 23.2746 15.6404 23.2855 15.6211 23.2968C15.5159 23.3586 15.4116 23.422 15.3074 23.4857C15.0254 23.6569 14.7509 23.8006 14.4375 23.9062C14.4068 23.9168 14.376 23.9274 14.3444 23.9384C13.8468 24.081 13.2668 24.0438 12.7812 23.875C12.7471 23.8632 12.7129 23.8514 12.6777 23.8392C12.3731 23.7203 12.0977 23.5477 11.8187 23.3788C11.7778 23.3543 11.7778 23.3543 11.7361 23.3293C11.6836 23.2977 11.6313 23.2655 11.5794 23.2328C11.4376 23.1465 11.4376 23.1465 11.276 23.1241C11.173 23.1615 11.0845 23.2076 10.9902 23.2637C10.9716 23.2746 10.9529 23.2855 10.9336 23.2968C10.8284 23.3586 10.7241 23.422 10.6199 23.4857C9.98644 23.8702 9.48583 24 8.71875 24C8.71875 19.5553 8.71875 14.6419 8.71875 10.0625C8.88375 10.0625 9.04875 10.0625 9.21875 10.0625C9.21875 14.0225 9.21875 18.4512 9.21875 22.5312C9.53287 22.4191 9.76825 22.3196 10.0371 22.1406C10.7258 21.6875 10.7258 21.6875 11.0625 21.6875C11.0625 17.9131 11.0625 12.3419 11.0625 8.45312ZM10.3125 22.5625C9.96348 22.7827 9.62211 22.9593 9.21875 23.0625C9.21875 23.2069 9.21875 23.3512 9.21875 23.5C9.77396 23.4306 10.2623 23.1237 10.7305 22.834C10.9468 22.7037 11.1786 22.5774 11.4375 22.625C11.7274 22.7064 11.9857 22.8802 12.2427 23.0328C12.8436 23.389 13.4157 23.6237 14.125 23.4687C14.5906 23.341 15.0061 23.0899 15.4121 22.8352C15.641 22.6947 15.8503 22.5921 16.125 22.625C16.4148 22.704 16.674 22.8806 16.9302 23.0328C17.5311 23.389 18.1032 23.6237 18.8125 23.4687C19.2781 23.341 19.6936 23.0899 20.0996 22.8352C20.3285 22.6947 20.5378 22.5921 20.8125 22.625C21.1023 22.704 21.3615 22.8806 21.6177 23.0328C21.9886 23.2526 22.3482 23.4415 22.7812 23.5C22.7812 23.3556 22.7812 23.2112 22.7812 23.0625C22.7464 23.0522 22.7116 23.042 22.6758 23.0314C22.215 22.8899 21.8341 22.6715 21.434 22.4076C21.1295 22.2101 20.8062 22.0993 20.444 22.1743C20.1651 22.2571 19.9311 22.4083 19.6875 22.5625C19.1274 22.9158 18.607 23.1262 17.93 23.0203C17.498 22.9222 17.1112 22.6482 16.7465 22.4076C16.4419 22.2101 16.1187 22.0993 15.7565 22.1743C15.4776 22.2571 15.2436 22.4083 15 22.5625C14.4399 22.9158 13.9195 23.1262 13.2425 23.0203C12.8105 22.9222 12.4237 22.6482 12.059 22.4076C11.4207 21.9938 10.9082 22.1854 10.3125 22.5625Z" fill="#18181B"/>
<path d="M12.6162 8.47394C13.0194 8.72497 13.4142 8.95236 13.9055 8.85693C14.2818 8.75422 14.6042 8.54103 14.9316 8.33593C15.4021 8.04326 15.8712 7.91811 16.4224 8.02038C16.7393 8.11912 17.0237 8.2995 17.3037 8.47394C17.7069 8.72497 18.1017 8.95236 18.593 8.85693C18.9693 8.75422 19.2917 8.54103 19.6191 8.33593C20.0896 8.04326 20.5587 7.91811 21.1099 8.02038C21.4268 8.1191 21.7113 8.29937 21.9911 8.47393C22.4367 8.751 22.7232 8.84424 23.2812 8.90625C23.2812 12.7322 23.2812 16.5581 23.2812 20.5C23.1163 20.5 22.9513 20.5 22.7812 20.5C22.7812 16.8287 22.7812 13.1575 22.7812 9.375C22.6575 9.35953 22.6575 9.35953 22.5312 9.34375C22.1824 9.24808 21.8878 9.05581 21.5884 8.85844C21.209 8.61124 20.8912 8.47746 20.4375 8.53125C20.1472 8.59776 19.8964 8.78659 19.6476 8.9433C18.9623 9.375 18.9623 9.375 18.5938 9.375C18.5938 11.1591 18.5938 12.9431 18.5938 14.7812C18.4288 14.7812 18.2638 14.7812 18.0938 14.7812C18.0938 12.9972 18.0938 11.2131 18.0938 9.375C17.97 9.35953 17.97 9.35953 17.8438 9.34375C17.5107 9.25418 17.232 9.06851 16.9436 8.88653C16.8412 8.82263 16.7374 8.76142 16.6328 8.70117C16.5995 8.68179 16.5661 8.66242 16.5317 8.64245C16.425 8.58421 16.425 8.58421 16.25 8.53125C16.25 12.2541 16.25 17.8988 16.25 21.7344C16.085 21.7344 15.92 21.7344 15.75 21.7344C15.75 18.0116 15.75 12.3669 15.75 8.53125C15.4922 8.63867 15.2764 8.73972 15.0469 8.88867C14.2781 9.375 14.2781 9.375 13.9062 9.375C13.9062 11.1591 13.9062 12.9431 13.9062 14.7812C13.7413 14.7812 13.5763 14.7812 13.4062 14.7812C13.4062 12.9972 13.4062 11.2131 13.4062 9.375C13.3238 9.36468 13.2413 9.35437 13.1562 9.34375C12.8401 9.26525 12.5715 9.08621 12.2992 8.91416C11.8721 8.64526 11.4823 8.43838 10.9692 8.55188C10.7202 8.64654 10.4972 8.80186 10.2726 8.9433C9.58726 9.375 9.58726 9.375 9.21875 9.375C9.21875 9.61218 9.21875 9.84937 9.21875 10.0937C9.05375 10.0937 8.88875 10.0937 8.71875 10.0937C8.71875 9.70187 8.71875 9.31 8.71875 8.90625C8.99719 8.87531 8.99719 8.87531 9.28125 8.84375C9.55966 8.75489 9.79423 8.60789 10.0421 8.4562C10.2105 8.3534 10.3802 8.25642 10.5566 8.16796C10.586 8.15305 10.586 8.15305 10.616 8.13784C11.3303 7.78717 11.9948 8.08678 12.6162 8.47394Z" fill="#18181B"/>
<path d="M22.7812 20.4687C22.9462 20.4687 23.1112 20.4687 23.2812 20.4687C23.2812 20.9431 23.2812 21.4175 23.2812 21.9062C23.1163 21.9062 22.9513 21.9062 22.7812 21.9062C22.7812 21.4319 22.7812 20.9575 22.7812 20.4687Z" fill="#18181B"/>
</g>
<defs>
<clipPath id="clip0_1_7771">
<rect width="16" height="16" fill="white" transform="translate(8 8)"/>
</clipPath>
</defs>
</svg>
