<svg width="32" height="32" viewBox="0 0 32 32" fill="none" xmlns="http://www.w3.org/2000/svg">
<path fill-rule="evenodd" clip-rule="evenodd" d="M12.374 2.7486C12.1371 2.9629 11.8883 3.16351 11.6285 3.34945C11.1798 3.65062 10.6753 3.85844 10.1452 3.96385C9.91481 4.00902 9.67386 4.0286 9.19347 4.06625C7.98723 4.16262 7.38335 4.21081 6.88038 4.38851C6.30526 4.59156 5.78291 4.92079 5.35164 5.35205C4.92037 5.7833 4.59113 6.30564 4.38808 6.88074C4.21038 7.38371 4.16219 7.98757 4.06581 9.19378C4.04939 9.51267 4.0152 9.83041 3.96341 10.1455C3.858 10.6756 3.65018 11.18 3.349 11.6288C3.21798 11.8246 3.06136 12.0083 2.74813 12.3742C1.96355 13.2958 1.5705 13.7566 1.3401 14.2385C0.808509 15.3528 0.808509 16.6479 1.3401 17.7622C1.5705 18.2441 1.96355 18.7049 2.74813 19.6265C3.06136 19.9925 3.21798 20.1762 3.349 20.3719C3.65018 20.8207 3.858 21.3252 3.96341 21.8552C4.00859 22.0856 4.02817 22.3266 4.06581 22.807C4.16219 24.0132 4.21038 24.617 4.38808 25.12C4.59113 25.6951 4.92037 26.2174 5.35164 26.6487C5.78291 27.0799 6.30526 27.4092 6.88038 27.6122C7.38335 27.7899 7.98723 27.8381 9.19347 27.9345C9.67386 27.9721 9.91481 27.9917 10.1452 28.0369C10.6753 28.1423 11.1798 28.3516 11.6285 28.6513C11.8243 28.7823 12.008 28.9389 12.374 29.2521C13.2956 30.0367 13.7564 30.4297 14.2383 30.6601C15.3527 31.1917 16.6478 31.1917 17.7622 30.6601C18.2441 30.4297 18.7049 30.0367 19.6265 29.2521C19.9924 28.9389 20.1761 28.7823 20.3719 28.6513C20.8207 28.3501 21.3252 28.1423 21.8552 28.0369C22.0857 27.9917 22.3266 27.9721 22.807 27.9345C24.0132 27.8381 24.6171 27.7899 25.1201 27.6122C25.6952 27.4092 26.2175 27.0799 26.6488 26.6487C27.0801 26.2174 27.4093 25.6951 27.6124 25.12C27.7901 24.617 27.8383 24.0132 27.9346 22.807C27.9723 22.3266 27.9919 22.0856 28.037 21.8552C28.1425 21.3252 28.3518 20.8207 28.6515 20.3719C28.7825 20.1762 28.9391 19.9925 29.2523 19.6265C30.0369 18.7049 30.43 18.2441 30.6604 17.7622C31.1919 16.6479 31.1919 15.3528 30.6604 14.2385C30.43 13.7566 30.0369 13.2958 29.2523 12.3742C29.038 12.1374 28.8374 11.8885 28.6515 11.6288C28.3506 11.1799 28.1417 10.6757 28.037 10.1455C27.9853 9.8304 27.9511 9.51267 27.9346 9.19378C27.8383 7.98757 27.7901 7.38371 27.6124 6.88074C27.4093 6.30564 27.0801 5.7833 26.6488 5.35205C26.2175 4.92079 25.6952 4.59156 25.1201 4.38851C24.6171 4.21081 24.0132 4.16262 22.807 4.06625C22.4881 4.04982 22.1703 4.01564 21.8552 3.96385C21.325 3.85917 20.8209 3.65034 20.3719 3.34945C20.1125 3.16312 19.8636 2.96252 19.6265 2.7486C18.7049 1.96404 18.2441 1.571 17.7622 1.3406C17.212 1.07764 16.61 0.941162 16.0002 0.941162C15.3905 0.941162 14.7884 1.07764 14.2383 1.3406C13.7564 1.571 13.2956 1.96404 12.374 2.7486Z" fill="#F4F4F5"/>
<g clip-path="url(#clip0_1_7777)">
<path d="M23.0916 16.3061C22.781 15.9566 22.3593 15.7646 21.9038 15.7646H9.09815V10.7695C9.09815 10.2412 9.28576 9.71537 9.66913 9.3527C10.3807 8.67945 11.3783 8.7447 12.0171 9.27741L11.6249 11.5293C11.576 11.806 11.6331 12.0896 11.7849 12.3268C11.9531 12.5885 12.2241 12.7698 12.5297 12.825C12.5949 12.8376 12.6614 12.8426 12.7273 12.8426C12.9683 12.8426 13.2061 12.7648 13.4012 12.6192L15.5515 11.0067C16.0183 10.6559 16.1382 9.99647 15.815 9.49199C15.6186 9.18643 15.2836 8.9938 14.9209 8.97811L12.5027 8.86956C11.6155 8.05639 10.1441 7.95035 9.15023 8.99317C8.69408 9.47254 8.4707 10.1301 8.4707 10.7914V15.8801C8.4707 16.0143 8.47823 16.1467 8.49392 16.2798C8.55164 16.7761 8.69847 18.0316 8.69847 18.0316C8.8729 19.5124 9.61831 20.7892 10.6831 21.6256C10.6806 21.6338 10.3618 22.9188 10.3618 22.9188C10.3204 23.0876 10.4233 23.257 10.5909 23.2984C10.616 23.3047 10.6417 23.3078 10.6662 23.3078C10.8073 23.3078 10.9353 23.2125 10.9705 23.0694L11.2346 22.0021C11.9549 22.4263 12.7813 22.666 13.6541 22.666H18.5193C19.3325 22.666 20.1049 22.4576 20.7888 22.0862L21.0285 23.055C21.0643 23.198 21.1923 23.2934 21.3328 23.2934C21.3573 23.2934 21.383 23.2903 21.4081 23.284C21.5763 23.2426 21.6792 23.0725 21.6371 22.9044L21.3473 21.7329C22.488 20.9009 23.293 19.5776 23.4749 18.031L23.5151 17.6815C23.5747 17.1776 23.4197 16.6757 23.0897 16.3055L23.0916 16.3061ZM15.2949 9.84274C15.4335 10.0598 15.3808 10.3503 15.1756 10.5041L13.0254 12.1166C12.9137 12.1994 12.7769 12.2302 12.6414 12.2082C12.5052 12.1831 12.3891 12.1053 12.3138 11.9886C12.2473 11.8845 12.2222 11.7596 12.2436 11.6372L12.6156 9.50266L14.8939 9.60368C15.0539 9.61121 15.2014 9.69592 15.2961 9.84274H15.2949ZM22.8933 17.6093L22.8531 17.9588C22.5789 20.2854 20.7167 22.0398 18.52 22.0398H13.6547C11.458 22.0398 9.5951 20.2854 9.32153 17.9588L9.13768 16.3927H21.9044C22.178 16.3927 22.4334 16.5107 22.6235 16.7234C22.8343 16.9605 22.9328 17.2837 22.8945 17.6093H22.8933Z" fill="#18181B"/>
</g>
<defs>
<clipPath id="clip0_1_7777">
<rect width="15.0588" height="15.0588" fill="white" transform="translate(8.4707 8.23535)"/>
</clipPath>
</defs>
</svg>
