<svg width="32" height="32" viewBox="0 0 32 32" fill="none" xmlns="http://www.w3.org/2000/svg">
<path fill-rule="evenodd" clip-rule="evenodd" d="M12.374 2.7486C12.1371 2.9629 11.8883 3.16351 11.6285 3.34945C11.1798 3.65062 10.6753 3.85844 10.1452 3.96385C9.91481 4.00902 9.67386 4.0286 9.19347 4.06625C7.98723 4.16262 7.38335 4.21081 6.88038 4.38851C6.30526 4.59156 5.78291 4.92079 5.35164 5.35204C4.92037 5.7833 4.59113 6.30564 4.38808 6.88074C4.21038 7.38371 4.16219 7.98757 4.06581 9.19378C4.04939 9.51267 4.0152 9.8304 3.96341 10.1455C3.858 10.6756 3.65018 11.18 3.349 11.6288C3.21798 11.8246 3.06137 12.0083 2.74813 12.3742C1.96355 13.2958 1.5705 13.7566 1.3401 14.2385C0.808509 15.3528 0.808509 16.6479 1.3401 17.7622C1.5705 18.2441 1.96355 18.7049 2.74813 19.6265C3.06137 19.9925 3.21798 20.1762 3.349 20.3719C3.65018 20.8207 3.858 21.3252 3.96341 21.8552C4.00859 22.0856 4.02817 22.3266 4.06581 22.807C4.16219 24.0132 4.21038 24.617 4.38808 25.12C4.59113 25.6951 4.92037 26.2174 5.35164 26.6487C5.78291 27.0799 6.30526 27.4092 6.88038 27.6122C7.38335 27.7899 7.98723 27.8381 9.19347 27.9345C9.67386 27.9721 9.91481 27.9917 10.1452 28.0369C10.6753 28.1423 11.1798 28.3516 11.6285 28.6513C11.8243 28.7823 12.008 28.9389 12.374 29.2521C13.2956 30.0367 13.7564 30.4297 14.2383 30.6601C15.3527 31.1917 16.6478 31.1917 17.7622 30.6601C18.2441 30.4297 18.7049 30.0367 19.6265 29.2521C19.9924 28.9389 20.1761 28.7823 20.3719 28.6513C20.8207 28.3501 21.3252 28.1423 21.8552 28.0369C22.0857 27.9917 22.3266 27.9721 22.807 27.9345C24.0132 27.8381 24.6171 27.7899 25.1201 27.6122C25.6952 27.4092 26.2175 27.0799 26.6488 26.6487C27.0801 26.2174 27.4093 25.6951 27.6124 25.12C27.7901 24.617 27.8383 24.0132 27.9346 22.807C27.9723 22.3266 27.9919 22.0856 28.037 21.8552C28.1425 21.3252 28.3518 20.8207 28.6515 20.3719C28.7825 20.1762 28.9391 19.9925 29.2523 19.6265C30.0369 18.7049 30.43 18.2441 30.6604 17.7622C31.1919 16.6479 31.1919 15.3528 30.6604 14.2385C30.43 13.7566 30.0369 13.2958 29.2523 12.3742C29.038 12.1374 28.8374 11.8885 28.6515 11.6288C28.3506 11.1799 28.1417 10.6757 28.037 10.1455C27.9853 9.8304 27.9511 9.51267 27.9346 9.19378C27.8383 7.98757 27.7901 7.38371 27.6124 6.88074C27.4093 6.30564 27.0801 5.7833 26.6488 5.35204C26.2175 4.92079 25.6952 4.59156 25.1201 4.38851C24.6171 4.21081 24.0132 4.16262 22.807 4.06625C22.4881 4.04982 22.1703 4.01564 21.8552 3.96385C21.325 3.85917 20.8209 3.65034 20.3719 3.34945C20.1125 3.16311 19.8636 2.96252 19.6265 2.7486C18.7049 1.96404 18.2441 1.571 17.7622 1.3406C17.212 1.07764 16.61 0.941162 16.0002 0.941162C15.3905 0.941162 14.7884 1.07764 14.2383 1.3406C13.7564 1.571 13.2956 1.96404 12.374 2.7486Z" fill="#F4F4F5"/>
<path fill-rule="evenodd" clip-rule="evenodd" d="M15.4707 16.022C15.4101 16.0838 15.3643 16.1827 15.3643 16.3267C15.3643 16.4708 15.4101 16.5696 15.4707 16.6314C15.531 16.6927 15.6258 16.7379 15.7636 16.7379C15.9014 16.7379 15.9963 16.6927 16.0565 16.6314C16.1171 16.5696 16.1629 16.4708 16.1629 16.3267C16.1629 16.1827 16.1171 16.0838 16.0565 16.022C15.9963 15.9607 15.9014 15.9155 15.7636 15.9155C15.6258 15.9155 15.531 15.9607 15.4707 16.022Z" fill="#18181B"/>
<path fill-rule="evenodd" clip-rule="evenodd" d="M17.2284 8.70967C17.2975 8.48321 17.522 8.39176 17.6909 8.47417C19.091 9.15721 19.9986 10.4998 19.9986 12.0291C19.9986 12.7202 19.8643 13.2773 19.5617 13.8305L19.3594 14.2005H19.7811C20.3823 14.2005 20.9939 14.3731 21.5433 14.6838C22.8267 15.4468 23.5542 16.9038 23.4969 18.4914C23.4899 18.686 23.2967 18.8442 23.0602 18.7952C22.8513 18.7519 22.6892 18.5372 22.6939 18.2733C22.7153 17.059 22.177 15.9424 21.2038 15.3863L21.2011 15.3848C19.634 14.5148 17.6879 15.18 16.7233 16.8637C16.2406 17.7067 16.0809 18.6385 16.2905 19.5642L16.2916 19.5688C16.5013 20.419 16.9916 21.126 17.7027 21.5604L17.709 21.564C18.6561 22.1055 19.883 22.0527 20.8684 21.4593C21.1122 21.3125 21.3965 21.3471 21.5393 21.5133C21.6867 21.6849 21.6524 21.9089 21.5083 22.0086C20.789 22.5066 19.9349 22.7499 19.1317 22.7499C18.4581 22.7499 17.7904 22.575 17.2465 22.2667C16.707 21.9612 16.2875 21.5161 15.983 20.9593L15.7636 20.5582L15.5443 20.9593C15.2407 21.5145 14.8227 21.9585 14.2855 22.264C13.6657 22.5788 13.0617 22.7499 12.3948 22.7499C11.5923 22.7499 10.7384 22.5067 10.0187 22.0088C9.87444 21.909 9.8402 21.6847 9.98774 21.5131C10.1306 21.3469 10.4149 21.3125 10.6586 21.4592C11.6442 22.0527 12.8716 22.1056 13.8183 21.5641L13.8245 21.5603C14.5355 21.1259 15.026 20.419 15.2356 19.5688L15.2367 19.5642C15.4463 18.6384 15.2866 17.7072 14.8033 16.8636C13.84 15.1812 11.828 14.5118 10.3211 15.387L10.3126 15.3924C9.36403 15.9957 8.82497 17.0932 8.83241 18.2568C8.83417 18.5315 8.66701 18.7536 8.45284 18.798C8.21692 18.8469 8.02259 18.6933 8.00989 18.5002C7.90541 16.9121 8.63488 15.4494 9.92291 14.6831C10.4734 14.3718 11.065 14.2005 11.665 14.2005H12.0464L11.8942 13.8507C11.6442 13.2765 11.4682 12.6449 11.4682 12.0291C11.4682 10.5046 12.3573 9.16743 13.6989 8.48248C13.864 8.39821 14.0884 8.48612 14.1577 8.7129C14.2193 8.91428 14.1077 9.16112 13.8696 9.29041C12.8419 9.84851 12.2059 10.8835 12.2059 12.0291C12.2059 13.8395 13.7666 15.2544 15.7026 15.2544C17.6392 15.2544 19.1993 13.8395 19.1993 12.0291C19.1993 10.8821 18.548 9.84885 17.519 9.29196C17.2791 9.16213 17.1662 8.91318 17.2284 8.70967ZM15.114 15.6717C15.2807 15.502 15.5105 15.4155 15.7636 15.4155C16.0167 15.4155 16.2465 15.502 16.4132 15.6717C16.5795 15.841 16.6629 16.0728 16.6629 16.3267C16.6629 16.5807 16.5795 16.8124 16.4132 16.9817C16.2465 17.1515 16.0167 17.2379 15.7636 17.2379C15.5105 17.2379 15.2807 17.1515 15.114 16.9817C14.9477 16.8124 14.8643 16.5807 14.8643 16.3267C14.8643 16.0728 14.9477 15.841 15.114 15.6717Z" fill="#18181B"/>
<path fill-rule="evenodd" clip-rule="evenodd" d="M12.1134 17.043C12.23 17.1813 12.3241 17.376 12.4066 17.5907C12.4791 17.7793 12.5674 17.9619 12.6708 18.1362C12.8679 18.4686 13.1167 18.7658 13.4071 19.0164C13.4692 19.07 13.5 19.1387 13.5 19.2019C13.5 19.215 13.499 19.2234 13.498 19.2284C13.494 19.2486 13.4893 19.2686 13.484 19.2885C13.4379 19.4619 13.3097 19.5533 13.1351 19.5685C12.9507 19.5846 12.7316 19.5092 12.5772 19.3445C12.033 18.7641 11.6611 18.0446 11.4895 17.2617C11.4658 17.154 11.4889 17.0425 11.5413 16.962C11.5916 16.8849 11.6609 16.8452 11.7409 16.8452C11.8842 16.8452 12.0018 16.9106 12.1134 17.043Z" fill="#18181B"/>
<path d="M14.5554 12.1092C14.9273 11.9968 15.3294 11.9487 15.7655 11.9487C16.2068 11.9487 16.6115 11.9978 16.9496 12.1095C17.2179 12.1982 17.3138 12.4557 17.2173 12.6345C17.1577 12.745 17.0524 12.8118 16.8855 12.8415C16.713 12.8723 16.503 12.8569 16.291 12.8204C16.089 12.7855 15.8895 12.7711 15.7044 12.7711C15.4849 12.7711 15.2447 12.7917 15.0038 12.8426C14.8291 12.8794 14.6602 12.8941 14.5232 12.8711C14.3923 12.8491 14.3101 12.7974 14.2602 12.7125C14.1391 12.5063 14.255 12.1999 14.5554 12.1092Z" fill="#18181B"/>
<path fill-rule="evenodd" clip-rule="evenodd" d="M19.3495 17.043C19.2329 17.1813 19.1388 17.376 19.0563 17.5907C18.9838 17.7793 18.8955 17.9619 18.7921 18.1362C18.595 18.4686 18.3462 18.7658 18.0558 19.0164C17.9937 19.07 17.9629 19.1387 17.9629 19.2019C17.9629 19.215 17.9639 19.2234 17.9649 19.2284C17.9689 19.2486 17.9736 19.2686 17.9789 19.2885C18.0249 19.4619 18.1532 19.5533 18.3278 19.5685C18.5122 19.5846 18.7313 19.5092 18.8857 19.3445C19.4299 18.7641 19.8018 18.0446 19.9734 17.2617C19.9971 17.154 19.974 17.0425 19.9216 16.962C19.8713 16.8849 19.802 16.8452 19.722 16.8452C19.5787 16.8452 19.461 16.9106 19.3495 17.043Z" fill="#18181B"/>
</svg>
