<svg width="48" height="48" viewBox="0 0 48 48" fill="none" xmlns="http://www.w3.org/2000/svg">
<path d="M42 37.5H38.6895C38.0326 37.5 37.5 36.9674 37.5 36.3105C37.5 35.6536 38.0326 35.121 38.6895 35.121H41.5C42.0523 35.121 42.5 34.6733 42.5 34.121V11C42.5 10.4477 42.0523 10 41.5 10H38.75C38.0596 10 37.5 9.44036 37.5 8.75C37.5 8.05964 38.0596 7.5 38.75 7.5H42C43.6545 7.5 45 8.8455 45 10.5V34.5C45 36.1545 43.6545 37.5 42 37.5Z" fill="#0070FF"/>
<path d="M35 24C36.1046 24 37 23.1046 37 22C37 20.8954 36.1046 20 35 20C33.8954 20 33 20.8954 33 22C33 23.1046 33.8954 24 35 24Z" fill="#0070FF"/>
<path d="M24.5 24C25.6046 24 26.5 23.1046 26.5 22C26.5 20.8954 25.6046 20 24.5 20C23.3954 20 22.5 20.8954 22.5 22C22.5 23.1046 23.3954 24 24.5 24Z" fill="#0070FF"/>
<path d="M14 24C15.1046 24 16 23.1046 16 22C16 20.8954 15.1046 20 14 20C12.8954 20 12 20.8954 12 22C12 23.1046 12.8954 24 14 24Z" fill="#0070FF"/>
<path d="M4.25 25.5C4.94036 25.5 5.5 24.9404 5.5 24.25V10.8333C5.5 10.3731 5.8731 10 6.33333 10H9.25C9.94036 10 10.5 9.44036 10.5 8.75C10.5 8.05964 9.94036 7.5 9.25 7.5H6C4.3455 7.5 3 8.8455 3 10.5V24.25C3 24.9404 3.55964 25.5 4.25 25.5Z" fill="#0070FF"/>
<path d="M14.7728 42.7729V33.2273M14.7728 33.2273H5.22724M14.7728 33.2273L5.22724 42.7729" stroke="#0070FF" stroke-width="1.5" stroke-linecap="round" stroke-linejoin="round"/>
</svg>
