<svg width="32" height="32" viewBox="0 0 32 32" fill="none" xmlns="http://www.w3.org/2000/svg">
<g clip-path="url(#clip0_1_1219)">
<path fill-rule="evenodd" clip-rule="evenodd" d="M12.3737 2.7486C12.1369 2.9629 11.888 3.16351 11.6283 3.34945C11.1795 3.65062 10.6751 3.85844 10.145 3.96385C9.91456 4.00902 9.67362 4.0286 9.19323 4.06625C7.98698 4.16262 7.38311 4.21081 6.88013 4.38851C6.30502 4.59156 5.78267 4.92079 5.3514 5.35204C4.92013 5.7833 4.59089 6.30564 4.38784 6.88074C4.21014 7.38371 4.16195 7.98757 4.06557 9.19378C4.04914 9.51267 4.01496 9.8304 3.96317 10.1455C3.85775 10.6756 3.64994 11.18 3.34875 11.6288C3.21774 11.8246 3.06112 12.0083 2.74789 12.3742C1.96331 13.2958 1.57026 13.7566 1.33985 14.2385C0.808265 15.3528 0.808265 16.6479 1.33985 17.7622C1.57026 18.2441 1.96331 18.7049 2.74789 19.6265C3.06112 19.9925 3.21774 20.1762 3.34875 20.3719C3.64994 20.8207 3.85775 21.3252 3.96317 21.8552C4.00834 22.0856 4.02792 22.3266 4.06557 22.807C4.16195 24.0132 4.21014 24.617 4.38784 25.12C4.59089 25.6951 4.92013 26.2174 5.3514 26.6487C5.78267 27.0799 6.30502 27.4092 6.88013 27.6122C7.38311 27.7899 7.98698 27.8381 9.19323 27.9345C9.67362 27.9721 9.91456 27.9917 10.145 28.0369C10.6751 28.1423 11.1795 28.3516 11.6283 28.6513C11.8241 28.7823 12.0078 28.9389 12.3737 29.2521C13.2954 30.0367 13.7562 30.4297 14.2381 30.6601C15.3524 31.1917 16.6475 31.1917 17.7619 30.6601C18.2438 30.4297 18.7046 30.0367 19.6262 29.2521C19.9922 28.9389 20.1759 28.7823 20.3717 28.6513C20.8204 28.3501 21.3249 28.1423 21.855 28.0369C22.0854 27.9917 22.3264 27.9721 22.8067 27.9345C24.013 27.8381 24.6169 27.7899 25.1198 27.6122C25.6949 27.4092 26.2173 27.0799 26.6486 26.6487C27.0798 26.2174 27.4091 25.6951 27.6121 25.12C27.7898 24.617 27.838 24.0132 27.9344 22.807C27.972 22.3266 27.9916 22.0856 28.0368 21.8552C28.1422 21.3252 28.3515 20.8207 28.6512 20.3719C28.7822 20.1762 28.9388 19.9925 29.2521 19.6265C30.0367 18.7049 30.4297 18.2441 30.6601 17.7622C31.1917 16.6479 31.1917 15.3528 30.6601 14.2385C30.4297 13.7566 30.0367 13.2958 29.2521 12.3742C29.0378 12.1374 28.8372 11.8885 28.6512 11.6288C28.3503 11.1799 28.1415 10.6757 28.0368 10.1455C27.9851 9.8304 27.9509 9.51267 27.9344 9.19378C27.838 7.98757 27.7898 7.38371 27.6121 6.88074C27.4091 6.30564 27.0798 5.7833 26.6486 5.35204C26.2173 4.92079 25.6949 4.59156 25.1198 4.38851C24.6169 4.21081 24.013 4.16262 22.8067 4.06625C22.4878 4.04982 22.1701 4.01564 21.855 3.96385C21.3248 3.85917 20.8206 3.65034 20.3717 3.34945C20.1123 3.16312 19.8634 2.96252 19.6262 2.7486C18.7046 1.96404 18.2438 1.571 17.7619 1.3406C17.2118 1.07764 16.6097 0.941162 16 0.941162C15.3902 0.941162 14.7882 1.07764 14.2381 1.3406C13.7562 1.571 13.2954 1.96404 12.3737 2.7486Z" fill="#F4F4F5"/>
<g clip-path="url(#clip1_1_1219)">
<g clip-path="url(#clip2_1_1219)">
<g clip-path="url(#clip3_1_1219)">
<path d="M22.9291 13.3423L21.6461 12.3643V9.66943H21.0187V11.8853L16.9688 8.79731C16.3979 8.36216 15.5998 8.36216 15.0302 8.79731L9.06987 13.3423C8.68904 13.6326 8.4707 14.0684 8.4707 14.5382V23.0586H14.3977L15.9838 19.407H13.6882C13.5815 19.407 13.5307 19.3364 13.5144 19.306C13.498 19.2755 13.4648 19.1958 13.525 19.1082L16.6212 14.5382H16.7078L15.5785 18.1898H18.3008C18.3667 18.1898 18.4275 18.2196 18.4677 18.2713C18.5066 18.3225 18.5185 18.3876 18.5047 18.4357L16.8113 23.0592H23.5295V14.5382C23.5295 14.0684 23.3112 13.632 22.9304 13.3423H22.9291ZM22.9009 22.45H17.6985L19.0988 18.6249C19.176 18.3772 19.129 18.1162 18.9702 17.908C18.8109 17.6999 18.5662 17.5806 18.3002 17.5806H16.4211L17.5504 13.929H16.2824L13.0011 18.7722C12.833 19.0181 12.8179 19.3327 12.9623 19.5932C13.1059 19.8531 13.3845 20.015 13.6888 20.015H15.0396L13.9811 22.4494H9.0981V14.5382C9.0981 14.2564 9.22923 13.9947 9.45697 13.8207L15.4173 9.27567C15.7604 9.01458 16.2385 9.01458 16.5811 9.27567L22.5414 13.8207C22.7691 13.9947 22.9002 14.2564 22.9002 14.5382L22.9009 22.45Z" fill="#18181B"/>
</g>
</g>
</g>
</g>
<defs>
<clipPath id="clip0_1_1219">
<rect width="32" height="32" fill="white"/>
</clipPath>
<clipPath id="clip1_1_1219">
<rect width="15.0588" height="15.0588" fill="white" transform="translate(8.4707 8.23535)"/>
</clipPath>
<clipPath id="clip2_1_1219">
<rect width="15.0588" height="15.0588" fill="white" transform="translate(8.4707 8.15698)"/>
</clipPath>
<clipPath id="clip3_1_1219">
<rect width="15.0588" height="15.0588" fill="white" transform="translate(8.4707 8.00024)"/>
</clipPath>
</defs>
</svg>

