<svg width="32" height="32" viewBox="0 0 32 32" fill="none" xmlns="http://www.w3.org/2000/svg">
<path fill-rule="evenodd" clip-rule="evenodd" d="M12.374 2.7486C12.1371 2.9629 11.8883 3.16351 11.6285 3.34945C11.1798 3.65062 10.6753 3.85844 10.1452 3.96385C9.91481 4.00902 9.67386 4.0286 9.19347 4.06625C7.98723 4.16262 7.38335 4.21081 6.88038 4.38851C6.30526 4.59156 5.78291 4.92079 5.35164 5.35205C4.92037 5.7833 4.59113 6.30564 4.38808 6.88074C4.21038 7.38371 4.16219 7.98757 4.06581 9.19378C4.04939 9.51267 4.0152 9.83041 3.96341 10.1455C3.858 10.6756 3.65018 11.18 3.349 11.6288C3.21798 11.8246 3.06136 12.0083 2.74813 12.3742C1.96355 13.2958 1.5705 13.7566 1.3401 14.2385C0.808509 15.3528 0.808509 16.6479 1.3401 17.7622C1.5705 18.2441 1.96355 18.7049 2.74813 19.6265C3.06136 19.9925 3.21798 20.1762 3.349 20.3719C3.65018 20.8207 3.858 21.3252 3.96341 21.8552C4.00859 22.0856 4.02817 22.3266 4.06581 22.807C4.16219 24.0132 4.21038 24.617 4.38808 25.12C4.59113 25.6951 4.92037 26.2174 5.35164 26.6487C5.78291 27.0799 6.30526 27.4092 6.88038 27.6122C7.38335 27.7899 7.98723 27.8381 9.19347 27.9345C9.67386 27.9721 9.91481 27.9917 10.1452 28.0369C10.6753 28.1423 11.1798 28.3516 11.6285 28.6513C11.8243 28.7823 12.008 28.9389 12.374 29.2521C13.2956 30.0367 13.7564 30.4297 14.2383 30.6601C15.3527 31.1917 16.6478 31.1917 17.7622 30.6601C18.2441 30.4297 18.7049 30.0367 19.6265 29.2521C19.9924 28.9389 20.1761 28.7823 20.3719 28.6513C20.8207 28.3501 21.3252 28.1423 21.8552 28.0369C22.0857 27.9917 22.3266 27.9721 22.807 27.9345C24.0132 27.8381 24.6171 27.7899 25.1201 27.6122C25.6952 27.4092 26.2175 27.0799 26.6488 26.6487C27.0801 26.2174 27.4093 25.6951 27.6124 25.12C27.7901 24.617 27.8383 24.0132 27.9346 22.807C27.9723 22.3266 27.9919 22.0856 28.037 21.8552C28.1425 21.3252 28.3518 20.8207 28.6515 20.3719C28.7825 20.1762 28.9391 19.9925 29.2523 19.6265C30.0369 18.7049 30.43 18.2441 30.6604 17.7622C31.1919 16.6479 31.1919 15.3528 30.6604 14.2385C30.43 13.7566 30.0369 13.2958 29.2523 12.3742C29.038 12.1374 28.8374 11.8885 28.6515 11.6288C28.3506 11.1799 28.1417 10.6757 28.037 10.1455C27.9853 9.8304 27.9511 9.51267 27.9346 9.19378C27.8383 7.98757 27.7901 7.38371 27.6124 6.88074C27.4093 6.30564 27.0801 5.7833 26.6488 5.35205C26.2175 4.92079 25.6952 4.59156 25.1201 4.38851C24.6171 4.21081 24.0132 4.16262 22.807 4.06625C22.4881 4.04982 22.1703 4.01564 21.8552 3.96385C21.325 3.85917 20.8209 3.65034 20.3719 3.34945C20.1125 3.16312 19.8636 2.96252 19.6265 2.7486C18.7049 1.96404 18.2441 1.571 17.7622 1.3406C17.212 1.07764 16.61 0.941162 16.0002 0.941162C15.3905 0.941162 14.7884 1.07764 14.2383 1.3406C13.7564 1.571 13.2956 1.96404 12.374 2.7486Z" fill="#F4F4F5"/>
<g clip-path="url(#clip0_1_7805)">
<path d="M21.1684 17.9334C20.5021 16.7368 19.2585 16.0002 17.8825 16.0002C17.2193 16.0002 16.573 16.1747 16.0001 16.5066C15.4273 16.1747 14.781 16.0002 14.1178 16.0002C12.7424 16.0002 11.4982 16.7368 10.8318 17.9334C9.474 18.1561 8.4707 19.3201 8.4707 20.7061C8.4707 22.2628 9.73753 23.5296 11.2942 23.5296H20.706C22.2627 23.5296 23.5295 22.2628 23.5295 20.7061C23.5295 19.3201 22.5256 18.1568 21.1684 17.9334ZM20.706 22.9022H11.2942C10.0833 22.9022 9.09815 21.9171 9.09815 20.7061C9.09815 19.5855 9.94459 18.6518 11.0665 18.5345L11.2371 18.5169L11.3143 18.3632C11.8508 17.2928 12.925 16.6277 14.1178 16.6277C14.7258 16.6277 15.3174 16.804 15.8288 17.1372L16.0001 17.2488L16.1714 17.1372C16.6828 16.8034 17.2745 16.6277 17.8825 16.6277C19.0753 16.6277 20.1494 17.2928 20.6859 18.3632L20.7631 18.5169L20.9338 18.5345C22.0556 18.6518 22.9021 19.5855 22.9021 20.7061C22.9021 21.9171 21.917 22.9022 20.706 22.9022ZM11.7786 15.3282C11.6676 14.9392 11.6073 14.5332 11.608 14.1179C11.608 12.0655 12.8396 10.9555 13.5738 10.4761L14.4102 9.93026L14.0356 10.8564C13.8837 11.2316 13.8034 11.5459 13.8034 11.7643C13.8034 12.2707 14.0927 12.8623 14.9071 12.8623C15.7134 12.8623 15.9995 12.2707 15.9995 11.7643C15.9995 11.4819 15.8759 11.2749 15.7328 11.0352C15.5634 10.751 15.372 10.4291 15.372 9.91081C15.372 9.51677 15.6142 9.05559 15.8175 8.7381L15.9894 8.47144L17.4583 9.43834C17.9471 9.76022 20.386 11.4983 20.3916 14.1172C20.3916 14.5332 20.3314 14.9392 20.2204 15.3282C20.0327 15.2291 19.8395 15.1394 19.64 15.0647C19.719 14.7591 19.7636 14.4423 19.7636 14.1185C19.7579 11.8208 17.5543 10.2534 17.1126 9.96226L16.1858 9.35238C16.0679 9.57951 15.9989 9.78155 15.9989 9.91144C15.9989 10.2565 16.1193 10.4592 16.2718 10.7146C16.4299 10.9794 16.6263 11.31 16.6263 11.7649C16.6263 12.5963 16.0886 13.4904 14.9065 13.4904C13.7168 13.4904 13.1753 12.5963 13.1753 11.7649C13.1753 11.7166 13.1778 11.6658 13.1822 11.6137C12.6646 12.1677 12.2342 12.9728 12.2342 14.1179C12.2342 14.4423 12.2787 14.7585 12.3578 15.0647C12.1582 15.1394 11.9656 15.2291 11.7774 15.3282H11.7786Z" fill="#18181B"/>
</g>
<defs>
<clipPath id="clip0_1_7805">
<rect width="15.0588" height="15.0588" fill="white" transform="translate(8.4707 8.4707)"/>
</clipPath>
</defs>
</svg>
