<svg width="48" height="48" viewBox="0 0 48 48" fill="none" xmlns="http://www.w3.org/2000/svg">
<mask id="path-1-inside-1_1_829" fill="white">
<path d="M24 7.5C23.5404 7.5 23.0852 7.59053 22.6606 7.76642C22.236 7.94231 21.8501 8.20012 21.5251 8.52513C21.2001 8.85013 20.9423 9.23597 20.7664 9.66061C20.5905 10.0852 20.5 10.5404 20.5 11C20.5 11.4596 20.5905 11.9148 20.7664 12.3394C20.9423 12.764 21.2001 13.1499 21.5251 13.4749C21.8501 13.7999 22.236 14.0577 22.6606 14.2336C23.0852 14.4095 23.5404 14.5 24 14.5C24.9283 14.5 25.8185 14.1313 26.4749 13.4749C27.1313 12.8185 27.5 11.9283 27.5 11C27.5 10.0717 27.1313 9.1815 26.4749 8.52513C25.8185 7.86875 24.9283 7.5 24 7.5ZM18 11C18 9.4087 18.6321 7.88258 19.7574 6.75736C20.8826 5.63214 22.4087 5 24 5C25.5913 5 27.1174 5.63214 28.2426 6.75736C29.3679 7.88258 30 9.4087 30 11C30 12.5913 29.3679 14.1174 28.2426 15.2426C27.1174 16.3679 25.5913 17 24 17C22.4087 17 20.8826 16.3679 19.7574 15.2426C18.6321 14.1174 18 12.5913 18 11ZM37 9.5C36.337 9.5 35.7011 9.76339 35.2322 10.2322C34.7634 10.7011 34.5 11.337 34.5 12C34.5 12.663 34.7634 13.2989 35.2322 13.7678C35.7011 14.2366 36.337 14.5 37 14.5C37.663 14.5 38.2989 14.2366 38.7678 13.7678C39.2366 13.2989 39.5 12.663 39.5 12C39.5 11.337 39.2366 10.7011 38.7678 10.2322C38.2989 9.76339 37.663 9.5 37 9.5ZM32 12C32 10.6739 32.5268 9.40215 33.4645 8.46447C34.4021 7.52678 35.6739 7 37 7C38.3261 7 39.5979 7.52678 40.5355 8.46447C41.4732 9.40215 42 10.6739 42 12C42 13.3261 41.4732 14.5979 40.5355 15.5355C39.5979 16.4732 38.3261 17 37 17C35.6739 17 34.4021 16.4732 33.4645 15.5355C32.5268 14.5979 32 13.3261 32 12ZM8.5 12C8.5 11.337 8.76339 10.7011 9.23223 10.2322C9.70107 9.76339 10.337 9.5 11 9.5C11.663 9.5 12.2989 9.76339 12.7678 10.2322C13.2366 10.7011 13.5 11.337 13.5 12C13.5 12.663 13.2366 13.2989 12.7678 13.7678C12.2989 14.2366 11.663 14.5 11 14.5C10.337 14.5 9.70107 14.2366 9.23223 13.7678C8.76339 13.2989 8.5 12.663 8.5 12ZM11 7C9.67392 7 8.40215 7.52678 7.46447 8.46447C6.52678 9.40215 6 10.6739 6 12C6 13.3261 6.52678 14.5979 7.46447 15.5355C8.40215 16.4732 9.67392 17 11 17C12.3261 17 13.5979 16.4732 14.5355 15.5355C15.4732 14.5979 16 13.3261 16 12C16 10.6739 15.4732 9.40215 14.5355 8.46447C13.5979 7.52678 12.3261 7 11 7ZM15 23.25C15 22.1228 15.4478 21.0418 16.2448 20.2448C17.0418 19.4478 18.1228 19 19.25 19H28.75C29.8772 19 30.9582 19.4478 31.7552 20.2448C32.5522 21.0418 33 22.1228 33 23.25V34C33 36.3869 32.0518 38.6761 30.364 40.364C28.6761 42.0518 26.3869 43 24 43C21.6131 43 19.3239 42.0518 17.636 40.364C15.9482 38.6761 15 36.3869 15 34V23.25ZM24 40.5C25.7239 40.5 27.3772 39.8152 28.5962 38.5962C29.8152 37.3772 30.5 35.7239 30.5 34V23.25C30.5 22.7859 30.3156 22.3408 29.9874 22.0126C29.6592 21.6844 29.2141 21.5 28.75 21.5H19.25C18.7859 21.5 18.3408 21.6844 18.0126 22.0126C17.6844 22.3408 17.5 22.7859 17.5 23.25V34C17.5 35.7239 18.1848 37.3772 19.4038 38.5962C20.6228 39.8152 22.2761 40.5 24 40.5ZM11 37.5C11.8361 37.5002 12.6558 37.2675 13.367 36.828C13.586 37.654 13.899 38.441 14.293 39.178C13.2263 39.7466 12.0306 40.0294 10.8222 39.9987C9.61384 39.968 8.434 39.6249 7.39759 39.0028C6.36117 38.3807 5.50351 37.5009 4.9081 36.4489C4.31269 35.397 3.99984 34.2088 4 33V23.251C3.99987 22.6928 4.1097 22.14 4.32323 21.6243C4.53675 21.1085 4.84978 20.6399 5.24444 20.2451C5.6391 19.8504 6.10767 19.5373 6.62336 19.3236C7.13906 19.11 7.6918 19 8.25 19H13.75C14.0387 19.0007 14.319 19.0283 14.591 19.083C13.9682 19.7781 13.5093 20.604 13.248 21.5H8.25C7.78587 21.5 7.34075 21.6844 7.01256 22.0126C6.68437 22.3408 6.5 22.7859 6.5 23.25V33C6.5 34.1935 6.97411 35.3381 7.81802 36.182C8.66193 37.0259 9.80653 37.5 11 37.5ZM37 40C35.8516 40.0006 34.7207 39.7186 33.707 39.179C34.101 38.441 34.414 37.654 34.633 36.828C35.3147 37.2496 36.0966 37.4815 36.898 37.4997C37.6993 37.5178 38.491 37.3216 39.1911 36.9314C39.8912 36.5411 40.4744 35.9709 40.8803 35.2797C41.2862 34.5886 41.5001 33.8015 41.5 33V23.25C41.5 22.7859 41.3156 22.3408 40.9874 22.0126C40.6592 21.6844 40.2141 21.5 39.75 21.5H34.752C34.4904 20.6039 34.0311 19.778 33.408 19.083C33.6813 19.0283 33.962 19.0007 34.25 19H39.75C40.8772 19 41.9582 19.4478 42.7552 20.2448C43.5522 21.0418 44 22.1228 44 23.25V33C44 34.8565 43.2625 36.637 41.9497 37.9497C40.637 39.2625 38.8565 40 37 40Z"/>
</mask>
<path d="M24 7.5C23.5404 7.5 23.0852 7.59053 22.6606 7.76642C22.236 7.94231 21.8501 8.20012 21.5251 8.52513C21.2001 8.85013 20.9423 9.23597 20.7664 9.66061C20.5905 10.0852 20.5 10.5404 20.5 11C20.5 11.4596 20.5905 11.9148 20.7664 12.3394C20.9423 12.764 21.2001 13.1499 21.5251 13.4749C21.8501 13.7999 22.236 14.0577 22.6606 14.2336C23.0852 14.4095 23.5404 14.5 24 14.5C24.9283 14.5 25.8185 14.1313 26.4749 13.4749C27.1313 12.8185 27.5 11.9283 27.5 11C27.5 10.0717 27.1313 9.1815 26.4749 8.52513C25.8185 7.86875 24.9283 7.5 24 7.5ZM18 11C18 9.4087 18.6321 7.88258 19.7574 6.75736C20.8826 5.63214 22.4087 5 24 5C25.5913 5 27.1174 5.63214 28.2426 6.75736C29.3679 7.88258 30 9.4087 30 11C30 12.5913 29.3679 14.1174 28.2426 15.2426C27.1174 16.3679 25.5913 17 24 17C22.4087 17 20.8826 16.3679 19.7574 15.2426C18.6321 14.1174 18 12.5913 18 11ZM37 9.5C36.337 9.5 35.7011 9.76339 35.2322 10.2322C34.7634 10.7011 34.5 11.337 34.5 12C34.5 12.663 34.7634 13.2989 35.2322 13.7678C35.7011 14.2366 36.337 14.5 37 14.5C37.663 14.5 38.2989 14.2366 38.7678 13.7678C39.2366 13.2989 39.5 12.663 39.5 12C39.5 11.337 39.2366 10.7011 38.7678 10.2322C38.2989 9.76339 37.663 9.5 37 9.5ZM32 12C32 10.6739 32.5268 9.40215 33.4645 8.46447C34.4021 7.52678 35.6739 7 37 7C38.3261 7 39.5979 7.52678 40.5355 8.46447C41.4732 9.40215 42 10.6739 42 12C42 13.3261 41.4732 14.5979 40.5355 15.5355C39.5979 16.4732 38.3261 17 37 17C35.6739 17 34.4021 16.4732 33.4645 15.5355C32.5268 14.5979 32 13.3261 32 12ZM8.5 12C8.5 11.337 8.76339 10.7011 9.23223 10.2322C9.70107 9.76339 10.337 9.5 11 9.5C11.663 9.5 12.2989 9.76339 12.7678 10.2322C13.2366 10.7011 13.5 11.337 13.5 12C13.5 12.663 13.2366 13.2989 12.7678 13.7678C12.2989 14.2366 11.663 14.5 11 14.5C10.337 14.5 9.70107 14.2366 9.23223 13.7678C8.76339 13.2989 8.5 12.663 8.5 12ZM11 7C9.67392 7 8.40215 7.52678 7.46447 8.46447C6.52678 9.40215 6 10.6739 6 12C6 13.3261 6.52678 14.5979 7.46447 15.5355C8.40215 16.4732 9.67392 17 11 17C12.3261 17 13.5979 16.4732 14.5355 15.5355C15.4732 14.5979 16 13.3261 16 12C16 10.6739 15.4732 9.40215 14.5355 8.46447C13.5979 7.52678 12.3261 7 11 7ZM15 23.25C15 22.1228 15.4478 21.0418 16.2448 20.2448C17.0418 19.4478 18.1228 19 19.25 19H28.75C29.8772 19 30.9582 19.4478 31.7552 20.2448C32.5522 21.0418 33 22.1228 33 23.25V34C33 36.3869 32.0518 38.6761 30.364 40.364C28.6761 42.0518 26.3869 43 24 43C21.6131 43 19.3239 42.0518 17.636 40.364C15.9482 38.6761 15 36.3869 15 34V23.25ZM24 40.5C25.7239 40.5 27.3772 39.8152 28.5962 38.5962C29.8152 37.3772 30.5 35.7239 30.5 34V23.25C30.5 22.7859 30.3156 22.3408 29.9874 22.0126C29.6592 21.6844 29.2141 21.5 28.75 21.5H19.25C18.7859 21.5 18.3408 21.6844 18.0126 22.0126C17.6844 22.3408 17.5 22.7859 17.5 23.25V34C17.5 35.7239 18.1848 37.3772 19.4038 38.5962C20.6228 39.8152 22.2761 40.5 24 40.5ZM11 37.5C11.8361 37.5002 12.6558 37.2675 13.367 36.828C13.586 37.654 13.899 38.441 14.293 39.178C13.2263 39.7466 12.0306 40.0294 10.8222 39.9987C9.61384 39.968 8.434 39.6249 7.39759 39.0028C6.36117 38.3807 5.50351 37.5009 4.9081 36.4489C4.31269 35.397 3.99984 34.2088 4 33V23.251C3.99987 22.6928 4.1097 22.14 4.32323 21.6243C4.53675 21.1085 4.84978 20.6399 5.24444 20.2451C5.6391 19.8504 6.10767 19.5373 6.62336 19.3236C7.13906 19.11 7.6918 19 8.25 19H13.75C14.0387 19.0007 14.319 19.0283 14.591 19.083C13.9682 19.7781 13.5093 20.604 13.248 21.5H8.25C7.78587 21.5 7.34075 21.6844 7.01256 22.0126C6.68437 22.3408 6.5 22.7859 6.5 23.25V33C6.5 34.1935 6.97411 35.3381 7.81802 36.182C8.66193 37.0259 9.80653 37.5 11 37.5ZM37 40C35.8516 40.0006 34.7207 39.7186 33.707 39.179C34.101 38.441 34.414 37.654 34.633 36.828C35.3147 37.2496 36.0966 37.4815 36.898 37.4997C37.6993 37.5178 38.491 37.3216 39.1911 36.9314C39.8912 36.5411 40.4744 35.9709 40.8803 35.2797C41.2862 34.5886 41.5001 33.8015 41.5 33V23.25C41.5 22.7859 41.3156 22.3408 40.9874 22.0126C40.6592 21.6844 40.2141 21.5 39.75 21.5H34.752C34.4904 20.6039 34.0311 19.778 33.408 19.083C33.6813 19.0283 33.962 19.0007 34.25 19H39.75C40.8772 19 41.9582 19.4478 42.7552 20.2448C43.5522 21.0418 44 22.1228 44 23.25V33C44 34.8565 43.2625 36.637 41.9497 37.9497C40.637 39.2625 38.8565 40 37 40Z" fill="#0070FF" stroke="white" stroke-width="0.6" mask="url(#path-1-inside-1_1_829)"/>
</svg>
