<svg width="32" height="32" viewBox="0 0 32 32" fill="none" xmlns="http://www.w3.org/2000/svg">
<path d="M16 6C13.3478 6 10.8043 7.05357 8.92893 8.92893C7.05357 10.8043 6 13.3478 6 16C6 18.6522 7.05357 21.1957 8.92893 23.0711C10.8043 24.9464 13.3478 26 16 26C18.6522 26 21.1957 24.9464 23.0711 23.0711C24.9464 21.1957 26 18.6522 26 16C26 13.3478 24.9464 10.8043 23.0711 8.92893C21.1957 7.05357 18.6522 6 16 6ZM4 16C4 14.4241 4.31039 12.8637 4.91345 11.4078C5.5165 9.95189 6.40042 8.62902 7.51472 7.51472C8.62902 6.40042 9.95189 5.5165 11.4078 4.91345C12.8637 4.31039 14.4241 4 16 4C17.5759 4 19.1363 4.31039 20.5922 4.91345C22.0481 5.5165 23.371 6.40042 24.4853 7.51472C25.5996 8.62902 26.4835 9.95189 27.0866 11.4078C27.6896 12.8637 28 14.4241 28 16C28 19.1826 26.7357 22.2348 24.4853 24.4853C22.2348 26.7357 19.1826 28 16 28C12.8174 28 9.76516 26.7357 7.51472 24.4853C5.26428 22.2348 4 19.1826 4 16Z" fill="#18181B"/>
</svg>
