<svg width="48" height="48" viewBox="0 0 48 48" fill="none" xmlns="http://www.w3.org/2000/svg">
<path fill-rule="evenodd" clip-rule="evenodd" d="M28.8529 12.0611C28.2821 12.5182 27.9693 13.1142 27.9693 13.7328C27.9693 14.3523 28.2821 14.9483 28.8529 15.4063C29.4238 15.8644 30.2332 16.1619 31.1459 16.1619C31.2631 16.1619 31.3755 16.2116 31.4584 16.3002C31.5412 16.3888 31.5878 16.5089 31.5878 16.6341C31.5878 16.7594 31.5412 16.8795 31.4584 16.968C31.3755 17.0566 31.2631 17.1063 31.1459 17.1063C30.0609 17.1063 29.0606 16.7541 28.3228 16.1619C27.584 15.5697 27.0857 14.7169 27.0857 13.7337C27.0857 12.7515 27.584 11.8968 28.3228 11.3046C29.0615 10.7134 30.0609 10.3611 31.1459 10.3611C32.8407 10.3611 34.3685 11.2291 34.9579 12.5654C35.0078 12.6788 35.0136 12.8087 34.9739 12.9266C34.9342 13.0444 34.8523 13.1406 34.7463 13.194C34.6402 13.2473 34.5187 13.2535 34.4084 13.211C34.2981 13.1686 34.2082 13.0811 34.1582 12.9678C33.7544 12.0517 32.6022 11.3056 31.1459 11.3056C30.2332 11.3056 29.4238 11.6031 28.8529 12.0611Z" fill="#0070FF"/>
<path fill-rule="evenodd" clip-rule="evenodd" d="M33.1471 21.2062C33.7179 20.7491 34.0298 20.1522 34.0298 19.5345C34.0298 18.9149 33.7179 18.319 33.1462 17.8609C32.5754 17.4029 31.766 17.1054 30.8541 17.1054C30.7369 17.1054 30.6245 17.0556 30.5416 16.9671C30.4588 16.8785 30.4122 16.7584 30.4122 16.6332C30.4122 16.5079 30.4588 16.3878 30.5416 16.2993C30.6245 16.2107 30.7369 16.1609 30.8541 16.1609C31.9391 16.1609 32.9394 16.5132 33.6772 17.1054C34.4151 17.6976 34.9134 18.5504 34.9134 19.5336C34.9134 20.5158 34.4151 21.3705 33.6764 21.9617C32.9385 22.5539 31.9391 22.9062 30.8541 22.9062C29.1593 22.9062 27.6315 22.0382 27.0421 20.7018C26.9922 20.5885 26.9864 20.4586 27.0261 20.3407C27.0658 20.2229 27.1477 20.1267 27.2537 20.0733C27.3598 20.02 27.4813 20.0138 27.5916 20.0562C27.7019 20.0987 27.7918 20.1862 27.8418 20.2995C28.2456 21.2156 29.397 21.9617 30.8541 21.9617C31.766 21.9617 32.5754 21.6642 33.1471 21.2062ZM30.5342 8C30.6514 8 30.7637 8.04975 30.8466 8.13831C30.9294 8.22687 30.976 8.34698 30.976 8.47222V10.3611C30.976 10.4864 30.9294 10.6065 30.8466 10.695C30.7637 10.7836 30.6514 10.8333 30.5342 10.8333C30.417 10.8333 30.3046 10.7836 30.2218 10.695C30.1389 10.6065 30.0924 10.4864 30.0924 10.3611V8.47222C30.0924 8.34698 30.1389 8.22687 30.2218 8.13831C30.3046 8.04975 30.417 8 30.5342 8Z" fill="#0070FF"/>
<path fill-rule="evenodd" clip-rule="evenodd" d="M30.5341 22.1667C30.6513 22.1667 30.7637 22.2164 30.8466 22.305C30.9294 22.3935 30.976 22.5136 30.976 22.6389V24.5278C30.976 24.653 30.9294 24.7731 30.8466 24.8617C30.7637 24.9502 30.6513 25 30.5341 25C30.417 25 30.3046 24.9502 30.2217 24.8617C30.1389 24.7731 30.0923 24.653 30.0923 24.5278V22.6389C30.0923 22.5136 30.1389 22.3935 30.2217 22.305C30.3046 22.2164 30.417 22.1667 30.5341 22.1667Z" fill="#0070FF"/>
<path fill-rule="evenodd" clip-rule="evenodd" d="M28.8529 12.0611C28.2821 12.5182 27.9693 13.1142 27.9693 13.7328C27.9693 14.3523 28.2821 14.9483 28.8529 15.4063C29.4238 15.8644 30.2332 16.1619 31.1459 16.1619C31.2631 16.1619 31.3755 16.2116 31.4584 16.3002C31.5412 16.3888 31.5878 16.5089 31.5878 16.6341C31.5878 16.7594 31.5412 16.8795 31.4584 16.968C31.3755 17.0566 31.2631 17.1063 31.1459 17.1063C30.0609 17.1063 29.0606 16.7541 28.3228 16.1619C27.584 15.5697 27.0857 14.7169 27.0857 13.7337C27.0857 12.7515 27.584 11.8968 28.3228 11.3046C29.0615 10.7134 30.0609 10.3611 31.1459 10.3611C32.8407 10.3611 34.3685 11.2291 34.9579 12.5654C35.0078 12.6788 35.0136 12.8087 34.9739 12.9266C34.9342 13.0444 34.8523 13.1406 34.7463 13.194C34.6402 13.2473 34.5187 13.2535 34.4084 13.211C34.2981 13.1686 34.2082 13.0811 34.1582 12.9678C33.7544 12.0517 32.6022 11.3056 31.1459 11.3056C30.2332 11.3056 29.4238 11.6031 28.8529 12.0611Z" stroke="#0070FF" stroke-width="0.5"/>
<path fill-rule="evenodd" clip-rule="evenodd" d="M33.1471 21.2062C33.7179 20.7491 34.0298 20.1522 34.0298 19.5345C34.0298 18.9149 33.7179 18.319 33.1462 17.8609C32.5754 17.4029 31.766 17.1054 30.8541 17.1054C30.7369 17.1054 30.6245 17.0556 30.5416 16.9671C30.4588 16.8785 30.4122 16.7584 30.4122 16.6332C30.4122 16.5079 30.4588 16.3878 30.5416 16.2993C30.6245 16.2107 30.7369 16.1609 30.8541 16.1609C31.9391 16.1609 32.9394 16.5132 33.6772 17.1054C34.4151 17.6976 34.9134 18.5504 34.9134 19.5336C34.9134 20.5158 34.4151 21.3705 33.6764 21.9617C32.9385 22.5539 31.9391 22.9062 30.8541 22.9062C29.1593 22.9062 27.6315 22.0382 27.0421 20.7018C26.9922 20.5885 26.9864 20.4586 27.0261 20.3407C27.0658 20.2229 27.1477 20.1267 27.2537 20.0733C27.3598 20.02 27.4813 20.0138 27.5916 20.0562C27.7019 20.0987 27.7918 20.1862 27.8418 20.2995C28.2456 21.2156 29.397 21.9617 30.8541 21.9617C31.766 21.9617 32.5754 21.6642 33.1471 21.2062ZM30.5342 8C30.6514 8 30.7637 8.04975 30.8466 8.13831C30.9294 8.22687 30.976 8.34698 30.976 8.47222V10.3611C30.976 10.4864 30.9294 10.6065 30.8466 10.695C30.7637 10.7836 30.6514 10.8333 30.5342 10.8333C30.417 10.8333 30.3046 10.7836 30.2218 10.695C30.1389 10.6065 30.0924 10.4864 30.0924 10.3611V8.47222C30.0924 8.34698 30.1389 8.22687 30.2218 8.13831C30.3046 8.04975 30.417 8 30.5342 8Z" stroke="#0070FF" stroke-width="0.5"/>
<path fill-rule="evenodd" clip-rule="evenodd" d="M30.5341 22.1667C30.6513 22.1667 30.7637 22.2164 30.8466 22.305C30.9294 22.3935 30.976 22.5136 30.976 22.6389V24.5278C30.976 24.653 30.9294 24.7731 30.8466 24.8617C30.7637 24.9502 30.6513 25 30.5341 25C30.417 25 30.3046 24.9502 30.2217 24.8617C30.1389 24.7731 30.0923 24.653 30.0923 24.5278V22.6389C30.0923 22.5136 30.1389 22.3935 30.2217 22.305C30.3046 22.2164 30.417 22.1667 30.5341 22.1667Z" stroke="#0070FF" stroke-width="0.5"/>
<path d="M30.9248 30C38.657 30 44.9248 23.7322 44.9248 16C44.9248 8.2678 38.657 2 30.9248 2C23.1926 2 16.9248 8.2678 16.9248 16C16.9248 18.24 17.4512 20.3568 18.385 22.2342C18.6342 22.7326 18.7168 23.3024 18.5726 23.8414L17.7396 26.9578C17.6571 27.2662 17.6572 27.5909 17.7398 27.8993C17.8225 28.2076 17.9848 28.4888 18.2104 28.7146C18.4361 28.9405 18.7172 29.1029 19.0255 29.1858C19.3339 29.2686 19.6585 29.2689 19.967 29.1866L23.0834 28.3522C23.6244 28.216 24.1964 28.2823 24.692 28.5384C26.6281 29.5025 28.762 30.0029 30.9248 30Z" stroke="#0070FF" stroke-width="1.5"/>
<path fill-rule="evenodd" clip-rule="evenodd" d="M9.5 31C9.24952 31 9.0093 31.0937 8.83218 31.2603C8.65506 31.427 8.55556 31.6531 8.55556 31.8889V46.1111C8.55556 46.3469 8.65506 46.573 8.83218 46.7397C9.00929 46.9064 9.24952 47 9.5 47C9.75048 47 9.99071 46.9064 10.1678 46.7397C10.3449 46.573 10.4444 46.3469 10.4444 46.1111V31.8889C10.4444 31.6531 10.3449 31.427 10.1678 31.2603C9.9907 31.0937 9.75048 31 9.5 31ZM1.94444 34.5556C1.69396 34.5556 1.45374 34.6492 1.27662 34.8159C1.0995 34.9826 1 35.2087 1 35.4444V42.5556C1 42.7913 1.0995 43.0174 1.27662 43.1841C1.45374 43.3508 1.69396 43.4444 1.94444 43.4444C2.19493 43.4444 2.43515 43.3508 2.61227 43.1841C2.78939 43.0174 2.88889 42.7913 2.88889 42.5556V35.4444C2.88889 35.2087 2.78939 34.9826 2.61227 34.8159C2.43515 34.6492 2.19493 34.5556 1.94444 34.5556ZM17.0556 34.5556C16.8051 34.5556 16.5648 34.6492 16.3877 34.8159C16.2106 34.9826 16.1111 35.2087 16.1111 35.4444V42.5556C16.1111 42.7913 16.2106 43.0174 16.3877 43.1841C16.5648 43.3508 16.8051 43.4444 17.0556 43.4444C17.306 43.4444 17.5463 43.3508 17.7234 43.1841C17.9005 43.0174 18 42.7913 18 42.5556V35.4444C18 35.2087 17.9005 34.9826 17.7234 34.8159C17.5463 34.6492 17.306 34.5556 17.0556 34.5556Z" fill="#0070FF"/>
</svg>
