<svg width="32" height="32" viewBox="0 0 32 32" fill="none" xmlns="http://www.w3.org/2000/svg">
<path fill-rule="evenodd" clip-rule="evenodd" d="M13.6946 22.7758C13.5877 22.7338 13.4904 22.67 13.4092 22.5888L6.41404 15.5936C6.26453 15.4368 6.18195 15.2278 6.18393 15.011C6.18593 14.7925 6.27367 14.5836 6.42825 14.4291C6.58283 14.2747 6.79189 14.1871 7.01039 14.1853C7.22729 14.1836 7.43628 14.2664 7.593 14.4162L13.9535 20.7746L25.3678 7.45831C25.5117 7.29086 25.7161 7.18733 25.9362 7.17046C26.1588 7.15341 26.3761 7.22434 26.5421 7.36652C26.6252 7.43775 26.6934 7.52466 26.7429 7.62228C26.7924 7.71993 26.8222 7.82639 26.8306 7.93556C26.8389 8.04473 26.8257 8.15448 26.7916 8.25854C26.7575 8.36259 26.703 8.4593 26.6316 8.54238L14.6316 22.5423C14.5569 22.6295 14.4649 22.7003 14.3615 22.7503C14.2581 22.8003 14.1455 22.8283 14.0307 22.8327C13.916 22.8371 13.8015 22.8177 13.6946 22.7758Z" fill="#71717A"/>
</svg>
