<svg width="32" height="32" viewBox="0 0 32 32" fill="none" xmlns="http://www.w3.org/2000/svg">
<path fill-rule="evenodd" clip-rule="evenodd" d="M12.374 2.7486C12.1371 2.9629 11.8883 3.16351 11.6285 3.34945C11.1798 3.65062 10.6753 3.85844 10.1452 3.96385C9.91481 4.00902 9.67386 4.0286 9.19347 4.06625C7.98723 4.16262 7.38335 4.21081 6.88038 4.38851C6.30526 4.59156 5.78291 4.92079 5.35164 5.35205C4.92037 5.7833 4.59113 6.30564 4.38808 6.88074C4.21038 7.38371 4.16219 7.98757 4.06581 9.19378C4.04939 9.51267 4.0152 9.83041 3.96341 10.1455C3.858 10.6756 3.65018 11.18 3.349 11.6288C3.21798 11.8246 3.06136 12.0083 2.74813 12.3742C1.96355 13.2958 1.5705 13.7566 1.3401 14.2385C0.808509 15.3528 0.808509 16.6479 1.3401 17.7622C1.5705 18.2441 1.96355 18.7049 2.74813 19.6265C3.06136 19.9925 3.21798 20.1762 3.349 20.3719C3.65018 20.8207 3.858 21.3252 3.96341 21.8552C4.00859 22.0856 4.02817 22.3266 4.06581 22.807C4.16219 24.0132 4.21038 24.617 4.38808 25.12C4.59113 25.6951 4.92037 26.2174 5.35164 26.6487C5.78291 27.0799 6.30526 27.4092 6.88038 27.6122C7.38335 27.7899 7.98723 27.8381 9.19347 27.9345C9.67386 27.9721 9.91481 27.9917 10.1452 28.0369C10.6753 28.1423 11.1798 28.3516 11.6285 28.6513C11.8243 28.7823 12.008 28.9389 12.374 29.2521C13.2956 30.0367 13.7564 30.4297 14.2383 30.6601C15.3527 31.1917 16.6478 31.1917 17.7622 30.6601C18.2441 30.4297 18.7049 30.0367 19.6265 29.2521C19.9924 28.9389 20.1761 28.7823 20.3719 28.6513C20.8207 28.3501 21.3252 28.1423 21.8552 28.0369C22.0857 27.9917 22.3266 27.9721 22.807 27.9345C24.0132 27.8381 24.6171 27.7899 25.1201 27.6122C25.6952 27.4092 26.2175 27.0799 26.6488 26.6487C27.0801 26.2174 27.4093 25.6951 27.6124 25.12C27.7901 24.617 27.8383 24.0132 27.9346 22.807C27.9723 22.3266 27.9919 22.0856 28.037 21.8552C28.1425 21.3252 28.3518 20.8207 28.6515 20.3719C28.7825 20.1762 28.9391 19.9925 29.2523 19.6265C30.0369 18.7049 30.43 18.2441 30.6604 17.7622C31.1919 16.6479 31.1919 15.3528 30.6604 14.2385C30.43 13.7566 30.0369 13.2958 29.2523 12.3742C29.038 12.1374 28.8374 11.8885 28.6515 11.6288C28.3506 11.1799 28.1417 10.6757 28.037 10.1455C27.9853 9.8304 27.9511 9.51267 27.9346 9.19378C27.8383 7.98757 27.7901 7.38371 27.6124 6.88074C27.4093 6.30564 27.0801 5.7833 26.6488 5.35205C26.2175 4.92079 25.6952 4.59156 25.1201 4.38851C24.6171 4.21081 24.0132 4.16262 22.807 4.06625C22.4881 4.04982 22.1703 4.01564 21.8552 3.96385C21.325 3.85917 20.8209 3.65034 20.3719 3.34945C20.1125 3.16312 19.8636 2.96252 19.6265 2.7486C18.7049 1.96404 18.2441 1.571 17.7622 1.3406C17.212 1.07764 16.61 0.941162 16.0002 0.941162C15.3905 0.941162 14.7884 1.07764 14.2383 1.3406C13.7564 1.571 13.2956 1.96404 12.374 2.7486Z" fill="#F4F4F5"/>
<g clip-path="url(#clip0_1_7797)">
<g clip-path="url(#clip1_1_7797)">
<path d="M9.09815 21.3335H8.4707V15.3728C8.4707 14.5081 9.17408 13.8041 10.0393 13.8041H14.1178V14.4316H10.0393C9.52043 14.4316 9.09815 14.8539 9.09815 15.3728V21.3335ZM21.9609 13.8041H17.8825V14.4316H21.9609C22.4798 14.4316 22.9021 14.8539 22.9021 15.3728V21.3335H23.5295V15.3728C23.5295 14.5081 22.8262 13.8041 21.9609 13.8041ZM15.6864 8.96836V19.4512H16.3138V8.96648L18.9178 11.5183L19.3564 11.0703L16.6658 8.43252C16.2994 8.06546 15.7014 8.06546 15.335 8.43252L12.6684 11.0992L13.112 11.5428L15.6864 8.96836ZM22.5884 22.5884C21.5505 22.5884 20.706 21.7439 20.706 20.7061H20.0785C20.0785 21.7439 19.234 22.5884 18.1962 22.5884C17.1584 22.5884 16.3138 21.7439 16.3138 20.7061H15.6864C15.6864 21.7439 14.8418 22.5884 13.804 22.5884C12.7662 22.5884 11.9217 21.7439 11.9217 20.7061H11.2942C11.2942 21.7439 10.4497 22.5884 9.41188 22.5884C9.17157 22.5884 8.93753 22.5439 8.71729 22.4561L8.48576 23.0396C8.78066 23.1569 9.09251 23.2159 9.41251 23.2159C10.3637 23.2159 11.1832 22.6782 11.6086 21.8957C12.034 22.6775 12.8534 23.2159 13.8047 23.2159C14.7559 23.2159 15.5753 22.6782 16.0007 21.8957C16.4262 22.6775 17.2456 23.2159 18.1968 23.2159C19.148 23.2159 19.9675 22.6782 20.3929 21.8957C20.8183 22.6775 21.6378 23.2159 22.589 23.2159C22.909 23.2159 23.2208 23.1563 23.5157 23.0396L23.2842 22.4561C23.0633 22.5439 22.8293 22.5884 22.5896 22.5884H22.5884Z" fill="#18181B"/>
</g>
</g>
<defs>
<clipPath id="clip0_1_7797">
<rect width="15.0588" height="15.0588" fill="white" transform="translate(8.4707 8.23535)"/>
</clipPath>
<clipPath id="clip1_1_7797">
<rect width="15.0588" height="15.0588" fill="white" transform="translate(8.4707 8.15698)"/>
</clipPath>
</defs>
</svg>
