<svg width="32" height="32" viewBox="0 0 32 32" fill="none" xmlns="http://www.w3.org/2000/svg">
<path fill-rule="evenodd" clip-rule="evenodd" d="M15.2938 10.2934C15.4813 10.1062 15.7354 10.001 16.0004 10.001C16.2654 10.001 16.5196 10.1062 16.7071 10.2934L26.7071 20.2934C26.8054 20.385 26.8842 20.4954 26.9388 20.618C26.9935 20.7407 27.0229 20.8731 27.0252 21.0074C27.0276 21.1417 27.0029 21.275 26.9526 21.3996C26.9023 21.5241 26.8275 21.6372 26.7325 21.7321C26.6375 21.8271 26.5244 21.902 26.3999 21.9523C26.2754 22.0026 26.142 22.0273 26.0078 22.0249C25.8735 22.0225 25.7411 21.9931 25.6184 21.9385C25.4957 21.8838 25.3853 21.805 25.2938 21.7068L16.0004 12.4134L6.70711 21.7068C6.51755 21.8834 6.26682 21.9796 6.00775 21.975C5.74868 21.9704 5.5015 21.8655 5.31828 21.6823C5.13507 21.499 5.03012 21.2519 5.02555 20.9928C5.02098 20.7337 5.11714 20.483 5.29378 20.2934L15.2938 10.2934Z" fill="#71717A"/>
</svg>
