<svg width="32" height="32" viewBox="0 0 32 32" fill="none" xmlns="http://www.w3.org/2000/svg">
<path fill-rule="evenodd" clip-rule="evenodd" d="M15.2938 21.7066C15.4813 21.8938 15.7354 21.999 16.0004 21.999C16.2654 21.999 16.5196 21.8938 16.7071 21.7066L26.7071 11.7066C26.8054 11.615 26.8842 11.5046 26.9388 11.382C26.9935 11.2593 27.0229 11.1269 27.0252 10.9926C27.0276 10.8583 27.0029 10.725 26.9526 10.6004C26.9023 10.4759 26.8275 10.3628 26.7325 10.2679C26.6375 10.1729 26.5244 10.098 26.3999 10.0477C26.2754 9.99744 26.142 9.97275 26.0078 9.97512C25.8735 9.97748 25.7411 10.0069 25.6184 10.0615C25.4957 10.1162 25.3853 10.195 25.2938 10.2932L16.0004 19.5866L6.70711 10.2932C6.51755 10.1166 6.26682 10.0204 6.00775 10.025C5.74868 10.0296 5.5015 10.1345 5.31828 10.3177C5.13507 10.501 5.03012 10.7481 5.02555 11.0072C5.02098 11.2663 5.11714 11.517 5.29378 11.7066L15.2938 21.7066Z" fill="#71717A"/>
</svg>
