<svg width="32" height="32" viewBox="0 0 32 32" fill="none" xmlns="http://www.w3.org/2000/svg">
<path fill-rule="evenodd" clip-rule="evenodd" d="M10.2934 15.2938C10.1062 15.4813 10.001 15.7354 10.001 16.0004C10.001 16.2654 10.1062 16.5196 10.2934 16.7071L20.2934 26.7071C20.385 26.8054 20.4954 26.8842 20.618 26.9388C20.7407 26.9935 20.8731 27.0229 21.0074 27.0252C21.1417 27.0276 21.275 27.0029 21.3996 26.9526C21.5241 26.9023 21.6372 26.8275 21.7321 26.7325C21.8271 26.6375 21.902 26.5244 21.9523 26.3999C22.0026 26.2754 22.0273 26.142 22.0249 26.0078C22.0225 25.8735 21.9931 25.7411 21.9385 25.6184C21.8838 25.4957 21.805 25.3853 21.7068 25.2938L12.4134 16.0004L21.7068 6.70711C21.8834 6.51755 21.9796 6.26682 21.975 6.00775C21.9704 5.74868 21.8655 5.5015 21.6823 5.31828C21.499 5.13507 21.2519 5.03012 20.9928 5.02555C20.7337 5.02098 20.483 5.11714 20.2934 5.29378L10.2934 15.2938Z" fill="#71717A"/>
</svg>
