<svg width="32" height="32" viewBox="0 0 32 32" fill="none" xmlns="http://www.w3.org/2000/svg">
<path fill-rule="evenodd" clip-rule="evenodd" d="M21.7066 16.7062C21.8938 16.5187 21.999 16.2646 21.999 15.9996C21.999 15.7346 21.8938 15.4804 21.7066 15.2929L11.7066 5.29288C11.615 5.19464 11.5046 5.11583 11.382 5.06118C11.2593 5.00652 11.1269 4.97713 10.9926 4.97476C10.8583 4.97239 10.725 4.99709 10.6004 5.04739C10.4759 5.09768 10.3628 5.17254 10.2679 5.2675C10.1729 5.36246 10.098 5.47557 10.0477 5.60009C9.99744 5.72461 9.97275 5.85798 9.97512 5.99225C9.97748 6.12652 10.0069 6.25894 10.0615 6.38161C10.1162 6.50427 10.195 6.61467 10.2932 6.70622L19.5866 15.9996L10.2932 25.2929C10.1166 25.4825 10.0204 25.7332 10.025 25.9923C10.0296 26.2513 10.1345 26.4985 10.3177 26.6817C10.501 26.8649 10.7481 26.9699 11.0072 26.9745C11.2663 26.979 11.517 26.8829 11.7066 26.7062L21.7066 16.7062Z" fill="#71717A"/>
</svg>
