<svg width="48" height="48" viewBox="0 0 48 48" fill="none" xmlns="http://www.w3.org/2000/svg">
<path d="M34 24C34 25.9778 33.4135 27.9112 32.3147 29.5557C31.2159 31.2002 29.6541 32.4819 27.8268 33.2388C25.9996 33.9957 23.9889 34.1937 22.0491 33.8079C20.1093 33.422 18.3275 32.4696 16.9289 31.0711C15.5304 29.6725 14.578 27.8907 14.1922 25.9509C13.8063 24.0111 14.0043 22.0004 14.7612 20.1732C15.5181 18.3459 16.7998 16.7841 18.4443 15.6853C20.0888 14.5865 22.0222 14 24 14" stroke="#0070FF" stroke-width="2" stroke-linecap="round" stroke-linejoin="round"/>
<path d="M28 4.4C26.7067 4.136 25.3733 4.00267 24 4C12.954 4 4 12.954 4 24C4 35.046 12.954 44 24 44C35.046 44 44 35.046 44 24C43.9973 22.6267 43.864 21.2933 43.6 20" stroke="#0070FF" stroke-width="2" stroke-linecap="round" stroke-linejoin="round"/>
<path d="M24.06 23.9239L33.166 14.8179M39.48 8.68992L38.374 4.71392C38.3298 4.56245 38.2489 4.42422 38.1385 4.31145C38.0282 4.19868 37.8917 4.11486 37.7412 4.0674C37.5907 4.01994 37.4309 4.01031 37.2758 4.03935C37.1207 4.0684 36.9751 4.13523 36.852 4.23392C33.98 6.57992 30.852 9.74192 33.406 14.7279C38.554 17.1279 41.494 13.8919 43.746 11.1699C43.8479 11.0446 43.9169 10.8958 43.9468 10.737C43.9767 10.5783 43.9666 10.4146 43.9174 10.2607C43.8682 10.1069 43.7814 9.9677 43.6648 9.85582C43.5483 9.74394 43.4057 9.66286 43.25 9.61992L39.48 8.68992Z" stroke="#0070FF" stroke-width="2" stroke-linecap="round" stroke-linejoin="round"/>
</svg>
