<svg width="24" height="24" viewBox="0 0 24 24" fill="none" xmlns="http://www.w3.org/2000/svg">
<path d="M19.4 19.4L22 22M2 6C2.13 4.665 2.426 3.766 3.096 3.096C3.766 2.426 4.665 2.131 6 2M6 22C4.665 21.87 3.766 21.574 3.096 20.904C2.426 20.234 2.131 19.335 2 18M22 6C21.87 4.665 21.574 3.766 20.904 3.096C20.234 2.426 19.335 2.131 18 2M2 10V14M14 2H10M20.7 14.85C20.7 14.0818 20.5487 13.3211 20.2547 12.6113C19.9607 11.9015 19.5298 11.2566 18.9866 10.7134C18.4434 10.1702 17.7985 9.73929 17.0887 9.4453C16.3789 9.15131 15.6182 9 14.85 9C14.0818 9 13.3211 9.15131 12.6113 9.4453C11.9015 9.73929 11.2566 10.1702 10.7134 10.7134C10.1702 11.2566 9.73929 11.9015 9.4453 12.6113C9.15131 13.3211 9 14.0818 9 14.85C9 16.4015 9.61634 17.8895 10.7134 18.9866C11.8105 20.0837 13.2985 20.7 14.85 20.7C16.4015 20.7 17.8895 20.0837 18.9866 18.9866C20.0837 17.8895 20.7 16.4015 20.7 14.85Z" stroke="white" stroke-width="1.5" stroke-linecap="round" stroke-linejoin="round"/>
</svg>
