<svg width="48" height="48" viewBox="0 0 48 48" fill="none" xmlns="http://www.w3.org/2000/svg">
<path d="M34 21.6102C34 20.9182 34 20.5722 34.104 20.2642C34.406 19.3682 35.204 19.0222 36.004 18.6582C36.9 18.2482 37.348 18.0442 37.794 18.0082C38.298 17.9682 38.804 18.0762 39.236 18.3182C39.808 18.6382 40.208 19.2502 40.616 19.7462C42.502 22.0382 43.446 23.1842 43.79 24.4462C44.07 25.4662 44.07 26.5342 43.79 27.5522C43.288 29.3962 41.698 30.9402 40.52 32.3722C39.918 33.1022 39.616 33.4682 39.236 33.6822C38.7966 33.9259 38.2947 34.0338 37.794 33.9922C37.348 33.9562 36.9 33.7522 36.002 33.3422C35.202 32.9782 34.406 32.6322 34.104 31.7362C34 31.4282 34 31.0822 34 30.3902V21.6102ZM14 21.6102C14 20.7382 13.976 19.9562 13.272 19.3442C13.016 19.1222 12.676 18.9682 11.998 18.6582C11.1 18.2502 10.652 18.0442 10.206 18.0082C8.872 17.9002 8.154 18.8122 7.386 19.7482C5.498 22.0382 4.554 23.1842 4.208 24.4482C3.92961 25.4649 3.92961 26.5376 4.208 27.5542C4.712 29.3962 6.304 30.9422 7.48 32.3722C8.222 33.2722 8.932 34.0942 10.206 33.9922C10.652 33.9562 11.1 33.7522 11.998 33.3422C12.678 33.0342 13.016 32.8782 13.272 32.6562C13.976 32.0442 14 31.2622 14 30.3922V21.6102Z" stroke="#0070FF" stroke-width="2" stroke-linecap="round" stroke-linejoin="round"/>
<path d="M10 18C10 11.372 16.268 6 24 6C31.732 6 38 11.372 38 18M38 34V35.6C38 39.134 34.42 42 30 42H26" stroke="#0070FF" stroke-width="2" stroke-linecap="round" stroke-linejoin="round"/>
</svg>
