<svg xmlns="http://www.w3.org/2000/svg" width="32" height="32" viewBox="0 0 32 32" fill="none">
  <path d="M9.33203 22.6668V17.3335M15.9987 22.6668V9.3335M22.6654 22.6668V14.6668M3.33203 16.0002C3.33203 10.0295 3.33203 7.04283 5.1867 5.18816C7.04136 3.3335 10.0267 3.3335 15.9987 3.3335C21.9694 3.3335 24.956 3.3335 26.8107 5.18816C28.6654 7.04283 28.6654 10.0282 28.6654 16.0002C28.6654 21.9708 28.6654 24.9575 26.8107 26.8122C24.956 28.6668 21.9707 28.6668 15.9987 28.6668C10.028 28.6668 7.04136 28.6668 5.1867 26.8122C3.33203 24.9575 3.33203 21.9722 3.33203 16.0002Z" stroke="#0070FF" stroke-width="1.5" stroke-linecap="round" stroke-linejoin="round"/>
</svg>