<svg width="182" height="182" viewBox="0 0 182 182" fill="none" xmlns="http://www.w3.org/2000/svg">
<g filter="url(#filter0_d_1_15230)">
<path fill-rule="evenodd" clip-rule="evenodd" d="M75.1068 22.9217C74.0688 23.8609 72.978 24.7401 71.8397 25.5551C69.8729 26.8751 67.6618 27.7859 65.3386 28.2479C64.3287 28.4459 63.2727 28.5317 61.1673 28.6967C55.8805 29.1191 53.2339 29.3303 51.0294 30.1091C48.5088 30.999 46.2194 32.4419 44.3292 34.3321C42.4391 36.2222 40.9961 38.5115 40.1061 41.0321C39.3273 43.2365 39.1161 45.8831 38.6937 51.1697C38.6217 52.5673 38.4719 53.9599 38.2449 55.3409C37.7829 57.6641 36.872 59.8751 35.552 61.8419C34.9778 62.6999 34.2914 63.5051 32.9185 65.1089C29.4799 69.1481 27.7572 71.1677 26.7474 73.2797C24.4175 78.1637 24.4175 83.8397 26.7474 88.7237C27.7572 90.8357 29.4799 92.8553 32.9185 96.8945C34.2914 98.4983 34.9778 99.3035 35.552 100.161C36.872 102.128 37.7829 104.339 38.2449 106.662C38.4429 107.672 38.5287 108.728 38.6937 110.834C39.1161 116.12 39.3273 118.767 40.1061 120.971C40.9961 123.492 42.4391 125.781 44.3292 127.671C46.2194 129.561 48.5088 131.004 51.0294 131.894C53.2339 132.673 55.8805 132.884 61.1673 133.307C63.2727 133.472 64.3287 133.557 65.3386 133.755C67.6618 134.217 69.8729 135.135 71.8397 136.448C72.6977 137.022 73.503 137.709 75.1068 139.082C79.1461 142.52 81.1658 144.243 83.2778 145.253C88.1619 147.582 93.8381 147.582 98.7222 145.253C100.834 144.243 102.854 142.52 106.893 139.082C108.497 137.709 109.302 137.022 110.16 136.448C112.127 135.128 114.338 134.217 116.661 133.755C117.671 133.557 118.727 133.472 120.833 133.307C126.119 132.884 128.766 132.673 130.971 131.894C133.491 131.004 135.781 129.561 137.671 127.671C139.561 125.781 141.004 123.492 141.894 120.971C142.673 118.767 142.884 116.12 143.306 110.834C143.471 108.728 143.557 107.672 143.755 106.662C144.217 104.339 145.135 102.128 146.448 100.161C147.022 99.3035 147.709 98.4983 149.081 96.8945C152.52 92.8553 154.243 90.8357 155.253 88.7237C157.582 83.8397 157.582 78.1637 155.253 73.2797C154.243 71.1677 152.52 69.1481 149.081 65.1089C148.142 64.0709 147.263 62.9801 146.448 61.8419C145.129 59.8743 144.214 57.6646 143.755 55.3409C143.528 53.9599 143.378 52.5673 143.306 51.1697C142.884 45.8831 142.673 43.2365 141.894 41.0321C141.004 38.5115 139.561 36.2222 137.671 34.3321C135.781 32.4419 133.491 30.999 130.971 30.1091C128.766 29.3303 126.119 29.1191 120.833 28.6967C119.435 28.6247 118.042 28.4748 116.661 28.2479C114.338 27.7891 112.128 26.8738 110.16 25.5551C109.023 24.7384 107.933 23.8593 106.893 22.9217C102.854 19.4831 100.834 17.7605 98.7222 16.7507C96.311 15.5982 93.6725 15 91 15C88.3275 15 85.689 15.5982 83.2778 16.7507C81.1658 17.7605 79.1461 19.4831 75.1068 22.9217Z" fill="white"/>
</g>
<path d="M92.5631 54H89.5601C87.8847 54.0245 86.2101 54.0915 84.5381 54.201C71.9651 55.035 61.9481 65.175 61.1231 77.907C60.9642 80.4245 60.9642 82.9495 61.1231 85.467C61.4231 90.105 63.4781 94.395 65.8961 98.022C67.3001 100.56 66.3761 103.725 64.9121 106.491C63.8561 108.486 63.3311 109.485 63.7541 110.205C64.1741 110.925 65.1221 110.949 67.0121 110.994C70.7531 111.084 73.2761 110.028 75.2771 108.552C76.4141 107.718 76.9811 107.301 77.3711 107.253C77.7611 107.205 78.5351 107.523 80.0711 108.153C81.4571 108.723 83.0651 109.074 84.5411 109.173C88.8191 109.455 93.3011 109.455 97.5911 109.173C109.645 108.369 119.503 99 121 87" stroke="#0070FF" stroke-width="2.5" stroke-linecap="round" stroke-linejoin="round"/>
<path d="M90.985 82.5H91.015M79 82.5H79.027M101.77 70.944C99.883 72.051 94.939 74.307 97.951 77.133C99.421 78.513 101.062 79.5 103.12 79.5H114.88C116.938 79.5 118.579 78.513 120.049 77.133C123.061 74.307 118.117 72.051 116.23 70.944C114.034 69.669 111.539 68.9974 109 68.9974C106.461 68.9974 103.966 69.669 101.77 70.944ZM115 57C115 58.5913 114.368 60.1174 113.243 61.2426C112.117 62.3679 110.591 63 109 63C107.409 63 105.883 62.3679 104.757 61.2426C103.632 60.1174 103 58.5913 103 57C103 55.4087 103.632 53.8826 104.757 52.7574C105.883 51.6321 107.409 51 109 51C110.591 51 112.117 51.6321 113.243 52.7574C114.368 53.8826 115 55.4087 115 57Z" stroke="#0070FF" stroke-width="3" stroke-linecap="round" stroke-linejoin="round"/>
<defs>
<filter id="filter0_d_1_15230" x="0" y="0" width="182" height="182" filterUnits="userSpaceOnUse" color-interpolation-filters="sRGB">
<feFlood flood-opacity="0" result="BackgroundImageFix"/>
<feColorMatrix in="SourceAlpha" type="matrix" values="0 0 0 0 0 0 0 0 0 0 0 0 0 0 0 0 0 0 127 0" result="hardAlpha"/>
<feOffset dy="10"/>
<feGaussianBlur stdDeviation="12.5"/>
<feComposite in2="hardAlpha" operator="out"/>
<feColorMatrix type="matrix" values="0 0 0 0 0 0 0 0 0 0 0 0 0 0 0 0 0 0 0.05 0"/>
<feBlend mode="normal" in2="BackgroundImageFix" result="effect1_dropShadow_1_15230"/>
<feBlend mode="normal" in="SourceGraphic" in2="effect1_dropShadow_1_15230" result="shape"/>
</filter>
</defs>
</svg>
