<svg width="48" height="48" viewBox="0 0 48 48" fill="none" xmlns="http://www.w3.org/2000/svg">
<path d="M25.042 6H23.04C21.923 6.01633 20.8067 6.06101 19.692 6.134C11.31 6.69 4.63199 13.45 4.08199 21.938C3.97605 23.6163 3.97605 25.2997 4.08199 26.978C4.28199 30.07 5.65199 32.93 7.26399 35.348C8.19999 37.04 7.58399 39.15 6.60799 40.994C5.90399 42.324 5.55399 42.99 5.83599 43.47C6.11599 43.95 6.74799 43.966 8.00799 43.996C10.502 44.056 12.184 43.352 13.518 42.368C14.276 41.812 14.654 41.534 14.914 41.502C15.174 41.47 15.69 41.682 16.714 42.102C17.638 42.482 18.71 42.716 19.694 42.782C22.546 42.97 25.534 42.97 28.394 42.782C36.43 42.246 43.002 36 44 28" stroke="#0070FF" stroke-width="1.5" stroke-linecap="round" stroke-linejoin="round"/>
<path d="M23.99 25H24.01M16 25H16.018M31.18 17.296C29.922 18.034 26.626 19.538 28.634 21.422C29.614 22.342 30.708 23 32.08 23H39.92C41.292 23 42.386 22.342 43.366 21.422C45.374 19.538 42.078 18.034 40.82 17.296C39.3559 16.446 37.693 15.9983 36 15.9983C34.307 15.9983 32.6441 16.446 31.18 17.296ZM40 8C40 9.06087 39.5786 10.0783 38.8284 10.8284C38.0783 11.5786 37.0609 12 36 12C34.9391 12 33.9217 11.5786 33.1716 10.8284C32.4214 10.0783 32 9.06087 32 8C32 6.93913 32.4214 5.92172 33.1716 5.17157C33.9217 4.42143 34.9391 4 36 4C37.0609 4 38.0783 4.42143 38.8284 5.17157C39.5786 5.92172 40 6.93913 40 8Z" stroke="#0070FF" stroke-width="1.5" stroke-linecap="round" stroke-linejoin="round"/>
</svg>
