<svg width="48" height="48" viewBox="0 0 48 48" fill="none" xmlns="http://www.w3.org/2000/svg">
<path d="M26 30C21.416 42 8.584 30 4 42M31 30H34.002C38.716 30 41.074 30 42.538 28.536C44.002 27.072 44.002 24.714 44.002 20V16C44.002 11.286 44.002 8.928 42.538 7.464C41.074 6 38.72 6 34.002 6H26.002C21.288 6 18.932 6 17.468 7.464C16.228 8.704 16.036 10.586 16.008 14" stroke="#0070FF" stroke-width="2" stroke-linecap="round" stroke-linejoin="round"/>
<path d="M15 30C17.7614 30 20 27.7614 20 25C20 22.2386 17.7614 20 15 20C12.2386 20 10 22.2386 10 25C10 27.7614 12.2386 30 15 30Z" stroke="#0070FF" stroke-width="2" stroke-linecap="round" stroke-linejoin="round"/>
<path d="M24 14H36M36 22H30" stroke="#0070FF" stroke-width="2" stroke-linecap="round" stroke-linejoin="round"/>
</svg>
