<svg width="48" height="48" viewBox="0 0 48 48" fill="none" xmlns="http://www.w3.org/2000/svg">
<rect width="48" height="48" fill="#18181B"/>
<path d="M26 44H13.18C10.09 44 7.63198 42.496 5.42598 40.394C0.905984 36.088 8.32598 32.648 11.156 30.964C15.026 28.6729 19.5229 27.6681 24 28.094M40.8 40.8L44 44M31 13C31 14.1819 30.7672 15.3522 30.3149 16.4442C29.8626 17.5361 29.1997 18.5282 28.3639 19.364C27.5282 20.1997 26.5361 20.8626 25.4441 21.3149C24.3522 21.7672 23.1819 22 22 22C20.8181 22 19.6478 21.7672 18.5558 21.3149C17.4639 20.8626 16.4717 20.1997 15.636 19.364C14.8003 18.5282 14.1374 17.5361 13.6851 16.4442C13.2328 15.3522 13 14.1819 13 13C13 10.6131 13.9482 8.32387 15.636 6.63604C17.3238 4.94821 19.613 4 22 4C24.3869 4 26.6761 4.94821 28.3639 6.63604C30.0518 8.32387 31 10.6131 31 13ZM42.4 35.2C42.4 33.2904 41.6414 31.4591 40.2912 30.1088C38.9409 28.7586 37.1095 28 35.2 28C33.2904 28 31.4591 28.7586 30.1088 30.1088C28.7586 31.4591 28 33.2904 28 35.2C28 37.1096 28.7586 38.9409 30.1088 40.2912C31.4591 41.6414 33.2904 42.4 35.2 42.4C37.1095 42.4 38.9409 41.6414 40.2912 40.2912C41.6414 38.9409 42.4 37.1096 42.4 35.2Z" stroke="white" stroke-width="2.3" stroke-linecap="round" stroke-linejoin="round"/>
</svg>
