<svg width="32" height="32" viewBox="0 0 32 32" fill="none" xmlns="http://www.w3.org/2000/svg">
<path d="M14.1667 11.5067C14.1667 8.83333 11.704 6.66667 8.66669 6.66667M8.66669 6.66667C5.62935 6.66667 3.16669 8.83333 3.16669 11.5067C3.16669 14.18 4.66669 15.6533 8.66669 15.6533C12.6667 15.6533 14.6667 17.0373 14.6667 20.4933C14.6667 23.9507 11.98 25.3333 8.66669 25.3333M8.66669 6.66667V4M8.66669 25.3333C5.35335 25.3333 2.66669 23.1667 2.66669 20.4933M8.66669 25.3333V28M19.3334 16H29.3334M19.3334 16C19.3334 16.9333 21.992 18.6773 22.6667 19.3333M19.3334 16C19.3334 15.0667 21.992 13.3227 22.6667 12.6667" stroke="#0070FF" stroke-width="1.5" stroke-linecap="round" stroke-linejoin="round"/>
</svg>
