<svg width="32" height="32" viewBox="0 0 32 32" fill="none" xmlns="http://www.w3.org/2000/svg">
<g clip-path="url(#clip0_1_1241)">
<path fill-rule="evenodd" clip-rule="evenodd" d="M12.3737 2.7486C12.1369 2.9629 11.888 3.16351 11.6283 3.34945C11.1795 3.65062 10.6751 3.85844 10.145 3.96385C9.91456 4.00902 9.67362 4.0286 9.19323 4.06625C7.98698 4.16262 7.38311 4.21081 6.88013 4.38851C6.30502 4.59156 5.78267 4.92079 5.3514 5.35204C4.92013 5.7833 4.59089 6.30564 4.38784 6.88074C4.21014 7.38371 4.16195 7.98757 4.06557 9.19378C4.04914 9.51267 4.01496 9.8304 3.96317 10.1455C3.85775 10.6756 3.64994 11.18 3.34875 11.6288C3.21774 11.8246 3.06112 12.0083 2.74789 12.3742C1.96331 13.2958 1.57026 13.7566 1.33985 14.2385C0.808265 15.3528 0.808265 16.6479 1.33985 17.7622C1.57026 18.2441 1.96331 18.7049 2.74789 19.6265C3.06112 19.9925 3.21774 20.1762 3.34875 20.3719C3.64994 20.8207 3.85775 21.3252 3.96317 21.8552C4.00834 22.0856 4.02792 22.3266 4.06557 22.807C4.16195 24.0132 4.21014 24.617 4.38784 25.12C4.59089 25.6951 4.92013 26.2174 5.3514 26.6487C5.78267 27.0799 6.30502 27.4092 6.88013 27.6122C7.38311 27.7899 7.98698 27.8381 9.19323 27.9345C9.67362 27.9721 9.91456 27.9917 10.145 28.0369C10.6751 28.1423 11.1795 28.3516 11.6283 28.6513C11.8241 28.7823 12.0078 28.9389 12.3737 29.2521C13.2954 30.0367 13.7562 30.4297 14.2381 30.6601C15.3524 31.1917 16.6475 31.1917 17.7619 30.6601C18.2438 30.4297 18.7046 30.0367 19.6262 29.2521C19.9922 28.9389 20.1759 28.7823 20.3717 28.6513C20.8204 28.3501 21.3249 28.1423 21.855 28.0369C22.0854 27.9917 22.3264 27.9721 22.8067 27.9345C24.013 27.8381 24.6169 27.7899 25.1198 27.6122C25.6949 27.4092 26.2173 27.0799 26.6486 26.6487C27.0798 26.2174 27.4091 25.6951 27.6121 25.12C27.7898 24.617 27.838 24.0132 27.9344 22.807C27.972 22.3266 27.9916 22.0856 28.0368 21.8552C28.1422 21.3252 28.3515 20.8207 28.6512 20.3719C28.7822 20.1762 28.9388 19.9925 29.2521 19.6265C30.0367 18.7049 30.4297 18.2441 30.6601 17.7622C31.1917 16.6479 31.1917 15.3528 30.6601 14.2385C30.4297 13.7566 30.0367 13.2958 29.2521 12.3742C29.0378 12.1374 28.8372 11.8885 28.6512 11.6288C28.3503 11.1799 28.1415 10.6757 28.0368 10.1455C27.9851 9.8304 27.9509 9.51267 27.9344 9.19378C27.838 7.98757 27.7898 7.38371 27.6121 6.88074C27.4091 6.30564 27.0798 5.7833 26.6486 5.35204C26.2173 4.92079 25.6949 4.59156 25.1198 4.38851C24.6169 4.21081 24.013 4.16262 22.8067 4.06625C22.4878 4.04982 22.1701 4.01564 21.855 3.96385C21.3248 3.85917 20.8206 3.65034 20.3717 3.34945C20.1123 3.16312 19.8634 2.96252 19.6262 2.7486C18.7046 1.96404 18.2438 1.571 17.7619 1.3406C17.2118 1.07764 16.6097 0.941162 16 0.941162C15.3902 0.941162 14.7882 1.07764 14.2381 1.3406C13.7562 1.571 13.2954 1.96404 12.3737 2.7486Z" fill="#F4F4F5"/>
<g clip-path="url(#clip1_1_1241)">
<g clip-path="url(#clip2_1_1241)">
<g clip-path="url(#clip3_1_1241)">
<path d="M20.412 8.47095H11.5885C10.1291 8.47095 8.94141 9.69813 8.94141 11.2061V12.4218C8.94141 13.9298 10.1291 15.1569 11.5885 15.1569H20.412C21.8714 15.1569 23.0591 13.9298 23.0591 12.4218V11.2061C23.0591 9.69813 21.8714 8.47095 20.412 8.47095ZM22.4708 12.4218C22.4708 13.5949 21.5473 14.5491 20.412 14.5491H11.5885C10.4532 14.5491 9.52964 13.5949 9.52964 12.4218V11.2061C9.52964 10.033 10.4532 9.07877 11.5885 9.07877H20.412C21.5473 9.07877 22.4708 10.033 22.4708 11.2061V12.4218ZM20.7061 12.4218C20.7061 12.5895 20.5743 12.7257 20.412 12.7257H11.5885C11.4261 12.7257 11.2943 12.5895 11.2943 12.4218C11.2943 12.254 11.4261 12.1179 11.5885 12.1179H20.412C20.5743 12.1179 20.7061 12.254 20.7061 12.4218ZM16.2943 16.6765V22.7547C16.2943 22.9224 16.1626 23.0586 16.0002 23.0586C15.8379 23.0586 15.7061 22.9224 15.7061 22.7547V16.6765C15.7061 16.5087 15.8379 16.3726 16.0002 16.3726C16.1626 16.3726 16.2943 16.5087 16.2943 16.6765ZM13.0591 16.6747L13.6473 16.6789C13.6473 16.6789 13.6249 19.9253 13.6249 20.9318C13.6249 22.1049 12.7014 23.0592 11.5661 23.0592C10.4308 23.0592 9.50729 22.1049 9.50729 20.9318C9.50729 19.9994 10.0843 19.112 10.8802 18.8215C11.0314 18.7662 11.2014 18.8482 11.2555 19.0069C11.3096 19.1649 11.2291 19.3387 11.0755 19.3946C10.5173 19.5983 10.0955 20.259 10.0955 20.9312C10.0955 21.7688 10.7549 22.4508 11.5661 22.4508C12.3773 22.4508 13.0367 21.7688 13.0367 20.9312C13.0367 19.9235 13.0591 16.6747 13.0591 16.6747ZM22.4708 20.9312C22.4708 22.1043 21.5473 23.0586 20.412 23.0586C19.2767 23.0586 18.3532 22.1043 18.3532 20.9312V16.6765C18.3532 16.5087 18.4849 16.3726 18.6473 16.3726C18.8096 16.3726 18.9414 16.5087 18.9414 16.6765V20.9312C18.9414 21.7688 19.6008 22.4508 20.412 22.4508C21.2232 22.4508 21.8826 21.7688 21.8826 20.9312C21.8826 20.259 21.4608 19.5983 20.902 19.3946C20.7491 19.3387 20.6691 19.1649 20.7226 19.0069C20.7773 18.8488 20.9449 18.7674 21.0985 18.8215C21.8938 19.112 22.4708 19.9988 22.4708 20.9312Z" fill="#18181B"/>
</g>
</g>
</g>
</g>
<defs>
<clipPath id="clip0_1_1241">
<rect width="32" height="32" fill="white"/>
</clipPath>
<clipPath id="clip1_1_1241">
<rect width="15.0588" height="15.0588" fill="white" transform="translate(8.4707 8.23535)"/>
</clipPath>
<clipPath id="clip2_1_1241">
<rect width="15.0588" height="15.0588" fill="white" transform="translate(8.4707 8.15698)"/>
</clipPath>
<clipPath id="clip3_1_1241">
<rect width="15.0588" height="15.0588" fill="white" transform="translate(8.4707 8.00024)"/>
</clipPath>
</defs>
</svg>

