<svg xmlns="http://www.w3.org/2000/svg" width="48" height="48" viewBox="0 0 48 48" fill="none">
  <path d="M22.4365 5.78906C22.9502 4.57095 24.7177 4.57095 25.2314 5.78906L25.2334 5.79102L29.7607 16.4258L29.9668 16.9111L30.4922 16.9551L42.0635 17.9326L42.0684 17.9336C43.4035 18.0395 43.946 19.6973 42.9316 20.5713L34.1387 28.1533L33.7373 28.5L33.8584 29.0156L36.4941 40.2705C36.7952 41.5602 35.3918 42.5979 34.2275 41.8965L24.2852 35.9121L23.835 35.6406L23.3838 35.9111L13.4414 41.8721L13.4404 41.873C12.2763 42.5744 10.8732 41.5366 11.1738 40.2471L13.8096 28.9922L13.9307 28.4756L13.5293 28.1299L4.73633 20.5469C3.72205 19.6728 4.26448 18.015 5.59961 17.9092H5.60449L17.1758 16.9316L17.7002 16.8867L17.9072 16.4033L22.4346 5.79199L22.4365 5.78906Z" stroke="#0070FF" stroke-width="1.75"/>
</svg>