<svg width="32" height="32" viewBox="0 0 32 32" fill="none" xmlns="http://www.w3.org/2000/svg">
<path d="M16 16.0002C17.4145 16.0002 18.7711 15.4383 19.7713 14.4381C20.7715 13.4379 21.3334 12.0813 21.3334 10.6668C21.3334 9.25234 20.7715 7.89579 19.7713 6.89559C18.7711 5.8954 17.4145 5.3335 16 5.3335C14.5855 5.3335 13.229 5.8954 12.2288 6.89559C11.2286 7.89579 10.6667 9.25234 10.6667 10.6668C10.6667 12.0813 11.2286 13.4379 12.2288 14.4381C13.229 15.4383 14.5855 16.0002 16 16.0002Z" stroke="#0070FF" stroke-width="1.25" stroke-linecap="round" stroke-linejoin="round"/>
<path d="M6.66669 26.6666V25.3333C6.66636 23.7586 7.06446 22.2094 7.82393 20.83C8.58341 19.4505 9.67955 18.2856 11.0103 17.4438C12.3411 16.6019 13.8633 16.1105 15.4351 16.0152C17.0069 15.9198 18.5773 16.2238 20 16.8986M22.18 21.8866L23.5654 18.9493C23.6028 18.8653 23.6638 18.794 23.741 18.744C23.8181 18.694 23.9081 18.6673 24 18.6673C24.092 18.6673 24.1819 18.694 24.2591 18.744C24.3362 18.794 24.3972 18.8653 24.4347 18.9493L25.8214 21.8866L28.9187 22.3613C29.316 22.4213 29.4734 22.9333 29.1854 23.2266L26.9454 25.5106L27.4734 28.7386C27.5414 29.1533 27.1267 29.4693 26.7707 29.2733L24 27.7493L21.2294 29.2733C20.8734 29.4693 20.4587 29.1533 20.5267 28.74L21.0547 25.5106L18.8147 23.2266C18.5267 22.9333 18.684 22.4213 19.0814 22.36L22.18 21.8866Z" stroke="#0070FF" stroke-width="1.25" stroke-linecap="round" stroke-linejoin="round"/>
</svg>
