<svg width="32" height="32" viewBox="0 0 32 32" fill="none" xmlns="http://www.w3.org/2000/svg">
<mask id="mask0_1_685" style="mask-type:luminance" maskUnits="userSpaceOnUse" x="4" y="4" width="24" height="24">
<path d="M16.0002 27.0002C17.4451 27.0021 18.8761 26.7184 20.2109 26.1654C21.5458 25.6125 22.7582 24.8012 23.7785 23.7782C24.8016 22.7579 25.6129 21.5454 26.1658 20.2106C26.7187 18.8757 27.0024 17.4447 27.0005 15.9999C27.0024 14.555 26.7187 13.124 26.1658 11.7892C25.6128 10.4543 24.8015 9.24186 23.7785 8.22152C22.7582 7.1985 21.5458 6.38721 20.2109 5.83427C18.8761 5.28133 17.4451 4.99765 16.0002 4.99952C14.5554 4.99768 13.1244 5.28138 11.7895 5.83432C10.4547 6.38725 9.24222 7.19853 8.22188 8.22152C7.19889 9.24186 6.38762 10.4543 5.83468 11.7892C5.28174 13.124 4.99805 14.555 4.99989 15.9999C4.99802 17.4447 5.2817 18.8757 5.83464 20.2106C6.38758 21.5454 7.19887 22.7579 8.22188 23.7782C9.24222 24.8012 10.4547 25.6124 11.7895 26.1654C13.1244 26.7183 14.5554 27.002 16.0002 27.0002Z" fill="white" stroke="white" stroke-width="1.5" stroke-linejoin="round"/>
<path d="M11.6005 15.9998L14.9006 19.2999L21.5008 12.6997" stroke="black" stroke-width="1.5" stroke-linecap="round" stroke-linejoin="round"/>
</mask>
<g mask="url(#mask0_1_685)">
<path d="M2.79968 2.79932H29.2005V29.2001H2.79968V2.79932Z" fill="#71717A"/>
</g>
</svg>
