<svg width="24" height="24" viewBox="0 0 24 24" fill="none" xmlns="http://www.w3.org/2000/svg">
<g clip-path="url(#clip0_1_825)">
<path d="M10.647 10.7645C11.9575 10.7645 13.2144 10.2439 14.141 9.31726C15.0677 8.39057 15.5883 7.13372 15.5883 5.82319C15.5883 4.51266 15.0677 3.25581 14.141 2.32913C13.2144 1.40244 11.9575 0.881836 10.647 0.881836C9.33645 0.881836 8.0796 1.40244 7.15292 2.32913C6.22623 3.25581 5.70563 4.51266 5.70563 5.82319C5.70563 7.13372 6.22623 8.39057 7.15292 9.31726C8.0796 10.2439 9.33645 10.7645 10.647 10.7645Z" stroke="white" stroke-width="1.25" stroke-linecap="round" stroke-linejoin="round"/>
<path d="M1.99963 20.6472V19.4119C1.99933 17.9529 2.36818 16.5176 3.07183 15.2395C3.77548 13.9614 4.79106 12.8822 6.02404 12.1022C7.25701 11.3222 8.66728 10.8669 10.1236 10.7786C11.5799 10.6902 13.0348 10.9718 14.353 11.5971M16.3728 16.2185L17.6563 13.4971C17.691 13.4193 17.7475 13.3532 17.819 13.3068C17.8905 13.2605 17.9738 13.2358 18.059 13.2358C18.1442 13.2358 18.2276 13.2605 18.2991 13.3068C18.3705 13.3532 18.427 13.4193 18.4618 13.4971L19.7465 16.2185L22.6162 16.6583C22.9843 16.7139 23.1301 17.1882 22.8633 17.46L20.7879 19.5762L21.2771 22.5669C21.3401 22.9511 20.9559 23.2439 20.6261 23.0623L18.059 21.6503L15.492 23.0623C15.1622 23.2439 14.778 22.9511 14.841 22.5681L15.3302 19.5762L13.2548 17.46C12.988 17.1882 13.1337 16.7139 13.5019 16.657L16.3728 16.2185Z" stroke="white" stroke-width="1.25" stroke-linecap="round" stroke-linejoin="round"/>
</g>
<defs>
<clipPath id="clip0_1_825">
<rect width="24" height="24" fill="white"/>
</clipPath>
</defs>
</svg>
