<svg width="48" height="48" viewBox="0 0 48 48" fill="none" xmlns="http://www.w3.org/2000/svg">
<path d="M32.4826 4.77466C32.9243 4.32332 33.6494 4.31943 34.0958 4.76599L41.6787 12.3511C42.3131 12.9857 42.3131 14.0143 41.6787 14.6489L34.0952 22.2346C33.6491 22.6809 32.9245 22.677 32.4833 22.226C32.0488 21.7819 32.0527 21.0708 32.4921 20.6315L38.5 14.625H7.5C6.87868 14.625 6.375 14.1213 6.375 13.5C6.375 12.8787 6.87868 12.375 7.5 12.375H38.5003L32.4916 6.37054C32.0517 5.93096 32.0477 5.21916 32.4826 4.77466Z" fill="#0070FF"/>
<path d="M13.9061 25.7651C14.3522 25.319 15.0766 25.3232 15.5176 25.7742C15.9517 26.2182 15.9477 26.9288 15.5086 27.3678L9.50002 33.375H40.5C41.1213 33.375 41.625 33.8787 41.625 34.5C41.625 35.1213 41.1213 35.625 40.5 35.625H9.50167L15.5087 41.6321C15.9478 42.0711 15.9518 42.7818 15.5177 43.2257C15.0767 43.6768 14.3522 43.6809 13.906 43.2349L6.31918 35.6491C5.68446 35.0145 5.68446 33.9855 6.31918 33.3509L13.9061 25.7651Z" fill="#0070FF"/>
</svg>
