<svg width="32" height="32" viewBox="0 0 32 32" fill="none" xmlns="http://www.w3.org/2000/svg">
<path fill-rule="evenodd" clip-rule="evenodd" d="M12.374 2.7486C12.1371 2.9629 11.8883 3.16351 11.6285 3.34945C11.1798 3.65062 10.6753 3.85844 10.1452 3.96385C9.91481 4.00902 9.67386 4.0286 9.19347 4.06625C7.98723 4.16262 7.38335 4.21081 6.88038 4.38851C6.30526 4.59156 5.78291 4.92079 5.35164 5.35205C4.92037 5.7833 4.59113 6.30564 4.38808 6.88074C4.21038 7.38371 4.16219 7.98757 4.06581 9.19378C4.04939 9.51267 4.0152 9.83041 3.96341 10.1455C3.858 10.6756 3.65018 11.18 3.349 11.6288C3.21798 11.8246 3.06136 12.0083 2.74813 12.3742C1.96355 13.2958 1.5705 13.7566 1.3401 14.2385C0.808509 15.3528 0.808509 16.6479 1.3401 17.7622C1.5705 18.2441 1.96355 18.7049 2.74813 19.6265C3.06136 19.9925 3.21798 20.1762 3.349 20.3719C3.65018 20.8207 3.858 21.3252 3.96341 21.8552C4.00859 22.0856 4.02817 22.3266 4.06581 22.807C4.16219 24.0132 4.21038 24.617 4.38808 25.12C4.59113 25.6951 4.92037 26.2174 5.35164 26.6487C5.78291 27.0799 6.30526 27.4092 6.88038 27.6122C7.38335 27.7899 7.98723 27.8381 9.19347 27.9345C9.67386 27.9721 9.91481 27.9917 10.1452 28.0369C10.6753 28.1423 11.1798 28.3516 11.6285 28.6513C11.8243 28.7823 12.008 28.9389 12.374 29.2521C13.2956 30.0367 13.7564 30.4297 14.2383 30.6601C15.3527 31.1917 16.6478 31.1917 17.7622 30.6601C18.2441 30.4297 18.7049 30.0367 19.6265 29.2521C19.9924 28.9389 20.1761 28.7823 20.3719 28.6513C20.8207 28.3501 21.3252 28.1423 21.8552 28.0369C22.0857 27.9917 22.3266 27.9721 22.807 27.9345C24.0132 27.8381 24.6171 27.7899 25.1201 27.6122C25.6952 27.4092 26.2175 27.0799 26.6488 26.6487C27.0801 26.2174 27.4093 25.6951 27.6124 25.12C27.7901 24.617 27.8383 24.0132 27.9346 22.807C27.9723 22.3266 27.9919 22.0856 28.037 21.8552C28.1425 21.3252 28.3518 20.8207 28.6515 20.3719C28.7825 20.1762 28.9391 19.9925 29.2523 19.6265C30.0369 18.7049 30.43 18.2441 30.6604 17.7622C31.1919 16.6479 31.1919 15.3528 30.6604 14.2385C30.43 13.7566 30.0369 13.2958 29.2523 12.3742C29.038 12.1374 28.8374 11.8885 28.6515 11.6288C28.3506 11.1799 28.1417 10.6757 28.037 10.1455C27.9853 9.8304 27.9511 9.51267 27.9346 9.19378C27.8383 7.98757 27.7901 7.38371 27.6124 6.88074C27.4093 6.30564 27.0801 5.7833 26.6488 5.35205C26.2175 4.92079 25.6952 4.59156 25.1201 4.38851C24.6171 4.21081 24.0132 4.16262 22.807 4.06625C22.4881 4.04982 22.1703 4.01564 21.8552 3.96385C21.325 3.85917 20.8209 3.65034 20.3719 3.34945C20.1125 3.16312 19.8636 2.96252 19.6265 2.7486C18.7049 1.96404 18.2441 1.571 17.7622 1.3406C17.212 1.07764 16.61 0.941162 16.0002 0.941162C15.3905 0.941162 14.7884 1.07764 14.2383 1.3406C13.7564 1.571 13.2956 1.96404 12.374 2.7486Z" fill="#F4F4F5"/>
<g clip-path="url(#clip0_1_7828)">
<g clip-path="url(#clip1_1_7828)">
<g clip-path="url(#clip2_1_7828)">
<path d="M12.9643 22.8232C11.835 22.8232 10.7561 22.3813 9.95193 21.5772C9.04263 20.6679 8.59648 19.4073 8.72899 18.1193C8.90465 16.4071 10.1422 14.9416 11.8082 14.4742C12.5996 14.2524 13.3946 14.2591 14.1745 14.4937L19.9877 8.68052C20.2752 8.39363 20.6563 8.2356 21.0624 8.2356H22.3826C22.8852 8.2356 23.2943 8.64466 23.2943 9.14732V10.4669C23.2943 10.8729 23.1363 11.2546 22.8494 11.5415L21.9005 12.4903H20.2552V14.3138H18.4317V15.9591L17.0361 17.3547C17.2707 18.1345 17.2768 18.9295 17.055 19.7209C16.5876 21.3869 15.1233 22.6245 13.4098 22.8007C13.2615 22.8159 13.1126 22.8238 12.9649 22.8238L12.9643 22.8232ZM12.9619 14.921C12.6324 14.921 12.3024 14.9672 11.9723 15.0596C10.5446 15.4601 9.48391 16.7153 9.33317 18.1819C9.2195 19.2869 9.60182 20.3676 10.3817 21.1475C11.1615 21.9273 12.2416 22.3096 13.3478 22.196C14.8145 22.0452 16.0697 20.9846 16.4696 19.5568C16.6751 18.825 16.6526 18.0901 16.4022 17.3711L16.3396 17.1912L17.8233 15.7075V13.706H19.6467V11.8825H21.6483L22.419 11.1118C22.591 10.9398 22.6859 10.7106 22.6859 10.4669V9.14732C22.6859 8.97956 22.5491 8.84341 22.3819 8.84341H21.0617C20.8217 8.84341 20.587 8.94066 20.4168 9.11025L14.3374 15.189L14.1575 15.1264C13.763 14.9891 13.363 14.9204 12.9613 14.9204L12.9619 14.921ZM11.745 19.1763C11.745 19.5118 12.0173 19.7841 12.3528 19.7841C12.6884 19.7841 12.9607 19.5118 12.9607 19.1763C12.9607 18.8408 12.6884 18.5685 12.3528 18.5685C12.0173 18.5685 11.745 18.8408 11.745 19.1763Z" fill="#18181B"/>
</g>
</g>
</g>
<defs>
<clipPath id="clip0_1_7828">
<rect width="15.0588" height="15.0588" fill="white" transform="translate(8.4707 8.23535)"/>
</clipPath>
<clipPath id="clip1_1_7828">
<rect width="15.0588" height="15.0588" fill="white" transform="translate(8.4707 8.15698)"/>
</clipPath>
<clipPath id="clip2_1_7828">
<rect width="15.0588" height="15.0588" fill="white" transform="translate(8.4707 8.00024)"/>
</clipPath>
</defs>
</svg>
