<svg width="32" height="32" viewBox="0 0 32 32" fill="none" xmlns="http://www.w3.org/2000/svg">
<path d="M28.6667 16.0002H25.852M25.852 16.0002C25.852 18.6133 24.8147 21.1186 22.9669 22.9664C21.1192 24.8141 18.6131 25.8522 16 25.8522M25.852 16.0002C25.852 13.3871 24.8147 10.8803 22.9669 9.03261C21.1192 7.18487 18.6131 6.14816 16 6.14816M16 3.3335V6.14816M16 6.14816C13.3871 6.14816 10.8812 7.1848 9.03362 9.03241C7.18602 10.88 6.14804 13.3859 6.14804 15.9988C6.14804 18.6117 7.18602 21.1176 9.03362 22.9652C10.8812 24.8129 13.3871 25.8522 16 25.8522M3.33337 16.0002H6.14804M16 28.6668V25.8522" stroke="#0070FF" stroke-width="1.5" stroke-miterlimit="10" stroke-linecap="round"/>
<path d="M16.0001 21.6293C17.4931 21.6293 18.9249 21.0362 19.9806 19.9805C21.0363 18.9248 21.6294 17.4929 21.6294 15.9999C21.6294 14.5069 21.0363 13.0751 19.9806 12.0194C18.9249 10.9637 17.4931 10.3706 16.0001 10.3706C14.5071 10.3706 13.0752 10.9637 12.0195 12.0194C10.9638 13.0751 10.3707 14.5069 10.3707 15.9999C10.3707 17.4929 10.9638 18.9248 12.0195 19.9805C13.0752 21.0362 14.5071 21.6293 16.0001 21.6293Z" stroke="#0070FF" stroke-width="1.5" stroke-miterlimit="10" stroke-linecap="round"/>
</svg>
