<svg xmlns="http://www.w3.org/2000/svg" width="32" height="32" viewBox="0 0 32 32" fill="none">
  <path d="M25.7586 17.9998H20.592C19.9073 17.9998 19.2505 18.271 18.7653 18.754C18.28 19.237 18.0058 19.8925 18.0026 20.5772V25.7438C18.0026 26.4306 18.2754 27.0892 18.761 27.5748C19.2466 28.0604 19.9052 28.3332 20.592 28.3332H25.7586C26.4431 28.3296 27.0982 28.0553 27.581 27.5701C28.0637 27.0849 28.3346 26.4283 28.3346 25.7438V20.5772C28.3346 19.894 28.0632 19.2388 27.5801 18.7557C27.097 18.2726 26.4418 18.0012 25.7586 18.0012M11.4106 17.9998H6.24397C5.55943 18.0037 4.90424 18.2784 4.42156 18.7638C3.93889 19.2492 3.66796 19.9059 3.66797 20.5905V25.7572C3.66797 26.4404 3.93937 27.0956 4.42246 27.5787C4.90556 28.0618 5.56077 28.3332 6.24397 28.3332H11.4106C12.0951 28.3332 12.7517 28.0622 13.2369 27.5795C13.7221 27.0968 13.9964 26.4416 14 25.7572V20.5905C14 19.9038 13.7272 19.2452 13.2416 18.7596C12.756 18.274 12.0974 18.0012 11.4106 18.0012M11.4106 3.6665H6.24397C5.90568 3.6665 5.57071 3.73313 5.25818 3.86259C4.94564 3.99205 4.66167 4.18179 4.42246 4.421C4.18326 4.6602 3.99351 4.94418 3.86405 5.25671C3.7346 5.56925 3.66797 5.90422 3.66797 6.2425V11.4092C3.66796 12.0936 3.93893 12.7502 4.42165 13.2354C4.90436 13.7206 5.55955 13.995 6.24397 13.9985H11.4106C12.0974 13.9985 12.756 13.7257 13.2416 13.2401C13.7272 12.7545 14 12.0959 14 11.4092V6.2425C13.9964 5.55808 13.7221 4.9029 13.2369 4.42018C12.7517 3.93747 12.0951 3.66649 11.4106 3.6665ZM25.7586 3.6665H20.592C19.9075 3.66649 19.2509 3.93747 18.7657 4.42018C18.2805 4.9029 18.0062 5.55808 18.0026 6.2425V11.4092C18.003 12.0958 18.2759 12.7542 18.7614 13.2397C19.2469 13.7252 19.9053 13.9981 20.592 13.9985H25.7586C26.4431 13.995 27.0982 13.7206 27.581 13.2354C28.0637 12.7502 28.3346 12.0936 28.3346 11.4092V6.2425C28.3346 5.55931 28.0632 4.90409 27.5801 4.421C27.097 3.9379 26.4418 3.6665 25.7586 3.6665Z" stroke="#0070FF" stroke-width="1.5" stroke-linecap="round" stroke-linejoin="round"/>
</svg>