<svg width="24" height="24" viewBox="0 0 24 24" fill="none" xmlns="http://www.w3.org/2000/svg">
<rect width="24" height="24" fill="#0070FF"/>
<path d="M12.0001 6.99985C13.3262 6.99985 14.598 7.52665 15.5357 8.46436C16.4734 9.40207 17.0002 10.6739 17.0002 12M11.0002 3.06001C11.332 3.01955 11.6659 2.99952 12.0001 3.00001C14.387 3.00001 16.6762 3.94822 18.364 5.63605C20.0519 7.32388 21.0001 9.61306 21.0001 12C21.0001 12.3344 20.9801 12.6677 20.9401 12.9998" stroke="white" stroke-width="1.5" stroke-linecap="round" stroke-linejoin="round"/>
<path d="M15.0001 21.0001C13.4499 20.6305 11.9794 19.9833 10.6599 19.0897L12.4801 16.4805C12.7793 16.0721 13.2223 15.7925 13.7196 15.6979C14.2169 15.6032 14.7316 15.7008 15.1599 15.9707C15.4901 16.1805 15.83 16.3705 16.1602 16.5606C16.4086 16.6821 16.6291 16.8537 16.8078 17.0647C16.9865 17.2757 17.1196 17.5215 17.1985 17.7864C17.2774 18.0514 17.3006 18.3299 17.2664 18.6043C17.2323 18.8787 17.1417 19.143 17.0002 19.3806L16.3801 20.331C16.269 20.5899 16.0684 20.8002 15.8149 20.9232C15.5615 21.0461 15.2722 21.0732 15.0001 21.0001ZM3.67014 7.67054L4.66998 7.0499C4.9019 6.89939 5.1625 6.79859 5.43534 6.75387C5.70818 6.70916 5.98732 6.72149 6.25515 6.79009C6.52298 6.8587 6.77368 6.98208 6.99142 7.15246C7.20916 7.32284 7.38922 7.5365 7.52022 7.77998C7.7103 8.13998 7.8999 8.4803 8.11014 8.7803C8.38003 9.20862 8.47746 9.72336 8.38277 10.2207C8.28808 10.718 8.00831 11.161 7.5999 11.4601L4.94022 13.3101C4.03947 12.0018 3.38221 10.5418 3.00006 9.00014C2.94025 8.73519 2.97439 8.4577 3.09663 8.21515C3.21887 7.97261 3.4216 7.78008 3.67014 7.67054Z" stroke="white" stroke-width="1.5" stroke-linecap="round" stroke-linejoin="round"/>
<path d="M4.94019 13.3105C5.67536 14.4628 6.54109 15.5263 7.52019 16.48C8.47402 17.4591 9.5377 18.3248 10.6901 19.06" stroke="white" stroke-width="1.5" stroke-linecap="round" stroke-linejoin="round"/>
</svg>
