<svg width="48" height="48" viewBox="0 0 48 48" fill="none" xmlns="http://www.w3.org/2000/svg">
<path d="M11.2795 31.9952C8.70118 31.9952 6.51001 31.1222 4.70601 29.3762C2.902 27.6302 2 25.508 2 23.0096C2 20.5113 2.90034 18.3875 4.70103 16.6383C6.50338 14.8794 8.69206 14 11.2671 14C13.8421 14 16.0341 14.8746 17.8431 16.6238C19.6537 18.3746 20.559 20.4992 20.559 22.9976C20.559 24.2998 20.2971 25.5297 19.7731 26.6873C19.2491 27.8449 18.474 28.8095 17.4476 29.5812H30.5549C29.5268 28.8127 28.7517 27.8481 28.2294 26.6873C27.7071 25.5265 27.4459 24.2966 27.4459 22.9976C27.4459 20.4992 28.3471 18.3746 30.1494 16.6238C31.9518 14.873 34.1388 14 36.7105 14.0048C39.2822 14.0096 41.4742 14.8834 43.2865 16.6262C45.0988 18.369 46.0033 20.4912 46 22.9928C46 25.4879 45.098 27.6125 43.294 29.3666C41.49 31.1222 39.2996 32 36.723 32L11.2795 31.9952ZM11.277 29.5836C13.1789 29.5836 14.7864 28.9477 16.0996 27.676C17.4145 26.4027 18.0719 24.8441 18.0719 23C18.0719 21.1559 17.4153 19.5973 16.1021 18.324C14.7889 17.0506 13.1814 16.414 11.2795 16.414C9.37769 16.414 7.77016 17.0506 6.45695 18.324C5.14374 19.5973 4.48714 21.1559 4.48714 23C4.48714 24.8441 5.14374 26.4027 6.45695 27.676C7.77016 28.9494 9.37686 29.586 11.277 29.586M36.7205 29.586C38.624 29.586 40.2323 28.9494 41.5455 27.676C42.8587 26.4027 43.5153 24.8441 43.5153 23C43.5153 21.1559 42.8596 19.5973 41.548 18.324C40.2348 17.0506 38.6273 16.414 36.7254 16.414C34.8236 16.414 33.2161 17.0506 31.9029 18.324C30.5897 19.5973 29.9331 21.1559 29.9331 23C29.9331 24.8441 30.5888 26.4027 31.9004 27.676C33.2119 28.9494 34.817 29.586 36.7205 29.586Z" fill="#0070FF"/>
</svg>
