<svg width="48" height="48" viewBox="0 0 48 48" fill="none" xmlns="http://www.w3.org/2000/svg">
<path d="M21.9999 5.59961C25.7003 5.59679 29.2604 7.01865 31.9413 9.56934C34.5916 12.0911 36.1816 15.5257 36.3925 19.1748L40.1561 24.1348C40.8476 25.0279 40.1593 26.4004 38.9999 26.4004H36.4003V32C36.4003 34.4409 34.4408 36.4004 31.9999 36.4004H30.4003V42.4004H15.6005V32.8682C10.8509 30.5202 7.60046 25.6698 7.60046 20C7.60046 12.184 13.8193 5.80213 21.6268 5.60449L21.9999 5.59961ZM20.2118 11.4355C20.0265 10.679 19.2532 10.2442 18.5262 10.4453L18.5223 10.4463C17.756 10.6497 17.3245 11.4102 17.5262 12.1553V12.1562L18.5868 16.0957L18.7665 16.7666L18.0966 16.5859L14.1561 15.5264H14.1552C13.4101 15.3247 12.6506 15.7562 12.4471 16.5225L12.4452 16.5264C12.2441 17.2533 12.6788 18.0266 13.4354 18.2119L13.4403 18.2129L17.3612 19.2324L18.0311 19.4072L17.5448 19.9014L14.6649 22.8213L14.6591 22.8271C14.1231 23.3478 14.117 24.2508 14.663 24.7969C15.2089 25.3428 16.112 25.3373 16.6327 24.8018V24.8008L16.6385 24.7959L19.538 21.916L20.0292 21.4287L20.2069 22.0977L21.2469 26.0176L21.2489 26.0244C21.4341 26.7805 22.1882 27.1982 22.8993 27.0127L22.9032 27.0117C23.0847 26.9662 23.256 26.8852 23.4061 26.7734C23.5562 26.6617 23.6826 26.5212 23.7782 26.3604C23.8739 26.1995 23.9372 26.0212 23.9637 25.8359C23.99 25.6519 23.9793 25.4643 23.9335 25.2842L22.8739 21.3643L22.6923 20.6924L23.3641 20.874L27.2802 21.9326C27.4615 21.9794 27.6505 21.9904 27.8358 21.9639C28.0211 21.9374 28.1993 21.874 28.3602 21.7783C28.5212 21.6826 28.6615 21.5555 28.7733 21.4053C28.8851 21.255 28.9661 21.084 29.0116 20.9023L29.0135 20.8965C29.1962 20.2106 28.7644 19.4335 28.0233 19.248L28.0175 19.2471L24.0975 18.207L23.4286 18.0293L23.9159 17.5381L26.7889 14.6445C27.0164 14.3789 27.1365 14.0374 27.1249 13.6875C27.113 13.3326 26.9668 12.9953 26.7157 12.7441C26.4645 12.493 26.1273 12.3468 25.7723 12.335C25.4215 12.3233 25.0793 12.4442 24.8134 12.6729L21.9012 15.5449L21.4071 16.0312L21.2333 15.3604L20.2128 11.4404L20.2118 11.4355ZM39.6005 29.5527L39.9208 29.4883C41.2807 29.2126 42.4599 28.3296 43.1249 27.0557C43.8963 25.5665 43.7899 23.7833 42.8466 22.4004H42.7987L42.6786 22.2383L39.5585 18.0381L39.496 17.9541L39.4833 17.8486C38.4077 9.08772 30.9763 2.40039 21.9999 2.40039C12.3006 2.40048 4.40027 10.2813 4.40027 20C4.40027 25.9859 7.33326 31.401 12.2225 34.667L12.4003 34.7861V45.5996H33.6005V39.4316L33.8983 39.3525C37.1683 38.497 39.6005 35.5119 39.6005 32V29.5527Z" fill="#0070FF" stroke="white" stroke-width="0.8"/>
</svg>
