<svg width="32" height="32" viewBox="0 0 32 32" fill="none" xmlns="http://www.w3.org/2000/svg">
<path fill-rule="evenodd" clip-rule="evenodd" d="M12.374 2.7486C12.1371 2.9629 11.8883 3.16351 11.6285 3.34945C11.1798 3.65062 10.6753 3.85844 10.1452 3.96385C9.91481 4.00902 9.67386 4.0286 9.19347 4.06625C7.98723 4.16262 7.38335 4.21081 6.88038 4.38851C6.30526 4.59156 5.78291 4.92079 5.35164 5.35205C4.92037 5.7833 4.59113 6.30564 4.38808 6.88074C4.21038 7.38371 4.16219 7.98757 4.06581 9.19378C4.04939 9.51267 4.0152 9.83041 3.96341 10.1455C3.858 10.6756 3.65018 11.18 3.349 11.6288C3.21798 11.8246 3.06136 12.0083 2.74813 12.3742C1.96355 13.2958 1.5705 13.7566 1.3401 14.2385C0.808509 15.3528 0.808509 16.6479 1.3401 17.7622C1.5705 18.2441 1.96355 18.7049 2.74813 19.6265C3.06136 19.9925 3.21798 20.1762 3.349 20.3719C3.65018 20.8207 3.858 21.3252 3.96341 21.8552C4.00859 22.0856 4.02817 22.3266 4.06581 22.807C4.16219 24.0132 4.21038 24.617 4.38808 25.12C4.59113 25.6951 4.92037 26.2174 5.35164 26.6487C5.78291 27.0799 6.30526 27.4092 6.88038 27.6122C7.38335 27.7899 7.98723 27.8381 9.19347 27.9345C9.67386 27.9721 9.91481 27.9917 10.1452 28.0369C10.6753 28.1423 11.1798 28.3516 11.6285 28.6513C11.8243 28.7823 12.008 28.9389 12.374 29.2521C13.2956 30.0367 13.7564 30.4297 14.2383 30.6601C15.3527 31.1917 16.6478 31.1917 17.7622 30.6601C18.2441 30.4297 18.7049 30.0367 19.6265 29.2521C19.9924 28.9389 20.1761 28.7823 20.3719 28.6513C20.8207 28.3501 21.3252 28.1423 21.8552 28.0369C22.0857 27.9917 22.3266 27.9721 22.807 27.9345C24.0132 27.8381 24.6171 27.7899 25.1201 27.6122C25.6952 27.4092 26.2175 27.0799 26.6488 26.6487C27.0801 26.2174 27.4093 25.6951 27.6124 25.12C27.7901 24.617 27.8383 24.0132 27.9346 22.807C27.9723 22.3266 27.9919 22.0856 28.037 21.8552C28.1425 21.3252 28.3518 20.8207 28.6515 20.3719C28.7825 20.1762 28.9391 19.9925 29.2523 19.6265C30.0369 18.7049 30.43 18.2441 30.6604 17.7622C31.1919 16.6479 31.1919 15.3528 30.6604 14.2385C30.43 13.7566 30.0369 13.2958 29.2523 12.3742C29.038 12.1374 28.8374 11.8885 28.6515 11.6288C28.3506 11.1799 28.1417 10.6757 28.037 10.1455C27.9853 9.8304 27.9511 9.51267 27.9346 9.19378C27.8383 7.98757 27.7901 7.38371 27.6124 6.88074C27.4093 6.30564 27.0801 5.7833 26.6488 5.35205C26.2175 4.92079 25.6952 4.59156 25.1201 4.38851C24.6171 4.21081 24.0132 4.16262 22.807 4.06625C22.4881 4.04982 22.1703 4.01564 21.8552 3.96385C21.325 3.85917 20.8209 3.65034 20.3719 3.34945C20.1125 3.16312 19.8636 2.96252 19.6265 2.7486C18.7049 1.96404 18.2441 1.571 17.7622 1.3406C17.212 1.07764 16.61 0.941162 16.0002 0.941162C15.3905 0.941162 14.7884 1.07764 14.2383 1.3406C13.7564 1.571 13.2956 1.96404 12.374 2.7486Z" fill="#F4F4F5"/>
<g clip-path="url(#clip0_1_7836)">
<g clip-path="url(#clip1_1_7836)">
<g clip-path="url(#clip2_1_7836)">
<path d="M12.8629 18.2746C12.5171 18.2746 12.2354 17.9928 12.2354 17.6471C12.2354 17.3014 12.5171 17.0197 12.8629 17.0197C13.2086 17.0197 13.4903 17.3014 13.4903 17.6471C13.4903 17.9928 13.2086 18.2746 12.8629 18.2746ZM17.255 17.6471C16.9093 17.6471 16.6276 17.3654 16.6276 17.0197C16.6276 16.6739 16.9093 16.3922 17.255 16.3922C17.6007 16.3922 17.8825 16.6739 17.8825 17.0197C17.8825 17.3654 17.6007 17.6471 17.255 17.6471ZM17.8825 13.255C17.5367 13.255 17.255 12.9732 17.255 12.6275C17.255 12.2818 17.5367 12.0001 17.8825 12.0001C18.2282 12.0001 18.5099 12.2818 18.5099 12.6275C18.5099 12.9732 18.2282 13.255 17.8825 13.255ZM23.529 14.1956C23.5292 14.1958 23.5295 14.1957 23.5295 14.1954V13.7523C23.5295 13.6509 23.4473 13.5687 23.3459 13.5687H22.8861C22.5417 13.5687 22.2636 13.2958 22.1996 12.9574C22.1661 12.7805 22.1216 12.6066 22.0665 12.4365C21.9643 12.1218 22.0668 11.7642 22.3513 11.5953L22.6289 11.4306C22.778 11.3421 22.8271 11.1494 22.7385 11.0004C22.65 10.8514 22.4576 10.8024 22.3086 10.8908L22.0378 11.0515C21.753 11.2205 21.3894 11.1359 21.1667 10.8909C21.1205 10.8401 21.073 10.7902 21.0241 10.7414C20.9389 10.6559 20.8506 10.5745 20.7596 10.4973C20.5068 10.283 20.4089 9.92209 20.5681 9.6314L20.7191 9.3557C20.8023 9.20373 20.7465 9.01309 20.5946 8.92991C20.4426 8.84675 20.2521 8.90248 20.1689 9.05439L20.0131 9.33889C19.8539 9.62958 19.4996 9.74469 19.1808 9.65397C19.0582 9.61908 18.9339 9.58967 18.808 9.56585C18.4693 9.50181 18.1962 9.22356 18.1962 8.87894V8.54908C18.1962 8.37581 18.0557 8.23535 17.8825 8.23535C17.7092 8.23535 17.5687 8.37581 17.5687 8.54908V8.9059C17.5687 9.25018 17.306 9.53281 16.9718 9.61565C16.8282 9.65126 16.6869 9.6943 16.5483 9.74458C16.204 9.8695 15.8023 9.76817 15.612 9.45532L15.4193 9.13872C15.3291 8.99054 15.1358 8.94362 14.9877 9.03396C14.8399 9.12416 14.7931 9.31709 14.8831 9.46504L15.124 9.86079C15.296 10.1434 15.2221 10.5063 14.9887 10.7408L14.6558 11.0736C14.3888 11.3406 13.9559 11.3406 13.6889 11.0736L13.4273 10.812C13.3048 10.6895 13.1061 10.6895 12.9836 10.812C12.8611 10.9345 12.8611 11.1331 12.9836 11.2556L13.2453 11.5172C13.5123 11.7842 13.5123 12.2171 13.2453 12.4841L12.7195 13.0099C12.4525 13.2769 12.0196 13.2769 11.7526 13.0099L11.4909 12.7483C11.3684 12.6258 11.1698 12.6258 11.0473 12.7483C10.9248 12.8708 10.9248 13.0694 11.0473 13.1919L11.309 13.4535C11.576 13.7206 11.576 14.1534 11.309 14.4204L10.9761 14.7533C10.7425 14.9869 10.3793 15.0606 10.0972 14.8888L9.70043 14.6472C9.55246 14.5571 9.35949 14.6039 9.26927 14.7518C9.17895 14.8999 9.22583 15.0931 9.37396 15.1834L9.69178 15.3769C10.0049 15.5676 10.1066 15.9695 9.98207 16.3143C9.93201 16.4529 9.88935 16.5936 9.85409 16.7357C9.77106 17.0704 9.48778 17.3334 9.14293 17.3334H8.78443C8.61116 17.3334 8.4707 17.4739 8.4707 17.6471C8.4707 17.8204 8.61116 17.9608 8.78443 17.9608H9.11524C9.46012 17.9608 9.73878 18.234 9.80313 18.5728C9.82677 18.6973 9.85596 18.8209 9.89071 18.9433C9.98142 19.2626 9.86596 19.6174 9.57482 19.7769L9.28904 19.9335C9.13716 20.0167 9.08146 20.2073 9.1646 20.3592C9.24779 20.5112 9.43848 20.5669 9.59044 20.4836L9.86595 20.3327C10.1569 20.1733 10.5181 20.2717 10.7324 20.525C10.809 20.6155 10.89 20.7035 10.9755 20.7888C11.0243 20.8376 11.074 20.8849 11.1247 20.9309C11.3701 21.1536 11.4551 21.5174 11.2861 21.8024L11.1255 22.0732C11.0371 22.2222 11.0861 22.4147 11.2351 22.5032C11.3842 22.5918 11.5768 22.5427 11.6653 22.3935L11.8308 22.1148C12 21.8298 12.3582 21.727 12.6735 21.8291C12.8439 21.8842 13.0172 21.9284 13.1922 21.9617C13.531 22.026 13.804 22.3046 13.804 22.6495V22.9804C13.804 23.1537 13.9445 23.2942 14.1178 23.2942C14.291 23.2942 14.4315 23.1537 14.4315 22.9804V22.6218C14.4315 22.277 14.6943 21.9937 15.029 21.9107C15.1669 21.8765 15.3035 21.8353 15.4381 21.7872C15.7967 21.6589 16.2147 21.7639 16.4127 22.0892L16.6192 22.4285C16.7094 22.5767 16.9027 22.6236 17.0507 22.5332C17.1986 22.443 17.2454 22.2501 17.1553 22.1021L16.8797 21.6494C16.7114 21.3731 16.7828 21.0176 17.0116 20.7888L17.3237 20.4766C17.6022 20.1982 18.0536 20.1982 18.332 20.4766L18.6144 20.759C18.7369 20.8815 18.9355 20.8815 19.058 20.759C19.1805 20.6365 19.1805 20.4379 19.058 20.3154L18.7756 20.033C18.4972 19.7546 18.4972 19.3031 18.7756 19.0247L19.26 18.5403C19.5385 18.2619 19.9899 18.2619 20.2684 18.5403L20.5507 18.8226C20.6732 18.9451 20.8718 18.9451 20.9943 18.8226C21.1168 18.7001 21.1168 18.5015 20.9943 18.379L20.712 18.0967C20.4335 17.8182 20.4335 17.3668 20.712 17.0884L21.0235 16.7768C21.2527 16.5476 21.6087 16.4761 21.8856 16.6447L22.3368 16.9194C22.4848 17.0094 22.6777 16.9626 22.768 16.8147C22.8583 16.6667 22.8114 16.4734 22.6632 16.3832L22.3249 16.1773C21.9999 15.9794 21.8953 15.5616 22.024 15.2034C22.0469 15.1397 22.0682 15.0754 22.0881 15.0106C22.2263 14.5584 22.6119 14.1955 23.0848 14.1955H23.5288C23.5289 14.1955 23.5289 14.1955 23.529 14.1956ZM20.5805 16.3339L16.5686 20.3458C15.1493 21.7663 12.8396 21.7657 11.4191 20.3458C9.99917 18.9259 9.99917 16.6162 11.4191 15.1963L15.431 11.1837C16.1187 10.4961 17.0329 10.1171 18.0061 10.1171C18.9793 10.1171 19.8928 10.4961 20.5805 11.1837C21.2682 11.8714 21.6472 12.7856 21.6472 13.7588C21.6472 14.732 21.2682 15.6462 20.5805 16.3339Z" fill="#18181B"/>
</g>
</g>
</g>
<defs>
<clipPath id="clip0_1_7836">
<rect width="15.0588" height="15.0588" fill="white" transform="translate(8.4707 8.23535)"/>
</clipPath>
<clipPath id="clip1_1_7836">
<rect width="15.0588" height="15.0588" fill="white" transform="translate(8.4707 8.15698)"/>
</clipPath>
<clipPath id="clip2_1_7836">
<rect width="15.0588" height="15.0588" fill="white" transform="translate(8.4707 8.23535)"/>
</clipPath>
</defs>
</svg>
