<svg width="32" height="32" viewBox="0 0 32 32" fill="none" xmlns="http://www.w3.org/2000/svg">
<path fill-rule="evenodd" clip-rule="evenodd" d="M12.374 2.7486C12.1371 2.9629 11.8883 3.16351 11.6285 3.34945C11.1798 3.65062 10.6753 3.85844 10.1452 3.96385C9.91481 4.00902 9.67386 4.0286 9.19347 4.06625C7.98723 4.16262 7.38335 4.21081 6.88038 4.38851C6.30526 4.59156 5.78291 4.92079 5.35164 5.35205C4.92037 5.7833 4.59113 6.30564 4.38808 6.88074C4.21038 7.38371 4.16219 7.98757 4.06581 9.19378C4.04939 9.51267 4.0152 9.83041 3.96341 10.1455C3.858 10.6756 3.65018 11.18 3.349 11.6288C3.21798 11.8246 3.06136 12.0083 2.74813 12.3742C1.96355 13.2958 1.5705 13.7566 1.3401 14.2385C0.808509 15.3528 0.808509 16.6479 1.3401 17.7622C1.5705 18.2441 1.96355 18.7049 2.74813 19.6265C3.06136 19.9925 3.21798 20.1762 3.349 20.3719C3.65018 20.8207 3.858 21.3252 3.96341 21.8552C4.00859 22.0856 4.02817 22.3266 4.06581 22.807C4.16219 24.0132 4.21038 24.617 4.38808 25.12C4.59113 25.6951 4.92037 26.2174 5.35164 26.6487C5.78291 27.0799 6.30526 27.4092 6.88038 27.6122C7.38335 27.7899 7.98723 27.8381 9.19347 27.9345C9.67386 27.9721 9.91481 27.9917 10.1452 28.0369C10.6753 28.1423 11.1798 28.3516 11.6285 28.6513C11.8243 28.7823 12.008 28.9389 12.374 29.2521C13.2956 30.0367 13.7564 30.4297 14.2383 30.6601C15.3527 31.1917 16.6478 31.1917 17.7622 30.6601C18.2441 30.4297 18.7049 30.0367 19.6265 29.2521C19.9924 28.9389 20.1761 28.7823 20.3719 28.6513C20.8207 28.3501 21.3252 28.1423 21.8552 28.0369C22.0857 27.9917 22.3266 27.9721 22.807 27.9345C24.0132 27.8381 24.6171 27.7899 25.1201 27.6122C25.6952 27.4092 26.2175 27.0799 26.6488 26.6487C27.0801 26.2174 27.4093 25.6951 27.6124 25.12C27.7901 24.617 27.8383 24.0132 27.9346 22.807C27.9723 22.3266 27.9919 22.0856 28.037 21.8552C28.1425 21.3252 28.3518 20.8207 28.6515 20.3719C28.7825 20.1762 28.9391 19.9925 29.2523 19.6265C30.0369 18.7049 30.43 18.2441 30.6604 17.7622C31.1919 16.6479 31.1919 15.3528 30.6604 14.2385C30.43 13.7566 30.0369 13.2958 29.2523 12.3742C29.038 12.1374 28.8374 11.8885 28.6515 11.6288C28.3506 11.1799 28.1417 10.6757 28.037 10.1455C27.9853 9.8304 27.9511 9.51267 27.9346 9.19378C27.8383 7.98757 27.7901 7.38371 27.6124 6.88074C27.4093 6.30564 27.0801 5.7833 26.6488 5.35205C26.2175 4.92079 25.6952 4.59156 25.1201 4.38851C24.6171 4.21081 24.0132 4.16262 22.807 4.06625C22.4881 4.04982 22.1703 4.01564 21.8552 3.96385C21.325 3.85917 20.8209 3.65034 20.3719 3.34945C20.1125 3.16312 19.8636 2.96252 19.6265 2.7486C18.7049 1.96404 18.2441 1.571 17.7622 1.3406C17.212 1.07764 16.61 0.941162 16.0002 0.941162C15.3905 0.941162 14.7884 1.07764 14.2383 1.3406C13.7564 1.571 13.2956 1.96404 12.374 2.7486Z" fill="#F4F4F5"/>
<g clip-path="url(#clip0_1_7844)">
<g clip-path="url(#clip1_1_7844)">
<g clip-path="url(#clip2_1_7844)">
<path d="M23.2642 15.2226C22.9881 14.7369 22.5339 14.3881 21.9855 14.2419C21.439 14.0957 19.6652 13.883 18.1292 13.883H16.6101L20.2587 11.6938C20.7287 11.4121 21.0205 10.8969 21.0205 10.3435C21.0205 10.0957 21.1158 9.86165 21.2896 9.68471L22.1863 8.76926C22.3074 8.64565 22.3048 8.44675 22.1812 8.32565C22.0589 8.20455 21.8587 8.20769 21.7376 8.33067L20.841 9.24612C20.5524 9.54102 20.393 9.93067 20.393 10.3492C20.393 10.678 20.2179 10.9873 19.9362 11.1561L17.5444 12.5911C17.5607 12.5013 17.5695 12.4085 17.5695 12.3144C17.5695 11.6606 17.1673 11.099 16.5969 10.8637L16.2067 8.41036C16.1539 8.17757 15.8227 8.17757 15.7699 8.41036L15.3778 10.875C14.8219 11.1166 14.4316 11.6706 14.4316 12.3144C14.4316 12.4091 14.4404 12.5013 14.4567 12.5911L12.0648 11.1561C11.7837 10.9867 11.6081 10.678 11.6081 10.3435C11.6081 9.93067 11.4487 9.54102 11.1601 9.24612L10.2634 8.32942C10.143 8.20644 9.94344 8.2033 9.81983 8.3244C9.69622 8.44549 9.69371 8.6444 9.81481 8.768L10.7114 9.68346C10.8846 9.8604 10.9806 10.0944 10.9806 10.3479C10.9806 10.8963 11.2724 11.4115 11.7423 11.6932L15.391 13.8824H13.8719C12.3359 13.8824 10.5621 14.0951 10.0156 14.2413C9.4672 14.3881 9.01293 14.7363 8.73685 15.222C8.46704 15.6963 8.39991 16.2447 8.54673 16.7667C8.8021 17.6759 9.64916 18.2745 10.5696 18.2745C10.7516 18.2745 10.9373 18.2507 11.1212 18.2017C11.9306 17.9853 14.5351 15.845 15.6865 14.875V16.2466L12.1634 19.2276C11.8107 19.5263 11.6081 19.9624 11.6081 20.4254V21.1225C11.6081 21.4099 11.4794 21.6778 11.2548 21.8573L10.1574 22.7351C10.0219 22.8436 10.0005 23.0406 10.1085 23.1762C10.1706 23.254 10.2616 23.2941 10.3538 23.2941C10.4222 23.2941 10.4918 23.2715 10.5496 23.2257L11.647 22.3473C12.0216 22.048 12.2355 21.6013 12.2355 21.1225V20.4254C12.2355 20.1481 12.3566 19.8858 12.5687 19.707L15.6865 17.0692V20.4712C15.6865 20.6444 15.827 20.7849 16.0002 20.7849C16.1734 20.7849 16.3139 20.6444 16.3139 20.4712V17.0692L19.4317 19.707C19.6438 19.8858 19.7649 20.1481 19.7649 20.4254V21.1225C19.7649 21.6013 19.9795 22.048 20.3535 22.3479L21.4509 23.2257C21.5092 23.2722 21.5776 23.2941 21.6473 23.2941C21.7389 23.2941 21.8305 23.254 21.8926 23.1762C22.0005 23.0406 21.9792 22.8436 21.8437 22.7351L20.7463 21.8573C20.5216 21.6772 20.393 21.4093 20.393 21.1219V20.4248C20.393 19.9624 20.191 19.5257 19.8377 19.227L16.3146 16.246V14.8744C17.4659 15.8444 20.0705 17.9846 20.8799 18.2011C21.0637 18.2507 21.2495 18.2739 21.4314 18.2739C22.3519 18.2739 23.1983 17.6753 23.4543 16.7667C23.6012 16.2441 23.5334 15.6957 23.2642 15.2226ZM16.0002 11.3726C16.5191 11.3726 16.9414 11.7948 16.9414 12.3137C16.9414 12.8326 16.5191 13.2549 16.0002 13.2549C15.4813 13.2549 15.059 12.8326 15.059 12.3137C15.059 11.7948 15.4813 11.3726 16.0002 11.3726ZM10.9593 17.595C10.1731 17.8039 9.36493 17.3566 9.15097 16.5961C9.04932 16.2366 9.09575 15.8588 9.28148 15.5326C9.47473 15.1937 9.79222 14.9503 10.1768 14.8474C10.6054 14.7326 12.297 14.5098 13.8719 14.5098H15.1456C13.6046 15.8011 11.5165 17.4463 10.9593 17.595ZM22.8495 16.5967C22.6355 17.3566 21.8236 17.8046 21.0418 17.595C20.484 17.4457 18.3958 15.8011 16.8548 14.5098H18.1285C19.7034 14.5098 21.395 14.7326 21.8236 14.8474C22.2076 14.9503 22.5257 15.1937 22.719 15.5326C22.9047 15.8588 22.9511 16.2366 22.8495 16.5967Z" fill="#18181B"/>
</g>
</g>
</g>
<defs>
<clipPath id="clip0_1_7844">
<rect width="15.0588" height="15.0588" fill="white" transform="translate(8.4707 8.23535)"/>
</clipPath>
<clipPath id="clip1_1_7844">
<rect width="15.0588" height="15.0588" fill="white" transform="translate(8.4707 8.15698)"/>
</clipPath>
<clipPath id="clip2_1_7844">
<rect width="15.0588" height="15.0588" fill="white" transform="translate(8.4707 8.23535)"/>
</clipPath>
</defs>
</svg>
