<svg width="32" height="32" viewBox="0 0 32 32" fill="none" xmlns="http://www.w3.org/2000/svg">
<path fill-rule="evenodd" clip-rule="evenodd" d="M12.374 2.7486C12.1371 2.9629 11.8883 3.16351 11.6285 3.34945C11.1798 3.65062 10.6753 3.85844 10.1452 3.96385C9.91481 4.00902 9.67386 4.0286 9.19347 4.06625C7.98723 4.16262 7.38335 4.21081 6.88038 4.38851C6.30526 4.59156 5.78291 4.92079 5.35164 5.35205C4.92037 5.7833 4.59113 6.30564 4.38808 6.88074C4.21038 7.38371 4.16219 7.98757 4.06581 9.19378C4.04939 9.51267 4.0152 9.83041 3.96341 10.1455C3.858 10.6756 3.65018 11.18 3.349 11.6288C3.21798 11.8246 3.06136 12.0083 2.74813 12.3742C1.96355 13.2958 1.5705 13.7566 1.3401 14.2385C0.808509 15.3528 0.808509 16.6479 1.3401 17.7622C1.5705 18.2441 1.96355 18.7049 2.74813 19.6265C3.06136 19.9925 3.21798 20.1762 3.349 20.3719C3.65018 20.8207 3.858 21.3252 3.96341 21.8552C4.00859 22.0856 4.02817 22.3266 4.06581 22.807C4.16219 24.0132 4.21038 24.617 4.38808 25.12C4.59113 25.6951 4.92037 26.2174 5.35164 26.6487C5.78291 27.0799 6.30526 27.4092 6.88038 27.6122C7.38335 27.7899 7.98723 27.8381 9.19347 27.9345C9.67386 27.9721 9.91481 27.9917 10.1452 28.0369C10.6753 28.1423 11.1798 28.3516 11.6285 28.6513C11.8243 28.7823 12.008 28.9389 12.374 29.2521C13.2956 30.0367 13.7564 30.4297 14.2383 30.6601C15.3527 31.1917 16.6478 31.1917 17.7622 30.6601C18.2441 30.4297 18.7049 30.0367 19.6265 29.2521C19.9924 28.9389 20.1761 28.7823 20.3719 28.6513C20.8207 28.3501 21.3252 28.1423 21.8552 28.0369C22.0857 27.9917 22.3266 27.9721 22.807 27.9345C24.0132 27.8381 24.6171 27.7899 25.1201 27.6122C25.6952 27.4092 26.2175 27.0799 26.6488 26.6487C27.0801 26.2174 27.4093 25.6951 27.6124 25.12C27.7901 24.617 27.8383 24.0132 27.9346 22.807C27.9723 22.3266 27.9919 22.0856 28.037 21.8552C28.1425 21.3252 28.3518 20.8207 28.6515 20.3719C28.7825 20.1762 28.9391 19.9925 29.2523 19.6265C30.0369 18.7049 30.43 18.2441 30.6604 17.7622C31.1919 16.6479 31.1919 15.3528 30.6604 14.2385C30.43 13.7566 30.0369 13.2958 29.2523 12.3742C29.038 12.1374 28.8374 11.8885 28.6515 11.6288C28.3506 11.1799 28.1417 10.6757 28.037 10.1455C27.9853 9.8304 27.9511 9.51267 27.9346 9.19378C27.8383 7.98757 27.7901 7.38371 27.6124 6.88074C27.4093 6.30564 27.0801 5.7833 26.6488 5.35205C26.2175 4.92079 25.6952 4.59156 25.1201 4.38851C24.6171 4.21081 24.0132 4.16262 22.807 4.06625C22.4881 4.04982 22.1703 4.01564 21.8552 3.96385C21.325 3.85917 20.8209 3.65034 20.3719 3.34945C20.1125 3.16312 19.8636 2.96252 19.6265 2.7486C18.7049 1.96404 18.2441 1.571 17.7622 1.3406C17.212 1.07764 16.61 0.941162 16.0002 0.941162C15.3905 0.941162 14.7884 1.07764 14.2383 1.3406C13.7564 1.571 13.2956 1.96404 12.374 2.7486Z" fill="#F4F4F5"/>
<g clip-path="url(#clip0_1_7853)">
<g clip-path="url(#clip1_1_7853)">
<g clip-path="url(#clip2_1_7853)">
<path d="M18.363 11.5102H15.6277V9.07879H18.9708C19.1386 9.07879 19.2747 8.94263 19.2747 8.77487C19.2747 8.6071 19.1386 8.47095 18.9708 8.47095H11.6767C11.5089 8.47095 11.3728 8.6071 11.3728 8.77487C11.3728 8.94263 11.5089 9.07879 11.6767 9.07879H15.0198V11.5102H9.24533C9.07756 11.5102 8.94141 11.6463 8.94141 11.8141C8.94141 11.9818 9.07756 12.118 9.24533 12.118H15.0198V15.1572H9.24533C9.07756 15.1572 8.94141 15.2934 8.94141 15.4611C8.94141 15.6289 9.07756 15.7651 9.24533 15.7651H18.363C18.8657 15.7651 19.2747 16.1741 19.2747 16.6768V17.2847C19.2747 17.7874 19.6838 18.1964 20.1865 18.1964H22.6179C23.1206 18.1964 23.5296 17.7874 23.5296 17.2847V16.6768C23.5296 13.8279 21.2119 11.5102 18.363 11.5102ZM22.9218 17.2847C22.9218 17.4518 22.7856 17.5886 22.6179 17.5886H20.1865C20.0187 17.5886 19.8826 17.4518 19.8826 17.2847V16.6768C19.8826 15.8386 19.2006 15.1572 18.363 15.1572H15.6277V12.118H18.363C20.877 12.118 22.9218 14.1628 22.9218 16.6768V17.2847ZM20.8412 19.6638C20.6162 19.9665 19.8826 20.9949 19.8826 21.5396C19.8826 21.9456 20.0406 22.3267 20.3275 22.6142C20.6144 22.9018 20.9962 23.0592 21.4022 23.0592C21.8082 23.0592 22.1893 22.9011 22.4769 22.6142C22.7644 22.3273 22.9218 21.9456 22.9218 21.5396C22.9218 20.9949 22.1875 19.9665 21.9322 19.6279C21.6405 19.3416 21.1645 19.3416 20.8412 19.6638ZM22.0465 22.1839C21.7025 22.5285 21.1013 22.5273 20.7573 22.1839C20.5852 22.0119 20.4904 21.7827 20.4904 21.539C20.4904 21.3013 20.9256 20.5682 21.2982 20.0613C21.3347 20.026 21.3833 20.0127 21.4216 20.0127C21.4453 20.0127 21.4648 20.0181 21.4751 20.026C21.8787 20.5682 22.314 21.3013 22.314 21.5384C22.314 21.7815 22.2191 22.0107 22.0471 22.1833L22.0465 22.1839Z" fill="#18181B"/>
</g>
</g>
</g>
<defs>
<clipPath id="clip0_1_7853">
<rect width="15.0588" height="15.0588" fill="white" transform="translate(8.4707 8.23535)"/>
</clipPath>
<clipPath id="clip1_1_7853">
<rect width="15.0588" height="15.0588" fill="white" transform="translate(8.4707 8.15698)"/>
</clipPath>
<clipPath id="clip2_1_7853">
<rect width="15.0588" height="15.0588" fill="white" transform="translate(8.4707 8.00024)"/>
</clipPath>
</defs>
</svg>
