<svg width="48" height="48" viewBox="0 0 48 48" fill="none" xmlns="http://www.w3.org/2000/svg">
<path fill-rule="evenodd" clip-rule="evenodd" d="M28.851 12.0611C28.2802 12.5182 27.9674 13.1142 27.9674 13.7328C27.9674 14.3523 28.2802 14.9483 28.851 15.4063C29.4218 15.8644 30.2312 16.1619 31.144 16.1619C31.2612 16.1619 31.3735 16.2116 31.4564 16.3002C31.5393 16.3888 31.5858 16.5089 31.5858 16.6341C31.5858 16.7594 31.5393 16.8795 31.4564 16.968C31.3735 17.0566 31.2612 17.1063 31.144 17.1063C30.0589 17.1063 29.0586 16.7541 28.3208 16.1619C27.5821 15.5697 27.0837 14.7169 27.0837 13.7337C27.0837 12.7515 27.5821 11.8968 28.3208 11.3046C29.0595 10.7134 30.0589 10.3611 31.144 10.3611C32.8388 10.3611 34.3666 11.2291 34.956 12.5654C35.0059 12.6788 35.0116 12.8087 34.9719 12.9266C34.9323 13.0444 34.8504 13.1406 34.7443 13.194C34.6383 13.2473 34.5168 13.2535 34.4065 13.211C34.2962 13.1686 34.2062 13.0811 34.1563 12.9678C33.7525 12.0517 32.6002 11.3056 31.144 11.3056C30.2312 11.3056 29.4218 11.6031 28.851 12.0611Z" fill="#0070FF"/>
<path fill-rule="evenodd" clip-rule="evenodd" d="M33.1451 21.2062C33.7159 20.7491 34.0279 20.1522 34.0279 19.5345C34.0279 18.9149 33.7159 18.319 33.1442 17.8609C32.5734 17.4029 31.764 17.1054 30.8521 17.1054C30.7349 17.1054 30.6225 17.0556 30.5397 16.9671C30.4568 16.8785 30.4103 16.7584 30.4103 16.6332C30.4103 16.5079 30.4568 16.3878 30.5397 16.2993C30.6225 16.2107 30.7349 16.1609 30.8521 16.1609C31.9372 16.1609 32.9375 16.5132 33.6753 17.1054C34.4131 17.6976 34.9115 18.5504 34.9115 19.5336C34.9115 20.5158 34.4131 21.3705 33.6744 21.9617C32.9366 22.5539 31.9372 22.9062 30.8521 22.9062C29.1573 22.9062 27.6295 22.0382 27.0401 20.7018C26.9902 20.5885 26.9845 20.4586 27.0242 20.3407C27.0638 20.2229 27.1457 20.1267 27.2518 20.0733C27.3578 20.02 27.4793 20.0138 27.5896 20.0562C27.6999 20.0987 27.7899 20.1862 27.8398 20.2995C28.2436 21.2156 29.395 21.9617 30.8521 21.9617C31.764 21.9617 32.5734 21.6642 33.1451 21.2062ZM30.5322 8C30.6494 8 30.7618 8.04975 30.8446 8.13831C30.9275 8.22687 30.974 8.34698 30.974 8.47222V10.3611C30.974 10.4864 30.9275 10.6065 30.8446 10.695C30.7618 10.7836 30.6494 10.8333 30.5322 10.8333C30.4151 10.8333 30.3027 10.7836 30.2198 10.695C30.137 10.6065 30.0904 10.4864 30.0904 10.3611V8.47222C30.0904 8.34698 30.137 8.22687 30.2198 8.13831C30.3027 8.04975 30.4151 8 30.5322 8Z" fill="#0070FF"/>
<path fill-rule="evenodd" clip-rule="evenodd" d="M30.5322 22.1667C30.6494 22.1667 30.7617 22.2164 30.8446 22.305C30.9275 22.3935 30.974 22.5136 30.974 22.6389V24.5278C30.974 24.653 30.9275 24.7731 30.8446 24.8617C30.7617 24.9502 30.6494 25 30.5322 25C30.415 25 30.3026 24.9502 30.2198 24.8617C30.1369 24.7731 30.0904 24.653 30.0904 24.5278V22.6389C30.0904 22.5136 30.1369 22.3935 30.2198 22.305C30.3026 22.2164 30.415 22.1667 30.5322 22.1667Z" fill="#0070FF"/>
<path fill-rule="evenodd" clip-rule="evenodd" d="M28.851 12.0611C28.2802 12.5182 27.9674 13.1142 27.9674 13.7328C27.9674 14.3523 28.2802 14.9483 28.851 15.4063C29.4218 15.8644 30.2312 16.1619 31.144 16.1619C31.2612 16.1619 31.3735 16.2116 31.4564 16.3002C31.5393 16.3888 31.5858 16.5089 31.5858 16.6341C31.5858 16.7594 31.5393 16.8795 31.4564 16.968C31.3735 17.0566 31.2612 17.1063 31.144 17.1063C30.0589 17.1063 29.0586 16.7541 28.3208 16.1619C27.5821 15.5697 27.0837 14.7169 27.0837 13.7337C27.0837 12.7515 27.5821 11.8968 28.3208 11.3046C29.0595 10.7134 30.0589 10.3611 31.144 10.3611C32.8388 10.3611 34.3666 11.2291 34.956 12.5654C35.0059 12.6788 35.0116 12.8087 34.9719 12.9266C34.9323 13.0444 34.8504 13.1406 34.7443 13.194C34.6383 13.2473 34.5168 13.2535 34.4065 13.211C34.2962 13.1686 34.2062 13.0811 34.1563 12.9678C33.7525 12.0517 32.6002 11.3056 31.144 11.3056C30.2312 11.3056 29.4218 11.6031 28.851 12.0611Z" stroke="#0070FF" stroke-width="0.5"/>
<path fill-rule="evenodd" clip-rule="evenodd" d="M33.1451 21.2062C33.7159 20.7491 34.0279 20.1522 34.0279 19.5345C34.0279 18.9149 33.7159 18.319 33.1442 17.8609C32.5734 17.4029 31.764 17.1054 30.8521 17.1054C30.7349 17.1054 30.6225 17.0556 30.5397 16.9671C30.4568 16.8785 30.4103 16.7584 30.4103 16.6332C30.4103 16.5079 30.4568 16.3878 30.5397 16.2993C30.6225 16.2107 30.7349 16.1609 30.8521 16.1609C31.9372 16.1609 32.9375 16.5132 33.6753 17.1054C34.4131 17.6976 34.9115 18.5504 34.9115 19.5336C34.9115 20.5158 34.4131 21.3705 33.6744 21.9617C32.9366 22.5539 31.9372 22.9062 30.8521 22.9062C29.1573 22.9062 27.6295 22.0382 27.0401 20.7018C26.9902 20.5885 26.9845 20.4586 27.0242 20.3407C27.0638 20.2229 27.1457 20.1267 27.2518 20.0733C27.3578 20.02 27.4793 20.0138 27.5896 20.0562C27.6999 20.0987 27.7899 20.1862 27.8398 20.2995C28.2436 21.2156 29.395 21.9617 30.8521 21.9617C31.764 21.9617 32.5734 21.6642 33.1451 21.2062ZM30.5322 8C30.6494 8 30.7618 8.04975 30.8446 8.13831C30.9275 8.22687 30.974 8.34698 30.974 8.47222V10.3611C30.974 10.4864 30.9275 10.6065 30.8446 10.695C30.7618 10.7836 30.6494 10.8333 30.5322 10.8333C30.4151 10.8333 30.3027 10.7836 30.2198 10.695C30.137 10.6065 30.0904 10.4864 30.0904 10.3611V8.47222C30.0904 8.34698 30.137 8.22687 30.2198 8.13831C30.3027 8.04975 30.4151 8 30.5322 8Z" stroke="#0070FF" stroke-width="0.5"/>
<path fill-rule="evenodd" clip-rule="evenodd" d="M30.5322 22.1667C30.6494 22.1667 30.7617 22.2164 30.8446 22.305C30.9275 22.3935 30.974 22.5136 30.974 22.6389V24.5278C30.974 24.653 30.9275 24.7731 30.8446 24.8617C30.7617 24.9502 30.6494 25 30.5322 25C30.415 25 30.3026 24.9502 30.2198 24.8617C30.1369 24.7731 30.0904 24.653 30.0904 24.5278V22.6389C30.0904 22.5136 30.1369 22.3935 30.2198 22.305C30.3026 22.2164 30.415 22.1667 30.5322 22.1667Z" stroke="#0070FF" stroke-width="0.5"/>
<path d="M30.9238 30C38.656 30 44.9238 23.7322 44.9238 16C44.9238 8.2678 38.656 2 30.9238 2C23.1916 2 16.9238 8.2678 16.9238 16C16.9238 18.24 17.4502 20.3568 18.384 22.2342C18.6332 22.7326 18.7158 23.3024 18.5716 23.8414L17.7386 26.9578C17.6561 27.2662 17.6562 27.5909 17.7388 27.8993C17.8215 28.2076 17.9838 28.4888 18.2095 28.7146C18.4351 28.9405 18.7162 29.1029 19.0246 29.1858C19.3329 29.2686 19.6576 29.2689 19.966 29.1866L23.0824 28.3522C23.6234 28.216 24.1955 28.2823 24.691 28.5384C26.6271 29.5025 28.761 30.0029 30.9238 30Z" stroke="#0070FF" stroke-width="1.5"/>
<path fill-rule="evenodd" clip-rule="evenodd" d="M9.5 31C9.24952 31 9.0093 31.0937 8.83218 31.2603C8.65506 31.427 8.55556 31.6531 8.55556 31.8889V46.1111C8.55556 46.3469 8.65506 46.573 8.83218 46.7397C9.00929 46.9064 9.24952 47 9.5 47C9.75048 47 9.99071 46.9064 10.1678 46.7397C10.3449 46.573 10.4444 46.3469 10.4444 46.1111V31.8889C10.4444 31.6531 10.3449 31.427 10.1678 31.2603C9.9907 31.0937 9.75048 31 9.5 31ZM1.94444 34.5556C1.69396 34.5556 1.45374 34.6492 1.27662 34.8159C1.0995 34.9826 1 35.2087 1 35.4444V42.5556C1 42.7913 1.0995 43.0174 1.27662 43.1841C1.45374 43.3508 1.69396 43.4444 1.94444 43.4444C2.19493 43.4444 2.43515 43.3508 2.61227 43.1841C2.78939 43.0174 2.88889 42.7913 2.88889 42.5556V35.4444C2.88889 35.2087 2.78939 34.9826 2.61227 34.8159C2.43515 34.6492 2.19493 34.5556 1.94444 34.5556ZM17.0556 34.5556C16.8051 34.5556 16.5648 34.6492 16.3877 34.8159C16.2106 34.9826 16.1111 35.2087 16.1111 35.4444V42.5556C16.1111 42.7913 16.2106 43.0174 16.3877 43.1841C16.5648 43.3508 16.8051 43.4444 17.0556 43.4444C17.306 43.4444 17.5463 43.3508 17.7234 43.1841C17.9005 43.0174 18 42.7913 18 42.5556V35.4444C18 35.2087 17.9005 34.9826 17.7234 34.8159C17.5463 34.6492 17.306 34.5556 17.0556 34.5556Z" fill="#0070FF"/>
</svg>
