<svg width="32" height="32" viewBox="0 0 32 32" fill="none" xmlns="http://www.w3.org/2000/svg">
<path fill-rule="evenodd" clip-rule="evenodd" d="M12.374 2.7486C12.1371 2.9629 11.8883 3.16351 11.6285 3.34945C11.1798 3.65062 10.6753 3.85844 10.1452 3.96385C9.91481 4.00902 9.67386 4.0286 9.19347 4.06625C7.98723 4.16262 7.38335 4.21081 6.88038 4.38851C6.30526 4.59156 5.78291 4.92079 5.35164 5.35205C4.92037 5.7833 4.59113 6.30564 4.38808 6.88074C4.21038 7.38371 4.16219 7.98757 4.06581 9.19378C4.04939 9.51267 4.0152 9.83041 3.96341 10.1455C3.858 10.6756 3.65018 11.18 3.349 11.6288C3.21798 11.8246 3.06136 12.0083 2.74813 12.3742C1.96355 13.2958 1.5705 13.7566 1.3401 14.2385C0.808509 15.3528 0.808509 16.6479 1.3401 17.7622C1.5705 18.2441 1.96355 18.7049 2.74813 19.6265C3.06136 19.9925 3.21798 20.1762 3.349 20.3719C3.65018 20.8207 3.858 21.3252 3.96341 21.8552C4.00859 22.0856 4.02817 22.3266 4.06581 22.807C4.16219 24.0132 4.21038 24.617 4.38808 25.12C4.59113 25.6951 4.92037 26.2174 5.35164 26.6487C5.78291 27.0799 6.30526 27.4092 6.88038 27.6122C7.38335 27.7899 7.98723 27.8381 9.19347 27.9345C9.67386 27.9721 9.91481 27.9917 10.1452 28.0369C10.6753 28.1423 11.1798 28.3516 11.6285 28.6513C11.8243 28.7823 12.008 28.9389 12.374 29.2521C13.2956 30.0367 13.7564 30.4297 14.2383 30.6601C15.3527 31.1917 16.6478 31.1917 17.7622 30.6601C18.2441 30.4297 18.7049 30.0367 19.6265 29.2521C19.9924 28.9389 20.1761 28.7823 20.3719 28.6513C20.8207 28.3501 21.3252 28.1423 21.8552 28.0369C22.0857 27.9917 22.3266 27.9721 22.807 27.9345C24.0132 27.8381 24.6171 27.7899 25.1201 27.6122C25.6952 27.4092 26.2175 27.0799 26.6488 26.6487C27.0801 26.2174 27.4093 25.6951 27.6124 25.12C27.7901 24.617 27.8383 24.0132 27.9346 22.807C27.9723 22.3266 27.9919 22.0856 28.037 21.8552C28.1425 21.3252 28.3518 20.8207 28.6515 20.3719C28.7825 20.1762 28.9391 19.9925 29.2523 19.6265C30.0369 18.7049 30.43 18.2441 30.6604 17.7622C31.1919 16.6479 31.1919 15.3528 30.6604 14.2385C30.43 13.7566 30.0369 13.2958 29.2523 12.3742C29.038 12.1374 28.8374 11.8885 28.6515 11.6288C28.3506 11.1799 28.1417 10.6757 28.037 10.1455C27.9853 9.8304 27.9511 9.51267 27.9346 9.19378C27.8383 7.98757 27.7901 7.38371 27.6124 6.88074C27.4093 6.30564 27.0801 5.7833 26.6488 5.35205C26.2175 4.92079 25.6952 4.59156 25.1201 4.38851C24.6171 4.21081 24.0132 4.16262 22.807 4.06625C22.4881 4.04982 22.1703 4.01564 21.8552 3.96385C21.325 3.85917 20.8209 3.65034 20.3719 3.34945C20.1125 3.16312 19.8636 2.96252 19.6265 2.7486C18.7049 1.96404 18.2441 1.571 17.7622 1.3406C17.212 1.07764 16.61 0.941162 16.0002 0.941162C15.3905 0.941162 14.7884 1.07764 14.2383 1.3406C13.7564 1.571 13.2956 1.96404 12.374 2.7486Z" fill="#F4F4F5"/>
<g clip-path="url(#clip0_1_7861)">
<g clip-path="url(#clip1_1_7861)">
<path fill-rule="evenodd" clip-rule="evenodd" d="M22.2746 21.3654V16.0936C23.0138 15.7397 23.5295 14.9905 23.5295 14.1177C23.5295 14.0889 22.2621 9.63963 22.2621 9.63963C22.2232 9.50473 22.1008 9.41187 21.9609 9.41187H10.0393C9.89878 9.41187 9.77643 9.50473 9.73815 9.63963C9.73815 9.63963 8.4707 14.0889 8.4707 14.1177C8.4707 14.9905 8.98647 15.7397 9.72561 16.0936V21.3654H10.3531V16.2818C10.4566 16.2969 10.5595 16.3138 10.6668 16.3138H11.2942C12.0974 16.3138 12.7938 15.8759 13.1766 15.2308C13.5593 15.8759 14.2558 16.3138 15.0589 16.3138H16.9413C17.7444 16.3138 18.4409 15.8759 18.8236 15.2308C19.2064 15.8759 19.9029 16.3138 20.706 16.3138H21.3334C21.4407 16.3138 21.5436 16.2969 21.6472 16.2818V21.3654H22.2746ZM10.2759 10.0393L9.09878 14.1598C9.12074 15.0056 9.81596 15.6864 10.6668 15.6864H11.2942C12.1595 15.6864 12.8629 14.9824 12.8629 14.1177C12.8629 13.9446 13.0034 13.804 13.1766 13.804C13.3498 13.804 13.4903 13.9446 13.4903 14.1177C13.4903 14.9824 14.1937 15.6864 15.0589 15.6864H16.9413C17.8065 15.6864 18.5099 14.9824 18.5099 14.1177C18.5099 13.9446 18.6505 13.804 18.8236 13.804C18.9968 13.804 19.1374 13.9446 19.1374 14.1177C19.1374 14.9824 19.8407 15.6864 20.706 15.6864H21.3334C22.1843 15.6864 22.8795 15.0056 22.9014 14.1598L21.7243 10.0393H19.1374V11.6079C19.1374 11.7811 18.9968 11.9217 18.8236 11.9217C18.6505 11.9217 18.5099 11.7811 18.5099 11.6079V10.0393H13.4903V11.6079C13.4903 11.7811 13.3498 11.9217 13.1766 11.9217C13.0034 11.9217 12.8629 11.7811 12.8629 11.6079V10.0393H10.2759Z" fill="#18181B"/>
</g>
</g>
<defs>
<clipPath id="clip0_1_7861">
<rect width="15.0588" height="15.0588" fill="white" transform="translate(8.4707 8.23535)"/>
</clipPath>
<clipPath id="clip1_1_7861">
<rect width="15.0588" height="15.0588" fill="white" transform="translate(8.4707 8.15698)"/>
</clipPath>
</defs>
</svg>
