<svg width="32" height="32" viewBox="0 0 32 32" fill="none" xmlns="http://www.w3.org/2000/svg">
<path fill-rule="evenodd" clip-rule="evenodd" d="M12.374 2.7486C12.1371 2.9629 11.8883 3.16351 11.6285 3.34945C11.1798 3.65062 10.6753 3.85844 10.1452 3.96385C9.91481 4.00902 9.67386 4.0286 9.19347 4.06625C7.98723 4.16262 7.38335 4.21081 6.88038 4.38851C6.30526 4.59156 5.78291 4.92079 5.35164 5.35205C4.92037 5.7833 4.59113 6.30564 4.38808 6.88074C4.21038 7.38371 4.16219 7.98757 4.06581 9.19378C4.04939 9.51267 4.0152 9.83041 3.96341 10.1455C3.858 10.6756 3.65018 11.18 3.349 11.6288C3.21798 11.8246 3.06136 12.0083 2.74813 12.3742C1.96355 13.2958 1.5705 13.7566 1.3401 14.2385C0.808509 15.3528 0.808509 16.6479 1.3401 17.7622C1.5705 18.2441 1.96355 18.7049 2.74813 19.6265C3.06136 19.9925 3.21798 20.1762 3.349 20.3719C3.65018 20.8207 3.858 21.3252 3.96341 21.8552C4.00859 22.0856 4.02817 22.3266 4.06581 22.807C4.16219 24.0132 4.21038 24.617 4.38808 25.12C4.59113 25.6951 4.92037 26.2174 5.35164 26.6487C5.78291 27.0799 6.30526 27.4092 6.88038 27.6122C7.38335 27.7899 7.98723 27.8381 9.19347 27.9345C9.67386 27.9721 9.91481 27.9917 10.1452 28.0369C10.6753 28.1423 11.1798 28.3516 11.6285 28.6513C11.8243 28.7823 12.008 28.9389 12.374 29.2521C13.2956 30.0367 13.7564 30.4297 14.2383 30.6601C15.3527 31.1917 16.6478 31.1917 17.7622 30.6601C18.2441 30.4297 18.7049 30.0367 19.6265 29.2521C19.9924 28.9389 20.1761 28.7823 20.3719 28.6513C20.8207 28.3501 21.3252 28.1423 21.8552 28.0369C22.0857 27.9917 22.3266 27.9721 22.807 27.9345C24.0132 27.8381 24.6171 27.7899 25.1201 27.6122C25.6952 27.4092 26.2175 27.0799 26.6488 26.6487C27.0801 26.2174 27.4093 25.6951 27.6124 25.12C27.7901 24.617 27.8383 24.0132 27.9346 22.807C27.9723 22.3266 27.9919 22.0856 28.037 21.8552C28.1425 21.3252 28.3518 20.8207 28.6515 20.3719C28.7825 20.1762 28.9391 19.9925 29.2523 19.6265C30.0369 18.7049 30.43 18.2441 30.6604 17.7622C31.1919 16.6479 31.1919 15.3528 30.6604 14.2385C30.43 13.7566 30.0369 13.2958 29.2523 12.3742C29.038 12.1374 28.8374 11.8885 28.6515 11.6288C28.3506 11.1799 28.1417 10.6757 28.037 10.1455C27.9853 9.8304 27.9511 9.51267 27.9346 9.19378C27.8383 7.98757 27.7901 7.38371 27.6124 6.88074C27.4093 6.30564 27.0801 5.7833 26.6488 5.35205C26.2175 4.92079 25.6952 4.59156 25.1201 4.38851C24.6171 4.21081 24.0132 4.16262 22.807 4.06625C22.4881 4.04982 22.1703 4.01564 21.8552 3.96385C21.325 3.85917 20.8209 3.65034 20.3719 3.34945C20.1125 3.16312 19.8636 2.96252 19.6265 2.7486C18.7049 1.96404 18.2441 1.571 17.7622 1.3406C17.212 1.07764 16.61 0.941162 16.0002 0.941162C15.3905 0.941162 14.7884 1.07764 14.2383 1.3406C13.7564 1.571 13.2956 1.96404 12.374 2.7486Z" fill="#F4F4F5"/>
<path d="M11.5765 20.1666V22.2499C11.5765 22.3683 11.5365 22.4671 11.4565 22.5466C11.377 22.6266 11.2781 22.6666 11.1598 22.6666C11.0415 22.6666 10.9426 22.6266 10.8631 22.5466C10.7837 22.4666 10.7437 22.3677 10.7431 22.2499V14.2883L8.49979 15.9599C8.40146 16.0238 8.30007 16.0508 8.19562 16.0408C8.09062 16.0308 8.0009 15.9766 7.92646 15.8783C7.85146 15.7799 7.81979 15.6785 7.83146 15.5741C7.84312 15.4691 7.89812 15.3791 7.99646 15.3041L15.1873 9.92825C15.3078 9.83825 15.4376 9.77353 15.5765 9.73408C15.7153 9.69464 15.8565 9.67464 15.9998 9.67408C16.1431 9.67353 16.2845 9.69353 16.424 9.73408C16.5634 9.77464 16.6928 9.83908 16.8123 9.92742L24.019 15.3049C24.114 15.3794 24.1681 15.4688 24.1815 15.5733C24.1948 15.6777 24.1642 15.7794 24.0898 15.8783C24.0153 15.9771 23.9256 16.0313 23.8206 16.0408C23.7156 16.0502 23.614 16.0233 23.5156 15.9599L21.2723 14.2883V22.2499C21.2723 22.3683 21.2323 22.4671 21.1523 22.5466C21.0723 22.626 20.9731 22.666 20.8548 22.6666C20.7365 22.6671 20.6376 22.6271 20.5581 22.5466C20.4787 22.466 20.439 22.3671 20.439 22.2499V20.1666H11.5765ZM11.5765 16.1916H20.439V13.8849H11.5765V16.1916ZM11.5765 19.3333H20.439V17.0249H11.5765V19.3333ZM12.394 13.0508H19.6056L15.9998 10.3799L12.394 13.0508Z" fill="#18181B"/>
</svg>
