<svg width="32" height="32" viewBox="0 0 32 32" fill="none" xmlns="http://www.w3.org/2000/svg">
<path d="M22.6667 7.99984C22.6667 5.48517 22.6667 4.22917 21.8854 3.44784C21.104 2.6665 19.848 2.6665 17.3334 2.6665H14.6667C12.152 2.6665 10.896 2.6665 10.1147 3.44784C9.33337 4.22917 9.33337 5.48517 9.33337 7.99984M14.8614 14.6972C15.368 13.7878 15.6214 13.3332 16 13.3332C16.3787 13.3332 16.632 13.7865 17.1387 14.6972L17.2694 14.9318C17.4134 15.1905 17.4854 15.3185 17.5974 15.4038C17.7107 15.4892 17.8507 15.5212 18.1307 15.5838L18.384 15.6425C19.368 15.8652 19.86 15.9758 19.9774 16.3518C20.0947 16.7292 19.7587 17.1212 19.088 17.9052L18.9147 18.1078C18.724 18.3305 18.628 18.4412 18.5854 18.5798C18.5427 18.7185 18.5574 18.8665 18.5854 19.1638L18.612 19.4345C18.7134 20.4812 18.764 21.0052 18.4587 21.2372C18.152 21.4692 17.6907 21.2572 16.7694 20.8332L16.532 20.7238C16.2694 20.6038 16.1387 20.5438 16 20.5438C15.8614 20.5438 15.7307 20.6038 15.468 20.7238L15.2307 20.8332C14.3094 21.2585 13.848 21.4692 13.5414 21.2372C13.2347 21.0052 13.2867 20.4812 13.388 19.4345L13.4147 19.1638C13.4427 18.8665 13.4574 18.7185 13.4147 18.5798C13.372 18.4425 13.276 18.3305 13.0854 18.1078L12.912 17.9052C12.2414 17.1212 11.9054 16.7292 12.0227 16.3518C12.14 15.9758 12.632 15.8652 13.616 15.6425L13.8694 15.5838C14.1494 15.5212 14.2894 15.4905 14.4027 15.4038C14.5147 15.3185 14.5867 15.1905 14.7307 14.9318L14.8614 14.6972Z" stroke="#0070FF" stroke-width="1.5"/>
<path d="M18.6667 8H13.3334C9.56271 8 7.67604 8 6.50537 9.172C5.33337 10.3427 5.33337 12.2293 5.33337 16V17.408C5.33337 20.6147 5.33337 22.2187 6.12937 23.508C6.92671 24.796 8.36137 25.5133 11.2294 26.948C13.5707 28.1187 14.7414 28.704 16 28.704C17.2587 28.704 18.4294 28.1187 20.7707 26.948C23.6387 25.5133 25.0734 24.796 25.8707 23.508C26.6667 22.2187 26.6667 20.6147 26.6667 17.408V16C26.6667 12.2293 26.6667 10.3427 25.4947 9.172C24.324 8 22.4374 8 18.6667 8Z" stroke="#0070FF" stroke-width="1.5"/>
</svg>
