<svg width="48" height="48" viewBox="0 0 48 48" fill="none" xmlns="http://www.w3.org/2000/svg">
<path d="M27.5 20C27.5 20.828 28.172 21.5 29 21.5H30.38L26.354 25.526C26.3076 25.5726 26.2524 25.6095 26.1916 25.6347C26.1309 25.6599 26.0658 25.6729 26 25.6729C25.9342 25.6729 25.8691 25.6599 25.8084 25.6347C25.7476 25.6095 25.6924 25.5726 25.646 25.526L22.474 22.354C21.8177 21.6982 20.9278 21.3297 20 21.3297C19.0722 21.3297 18.1823 21.6982 17.526 22.354L12.94 26.94C12.7926 27.0773 12.6744 27.2429 12.5924 27.4269C12.5105 27.6109 12.4664 27.8096 12.4628 28.011C12.4593 28.2124 12.4963 28.4124 12.5718 28.5992C12.6472 28.786 12.7595 28.9556 12.9019 29.0981C13.0444 29.2405 13.214 29.3528 13.4008 29.4282C13.5876 29.5037 13.7876 29.5407 13.989 29.5372C14.1905 29.5336 14.3891 29.4895 14.5731 29.4076C14.7571 29.3256 14.9227 29.2074 15.06 29.06L19.646 24.474C19.6924 24.4274 19.7476 24.3905 19.8084 24.3653C19.8691 24.3401 19.9342 24.3271 20 24.3271C20.0658 24.3271 20.1309 24.3401 20.1916 24.3653C20.2524 24.3905 20.3076 24.4274 20.354 24.474L23.526 27.646C24.1823 28.3018 25.0722 28.6703 26 28.6703C26.9278 28.6703 27.8177 28.3018 28.474 27.646L32.5 23.622V25C32.5 25.3978 32.658 25.7794 32.9393 26.0607C33.2206 26.342 33.6022 26.5 34 26.5C34.3978 26.5 34.7794 26.342 35.0607 26.0607C35.342 25.7794 35.5 25.3978 35.5 25V20C35.5 19.6022 35.342 19.2206 35.0607 18.9393C34.7794 18.658 34.3978 18.5 34 18.5H29C28.6022 18.5 28.2206 18.658 27.9393 18.9393C27.658 19.2206 27.5 19.6022 27.5 20Z" fill="#0070FF"/>
<path fill-rule="evenodd" clip-rule="evenodd" d="M23.886 2.5C19.268 2.5 15.65 2.5 12.826 2.88C9.938 3.268 7.658 4.08 5.868 5.868C4.078 7.658 3.268 9.938 2.88 12.828C2.5 15.65 2.5 19.268 2.5 23.886V24.114C2.5 28.732 2.5 32.35 2.88 35.174C3.268 38.062 4.08 40.342 5.868 42.132C7.658 43.922 9.938 44.732 12.828 45.12C15.65 45.5 19.268 45.5 23.886 45.5H24.114C28.732 45.5 32.35 45.5 35.174 45.12C38.062 44.732 40.342 43.92 42.132 42.132C43.922 40.342 44.732 38.062 45.12 35.172C45.5 32.35 45.5 28.732 45.5 24.114V23.886C45.5 19.268 45.5 15.65 45.12 12.826C44.732 9.938 43.92 7.658 42.132 5.868C40.342 4.078 38.062 3.268 35.172 2.88C32.35 2.5 28.732 2.5 24.114 2.5H23.886ZM7.99 7.99C9.13 6.85 10.67 6.196 13.228 5.852C15.828 5.504 19.244 5.5 24 5.5C28.756 5.5 32.172 5.504 34.772 5.852C37.33 6.196 38.872 6.852 40.012 7.99C41.15 9.13 41.804 10.67 42.148 13.228C42.496 15.828 42.5 19.244 42.5 24C42.5 28.756 42.496 32.172 42.148 34.772C41.804 37.33 41.148 38.872 40.01 40.012C38.87 41.15 37.33 41.804 34.772 42.148C32.172 42.496 28.756 42.5 24 42.5C19.244 42.5 15.828 42.496 13.228 42.148C10.67 41.804 9.128 41.148 7.988 40.01C6.85 38.87 6.196 37.33 5.852 34.772C5.504 32.172 5.5 28.756 5.5 24C5.5 19.244 5.504 15.828 5.852 13.228C6.196 10.67 6.852 9.13 7.99 7.99Z" fill="#0070FF"/>
<path d="M27.5 20C27.5 20.828 28.172 21.5 29 21.5H30.38L26.354 25.526C26.3076 25.5726 26.2524 25.6095 26.1916 25.6347C26.1309 25.6599 26.0658 25.6729 26 25.6729C25.9342 25.6729 25.8691 25.6599 25.8084 25.6347C25.7476 25.6095 25.6924 25.5726 25.646 25.526L22.474 22.354C21.8177 21.6982 20.9278 21.3297 20 21.3297C19.0722 21.3297 18.1823 21.6982 17.526 22.354L12.94 26.94C12.7926 27.0773 12.6744 27.2429 12.5924 27.4269C12.5105 27.6109 12.4664 27.8096 12.4628 28.011C12.4593 28.2124 12.4963 28.4124 12.5718 28.5992C12.6472 28.786 12.7595 28.9556 12.9019 29.0981C13.0444 29.2405 13.214 29.3528 13.4008 29.4282C13.5876 29.5037 13.7876 29.5407 13.989 29.5372C14.1905 29.5336 14.3891 29.4895 14.5731 29.4076C14.7571 29.3256 14.9227 29.2074 15.06 29.06L19.646 24.474C19.6924 24.4274 19.7476 24.3905 19.8084 24.3653C19.8691 24.3401 19.9342 24.3271 20 24.3271C20.0658 24.3271 20.1309 24.3401 20.1916 24.3653C20.2524 24.3905 20.3076 24.4274 20.354 24.474L23.526 27.646C24.1823 28.3018 25.0722 28.6703 26 28.6703C26.9278 28.6703 27.8177 28.3018 28.474 27.646L32.5 23.622V25C32.5 25.3978 32.658 25.7794 32.9393 26.0607C33.2206 26.342 33.6022 26.5 34 26.5C34.3978 26.5 34.7794 26.342 35.0607 26.0607C35.342 25.7794 35.5 25.3978 35.5 25V20C35.5 19.6022 35.342 19.2206 35.0607 18.9393C34.7794 18.658 34.3978 18.5 34 18.5H29C28.6022 18.5 28.2206 18.658 27.9393 18.9393C27.658 19.2206 27.5 19.6022 27.5 20Z" stroke="white"/>
<path fill-rule="evenodd" clip-rule="evenodd" d="M23.886 2.5C19.268 2.5 15.65 2.5 12.826 2.88C9.938 3.268 7.658 4.08 5.868 5.868C4.078 7.658 3.268 9.938 2.88 12.828C2.5 15.65 2.5 19.268 2.5 23.886V24.114C2.5 28.732 2.5 32.35 2.88 35.174C3.268 38.062 4.08 40.342 5.868 42.132C7.658 43.922 9.938 44.732 12.828 45.12C15.65 45.5 19.268 45.5 23.886 45.5H24.114C28.732 45.5 32.35 45.5 35.174 45.12C38.062 44.732 40.342 43.92 42.132 42.132C43.922 40.342 44.732 38.062 45.12 35.172C45.5 32.35 45.5 28.732 45.5 24.114V23.886C45.5 19.268 45.5 15.65 45.12 12.826C44.732 9.938 43.92 7.658 42.132 5.868C40.342 4.078 38.062 3.268 35.172 2.88C32.35 2.5 28.732 2.5 24.114 2.5H23.886ZM7.99 7.99C9.13 6.85 10.67 6.196 13.228 5.852C15.828 5.504 19.244 5.5 24 5.5C28.756 5.5 32.172 5.504 34.772 5.852C37.33 6.196 38.872 6.852 40.012 7.99C41.15 9.13 41.804 10.67 42.148 13.228C42.496 15.828 42.5 19.244 42.5 24C42.5 28.756 42.496 32.172 42.148 34.772C41.804 37.33 41.148 38.872 40.01 40.012C38.87 41.15 37.33 41.804 34.772 42.148C32.172 42.496 28.756 42.5 24 42.5C19.244 42.5 15.828 42.496 13.228 42.148C10.67 41.804 9.128 41.148 7.988 40.01C6.85 38.87 6.196 37.33 5.852 34.772C5.504 32.172 5.5 28.756 5.5 24C5.5 19.244 5.504 15.828 5.852 13.228C6.196 10.67 6.852 9.13 7.99 7.99Z" stroke="white"/>
</svg>
