<svg width="32" height="32" viewBox="0 0 32 32" fill="none" xmlns="http://www.w3.org/2000/svg">
<path fill-rule="evenodd" clip-rule="evenodd" d="M24.1141 3.37331C23.707 3.35108 23.1503 3.34784 22.3387 3.34784L9.65869 3.3465C8.84706 3.3465 8.29027 3.34974 7.88291 3.37215C7.47385 3.39466 7.19313 3.4373 6.93986 3.52571L6.93759 3.52652C6.44826 3.70148 6.00584 3.98688 5.64469 4.36054C5.28384 4.7339 5.01382 5.18535 4.85557 5.67987C4.76894 5.94416 4.72698 6.23774 4.70492 6.66223C4.6829 7.08587 4.67999 7.66082 4.67999 8.49317V27.1652C4.67999 27.4521 4.83292 27.6591 5.04218 27.7573C5.14226 27.8047 5.25376 27.8231 5.36372 27.8098L5.37616 27.8078C5.49425 27.7888 5.60348 27.7337 5.68887 27.6501C6.04648 27.3228 6.51375 27.1412 6.99866 27.1412C7.48545 27.1412 7.95515 27.3249 8.31329 27.6546L8.95493 28.2417L8.95616 28.2429C9.23923 28.5066 9.61174 28.6533 9.99866 28.6533C10.3858 28.6533 10.7585 28.5064 11.0416 28.2425C11.575 27.7514 12.2736 27.4787 12.9987 27.4787C13.7238 27.4787 14.4223 27.7514 14.9558 28.2425C15.2389 28.5065 15.6116 28.6533 15.9987 28.6533C16.3858 28.6533 16.7585 28.5064 17.0416 28.2425C17.575 27.7514 18.2736 27.4787 18.9987 27.4787C19.7237 27.4787 20.4223 27.7513 20.9557 28.2424C21.2388 28.5064 21.6115 28.6533 21.9987 28.6533C22.3855 28.6533 22.758 28.5066 23.0411 28.243L23.0424 28.2417L23.6847 27.6539C24.0429 27.3242 24.5119 27.1412 24.9987 27.1412C25.4853 27.1412 25.9542 27.3241 26.3123 27.6537C26.4174 27.7511 26.5292 27.7976 26.6362 27.8097C26.7449 27.8224 26.855 27.8044 26.954 27.7578C27.1624 27.6606 27.3187 27.4528 27.3187 27.1652V8.49317C27.3187 7.66067 27.3154 7.08577 27.2932 6.66194C27.271 6.23713 27.229 5.9438 27.1434 5.67949C26.9847 5.18445 26.714 4.73266 26.3523 4.35924C25.9906 3.98582 25.5477 3.70082 25.058 3.52638L25.0556 3.52552C24.8031 3.43791 24.5228 3.39564 24.1141 3.37331ZM5.04218 27.7573L5.04103 27.7567L5.17866 27.4678L5.04333 27.7578L5.04218 27.7573ZM4.85557 5.67987L4.85597 5.67866L5.15999 5.7785L4.85518 5.68109L4.85557 5.67987ZM27.8379 5.61853L27.788 5.4665L27.7381 5.31448L28.3829 5.10287C28.1539 4.4678 27.7917 3.88833 27.32 3.40373C26.8116 2.88143 26.1896 2.4834 25.5023 2.24055C24.7793 1.99042 23.9084 1.9865 22.5333 1.9865H9.46532C8.08968 1.9865 7.21916 1.98914 6.49509 2.24052C5.80776 2.48328 5.18568 2.88129 4.67721 3.40362C4.16856 3.92614 3.787 4.55996 3.56284 5.25386C3.32221 5.99055 3.31866 6.87808 3.31866 8.30251V27.1652C3.31866 28.8684 5.30861 29.8374 6.59899 28.6605C6.70691 28.5584 6.84993 28.5014 6.99866 28.5014C7.14745 28.5014 7.29053 28.5584 7.39847 28.6607L8.04013 29.2479C9.15481 30.2689 10.8411 30.2692 11.9562 29.2488C12.2392 28.9851 12.6117 28.8384 12.9987 28.8384C13.3856 28.8384 13.7581 28.9851 14.0411 29.2488C15.1558 30.2689 16.8415 30.2689 17.9562 29.2488C18.2392 28.9851 18.6117 28.8384 18.9987 28.8384C19.3856 28.8384 19.7581 28.9851 20.0411 29.2488C21.1562 30.2692 22.8429 30.2685 23.9575 29.2475L24.6007 28.6602C24.7085 28.5586 24.8511 28.502 24.9993 28.502C25.1476 28.502 25.2902 28.5587 25.3981 28.6603C26.6881 29.8386 28.6787 28.869 28.6787 27.1652V8.30117C28.6787 6.97484 28.6767 6.11436 28.4809 5.40749L27.8379 5.61853ZM13.5192 14.1857C13.3916 14.3132 13.32 14.4862 13.32 14.6665C13.32 14.8469 13.3916 15.0198 13.5192 15.1473C13.6467 15.2749 13.8196 15.3465 14 15.3465H22.6667C22.847 15.3465 23.02 15.2749 23.1475 15.1473C23.275 15.0198 23.3467 14.8469 23.3467 14.6665C23.3467 14.4862 23.275 14.3132 23.1475 14.1857C23.02 14.0581 22.847 13.9865 22.6667 13.9865H14C13.8196 13.9865 13.6467 14.0581 13.5192 14.1857ZM13.32 19.3332C13.32 19.1528 13.3916 18.9799 13.5192 18.8523C13.6467 18.7248 13.8196 18.6532 14 18.6532H22.6667C22.847 18.6532 23.02 18.7248 23.1475 18.8523C23.275 18.9799 23.3467 19.1528 23.3467 19.3332C23.3467 19.5135 23.275 19.6865 23.1475 19.814C23.02 19.9415 22.847 20.0132 22.6667 20.0132H14C13.8196 20.0132 13.6467 19.9415 13.5192 19.814C13.3916 19.6865 13.32 19.5135 13.32 19.3332ZM13.5192 9.51901C13.3916 9.64653 13.32 9.81949 13.32 9.99984C13.32 10.1802 13.3916 10.3531 13.5192 10.4807C13.6467 10.6082 13.8196 10.6798 14 10.6798H22.6667C22.847 10.6798 23.02 10.6082 23.1475 10.4807C23.275 10.3531 23.3467 10.1802 23.3467 9.99984C23.3467 9.81949 23.275 9.64653 23.1475 9.51901C23.02 9.39148 22.847 9.31984 22.6667 9.31984H14C13.8196 9.31984 13.6467 9.39148 13.5192 9.51901ZM8.65332 9.99984C8.65332 9.81949 8.72497 9.64653 8.85249 9.51901C8.98002 9.39148 9.15298 9.31984 9.33332 9.31984H9.99999C10.1803 9.31984 10.3533 9.39148 10.4808 9.51901C10.6083 9.64653 10.68 9.81949 10.68 9.99984C10.68 10.1802 10.6083 10.3531 10.4808 10.4807C10.3533 10.6082 10.1803 10.6798 9.99999 10.6798H9.33332C9.15298 10.6798 8.98002 10.6082 8.85249 10.4807C8.72497 10.3531 8.65332 10.1802 8.65332 9.99984ZM8.85249 14.1857C8.72497 14.3132 8.65332 14.4862 8.65332 14.6665C8.65332 14.8469 8.72497 15.0198 8.85249 15.1473C8.98002 15.2749 9.15298 15.3465 9.33332 15.3465H9.99999C10.1803 15.3465 10.3533 15.2749 10.4808 15.1473C10.6083 15.0198 10.68 14.8469 10.68 14.6665C10.68 14.4862 10.6083 14.3132 10.4808 14.1857C10.3533 14.0581 10.1803 13.9865 9.99999 13.9865H9.33332C9.15298 13.9865 8.98002 14.0581 8.85249 14.1857ZM8.65332 19.3332C8.65332 19.1528 8.72497 18.9799 8.85249 18.8523C8.98002 18.7248 9.15298 18.6532 9.33332 18.6532H9.99999C10.1803 18.6532 10.3533 18.7248 10.4808 18.8523C10.6083 18.9799 10.68 19.1528 10.68 19.3332C10.68 19.5135 10.6083 19.6865 10.4808 19.814C10.3533 19.9415 10.1803 20.0132 9.99999 20.0132H9.33332C9.15298 20.0132 8.98002 19.9415 8.85249 19.814C8.72497 19.6865 8.65332 19.5135 8.65332 19.3332Z" fill="#0070FF"/>
</svg>
