<svg width="48" height="48" viewBox="0 0 48 48" fill="none" xmlns="http://www.w3.org/2000/svg">
<path fill-rule="evenodd" clip-rule="evenodd" d="M24 5.5C19.0935 5.5 14.388 7.4491 10.9185 10.9185C7.44912 14.3879 5.50002 19.0935 5.50002 24C5.50002 26.962 6.19602 29.758 7.43002 32.236C7.92602 33.232 8.11602 34.42 7.80402 35.59L6.61202 40.04C6.56197 40.2264 6.56186 40.4228 6.61171 40.6093C6.66156 40.7957 6.75961 40.9658 6.89601 41.1024C7.03241 41.239 7.20235 41.3373 7.38876 41.3875C7.57518 41.4376 7.7715 41.4378 7.95802 41.388L12.412 40.196C13.5376 39.9079 14.7296 40.0409 15.764 40.57C18.3224 41.8437 21.1421 42.5044 24 42.5C28.9065 42.5 33.6121 40.5509 37.0815 37.0815C40.5509 33.6121 42.5 28.9065 42.5 24C42.5 19.0935 40.5509 14.3879 37.0815 10.9185C33.6121 7.4491 28.9065 5.5 24 5.5ZM2.50002 24C2.50002 12.126 12.126 2.5 24 2.5C35.874 2.5 45.5 12.126 45.5 24C45.5 35.874 35.874 45.5 24 45.5C20.564 45.5 17.312 44.692 14.426 43.256C14.0459 43.0536 13.605 42.9967 13.186 43.096L8.73402 44.286C5.68602 45.102 2.89802 42.314 3.71402 39.266L4.90602 34.814C5.0053 34.395 4.94842 33.9541 4.74602 33.574C3.26493 30.6001 2.49599 27.3223 2.50002 24ZM24 14.5C24.3978 14.5 24.7794 14.658 25.0607 14.9393C25.342 15.2206 25.5 15.6022 25.5 16V32C25.5 32.3978 25.342 32.7794 25.0607 33.0607C24.7794 33.342 24.3978 33.5 24 33.5C23.6022 33.5 23.2207 33.342 22.9394 33.0607C22.6581 32.7794 22.5 32.3978 22.5 32V16C22.5 15.6022 22.6581 15.2206 22.9394 14.9393C23.2207 14.658 23.6022 14.5 24 14.5ZM16 18.5C16.3978 18.5 16.7794 18.658 17.0607 18.9393C17.342 19.2206 17.5 19.6022 17.5 20V28C17.5 28.3978 17.342 28.7794 17.0607 29.0607C16.7794 29.342 16.3978 29.5 16 29.5C15.6022 29.5 15.2207 29.342 14.9394 29.0607C14.6581 28.7794 14.5 28.3978 14.5 28V20C14.5 19.6022 14.6581 19.2206 14.9394 18.9393C15.2207 18.658 15.6022 18.5 16 18.5ZM32 18.5C32.3978 18.5 32.7794 18.658 33.0607 18.9393C33.342 19.2206 33.5 19.6022 33.5 20V28C33.5 28.3978 33.342 28.7794 33.0607 29.0607C32.7794 29.342 32.3978 29.5 32 29.5C31.6022 29.5 31.2207 29.342 30.9394 29.0607C30.6581 28.7794 30.5 28.3978 30.5 28V20C30.5 19.6022 30.6581 19.2206 30.9394 18.9393C31.2207 18.658 31.6022 18.5 32 18.5Z" fill="#0070FF" stroke="white"/>
</svg>
