<svg width="48" height="48" viewBox="0 0 48 48" fill="none" xmlns="http://www.w3.org/2000/svg">
<path fill-rule="evenodd" clip-rule="evenodd" d="M34 27.5C34.3978 27.5 34.7794 27.342 35.0607 27.0607C35.342 26.7794 35.5 26.3978 35.5 26C35.5 25.6022 35.342 25.2206 35.0607 24.9393C34.7794 24.658 34.3978 24.5 34 24.5C33.6022 24.5 33.2206 24.658 32.9393 24.9393C32.658 25.2206 32.5 25.6022 32.5 26C32.5 26.3978 32.658 26.7794 32.9393 27.0607C33.2206 27.342 33.6022 27.5 34 27.5ZM34 35.5C34.3978 35.5 34.7794 35.342 35.0607 35.0607C35.342 34.7794 35.5 34.3978 35.5 34C35.5 33.6022 35.342 33.2206 35.0607 32.9393C34.7794 32.658 34.3978 32.5 34 32.5C33.6022 32.5 33.2206 32.658 32.9393 32.9393C32.658 33.2206 32.5 33.6022 32.5 34C32.5 34.3978 32.658 34.7794 32.9393 35.0607C33.2206 35.342 33.6022 35.5 34 35.5ZM25.0607 27.0607C25.342 26.7794 25.5 26.3978 25.5 26C25.5 25.6022 25.342 25.2206 25.0607 24.9393C24.7794 24.658 24.3978 24.5 24 24.5C23.6022 24.5 23.2206 24.658 22.9393 24.9393C22.658 25.2206 22.5 25.6022 22.5 26C22.5 26.3978 22.658 26.7794 22.9393 27.0607C23.2206 27.342 23.6022 27.5 24 27.5C24.3978 27.5 24.7794 27.342 25.0607 27.0607ZM25.0607 35.0607C25.342 34.7794 25.5 34.3978 25.5 34C25.5 33.6022 25.342 33.2206 25.0607 32.9393C24.7794 32.658 24.3978 32.5 24 32.5C23.6022 32.5 23.2206 32.658 22.9393 32.9393C22.658 33.2206 22.5 33.6022 22.5 34C22.5 34.3978 22.658 34.7794 22.9393 35.0607C23.2206 35.342 23.6022 35.5 24 35.5C24.3978 35.5 24.7794 35.342 25.0607 35.0607ZM14 27.5C14.3978 27.5 14.7794 27.342 15.0607 27.0607C15.342 26.7794 15.5 26.3978 15.5 26C15.5 25.6022 15.342 25.2206 15.0607 24.9393C14.7794 24.658 14.3978 24.5 14 24.5C13.6022 24.5 13.2206 24.658 12.9393 24.9393C12.658 25.2206 12.5 25.6022 12.5 26C12.5 26.3978 12.658 26.7794 12.9393 27.0607C13.2206 27.342 13.6022 27.5 14 27.5ZM14 35.5C14.3978 35.5 14.7794 35.342 15.0607 35.0607C15.342 34.7794 15.5 34.3978 15.5 34C15.5 33.6022 15.342 33.2206 15.0607 32.9393C14.7794 32.658 14.3978 32.5 14 32.5C13.6022 32.5 13.2206 32.658 12.9393 32.9393C12.658 33.2206 12.5 33.6022 12.5 34C12.5 34.3978 12.658 34.7794 12.9393 35.0607C13.2206 35.342 13.6022 35.5 14 35.5Z" fill="#0070FF"/>
<path d="M34.0001 3.75C34.3316 3.75001 34.6494 3.8818 34.8839 4.11621C35.1183 4.35063 35.2501 4.66849 35.2501 5V6.88574L35.4805 6.90332C35.9965 6.94301 36.4839 6.99246 36.9444 7.05371C39.2608 7.36599 41.0973 8.01716 42.5411 9.45898C43.9829 10.9028 44.6341 12.7393 44.9464 15.0557C45.2495 17.3151 45.2501 20.2054 45.2501 23.8877V28.1123C45.2501 31.7946 45.2495 34.6869 44.9464 36.9443C44.6341 39.2607 43.9829 41.0972 42.5411 42.541C41.0973 43.9828 39.2608 44.634 36.9444 44.9463C34.6849 45.2495 31.7946 45.25 28.1124 45.25H19.8897C16.2074 45.25 13.3151 45.2495 11.0577 44.9463C8.74133 44.634 6.9048 43.9828 5.461 42.541C4.01919 41.0972 3.368 39.2607 3.05573 36.9443C2.75253 34.6849 2.75201 31.7946 2.75201 28.1123V23.8877C2.75201 20.2054 2.75253 17.3131 3.05573 15.0557C3.368 12.7393 4.01919 10.9028 5.461 9.45898C6.9048 8.01718 8.74133 7.36598 11.0577 7.05371L11.0567 7.05273C11.5173 6.99145 12.0072 6.94304 12.5215 6.90332L12.752 6.88574V5L12.7579 4.87695C12.7861 4.59107 12.9126 4.32231 13.1172 4.11719C13.3221 3.91208 13.5911 3.78458 13.877 3.75586L14.0001 3.75C14.3316 3.75001 14.6494 3.8818 14.8839 4.11621C15.1183 4.35063 15.2501 4.66849 15.2501 5V6.78125L15.5049 6.77637C16.8259 6.75043 18.2812 6.75 19.8858 6.75H28.1124C29.7189 6.75 31.1742 6.75043 32.4952 6.77637L32.7501 6.78125V5C32.7501 4.66848 32.8819 4.35063 33.1163 4.11621C33.3507 3.88181 33.6686 3.75 34.0001 3.75ZM5.27643 19.4951C5.25037 20.8041 5.25006 22.2928 5.25006 24V28C5.25006 31.8069 5.25353 34.5368 5.53229 36.6113C5.80604 38.6512 6.32748 39.8723 7.2276 40.7725C8.07139 41.6162 9.19729 42.127 11.0137 42.4131L11.3868 42.4678C13.4653 42.7465 16.1931 42.75 20.0001 42.75H28.0001C31.8069 42.75 34.5369 42.7465 36.6114 42.4678C38.6512 42.194 39.8724 41.6726 40.7725 40.7725C41.6163 39.9287 42.127 38.8028 42.4131 36.9863L42.4678 36.6133C42.7466 34.5368 42.7501 31.8069 42.7501 28V24C42.7501 22.2928 42.7498 20.8041 42.7237 19.4951L42.7188 19.25H5.28131L5.27643 19.4951ZM20.0001 9.25C16.431 9.25 13.8105 9.25334 11.7842 9.4834L11.3868 9.53223C9.34887 9.80598 8.1277 10.3274 7.2276 11.2275C6.38376 12.0714 5.87309 13.1974 5.58698 15.0156L5.53229 15.3887C5.48564 15.7335 5.44736 16.0976 5.4151 16.4785L5.39166 16.75H42.6075L42.585 16.4795C42.5527 16.0961 42.5145 15.7335 42.4678 15.3867C42.1941 13.3488 41.6726 12.1276 40.7725 11.2275C39.9287 10.3837 38.8026 9.87303 36.9844 9.58691L36.6114 9.53223C34.5369 9.25347 31.8069 9.25 28.0001 9.25H20.0001Z" fill="#0070FF" stroke="white" stroke-width="0.5"/>
</svg>
