<svg width="48" height="48" viewBox="0 0 48 48" fill="none" xmlns="http://www.w3.org/2000/svg">
<g clip-path="url(#clip0_1_784)">
<path d="M24 39.4288V46.286M32.5714 36.0003V42.8574M15.4286 36.0003V42.8574M27.648 11.6197C27.4514 11.0621 27.0865 10.5793 26.6038 10.2378C26.1212 9.89636 25.5444 9.71313 24.9531 9.71342H22.7417C22.1145 9.71565 21.5102 9.94885 21.044 10.3685C20.5779 10.7881 20.2827 11.3648 20.2149 11.9882C20.147 12.6117 20.3112 13.2384 20.6762 13.7485C21.0411 14.2585 21.5811 14.6163 22.1931 14.7534L25.5634 15.494C26.2497 15.647 26.8555 16.0475 27.2651 16.619C27.6748 17.1905 27.8595 17.8929 27.784 18.5919C27.7085 19.291 27.378 19.9377 26.8558 20.4086C26.3336 20.8794 25.6562 21.1413 24.9531 21.1443H23.0468C22.4557 21.1441 21.8792 20.9606 21.3966 20.6193C20.914 20.2779 20.549 19.7953 20.352 19.238M24 9.71342V6.85742M24 24.0003V21.1443M9.42855 16.286C9.20123 16.286 8.98321 16.1957 8.82246 16.0349C8.66172 15.8742 8.57141 15.6562 8.57141 15.4288C8.57141 15.2015 8.66172 14.9835 8.82246 14.8228C8.98321 14.662 9.20123 14.5717 9.42855 14.5717C9.65588 14.5717 9.8739 14.662 10.0346 14.8228C10.1954 14.9835 10.2857 15.2015 10.2857 15.4288C10.2857 15.6562 10.1954 15.8742 10.0346 16.0349C9.8739 16.1957 9.65588 16.286 9.42855 16.286ZM38.5714 16.286C38.3441 16.286 38.1261 16.1957 37.9653 16.0349C37.8046 15.8742 37.7143 15.6562 37.7143 15.4288C37.7143 15.2015 37.8046 14.9835 37.9653 14.8228C38.1261 14.662 38.3441 14.5717 38.5714 14.5717C38.7987 14.5717 39.0168 14.662 39.1775 14.8228C39.3382 14.9835 39.4286 15.2015 39.4286 15.4288C39.4286 15.6562 39.3382 15.8742 39.1775 16.0349C39.0168 16.1957 38.7987 16.286 38.5714 16.286Z" stroke="#0070FF" stroke-width="2" stroke-linecap="round" stroke-linejoin="round"/>
<path d="M42.8572 1.71436H5.14287C4.23355 1.71436 3.36148 2.07558 2.7185 2.71856C2.07552 3.36154 1.71429 4.23361 1.71429 5.14293V25.7144C1.71429 26.6237 2.07552 27.4957 2.7185 28.1387C3.36148 28.7817 4.23355 29.1429 5.14287 29.1429H42.8572C43.7665 29.1429 44.6385 28.7817 45.2815 28.1387C45.9245 27.4957 46.2857 26.6237 46.2857 25.7144V5.14293C46.2857 4.23361 45.9245 3.36154 45.2815 2.71856C44.6385 2.07558 43.7665 1.71436 42.8572 1.71436Z" stroke="#0070FF" stroke-width="2" stroke-linecap="round" stroke-linejoin="round"/>
</g>
<defs>
<clipPath id="clip0_1_784">
<rect width="48" height="48" fill="white"/>
</clipPath>
</defs>
</svg>
