<svg width="51" height="48" viewBox="0 0 51 48" fill="none" xmlns="http://www.w3.org/2000/svg">
<path d="M38.5668 45.4865C36.2852 42.7126 33.4176 40.4785 30.1699 38.9446C26.9222 37.4107 23.3751 36.6152 19.7834 36.6152C16.1917 36.6152 12.6446 37.4107 9.39692 38.9446C6.14924 40.4785 3.28159 42.7126 1 45.4865" stroke="#0070FF" stroke-width="2" stroke-linecap="round" stroke-linejoin="round"/>
<path d="M23.0627 36.8483C23.3285 26.8364 26.3852 17.7105 33.0303 14.4323M19.7844 6.01518C22.6561 5.44972 25.6353 6.00747 28.108 7.57349C30.5806 9.1395 32.3583 11.5944 33.0746 14.4323" stroke="#0070FF" stroke-width="2" stroke-linecap="round" stroke-linejoin="round"/>
<path d="M49.2453 16.0709C47.2064 13.8693 44.4338 12.4878 41.4482 12.186C38.4627 11.8842 35.4697 12.6828 33.0314 14.4318" stroke="#0070FF" stroke-width="2" stroke-linecap="round" stroke-linejoin="round"/>
<path d="M16.7734 19.1719C18.5094 16.6145 21.0824 14.7421 24.0498 13.8769C27.0172 13.0118 30.1934 13.208 33.0317 14.4318C35.8787 15.1281 38.3437 16.9036 39.906 19.3835C41.4683 21.8633 42.0056 24.8533 41.4045 27.7219" stroke="#0070FF" stroke-width="2" stroke-linecap="round" stroke-linejoin="round"/>
</svg>
