<svg width="32" height="32" viewBox="0 0 32 32" fill="none" xmlns="http://www.w3.org/2000/svg">
<path fill-rule="evenodd" clip-rule="evenodd" d="M12.374 2.7486C12.1371 2.9629 11.8883 3.16351 11.6285 3.34945C11.1798 3.65062 10.6753 3.85844 10.1452 3.96385C9.91481 4.00902 9.67386 4.0286 9.19347 4.06625C7.98723 4.16262 7.38335 4.21081 6.88038 4.38851C6.30526 4.59156 5.78291 4.92079 5.35164 5.35205C4.92037 5.7833 4.59113 6.30564 4.38808 6.88074C4.21038 7.38371 4.16219 7.98757 4.06581 9.19378C4.04939 9.51267 4.0152 9.83041 3.96341 10.1455C3.858 10.6756 3.65018 11.18 3.349 11.6288C3.21798 11.8246 3.06136 12.0083 2.74813 12.3742C1.96355 13.2958 1.5705 13.7566 1.3401 14.2385C0.808509 15.3528 0.808509 16.6479 1.3401 17.7622C1.5705 18.2441 1.96355 18.7049 2.74813 19.6265C3.06136 19.9925 3.21798 20.1762 3.349 20.3719C3.65018 20.8207 3.858 21.3252 3.96341 21.8552C4.00859 22.0856 4.02817 22.3266 4.06581 22.807C4.16219 24.0132 4.21038 24.617 4.38808 25.12C4.59113 25.6951 4.92037 26.2174 5.35164 26.6487C5.78291 27.0799 6.30526 27.4092 6.88038 27.6122C7.38335 27.7899 7.98723 27.8381 9.19347 27.9345C9.67386 27.9721 9.91481 27.9917 10.1452 28.0369C10.6753 28.1423 11.1798 28.3516 11.6285 28.6513C11.8243 28.7823 12.008 28.9389 12.374 29.2521C13.2956 30.0367 13.7564 30.4297 14.2383 30.6601C15.3527 31.1917 16.6478 31.1917 17.7622 30.6601C18.2441 30.4297 18.7049 30.0367 19.6265 29.2521C19.9924 28.9389 20.1761 28.7823 20.3719 28.6513C20.8207 28.3501 21.3252 28.1423 21.8552 28.0369C22.0857 27.9917 22.3266 27.9721 22.807 27.9345C24.0132 27.8381 24.6171 27.7899 25.1201 27.6122C25.6952 27.4092 26.2175 27.0799 26.6488 26.6487C27.0801 26.2174 27.4093 25.6951 27.6124 25.12C27.7901 24.617 27.8383 24.0132 27.9346 22.807C27.9723 22.3266 27.9919 22.0856 28.037 21.8552C28.1425 21.3252 28.3518 20.8207 28.6515 20.3719C28.7825 20.1762 28.9391 19.9925 29.2523 19.6265C30.0369 18.7049 30.43 18.2441 30.6604 17.7622C31.1919 16.6479 31.1919 15.3528 30.6604 14.2385C30.43 13.7566 30.0369 13.2958 29.2523 12.3742C29.038 12.1374 28.8374 11.8885 28.6515 11.6288C28.3506 11.1799 28.1417 10.6757 28.037 10.1455C27.9853 9.8304 27.9511 9.51267 27.9346 9.19378C27.8383 7.98757 27.7901 7.38371 27.6124 6.88074C27.4093 6.30564 27.0801 5.7833 26.6488 5.35205C26.2175 4.92079 25.6952 4.59156 25.1201 4.38851C24.6171 4.21081 24.0132 4.16262 22.807 4.06625C22.4881 4.04982 22.1703 4.01564 21.8552 3.96385C21.325 3.85917 20.8209 3.65034 20.3719 3.34945C20.1125 3.16312 19.8636 2.96252 19.6265 2.7486C18.7049 1.96404 18.2441 1.571 17.7622 1.3406C17.212 1.07764 16.61 0.941162 16.0002 0.941162C15.3905 0.941162 14.7884 1.07764 14.2383 1.3406C13.7564 1.571 13.2956 1.96404 12.374 2.7486Z" fill="#F4F4F5"/>
<path d="M20.8449 15.6478C20.9998 16.036 21.0804 16.4496 21.0834 16.8673C21.0836 17.2887 21.0006 17.706 20.8394 18.0954C20.6782 18.4848 20.4418 18.8386 20.1438 19.1366C19.8458 19.4346 19.492 19.671 19.1026 19.8322C18.7133 19.9934 18.2959 20.0763 17.8745 20.0762C17.3978 20.074 16.9277 19.9642 16.4993 19.755C16.0709 19.9642 15.6008 20.074 15.1241 20.0762C14.7026 20.0763 14.2853 19.9934 13.8959 19.8322C13.5065 19.671 13.1527 19.4346 12.8547 19.1366C12.5567 18.8386 12.3204 18.4848 12.1591 18.0954C11.9979 17.706 11.915 17.2887 11.9151 16.8673C11.9182 16.4492 11.9987 16.036 12.1536 15.6483C11.7354 15.3016 11.4125 14.8539 11.2157 14.3476C11.0189 13.8412 10.9547 13.293 11.0291 12.7549C11.1035 12.2167 11.314 11.7065 11.6408 11.2725C11.9676 10.8386 12.3998 10.4952 12.8965 10.2751C13.0554 9.4358 13.5023 8.67833 14.1601 8.13341C14.8179 7.58848 15.6453 7.29028 16.4995 7.29028C17.3537 7.29028 18.1811 7.58848 18.8389 8.13341C19.4967 8.67833 19.9436 9.4358 20.1025 10.2751C20.5991 10.4953 21.0313 10.8387 21.358 11.2726C21.6848 11.7066 21.8953 12.2169 21.9697 12.755C22.044 13.2931 21.9797 13.8413 21.7829 14.3476C21.5861 14.854 21.2632 15.3012 20.8449 15.6478Z" stroke="#18181B" stroke-width="0.75" stroke-linecap="round" stroke-linejoin="round"/>
<path d="M14.666 23.7431H18.3335M16.4998 23.7431V14.5752" stroke="#18181B" stroke-width="0.75" stroke-linecap="round" stroke-linejoin="round"/>
</svg>
