<svg width="32" height="32" viewBox="0 0 32 32" fill="none" xmlns="http://www.w3.org/2000/svg">
<path d="M22 23.9961C21.6318 23.9961 21.3333 23.6976 21.3333 23.3294V21.3281C21.3333 18.3853 18.9413 15.9922 16 15.9922C13.0587 15.9922 10.6667 18.3853 10.6667 21.3281V23.3294C10.6667 23.6976 10.3682 23.9961 10 23.9961C9.63181 23.9961 9.33333 23.6976 9.33333 23.3294V21.3281C9.33333 17.6503 12.324 14.6582 16 14.6582C19.676 14.6582 22.6667 17.6503 22.6667 21.3281V23.3294C22.6667 23.6976 22.3682 23.9961 22 23.9961ZM17.212 0.407199C16.4987 -0.135733 15.5027 -0.135733 14.7893 0.407199L0.394089 11.3712C0.145763 11.5604 0 11.8546 0 12.1668V23.3294C0 23.6976 0.298477 23.9961 0.666667 23.9961C1.03486 23.9961 1.33333 23.6976 1.33333 23.3294V12.8271C1.33333 12.5149 1.4791 12.2207 1.72744 12.0315L15.596 1.46905C15.8347 1.28763 16.1667 1.28763 16.404 1.46905L30.2726 12.0329C30.5209 12.222 30.6667 12.5163 30.6667 12.8284V23.3307C30.6667 23.6989 30.9651 23.9974 31.3333 23.9974C31.7015 23.9974 32 23.6989 32 23.3307V12.1667C32 11.8546 31.8543 11.5604 31.6059 11.3712L17.212 0.407199ZM30 30.666C28.0207 30.666 26.3721 29.2196 26.055 27.3279C25.9942 26.9648 25.7015 26.6641 25.3333 26.6641C24.9651 26.6641 24.6725 26.9648 24.6116 27.3279C24.2946 29.2196 22.646 30.666 20.6667 30.666C18.6873 30.666 17.0388 29.2196 16.7217 27.3279C16.6608 26.9648 16.3682 26.6641 16 26.6641C15.6318 26.6641 15.3392 26.9648 15.2783 27.3279C14.9612 29.2196 13.3127 30.666 11.3333 30.666C9.35398 30.666 7.70545 29.2196 7.38838 27.3279C7.32751 26.9648 7.03486 26.6641 6.66667 26.6641C6.29848 26.6641 6.00582 26.9648 5.94496 27.3279C5.62788 29.2196 3.97935 30.666 2 30.666C1.71779 30.666 1.4397 30.6372 1.16801 30.5798C0.807187 30.5036 0.419336 30.6653 0.2837 31.0083C0.148299 31.3506 0.315128 31.7425 0.671732 31.834C1.10305 31.9447 1.54766 32 2 32C3.35992 32 4.60272 31.4877 5.54586 30.6463C6.13166 30.1236 7.20137 30.1238 7.78712 30.6465C8.73029 31.4882 9.97324 32 11.3333 32C12.6933 32 13.9361 31.4877 14.8792 30.6463C15.465 30.1236 16.5347 30.1238 17.1205 30.6465C18.0636 31.4882 19.3066 32 20.6667 32C22.0266 32 23.2694 31.4877 24.2125 30.6463C24.7983 30.1236 25.868 30.1238 26.4538 30.6465C27.397 31.4882 28.6399 32 30 32C30.4566 32 30.9054 31.9431 31.3408 31.8301C31.697 31.7376 31.8631 31.3455 31.727 31.0036C31.5906 30.6611 31.2025 30.5003 30.842 30.5775C30.5669 30.6364 30.2853 30.666 30 30.666Z" fill="#18181B"/>
</svg>
