<svg width="32" height="32" viewBox="0 0 32 32" fill="none" xmlns="http://www.w3.org/2000/svg">
<path fill-rule="evenodd" clip-rule="evenodd" d="M12.374 2.7486C12.1371 2.9629 11.8883 3.16351 11.6285 3.34945C11.1798 3.65062 10.6753 3.85844 10.1452 3.96385C9.91481 4.00902 9.67386 4.0286 9.19347 4.06625C7.98723 4.16262 7.38335 4.21081 6.88038 4.38851C6.30526 4.59156 5.78291 4.92079 5.35164 5.35205C4.92037 5.7833 4.59113 6.30564 4.38808 6.88074C4.21038 7.38371 4.16219 7.98757 4.06581 9.19378C4.04939 9.51267 4.0152 9.83041 3.96341 10.1455C3.858 10.6756 3.65018 11.18 3.349 11.6288C3.21798 11.8246 3.06136 12.0083 2.74813 12.3742C1.96355 13.2958 1.5705 13.7566 1.3401 14.2385C0.808509 15.3528 0.808509 16.6479 1.3401 17.7622C1.5705 18.2441 1.96355 18.7049 2.74813 19.6265C3.06136 19.9925 3.21798 20.1762 3.349 20.3719C3.65018 20.8207 3.858 21.3252 3.96341 21.8552C4.00859 22.0856 4.02817 22.3266 4.06581 22.807C4.16219 24.0132 4.21038 24.617 4.38808 25.12C4.59113 25.6951 4.92037 26.2174 5.35164 26.6487C5.78291 27.0799 6.30526 27.4092 6.88038 27.6122C7.38335 27.7899 7.98723 27.8381 9.19347 27.9345C9.67386 27.9721 9.91481 27.9917 10.1452 28.0369C10.6753 28.1423 11.1798 28.3516 11.6285 28.6513C11.8243 28.7823 12.008 28.9389 12.374 29.2521C13.2956 30.0367 13.7564 30.4297 14.2383 30.6601C15.3527 31.1917 16.6478 31.1917 17.7622 30.6601C18.2441 30.4297 18.7049 30.0367 19.6265 29.2521C19.9924 28.9389 20.1761 28.7823 20.3719 28.6513C20.8207 28.3501 21.3252 28.1423 21.8552 28.0369C22.0857 27.9917 22.3266 27.9721 22.807 27.9345C24.0132 27.8381 24.6171 27.7899 25.1201 27.6122C25.6952 27.4092 26.2175 27.0799 26.6488 26.6487C27.0801 26.2174 27.4093 25.6951 27.6124 25.12C27.7901 24.617 27.8383 24.0132 27.9346 22.807C27.9723 22.3266 27.9919 22.0856 28.037 21.8552C28.1425 21.3252 28.3518 20.8207 28.6515 20.3719C28.7825 20.1762 28.9391 19.9925 29.2523 19.6265C30.0369 18.7049 30.43 18.2441 30.6604 17.7622C31.1919 16.6479 31.1919 15.3528 30.6604 14.2385C30.43 13.7566 30.0369 13.2958 29.2523 12.3742C29.038 12.1374 28.8374 11.8885 28.6515 11.6288C28.3506 11.1799 28.1417 10.6757 28.037 10.1455C27.9853 9.8304 27.9511 9.51267 27.9346 9.19378C27.8383 7.98757 27.7901 7.38371 27.6124 6.88074C27.4093 6.30564 27.0801 5.7833 26.6488 5.35205C26.2175 4.92079 25.6952 4.59156 25.1201 4.38851C24.6171 4.21081 24.0132 4.16262 22.807 4.06625C22.4881 4.04982 22.1703 4.01564 21.8552 3.96385C21.325 3.85917 20.8209 3.65034 20.3719 3.34945C20.1125 3.16312 19.8636 2.96252 19.6265 2.7486C18.7049 1.96404 18.2441 1.571 17.7622 1.3406C17.212 1.07764 16.61 0.941162 16.0002 0.941162C15.3905 0.941162 14.7884 1.07764 14.2383 1.3406C13.7564 1.571 13.2956 1.96404 12.374 2.7486Z" fill="#F4F4F5"/>
<path d="M18.8236 19.7703C18.6504 19.7703 18.5099 19.6298 18.5099 19.4566V18.5148C18.5099 17.1299 17.3843 16.0038 16.0001 16.0038C14.616 16.0038 13.4903 17.1299 13.4903 18.5148V19.4566C13.4903 19.6298 13.3499 19.7703 13.1766 19.7703C13.0033 19.7703 12.8629 19.6298 12.8629 19.4566V18.5148C12.8629 16.7841 14.2702 15.376 16.0001 15.376C17.73 15.376 19.1374 16.7841 19.1374 18.5148V19.4566C19.1374 19.6298 18.9969 19.7703 18.8236 19.7703ZM16.5705 8.66965C16.2348 8.41415 15.7661 8.41415 15.4304 8.66965L8.86479 13.6703C8.61647 13.8594 8.4707 14.1537 8.4707 14.4658V19.4566C8.4707 19.6298 8.61116 19.7703 8.78443 19.7703C8.95769 19.7703 9.09815 19.6298 9.09815 19.4566V14.7766C9.09815 14.4644 9.24392 14.1702 9.49226 13.981L15.81 9.16935C15.9223 9.08397 16.0785 9.08397 16.1902 9.16935L22.508 13.9817C22.7563 14.1708 22.9021 14.465 22.9021 14.7772V19.4572C22.9021 19.6305 23.0425 19.7709 23.2158 19.7709C23.3891 19.7709 23.5295 19.6305 23.5295 19.4572V14.4658C23.5295 14.1537 23.3838 13.8594 23.1355 13.6703L16.5705 8.66965ZM22.5884 22.9091C21.6569 22.9091 20.8811 22.2284 20.7319 21.3382C20.7033 21.1673 20.5655 21.0258 20.3923 21.0258C20.219 21.0258 20.0813 21.1673 20.0526 21.3382C19.9034 22.2284 19.1277 22.9091 18.1962 22.9091C17.2647 22.9091 16.489 22.2284 16.3397 21.3382C16.3111 21.1673 16.1734 21.0258 16.0001 21.0258C15.8268 21.0258 15.6891 21.1673 15.6605 21.3382C15.5113 22.2284 14.7355 22.9091 13.804 22.9091C12.8726 22.9091 12.0968 22.2284 11.9476 21.3382C11.9189 21.1673 11.7812 21.0258 11.608 21.0258C11.4347 21.0258 11.297 21.1673 11.2683 21.3382C11.1191 22.2284 10.3433 22.9091 9.41188 22.9091C9.27908 22.9091 9.14821 22.8955 9.02036 22.8685C8.85056 22.8326 8.66804 22.9088 8.60421 23.0702C8.54049 23.2313 8.619 23.4157 8.78681 23.4587C8.98979 23.5108 9.19901 23.5369 9.41188 23.5369C9.71182 23.5369 9.99966 23.4839 10.2665 23.3869C11.0044 23.1186 12.2114 23.1188 12.9492 23.3869C13.2162 23.4839 13.504 23.5369 13.804 23.5369C14.104 23.5369 14.3918 23.4839 14.6587 23.3869C15.3965 23.1186 16.6035 23.1188 17.3414 23.3869C17.6083 23.4839 17.8962 23.5369 18.1962 23.5369C18.4961 23.5369 18.784 23.4839 19.0509 23.3869C19.7887 23.1186 20.9957 23.1188 21.7335 23.3869C22.0005 23.4839 22.2884 23.5369 22.5884 23.5369C22.8032 23.5369 23.0144 23.5101 23.2193 23.4569C23.387 23.4134 23.4651 23.2289 23.401 23.068C23.3369 22.9068 23.1542 22.8311 22.9846 22.8675C22.8551 22.8952 22.7226 22.9091 22.5884 22.9091Z" fill="#18181B"/>
</svg>
