<svg width="173" height="34" viewBox="0 0 173 34" fill="none" xmlns="http://www.w3.org/2000/svg">
<path fill-rule="evenodd" clip-rule="evenodd" d="M29.6347 16.6651V33.3147H32.8187H36.0028V16.6651V0.0155509H32.8187H29.6347V16.6651ZM42.1127 0.143245C39.0939 0.902985 38.5883 5.48928 41.3537 7.02932C42.2494 7.52853 44.1247 7.62109 44.953 7.20758C49.1543 5.11005 46.6942 -1.00943 42.1127 0.143245ZM73.5036 16.6651V33.3147H76.6851H79.8665L79.9132 28.2845L79.9604 23.2547L82.2591 26.576C83.5233 28.4023 84.8762 30.37 85.265 30.9485C85.6538 31.527 86.021 32.0395 86.0811 32.0879C86.1412 32.1359 86.3229 32.4315 86.4851 32.7448L86.7796 33.3147H90.6665C92.8048 33.3147 94.5538 33.2723 94.5538 33.2208C94.5538 33.1694 92.5172 30.208 90.0281 26.6403C86.0556 20.9463 85.5314 20.118 85.7386 19.8609C85.8683 19.6998 86.0694 19.447 86.1849 19.2996C86.3008 19.1517 86.8994 18.4001 87.5153 17.6288C88.1307 16.8579 89.2699 15.4019 90.0463 14.3936C91.3667 12.6787 91.9143 11.9923 92.3424 11.5136C92.7888 11.0144 94.2 9.14785 94.2 9.05615C94.2 8.99959 92.5085 8.95588 90.4412 8.95802L86.6819 8.96274L85.7092 10.2851C85.1742 11.0123 84.5531 11.8183 84.3295 12.0767C84.1059 12.3351 83.7902 12.7631 83.628 13.0284C83.4658 13.2936 83.2707 13.5105 83.1946 13.5105C83.1181 13.5105 83.0558 13.6287 83.0558 13.7731C83.0558 13.918 82.9784 14.0362 82.8836 14.0362C82.7885 14.0362 82.5965 14.2531 82.4563 14.5183C82.3162 14.7831 82.0554 15.1581 81.8768 15.3509C81.6982 15.5437 81.3158 16.0168 81.0269 16.4024C79.7601 18.0925 79.8717 18.8184 79.8717 8.89932V0.0155509H76.6877H73.5036V16.6651ZM112.951 5.18547C112.951 8.02903 112.909 10.3558 112.858 10.3558C112.807 10.3558 112.458 10.1536 112.08 9.90631C109.983 8.53081 105.812 8.01189 102.889 8.76263C95.8647 10.5662 92.2862 17.1198 93.9946 25.0497C95.626 32.6222 107.45 36.6249 113.083 31.5115L113.481 31.1503V32.2323V33.3147H116.488H119.496V16.6651V0.0155509H116.223H112.951V5.18547ZM13.7144 1.25693C6.7723 2.31748 2.15536 6.48812 0.246309 13.4226C-0.0815258 14.6143 -0.0823908 20.2247 0.245444 21.6598C2.25138 30.4471 10.7033 35.5022 20.1707 33.5774C22.1377 33.1776 24.5152 32.0977 25.6877 31.0715C26.0588 30.7471 26.541 30.361 26.7599 30.2132C27.2931 29.8532 26.9839 29.0549 25.9243 28.0569C25.8732 28.0085 25.4334 27.4964 24.9468 26.9192C24.4603 26.3416 23.9451 25.7306 23.802 25.5609C23.4543 25.1491 23.2134 25.1722 22.6117 25.6736C18.9329 28.7404 12.6033 28.3059 9.46894 24.7711C6.90248 21.877 6.00332 16.8725 7.45695 13.5717C7.59059 13.2679 7.70001 12.9427 7.70001 12.8493C7.70001 12.4709 9.46851 10.0499 10.1951 9.43367C13.5011 6.62953 18.4083 6.48212 22.1818 9.07372C22.8012 9.4988 23.3206 9.8236 23.3353 9.7949C23.4158 9.64106 25.151 7.4274 25.3551 7.21829C26.8165 5.72067 27.1534 4.8508 26.4947 4.27661C23.7237 1.85984 18.2426 0.564895 13.7144 1.25693ZM59.0871 8.7292C53.6639 10.3708 50.607 13.6682 49.6988 18.8556C48.4964 25.7263 52.3314 31.8483 58.8215 33.4175C62.6504 34.3431 67.9862 33.2286 70.2823 31.0239C71.108 30.2316 71.0967 30.0825 70.1314 29.0558C69.9636 28.8775 69.3602 28.1499 68.7906 27.4395C67.6017 25.9568 67.5606 25.9431 66.4897 26.6729C60.4222 30.8088 53.5796 24.6113 56.6409 17.7531C58.2792 14.0834 63.5764 12.9954 66.6766 15.692C67.4014 16.3227 67.3028 16.3814 68.9939 14.3096C69.3827 13.8331 69.8892 13.2418 70.1201 12.995C71.1607 11.8817 71.1685 11.8024 70.3048 11.0444C67.8309 8.87318 62.349 7.74193 59.0871 8.7292ZM131.259 8.79476C124.267 10.669 120.585 18.6594 123.227 26.2259C123.528 27.0885 124.336 28.6106 124.714 29.0266C124.811 29.1338 125.126 29.5147 125.414 29.8729C128.071 33.1758 135.999 34.9207 139.838 33.0473C140.081 32.9286 140.519 32.7263 140.811 32.5982C142.809 31.7194 146.14 28.1761 145.798 27.2933C145.696 27.0302 141.631 24.5518 141.301 24.5518C141.191 24.5518 140.918 24.808 140.696 25.1212C140.202 25.8171 140.128 25.8904 139.13 26.6724C135.517 29.5044 130.084 27.8941 129.3 23.7586L129.185 23.1497H137.961H146.737V21.0903C146.737 19.0763 146.431 16.8717 146.012 15.8578C144.927 13.2345 144.313 12.3771 142.322 10.7042C140.036 8.78405 134.721 7.86662 131.259 8.79476ZM157.691 8.75748C151.184 10.5319 147.625 16.7084 148.945 23.9381C149.279 25.7687 150.015 27.8937 150.433 28.2322C150.492 28.2802 150.765 28.647 151.039 29.0468C154.321 33.8439 162.732 35.2725 168.225 31.9666C169.577 31.1529 172.209 28.0925 172.209 27.334C172.209 27.2273 169.979 25.7786 169.814 25.7786C169.773 25.7786 169.304 25.5026 168.772 25.1649C167.6 24.4228 167.417 24.4103 167.036 25.0484C166.61 25.7623 165.093 27.0821 164.249 27.4729C160.461 29.2259 155.404 26.8177 155.404 23.2607C155.404 23.1994 159.357 23.1497 164.187 23.1497H172.969L172.873 20.214C172.821 18.5994 172.698 17.0812 172.6 16.8404C172.503 16.5991 172.319 16.0472 172.192 15.6136C172.066 15.1799 171.778 14.5307 171.555 14.1712C171.331 13.8117 171.148 13.4775 171.148 13.4282C171.148 13.091 169.207 11.0924 168.343 10.5401C167.892 10.2508 167.437 9.94359 167.332 9.85703C167.229 9.7709 166.631 9.53094 166.006 9.32397C165.38 9.11743 164.629 8.86033 164.338 8.75234C163.368 8.39454 159.011 8.39797 157.691 8.75748ZM40.0713 21.134V33.3147H43.255H46.439V21.134V8.95374H43.255H40.0713V21.134ZM137.096 14.2981C138.402 14.8898 139.576 16.3356 139.909 17.7604L140.022 18.2424H134.689H129.357L129.466 17.7025C130.092 14.5997 133.958 12.875 137.096 14.2981ZM163.365 14.3302C164.794 14.9845 166.372 17.0126 166.372 18.1962C166.372 18.2214 163.952 18.2424 160.995 18.2424H155.618L155.757 17.634C156.461 14.5393 160.238 12.8994 163.365 14.3302ZM111.18 14.2976C111.4 14.5599 111.364 14.9999 111.032 16.1393C110.878 16.6655 110.561 17.8234 109.955 20.0824C109.877 20.3717 109.563 21.4759 109.257 22.5361C108.951 23.5966 108.623 24.7399 108.53 25.0775C107.483 28.8415 107.296 29.2837 106.754 29.2837C106.317 29.2837 106.19 29.1775 105.967 28.6264C105.821 28.2648 105.624 27.8508 105.528 27.7064C105.432 27.5616 105.232 27.2068 105.084 26.9175C104.935 26.6283 104.575 26.1158 104.283 25.7786C103.606 24.9944 103.454 25.3689 106.132 21.2218C108.957 16.8494 109.043 16.5738 106.99 18.4614C106.335 19.0639 105.398 19.9235 104.908 20.3721C104.418 20.8203 103.473 21.6898 102.808 22.3038L101.597 23.4205L100.393 22.8519C99.0133 22.201 97.7815 21.7536 97.3586 21.7502C97.0472 21.7472 96.8534 21.4027 96.8534 20.8512C96.8534 20.5838 97.4221 20.238 99.4627 19.2657C100.898 18.5818 103.902 17.1292 106.14 16.0378C110.291 14.0131 110.796 13.8387 111.18 14.2976Z" fill="#0070FF"/>
</svg>
